<svg xmlns="http://www.w3.org/2000/svg" xmlns:xlink="http://www.w3.org/1999/xlink" width="62.504" height="62.504" viewBox="0 0 62.504 62.504">
  <defs>
    <clipPath id="clip-path">
      <rect id="Rectangle_378562" data-name="Rectangle 378562" width="41" height="41" transform="translate(21.651 27.212)" fill="none" stroke="#707070" stroke-width="1"/>
    </clipPath>
    <clipPath id="clip-path-2">
      <rect id="Rectangle_401083" data-name="Rectangle 401083" width="41" height="37" fill="#fff"/>
    </clipPath>
  </defs>
  <g id="Group_1099212" data-name="Group 1099212" transform="translate(-279.326 -1198.717)">
    <g id="Group_1072053" data-name="Group 1072053" transform="translate(279.326 1198.717)">
      <circle id="Ellipse_4742" data-name="Ellipse 4742" cx="31.252" cy="31.252" r="31.252" transform="translate(0)" fill="#af2323"/>
    </g>
    <g id="Group_1099208" data-name="Group 1099208" transform="translate(271.675 1181.505)">
      <g id="Group_1073351" data-name="Group 1073351" transform="translate(-1 1)" clip-path="url(#clip-path)">
        <g id="Group_1099236" data-name="Group 1099236" transform="translate(21.451 27.337)">
          <g id="Group_1099235" data-name="Group 1099235" transform="translate(0.2 0.875)" clip-path="url(#clip-path-2)">
            <path id="Path_873391" data-name="Path 873391" d="M1.754,27.869c-.338-.222-.649-.428-.962-.633-.915-.6-1.019-1.209-.406-2.121.706-1.051,1.374-2.13,2.078-3.182a2.157,2.157,0,0,0,.33-1.748,12.694,12.694,0,0,1,.525-6.608c1.213-4.321,4.192-6.51,8.224-7.4A17.793,17.793,0,0,1,23.276,7.418a11.463,11.463,0,0,1,3.98,3.059c.075.09.136.192.273.388-.288.014-.488.031-.688.031-1.6,0-3.206.012-4.808-.007a8.922,8.922,0,0,0-1.073-.151,2.591,2.591,0,0,0-1.106.415,1.2,1.2,0,0,1-1.284.111c-.576-.233-.5-.732-.612-1.143-.253-.921-.269-.961-1.191-.963-.625,0-1.251.016-1.876,0A.785.785,0,0,0,14,9.909c-.037.22-.1.435-.149.652a1.044,1.044,0,0,1-1.6.69c-1.309-.854-1.161-.747-2.134.256-.375.387-.74.786-1.119,1.169a.694.694,0,0,0-.12.977c.111.167.2.35.3.524a1.151,1.151,0,0,1-.763,1.906c-.189.05-.381.087-.57.135a.675.675,0,0,0-.559.74c.008.816.018,1.632,0,2.448a.743.743,0,0,0,.666.843c.191.041.382.084.571.134a1.14,1.14,0,0,1,.7,1.821c-.646,1.108-.646,1.108.229,2.023.4.419.808.83,1.2,1.257a.635.635,0,0,0,.936.127c.178-.125.366-.234.55-.35a1.063,1.063,0,0,1,1.742.715c.339,1.239.028,1.3,1.584,1.277.508-.008,1.018-.027,1.524.006a.762.762,0,0,0,.931-.752,3.894,3.894,0,0,1,.115-.472c.254-1,.964-1.311,1.8-.732a2.65,2.65,0,0,0,1.645.479c1.736-.031,3.473-.011,5.353-.011-.325.527-.592.961-.861,1.395a2.646,2.646,0,0,1-.23.354c-1.36,1.561-1.408,3.442-1.276,5.4A18.363,18.363,0,0,0,26.2,39.65c.27.567.031.964-.577,1.007-.389.028-.781.009-1.172.009H12.49c-.992,0-1.065-.118-1.227-1.115-.146-.9-.4-1.776-.618-2.66a.619.619,0,0,0-.734-.517c-1.327.067-2.665.012-3.981.164-2.4.279-3.089-1.218-2.94-3.12a1.026,1.026,0,0,0-.469-1.047c-.755-.565-.768-.587-.411-1.5a.549.549,0,0,0-.221-.791c-.719-.5-.734-.624-.415-1.461.092-.241.181-.484.281-.754" transform="translate(1.383 -4.429)" fill="#fff"/>
            <path id="Path_873392" data-name="Path 873392" d="M198.65,12.595c-.6.029-1.2.074-1.8.082-1.073.014-2.146,0-3.194,0-.05-.064-.1-.094-.1-.125,0-1.273-.03-1.224-1.256-1.528a1.135,1.135,0,0,1-.709-1.809,3.8,3.8,0,0,1,.217-.362.879.879,0,0,0-.142-1.37,3.578,3.578,0,0,1-.323-.379h5.925l-.731-1.236c.835,0,1.571.03,2.3-.018a1.114,1.114,0,0,0,.63-.383,3.507,3.507,0,0,0,.337-.637,1.537,1.537,0,0,0,.092-1.882,2.01,2.01,0,1,1,3.714-1.475,2.083,2.083,0,0,1-1.678,2.7.879.879,0,0,0-.772.583c-.278.6-.61,1.182-.888,1.787a.847.847,0,0,1-.876.562c-.66-.019-1.321-.005-2.046-.005a12.664,12.664,0,0,1,.637,1.693c.236,1.063.386,2.146.569,3.222.033.194.057.389.085.585l.009-.006" transform="translate(-167.516 0.583)" fill="#fff"/>
            <path id="Path_873393" data-name="Path 873393" d="M196.454,113.437a20.219,20.219,0,0,1-2.054,5.639c1.019,0,1.931.032,2.84-.012a1.009,1.009,0,0,1,1.091.7c.259.591.587,1.149.86,1.733a.74.74,0,0,0,.7.5,1.979,1.979,0,0,1,1.772,1.812A2.108,2.108,0,0,1,200.5,126a1.956,1.956,0,0,1-2.419-.642,2.083,2.083,0,0,1,0-2.541c.224-.291.163-.477.071-.8a2.139,2.139,0,0,0-2.744-1.734,10.084,10.084,0,0,1-1.651.014l.6-1.2h-5.292a8.1,8.1,0,0,1,.609-.663.859.859,0,0,0,.137-1.323,3.407,3.407,0,0,1-.181-.313c-.539-.922-.259-1.636.747-1.9l.114-.03c.964-.253.964-.253,1.083-1.416h4.894Z" transform="translate(-165.505 -98.956)" fill="#fff"/>
            <path id="Path_873394" data-name="Path 873394" d="M111.3,79.43a3.8,3.8,0,1,1-3.77-3.975,3.882,3.882,0,0,1,3.77,3.975m-6.406.007a2.617,2.617,0,1,0,2.564-2.755,2.668,2.668,0,0,0-2.564,2.755" transform="translate(-90.166 -65.63)" fill="#fff"/>
            <path id="Path_873395" data-name="Path 873395" d="M252.072,94.317q.085-.643.17-1.287l-.008.005c1.226.023,2.451.058,3.676.051.122,0,.265-.248.359-.407a1.962,1.962,0,0,1,2.319-.945,2.109,2.109,0,0,1-.276,4.075,1.9,1.9,0,0,1-2.025-1.023.721.721,0,0,0-.774-.457c-1.152.01-2.3-.016-3.456-.028l.014.015" transform="translate(-221.109 -79.834)" fill="#fff"/>
          </g>
        </g>
      </g>
    </g>
  </g>
</svg>
