<svg xmlns="http://www.w3.org/2000/svg" xmlns:xlink="http://www.w3.org/1999/xlink" width="138" height="138" viewBox="0 0 138 138">
  <defs>
    <clipPath id="clip-path">
      <rect id="Rectangle_400938" data-name="Rectangle 400938" width="138" height="138" transform="translate(0 0)" fill="none"/>
    </clipPath>
    <clipPath id="clip-path-2">
      <path id="Path_615713" data-name="Path 615713" d="M39.94,5.484C20.2,12.8,5.067,30.537,1.325,51.084A66.8,66.8,0,0,0,0,64.3a67.71,67.71,0,0,0,54.317,66.361,57.777,57.777,0,0,0,13.176,1.181c16.739-1.893,26.961-17.926,25.858-34.26-.9-16.334-1.5-35.574,13.6-45.424,3.849-3.363,7.321-6.1,10.234-8.493,8.331-5.308,11.638-17.433,4.423-24.648C108.6,5.871,89.862,0,71.084,0A90.94,90.94,0,0,0,39.94,5.484" fill="#12405a"/>
    </clipPath>
    <clipPath id="clip-path-3">
      <rect id="Rectangle_378821" data-name="Rectangle 378821" width="141.717" height="141.718" fill="#12405a"/>
    </clipPath>
    <clipPath id="clip-path-4">
      <path id="Path_615689" data-name="Path 615689" d="M78.28,77.975.307,0Q.1,1.934,0,3.876l74.407,74.4q1.937-.1,3.874-.3" transform="translate(0 0)" fill="#12405a"/>
    </clipPath>
    <clipPath id="clip-path-5">
      <path id="Path_615690" data-name="Path 615690" d="M10.05,12.622A70.855,70.855,0,0,0,22.672,22.671L0,0A71.032,71.032,0,0,0,10.05,12.622" fill="#12405a"/>
    </clipPath>
    <clipPath id="clip-path-6">
      <path id="Path_615691" data-name="Path 615691" d="M.931,5.11l53.94,53.942q2.535.554,5.1.926L0,0C.25,1.711.555,3.416.931,5.11" fill="#12405a"/>
    </clipPath>
    <clipPath id="clip-path-7">
      <path id="Path_615692" data-name="Path 615692" d="M2.473,6.657,39.508,43.691a70.145,70.145,0,0,0,6.655,2.473L0,0A69.881,69.881,0,0,0,2.473,6.657" fill="#12405a"/>
    </clipPath>
    <clipPath id="clip-path-8">
      <path id="Path_615693" data-name="Path 615693" d="M.175,4.355,65.732,69.91c1.451.106,2.9.161,4.352.177L0,0Q.021,2.178.175,4.355" fill="#12405a"/>
    </clipPath>
    <clipPath id="clip-path-9">
      <path id="Path_615694" data-name="Path 615694" d="M90.221,86.994,3.226,0C2.145.294,1.068.611,0,.957L89.266,90.222q.514-1.607.955-3.228" transform="translate(0 0)" fill="#12405a"/>
    </clipPath>
    <clipPath id="clip-path-10">
      <path id="Path_615695" data-name="Path 615695" d="M84.922,81.4,3.519,0C2.341.2,1.167.413,0,.665l84.257,84.26c.252-1.172.472-2.342.665-3.521" transform="translate(0)" fill="#12405a"/>
    </clipPath>
    <clipPath id="clip-path-11">
      <path id="Path_615696" data-name="Path 615696" d="M78.285,74.408,3.877,0C2.583.066,1.29.172,0,.308L77.978,78.283c.137-1.287.24-2.583.306-3.874" transform="translate(0)" fill="#12405a"/>
    </clipPath>
    <clipPath id="clip-path-12">
      <path id="Path_615697" data-name="Path 615697" d="M94.4,91.425,2.973,0Q1.475.571,0,1.2L93.193,94.4q.636-1.476,1.207-2.973" transform="translate(0 0)" fill="#12405a"/>
    </clipPath>
    <clipPath id="clip-path-13">
      <path id="Path_615698" data-name="Path 615698" d="M97.6,94.848,2.754,0Q1.362.681,0,1.431L96.173,97.6c.5-.913.974-1.828,1.43-2.757" transform="translate(0 0)" fill="#12405a"/>
    </clipPath>
    <clipPath id="clip-path-14">
      <path id="Path_615699" data-name="Path 615699" d="M69.914,65.734,4.359.177Q2.179.022,0,0L70.091,70.092c-.016-1.454-.073-2.909-.177-4.358" fill="#12405a"/>
    </clipPath>
    <clipPath id="clip-path-15">
      <path id="Path_615700" data-name="Path 615700" d="M43.689,39.5,6.661,2.475Q3.384,1.068,0,0L46.166,46.163A69.944,69.944,0,0,0,43.689,39.5" fill="#12405a"/>
    </clipPath>
    <clipPath id="clip-path-16">
      <path id="Path_615701" data-name="Path 615701" d="M84.918,84.256.661,0Q.285,1.748,0,3.517l81.4,81.4q1.765-.289,3.515-.663" transform="translate(0)" fill="#12405a"/>
    </clipPath>
    <clipPath id="clip-path-17">
      <path id="Path_615702" data-name="Path 615702" d="M12.622,10.051A71.214,71.214,0,0,0,0,0L22.673,22.676A71,71,0,0,0,12.622,10.051" fill="#12405a"/>
    </clipPath>
    <clipPath id="clip-path-18">
      <path id="Path_615703" data-name="Path 615703" d="M59.048,54.871,5.108.931C3.416.555,1.711.25,0,0L59.98,59.976c-.25-1.709-.558-3.415-.931-5.106" fill="#12405a"/>
    </clipPath>
    <clipPath id="clip-path-19">
      <path id="Path_615704" data-name="Path 615704" d="M99.931,97.376,2.555,0C1.693.523.839,1.064,0,1.626l98.3,98.3q.845-1.266,1.63-2.555" transform="translate(0)" fill="#12405a"/>
    </clipPath>
    <clipPath id="clip-path-20">
      <path id="Path_615705" data-name="Path 615705" d="M99.929,98.3,1.629,0Q.784,1.259,0,2.551L97.379,99.929c.856-.52,1.708-1.067,2.55-1.629" transform="translate(0 0)" fill="#12405a"/>
    </clipPath>
    <clipPath id="clip-path-21">
      <path id="Path_615706" data-name="Path 615706" d="M97.605,96.174,1.432,0Q.684,1.362,0,2.757L94.849,97.6c.927-.454,1.845-.934,2.756-1.431" transform="translate(0 0)" fill="#12405a"/>
    </clipPath>
    <clipPath id="clip-path-22">
      <path id="Path_615707" data-name="Path 615707" d="M94.4,93.192,1.207,0C.781.984.376,1.979,0,2.98L91.423,94.4q1.5-.57,2.979-1.211" fill="#12405a"/>
    </clipPath>
    <clipPath id="clip-path-23">
      <path id="Path_615708" data-name="Path 615708" d="M90.229,89.269.957,0Q.441,1.606,0,3.23L87,90.224c1.084-.294,2.158-.61,3.233-.955" transform="translate(0 0)" fill="#12405a"/>
    </clipPath>
    <clipPath id="clip-path-24">
      <path id="Path_615709" data-name="Path 615709" d="M101.447,99.63,1.82,0C1.2.78.585,1.564,0,2.363l99.091,99.089c.795-.587,1.578-1.2,2.356-1.821" fill="#12405a"/>
    </clipPath>
    <clipPath id="clip-path-25">
      <path id="Path_615710" data-name="Path 615710" d="M102.192,100.011,2.182,0Q1.073.975,0,2L100.193,102.193q1.027-1.077,2-2.182" transform="translate(0 0)" fill="#12405a"/>
    </clipPath>
    <clipPath id="clip-path-26">
      <path id="Path_615711" data-name="Path 615711" d="M102.195,100.19,2,0Q.974,1.074,0,2.179L100.012,102.193q1.106-.974,2.182-2" transform="translate(0 0)" fill="#12405a"/>
    </clipPath>
    <clipPath id="clip-path-27">
      <path id="Path_615712" data-name="Path 615712" d="M101.45,99.091,2.362,0C1.563.587.78,1.2,0,1.823l99.627,99.628c.626-.776,1.236-1.564,1.823-2.36" transform="translate(0)" fill="#12405a"/>
    </clipPath>
    <clipPath id="clip-path-28">
      <rect id="Rectangle_401132" data-name="Rectangle 401132" width="71.808" height="65.535" fill="#fff"/>
    </clipPath>
  </defs>
  <g id="Group_1099547" data-name="Group 1099547" transform="translate(-574 -1666)">
    <g id="Group_1099298" data-name="Group 1099298" transform="translate(266 -7869)">
      <g id="Mask_Group_1098657" data-name="Mask Group 1098657" transform="translate(308 9535)" clip-path="url(#clip-path)">
        <g id="Group_1098881" data-name="Group 1098881" transform="translate(3.03 130.371) rotate(-90)">
          <g id="Group_1074821" data-name="Group 1074821" transform="translate(0 0)" clip-path="url(#clip-path-2)">
            <g id="Group_1074820" data-name="Group 1074820" transform="translate(-5.034 -9.854)" opacity="0.5">
              <g id="Group_1074819" data-name="Group 1074819" style="isolation: isolate">
                <g id="Group_1074818" data-name="Group 1074818" clip-path="url(#clip-path-3)">
                  <g id="Group_1074771" data-name="Group 1074771" transform="translate(0.086 63.35)">
                    <g id="Group_1074770" data-name="Group 1074770" transform="translate(0 0)" clip-path="url(#clip-path-4)">
                      <rect id="Rectangle_378797" data-name="Rectangle 378797" width="110.705" height="110.705" transform="translate(-39.14 39.14) rotate(-45)" fill="#12405a"/>
                    </g>
                  </g>
                  <g id="Group_1074773" data-name="Group 1074773" transform="translate(10.699 108.346)">
                    <g id="Group_1074772" data-name="Group 1074772" clip-path="url(#clip-path-5)">
                      <rect id="Rectangle_378798" data-name="Rectangle 378798" width="32.062" height="32.062" transform="translate(-11.336 11.336) rotate(-45)" fill="#12405a"/>
                    </g>
                  </g>
                  <g id="Group_1074775" data-name="Group 1074775" transform="translate(0.718 81.021)">
                    <g id="Group_1074774" data-name="Group 1074774" clip-path="url(#clip-path-6)">
                      <rect id="Rectangle_378799" data-name="Rectangle 378799" width="84.821" height="84.821" transform="translate(-29.989 29.989) rotate(-45)" fill="#12405a"/>
                    </g>
                  </g>
                  <g id="Group_1074777" data-name="Group 1074777" transform="translate(3.291 92.262)">
                    <g id="Group_1074776" data-name="Group 1074776" clip-path="url(#clip-path-7)">
                      <rect id="Rectangle_378800" data-name="Rectangle 378800" width="65.285" height="65.285" transform="translate(-23.082 23.082) rotate(-45)" fill="#12405a"/>
                    </g>
                  </g>
                  <g id="Group_1074779" data-name="Group 1074779" transform="translate(0 71.63)">
                    <g id="Group_1074778" data-name="Group 1074778" clip-path="url(#clip-path-8)">
                      <rect id="Rectangle_378801" data-name="Rectangle 378801" width="99.116" height="99.116" transform="translate(-35.044 35.044) rotate(-45)" fill="#12405a"/>
                    </g>
                  </g>
                  <g id="Group_1074781" data-name="Group 1074781" transform="translate(49.031 2.465)">
                    <g id="Group_1074780" data-name="Group 1074780" transform="translate(0 0)" clip-path="url(#clip-path-9)">
                      <rect id="Rectangle_378802" data-name="Rectangle 378802" width="127.592" height="127.592" transform="translate(-45.111 45.111) rotate(-45)" fill="#12405a"/>
                    </g>
                  </g>
                  <g id="Group_1074783" data-name="Group 1074783" transform="translate(55.871 0.924)">
                    <g id="Group_1074782" data-name="Group 1074782" transform="translate(0 0)" clip-path="url(#clip-path-10)">
                      <rect id="Rectangle_378803" data-name="Rectangle 378803" width="120.1" height="120.1" transform="translate(-42.463 42.463) rotate(-45)" fill="#12405a"/>
                    </g>
                  </g>
                  <g id="Group_1074785" data-name="Group 1074785" transform="translate(63.346 0.087)">
                    <g id="Group_1074784" data-name="Group 1074784" transform="translate(0 0)" clip-path="url(#clip-path-11)">
                      <rect id="Rectangle_378804" data-name="Rectangle 378804" width="110.71" height="110.71" transform="translate(-39.141 39.141) rotate(-45)" fill="#12405a"/>
                    </g>
                  </g>
                  <g id="Group_1074787" data-name="Group 1074787" transform="translate(42.731 4.587)">
                    <g id="Group_1074786" data-name="Group 1074786" transform="translate(0 0)" clip-path="url(#clip-path-12)">
                      <rect id="Rectangle_378805" data-name="Rectangle 378805" width="133.5" height="133.5" transform="translate(-47.199 47.199) rotate(-45)" fill="#12405a"/>
                    </g>
                  </g>
                  <g id="Group_1074789" data-name="Group 1074789" transform="translate(36.903 7.211)">
                    <g id="Group_1074788" data-name="Group 1074788" transform="translate(0 0)" clip-path="url(#clip-path-13)">
                      <rect id="Rectangle_378806" data-name="Rectangle 378806" width="138.033" height="138.033" transform="translate(-48.802 48.802) rotate(-45)" fill="#12405a"/>
                    </g>
                  </g>
                  <g id="Group_1074791" data-name="Group 1074791" transform="translate(71.626 0)">
                    <g id="Group_1074790" data-name="Group 1074790" clip-path="url(#clip-path-14)">
                      <rect id="Rectangle_378807" data-name="Rectangle 378807" width="99.124" height="99.124" transform="translate(-35.046 35.046) rotate(-45)" fill="#12405a"/>
                    </g>
                  </g>
                  <g id="Group_1074793" data-name="Group 1074793" transform="translate(92.262 3.291)">
                    <g id="Group_1074792" data-name="Group 1074792" clip-path="url(#clip-path-15)">
                      <rect id="Rectangle_378808" data-name="Rectangle 378808" width="65.286" height="65.286" transform="translate(-23.082 23.082) rotate(-45)" fill="#12405a"/>
                    </g>
                  </g>
                  <g id="Group_1074795" data-name="Group 1074795" transform="translate(0.924 55.875)">
                    <g id="Group_1074794" data-name="Group 1074794" transform="translate(0 0)" clip-path="url(#clip-path-16)">
                      <rect id="Rectangle_378809" data-name="Rectangle 378809" width="120.093" height="120.093" transform="translate(-42.459 42.459) rotate(-45)" fill="#12405a"/>
                    </g>
                  </g>
                  <g id="Group_1074797" data-name="Group 1074797" transform="translate(108.346 10.698)">
                    <g id="Group_1074796" data-name="Group 1074796" clip-path="url(#clip-path-17)">
                      <rect id="Rectangle_378810" data-name="Rectangle 378810" width="32.067" height="32.067" transform="translate(-11.338 11.338) rotate(-45)" fill="#12405a"/>
                    </g>
                  </g>
                  <g id="Group_1074799" data-name="Group 1074799" transform="translate(81.02 0.72)">
                    <g id="Group_1074798" data-name="Group 1074798" clip-path="url(#clip-path-18)">
                      <rect id="Rectangle_378811" data-name="Rectangle 378811" width="84.822" height="84.822" transform="translate(-29.988 29.988) rotate(-45)" fill="#12405a"/>
                    </g>
                  </g>
                  <g id="Group_1074801" data-name="Group 1074801" transform="translate(31.502 10.285)">
                    <g id="Group_1074800" data-name="Group 1074800" transform="translate(0 0)" clip-path="url(#clip-path-19)">
                      <rect id="Rectangle_378812" data-name="Rectangle 378812" width="141.324" height="141.324" transform="translate(-49.965 49.965) rotate(-45)" fill="#12405a"/>
                    </g>
                  </g>
                  <g id="Group_1074803" data-name="Group 1074803" transform="translate(10.283 31.504)">
                    <g id="Group_1074802" data-name="Group 1074802" transform="translate(0 0)" clip-path="url(#clip-path-20)">
                      <rect id="Rectangle_378813" data-name="Rectangle 378813" width="141.321" height="141.321" transform="translate(-49.964 49.964) rotate(-45)" fill="#12405a"/>
                    </g>
                  </g>
                  <g id="Group_1074805" data-name="Group 1074805" transform="translate(7.209 36.903)" style="isolation: isolate">
                    <g id="Group_1074804" data-name="Group 1074804" transform="translate(0 0)" clip-path="url(#clip-path-21)">
                      <rect id="Rectangle_378814" data-name="Rectangle 378814" width="138.034" height="138.034" transform="translate(-48.802 48.802) rotate(-45)" fill="#12405a"/>
                    </g>
                  </g>
                  <g id="Group_1074807" data-name="Group 1074807" transform="translate(4.587 42.73)">
                    <g id="Group_1074806" data-name="Group 1074806" transform="translate(0 0)" clip-path="url(#clip-path-22)">
                      <rect id="Rectangle_378815" data-name="Rectangle 378815" width="133.505" height="133.505" transform="translate(-47.201 47.201) rotate(-45)" fill="#12405a"/>
                    </g>
                  </g>
                  <g id="Group_1074809" data-name="Group 1074809" transform="translate(2.463 49.028)">
                    <g id="Group_1074808" data-name="Group 1074808" transform="translate(0 0)" clip-path="url(#clip-path-23)">
                      <rect id="Rectangle_378816" data-name="Rectangle 378816" width="127.599" height="127.599" transform="translate(-45.112 45.112) rotate(-45)" fill="#12405a"/>
                    </g>
                  </g>
                  <g id="Group_1074811" data-name="Group 1074811" transform="translate(13.765 26.502)">
                    <g id="Group_1074810" data-name="Group 1074810" transform="translate(0 0)" clip-path="url(#clip-path-24)">
                      <rect id="Rectangle_378817" data-name="Rectangle 378817" width="143.471" height="143.471" transform="translate(-50.726 50.726) rotate(-45)" fill="#12405a"/>
                    </g>
                  </g>
                  <g id="Group_1074813" data-name="Group 1074813" transform="translate(21.885 17.64)">
                    <g id="Group_1074812" data-name="Group 1074812" transform="translate(0 0)" clip-path="url(#clip-path-25)">
                      <rect id="Rectangle_378818" data-name="Rectangle 378818" width="144.522" height="144.522" transform="translate(-51.097 51.097) rotate(-45)" fill="#12405a"/>
                    </g>
                  </g>
                  <g id="Group_1074815" data-name="Group 1074815" transform="translate(17.639 21.886)">
                    <g id="Group_1074814" data-name="Group 1074814" transform="translate(0 0)" clip-path="url(#clip-path-26)">
                      <rect id="Rectangle_378819" data-name="Rectangle 378819" width="144.524" height="144.524" transform="translate(-51.096 51.096) rotate(-45)" fill="#12405a"/>
                    </g>
                  </g>
                  <g id="Group_1074817" data-name="Group 1074817" transform="translate(26.503 13.762)">
                    <g id="Group_1074816" data-name="Group 1074816" transform="translate(0 0)" clip-path="url(#clip-path-27)">
                      <rect id="Rectangle_378820" data-name="Rectangle 378820" width="143.473" height="143.473" transform="translate(-50.726 50.726) rotate(-45)" fill="#12405a"/>
                    </g>
                  </g>
                </g>
              </g>
            </g>
          </g>
        </g>
      </g>
      <ellipse id="Ellipse_11492" data-name="Ellipse 11492" cx="42.5" cy="45" rx="42.5" ry="45" transform="translate(351 9539)" fill="#b1ec93" opacity="0.6"/>
      <path id="Union_5" data-name="Union 5" d="M0,54a54,54,0,1,1,54,54A54,54,0,0,1,0,54Z" transform="translate(322 9549)" fill="#af2323" stroke="rgba(0,0,0,0)" stroke-miterlimit="10" stroke-width="1"/>
      <g id="Group_1098912" data-name="Group 1098912" transform="translate(339.667 9565.986)">
        <path id="Path_873216" data-name="Path 873216" d="M0,0H71.808V71.81H0Z" transform="translate(0 0)" fill="none"/>
        <g id="Group_1099305" data-name="Group 1099305" transform="translate(0 3.137)">
          <g id="Group_1099304" data-name="Group 1099304" clip-path="url(#clip-path-28)">
            <path id="Path_873623" data-name="Path 873623" d="M99.256,22.052c-1.563,0-3.126-.02-4.689.009-.738.014-1.311-.231-1.339-.993C93.2,20.22,93.8,20,94.584,20c3.126.024,6.251.019,9.377,0,.714,0,1.312.151,1.333.969.022.87-.574,1.093-1.349,1.082-1.562-.021-3.126-.006-4.689-.006" transform="translate(-72.317 -15.518)" fill="#fff"/>
            <path id="Path_873624" data-name="Path 873624" d="M287.268,20.035c.56-.025.893.425.886,1.04a.946.946,0,0,1-.995,1,.972.972,0,0,1-1.1-1c-.02-.646.362-1.029,1.21-1.034" transform="translate(-221.895 -15.54)" fill="#fff"/>
            <path id="Path_873625" data-name="Path 873625" d="M71.77,4.179c0-.3.014-.6-.008-.9A3.462,3.462,0,0,0,68.393.045c-2.54-.031-5.081-.01-7.622-.007a1.106,1.106,0,0,0-.75.149,1.048,1.048,0,0,0-.477,1.153c.158.639.639.776,1.194.778,2.354.007,4.708-.01,7.062.011,1.4.013,1.879.509,1.9,1.9.013.971,0,1.943,0,2.914,0,1.9,0,1.9-1.846,1.9H20.327c-.822,0-1.646-.037-2.465.012-.622.037-.851-.139-.823-.8.052-1.193.015-2.391.015-3.586,0-2.066.29-2.35,2.4-2.35q17.542,0,35.085,0c.41,0,.821-.009,1.231-.037a.907.907,0,0,0,.907-.95A1,1,0,0,0,55.764.051a5.894,5.894,0,0,0-.9-.015C42.912.036,30.956.078,19,0a3.856,3.856,0,0,0-4.143,4.15c.034,11.246.015,22.492.016,33.737a3.6,3.6,0,0,0,.029.782c.132.587.423,1.075,1.117,1.027a1.063,1.063,0,0,0,1.028-1.113c.022-.3.006-.6.006-.9,0-8.518.016-17.037-.022-25.555,0-.915.191-1.164,1.141-1.163q25.165.05,50.329,0c.98,0,1.226.22,1.224,1.216q-.053,24.378-.025,48.756c0,2.131-.333,2.465-2.459,2.465q-23.932,0-47.863,0a7.051,7.051,0,0,1-1.329-.123,1.146,1.146,0,0,1-.985-1.18c-.028-.884-.007-1.768-.007-2.722.368.1.614.187.865.241a3.624,3.624,0,0,0,4.514-3.409c.056-3.511.041-7.024,0-10.536a3,3,0,0,0-2.823-3.061,102,102,0,0,0-11.2.009,3.492,3.492,0,0,0-3.077,4.226c.206,1.256,1.082,1.994,1.914,2.91C5.183,51.814,3.1,53.845,1.051,55.914a2.986,2.986,0,0,0,0,4.549c1.066,1.1,2.161,2.17,3.247,3.249,1.728,1.718,3.28,1.714,5.018-.034,1.779-1.79,3.543-3.6,5.314-5.395l.242.151c0,1.008.019,2.017,0,3.024a3.793,3.793,0,0,0,4.1,4.069q24.324-.1,48.647.006a3.94,3.94,0,0,0,4.19-4.193c-.068-19.054-.037-38.108-.037-57.163M13.082,56.916c-1.77,1.768-3.563,3.514-5.3,5.312-.694.718-1.244.789-1.949.032-.992-1.065-2.02-2.1-3.087-3.09-.744-.69-.75-1.235-.017-1.948,2.088-2.031,4.132-4.109,6.191-6.17,1.225-1.226,1.221-1.446-.027-2.705C8.549,48,8.2,47.661,7.866,47.31a1.485,1.485,0,0,1-.342-1.744,1.545,1.545,0,0,1,1.515-.938c1.644.012,3.288,0,4.932,0,1.607,0,3.213-.008,4.82,0,1.14.007,1.584.41,1.59,1.52.017,3.213.009,6.426,0,9.639a1.671,1.671,0,0,1-1.039,1.694,1.573,1.573,0,0,1-1.812-.493c-.055-.05-.106-.105-.158-.159-2.279-2.372-2.092-2.12-4.295.081" transform="translate(0 0)" fill="#fff"/>
            <path id="Path_873627" data-name="Path 873627" d="M147.753,189.53a3.2,3.2,0,0,0-3.473-3.476q-15.07-.008-30.139,0a3.114,3.114,0,0,0-3.439,3.362q-.038,6.05,0,12.1c.012,2.233,1.23,3.4,3.49,3.4q7.507.008,15.014,0,7.563,0,15.126,0a3.159,3.159,0,0,0,3.422-3.4q.016-5.994,0-11.988m-22.414,6.048c0,1.194,0,2.389,0,3.583,0,.677-.229,1.193-.975,1.25-.828.064-1.146-.495-1.154-1.193q-.042-3.75,0-7.5c.007-.663.351-1.2,1.089-1.154a1.057,1.057,0,0,1,1.038,1.208c-.007,1.269,0,2.538,0,3.807m8.991,4.746c-.648.227-1.051-.207-1.383-.68-1-1.421-1.982-2.851-3.163-4.553,0,1.471,0,2.639,0,3.807,0,.764-.139,1.493-1.087,1.5s-1.111-.688-1.109-1.468c0-2.277.017-4.554-.007-6.831-.007-.7.139-1.3.865-1.5s1.062.341,1.41.849c.981,1.433,1.979,2.855,3.134,4.518,0-1.536.008-2.766,0-3.995-.007-.759.22-1.4,1.07-1.407.873-.01,1.068.668,1.076,1.4.025,2.314.041,4.628.073,6.942a1.318,1.318,0,0,1-.875,1.409" transform="translate(-85.857 -144.319)" fill="#fff"/>
            <g id="Group_1099306" data-name="Group 1099306">
              <path id="Path_873626" data-name="Path 873626" d="M150.436,61.571a12.362,12.362,0,1,0,12.331,12.346,12.394,12.394,0,0,0-12.331-12.346m4.148,21.715a9.514,9.514,0,0,1-4.035.827A9.2,9.2,0,0,1,145.756,83c-1.217-.648-1.43-1.225-1.116-3.076a2.458,2.458,0,0,1,2.157-2.094,5.459,5.459,0,0,1,.559-.011c1.867-.02,1.872-.02,2.052,1.791.066.669.3,1.17,1.078,1.138.761-.032.983-.524,1.02-1.2.095-1.733.1-1.733,1.858-1.726,2.016.008,2.755.894,2.917,2.942a2.187,2.187,0,0,1-1.7,2.521m-2.855-7.892a2.686,2.686,0,0,1-3.023-.366c-1.2-.922-1.633-3.806-.637-4.929,1.027-1.158,2.493-1.055,3.812-.811,1.139.21,1.316,1.288,1.4,2.264.023.259,0,.521,0,.737.136,1.4.053,2.245-1.18,2.874m6.355,4.972a4.931,4.931,0,0,0-3.929-4.416,6.567,6.567,0,0,0,.767-4.974c-.352-2.4-2-3.577-4.861-3.569-4.159.011-6.367,3.877-4.484,7.853.111.234.247.455.373.686a4.831,4.831,0,0,0-3.866,4.481c-3.357-3.862-2.862-10.094.985-13.732a10.234,10.234,0,0,1,14.144.124c3.744,3.646,4.185,9.9.872,13.548" transform="translate(-107.097 -47.761)" fill="#fff"/>
              <path id="Elipse_11507" data-name="Elipse 11507" d="M5.844,3A2.585,2.585,0,0,0,3.188,5.5,2.585,2.585,0,0,0,5.844,8,2.585,2.585,0,0,0,8.5,5.5,2.585,2.585,0,0,0,5.844,3m0-3a5.68,5.68,0,0,1,5.844,5.5A5.68,5.68,0,0,1,5.844,11,5.68,5.68,0,0,1,0,5.5,5.68,5.68,0,0,1,5.844,0Z" transform="translate(37.333 18.877)" fill="#fff"/>
            </g>
          </g>
        </g>
      </g>
    </g>
  </g>
</svg>
