<svg xmlns="http://www.w3.org/2000/svg" width="107.075" height="95.621" viewBox="0 0 107.075 95.621">
  <g id="Group_1098872" data-name="Group 1098872" transform="translate(-1272.823 -398.532)">
    <path id="Union_4" data-name="Union 4" d="M76.177,93.263a49.434,49.434,0,0,1-4.36-4.735C63.263,77.3,50.6,78.289,37.594,79.189c-9.715.669-19.614,1.293-28.132-3.273A21.286,21.286,0,0,1,1.069,63.06,48.507,48.507,0,0,1,0,52.4,53.18,53.18,0,0,1,32.824,3.659a52.045,52.045,0,0,1,10-3.02A49.6,49.6,0,0,1,52.943.044,56.55,56.55,0,0,1,63.2,1.435,50.451,50.451,0,0,1,82.8,11.963a59.873,59.873,0,0,1,7.919,8.2c10.6,14.334,17.835,31.232,14.545,49.1C102.484,80.041,94.3,94.621,82.5,94.621A16.134,16.134,0,0,1,76.177,93.263Z" transform="translate(1379.398 493.654) rotate(180)" fill="#12405a" stroke="rgba(0,0,0,0)" stroke-miterlimit="10" stroke-width="1"/>
    <g id="computadora-de-escritorio" transform="translate(1301.401 424.774)">
      <path id="Path_615716" data-name="Path 615716" d="M30.132,3.835,19.107.085a1.548,1.548,0,0,0-1.012,0L7.069,3.835A1.573,1.573,0,0,0,6,5.326v8.438c0,10.3,11.5,15.305,11.985,15.513a1.6,1.6,0,0,0,.615.124,1.566,1.566,0,0,0,.615-.126C19.705,29.07,31.2,24.063,31.2,13.764V5.326a1.573,1.573,0,0,0-1.069-1.491ZM25.5,11.8l-5.775,7.35a2.094,2.094,0,0,1-1.445.792,1.711,1.711,0,0,1-.206.011,2.084,2.084,0,0,1-1.365-.506L13.035,16.3a2.1,2.1,0,1,1,2.73-3.188l2.012,1.724L22.2,9.205A2.1,2.1,0,0,1,25.5,11.8Z" transform="translate(6.6 0.001)" fill="#f3f9ff"/>
      <path id="Path_615717" data-name="Path 615717" d="M46.727,4H42V8.2h4.2V31.3H4.2V8.2H8.4V4H3.675A3.693,3.693,0,0,0,0,7.675V36.026A3.693,3.693,0,0,0,3.675,39.7H19.758a9.495,9.495,0,0,1-2.65,4.507A1.051,1.051,0,0,0,17.851,46h14.7a1.051,1.051,0,0,0,.743-1.793A9.733,9.733,0,0,1,30.617,39.7h16.11A3.693,3.693,0,0,0,50.4,36.026V7.675A3.693,3.693,0,0,0,46.727,4Z" transform="translate(0 4.401)" fill="#f3f9ff"/>
    </g>
  </g>
</svg>
