<svg xmlns="http://www.w3.org/2000/svg" xmlns:xlink="http://www.w3.org/1999/xlink" width="1030" height="356.396" viewBox="0 0 1030 356.396">
  <defs>
    <clipPath id="clip-path">
      <path id="Path_611005" data-name="Path 611005" d="M0,0H1030V355.4H0Z" transform="translate(0 0)" fill="#d7f5f7"/>
    </clipPath>
    <clipPath id="clip-path-2">
      <rect id="Rectangle_401182" data-name="Rectangle 401182" width="944.132" height="222.046" fill="none"/>
    </clipPath>
    <clipPath id="clip-path-3">
      <path id="Path_873778" data-name="Path 873778" d="M196.076,93.138s4.714,7.732,13.511,2.144a6.408,6.408,0,0,0-6.214-4.513,15.083,15.083,0,0,0-7.3,2.369" transform="translate(-196.076 -90.769)" fill="none"/>
    </clipPath>
    <clipPath id="clip-path-5">
      <path id="Path_873782" data-name="Path 873782" d="M243.845,94.59c6,5.337,9.493-2.752,9.493-2.752a6.281,6.281,0,0,0-4.166-2.007c-3.522,0-5.327,4.759-5.327,4.759" transform="translate(-243.845 -89.831)" fill="none"/>
    </clipPath>
    <clipPath id="clip-path-7">
      <path id="Path_873806" data-name="Path 873806" d="M1870.018,145.08c-18.605,21.515-15.545,57.084-15.545,57.084,8.337-28.931,35.967-51.06,35.967-51.06l-8.421-6.169Z" transform="translate(-1854.285 -144.935)" fill="none"/>
    </clipPath>
    <clipPath id="clip-path-9">
      <path id="Path_873831" data-name="Path 873831" d="M1889.49,65.845c6.368,4.693,9.616-1.646,9.616-1.646a10.87,10.87,0,0,0-5.152-1.627,4.571,4.571,0,0,0-4.464,3.273" transform="translate(-1889.49 -62.572)" fill="none"/>
    </clipPath>
    <clipPath id="clip-path-11">
      <path id="Path_873835" data-name="Path 873835" d="M1861.591,63.744s1.713,5.946,6.793,1.881c0,0-1.317-3.348-3.807-3.348a4.448,4.448,0,0,0-2.987,1.468" transform="translate(-1861.591 -62.276)" fill="none"/>
    </clipPath>
  </defs>
  <g id="Group_1099535" data-name="Group 1099535" transform="translate(-285 -6128.138)">
    <g id="Group_1073695" data-name="Group 1073695" transform="translate(285 6128.138)">
      <path id="Path_608309" data-name="Path 608309" d="M0,0H1030V355.4H0Z" fill="#d7f5f7"/>
    </g>
    <path id="Path_873845" data-name="Path 873845" d="M-8462.491-9500.5v614.549" transform="translate(10004.951 -2051.221) rotate(-90)" fill="none" stroke="#6ed3d6" stroke-width="2"/>
    <g id="Group_1099438" data-name="Group 1099438" transform="translate(311.134 6178.184)">
      <g id="Group_1099437" data-name="Group 1099437" clip-path="url(#clip-path-2)">
        <path id="Path_873740" data-name="Path 873740" d="M161.626,117.686H122.9a12.867,12.867,0,0,0-12.867,12.867V251.51A12.867,12.867,0,0,0,122.9,264.377H243.859a12.867,12.867,0,0,0,12.867-12.867V212.8a21.768,21.768,0,1,0,0-43.537v-38.71a12.867,12.867,0,0,0-12.867-12.867H205.135a21.757,21.757,0,0,1-43.508,0" transform="translate(-59.383 -63.512)" fill="#216102"/>
        <path id="Path_873741" data-name="Path 873741" d="M1161.846,236.85h38.71a12.868,12.868,0,0,0,12.868-12.867v-38.71a21.769,21.769,0,0,0,0-43.537v-38.7a12.867,12.867,0,0,0-12.867-12.867h-38.724a3.591,3.591,0,0,0,.014-.392,21.769,21.769,0,0,0-43.537,0,3.591,3.591,0,0,0,.014.392h-38.71a12.867,12.867,0,0,0-12.867,12.867v38.7a21.769,21.769,0,0,1,0,43.537v38.71a12.867,12.867,0,0,0,12.867,12.867h38.7a21.769,21.769,0,1,1,43.537,0" transform="translate(-575.696 -36.705)" fill="#6ed3d6"/>
        <path id="Path_873742" data-name="Path 873742" d="M1810.854,90.191h-38.71a21.768,21.768,0,1,0-43.537,0H1689.9a12.958,12.958,0,0,0-12.943,12.9V141.8a21.769,21.769,0,0,0,0,43.537v38.71a12.867,12.867,0,0,0,12.867,12.867h38.724c0-.012,0-.023,0-.035h43.505c0,.012,0,.023,0,.035h38.724a12.958,12.958,0,0,0,12.943-12.9V103.058a12.867,12.867,0,0,0-12.867-12.867" transform="translate(-893.262 -36.926)" fill="#124877"/>
        <path id="Path_873743" data-name="Path 873743" d="M1530.56,249.316v-38.71a21.769,21.769,0,1,1,0-43.537v-38.71c0-.254.01-.505.024-.755a12.865,12.865,0,0,0-12.857-12.463h-38.7a21.769,21.769,0,0,1-43.537,0h-38.71a12.867,12.867,0,0,0-12.867,12.867v38.7a21.769,21.769,0,0,1,0,43.537v38.71a12.867,12.867,0,0,0,12.867,12.867h38.71a21.769,21.769,0,1,0,43.537,0h38.7a12.866,12.866,0,0,0,12.843-12.108c0-.131-.01-.261-.01-.393" transform="translate(-746.865 -62.138)" fill="#0d599b"/>
        <path id="Path_873744" data-name="Path 873744" d="M868.987,168c-.028,0-.055,0-.082,0V129.4a13.222,13.222,0,0,0-13.176-12.956h-38.7a21.615,21.615,0,1,1-43.228.089H773.5c0-.03,0-.059,0-.089h-38.71a12.867,12.867,0,0,0-12.867,12.867V168c.1,0,.206.006.31.008v.1a21.766,21.766,0,0,0-.31,43.529v38.615a13.248,13.248,0,0,0,12.418,12.931c.131,0,.261-.01.393-.01h38.71c0-.018,0-.036,0-.054h.055a21.768,21.768,0,0,0,43.536.054h38.655c.254,0,.5.009.755.024A12.865,12.865,0,0,0,868.9,250.339v-38.7c-.1,0-.206-.006-.31-.008v-.11a3.607,3.607,0,0,0,.392.014,21.769,21.769,0,0,0,0-43.537" transform="translate(-378.021 -62.84)" fill="#b1ec93"/>
        <path id="Path_873745" data-name="Path 873745" d="M25.837,304.215,1.994,339.858c-8.336,13.049,11.595,26.5,20.61,13.987,0,0,40.595-54.182,40.595-54.182Z" transform="translate(0 -161.721)" fill="#dc7c59"/>
        <path id="Path_873746" data-name="Path 873746" d="M76.323,218.878c-15.054-4.952-37.991,33.88-47.052,47.895l36.342,23.921c6.738-11.069,51.631-55.752,10.71-71.816" transform="translate(-15.797 -117.889)" fill="#12405a"/>
        <path id="Path_873747" data-name="Path 873747" d="M261.586,218.444s26.046,1.7,27.093,40.006L270.8,262.571Z" transform="translate(-141.171 -117.889)" fill="#12405a"/>
        <path id="Path_873748" data-name="Path 873748" d="M108.732,213.511c29.11-5.351,45.216-5.35,67.071.849,24.739,7.017,3.791,73.814-2.016,99.15h-57.96L96.319,238.164c2.669-6.029,3.306-24.1,12.413-24.653" transform="translate(-51.981 -113.115)" fill="#12405a"/>
        <path id="Path_873749" data-name="Path 873749" d="M112.25,331.935a.4.4,0,0,1-.387-.308l-6.929-29.293a.4.4,0,0,1,.3-.478.386.386,0,0,1,.478.3l6.929,29.293a.4.4,0,0,1-.3.478.305.305,0,0,1-.091.012" transform="translate(-56.624 -162.895)"/>
        <path id="Path_873750" data-name="Path 873750" d="M282.668,310.169a.342.342,0,0,1-.055,0,.4.4,0,0,1-.338-.451l4.174-29.294a.379.379,0,0,1,.45-.338.4.4,0,0,1,.338.45l-4.174,29.3a.4.4,0,0,1-.395.342" transform="translate(-152.335 -151.15)"/>
        <path id="Path_873751" data-name="Path 873751" d="M182.545,215.793l-18.108-11.187.955-6.2H162.4a4.667,4.667,0,0,0-3.3,1.363l-5.43,5.418,12.474,18.7a3.944,3.944,0,0,0,5.821.827Z" transform="translate(-82.935 -107.072)" fill="#fff"/>
        <path id="Path_873752" data-name="Path 873752" d="M221.825,198.4h2.251a4.669,4.669,0,0,1,3.878,2.071l3.752,5.606-1.635,16.2a2.111,2.111,0,0,1-3.391,1.459l-10.288-7.945,5.8-9.693Z" transform="translate(-116.781 -107.072)" fill="#fff"/>
        <path id="Path_873753" data-name="Path 873753" d="M216.081,250.853a1.794,1.794,0,1,1-1.793-1.794,1.794,1.794,0,0,1,1.793,1.794" transform="translate(-114.678 -134.411)" fill="#fff"/>
        <path id="Path_873754" data-name="Path 873754" d="M216.949,266.377a1.794,1.794,0,1,1-1.794-1.792,1.794,1.794,0,0,1,1.794,1.792" transform="translate(-115.146 -142.79)" fill="#fff"/>
        <path id="Path_873755" data-name="Path 873755" d="M182.033,330.383s10.111-17.908,36.62-7.322l-10.277,21.857-23.181-.794Z" transform="translate(-98.239 -172.541)" fill="#dc7c59"/>
        <path id="Path_873756" data-name="Path 873756" d="M98.535,342.892,27.313,355.106l4.164,26.56L101.7,356.632Z" transform="translate(-14.74 -185.05)" fill="#dc7c59"/>
        <path id="Path_873757" data-name="Path 873757" d="M44.764,362.784a.4.4,0,0,1-.067-.791L62.1,359.007a.388.388,0,0,1,.459.326.4.4,0,0,1-.326.458l-17.406,2.986a.5.5,0,0,1-.067.006" transform="translate(-23.943 -193.744)"/>
        <path id="Path_873758" data-name="Path 873758" d="M187.35,374.374l-4.828-5.365,29.328-68.867s52.628-8.859,74.152-1.561Z" transform="translate(-98.502 -159.581)" fill="#fff"/>
        <path id="Path_873759" data-name="Path 873759" d="M353.972,301.961l-11.441,1.561-34.062,66.824s9.882.26,14.3-8.32Z" transform="translate(-166.472 -162.961)"/>
        <path id="Path_873760" data-name="Path 873760" d="M280.221,305.353l-58.6,5.2-28.612,69.029,53.148-7.407Z" transform="translate(-104.163 -164.791)" fill="#132a35"/>
        <path id="Path_873761" data-name="Path 873761" d="M297.518,340.581,264.8,343.486l-3.214,7.841,31.866-3.017Z" transform="translate(-141.171 -183.803)" fill="#fff"/>
        <path id="Path_873762" data-name="Path 873762" d="M375.955,264.759l-6.9-31.732H362.3l-13.1,30.093Z" transform="translate(-188.455 -125.759)" fill="#fff"/>
        <path id="Path_873763" data-name="Path 873763" d="M337.383,363.681s7.8,1.9,14.4-8.171.207-15.421.207-15.421l-16.54-11.638a1.759,1.759,0,0,0-2.231,2.708l9.816,9.431L328.2,330.826a2.379,2.379,0,0,0-2.774,3.862l13.749,10.765-12.355-6.4a1.984,1.984,0,0,0-2.081,3.365l12.58,9.159-10.732-5.12a2.125,2.125,0,0,0-2.171,3.633l14.472,10.579Z" transform="translate(-174.609 -177.084)" fill="#dc7c59"/>
        <path id="Path_873764" data-name="Path 873764" d="M243.825,104.373a22.774,22.774,0,0,1,2.325-8.325c1.825-3.615,4.645-7.1,8.968-5.117,7.362,3.37.285,15.379-7.208,16.438-2.2.312-4.243-1.19-4.085-3" transform="translate(-131.581 -48.763)" fill="#b95536"/>
        <path id="Path_873765" data-name="Path 873765" d="M265.226,120.471a2.028,2.028,0,1,1-2.172-1.874,2.03,2.03,0,0,1,2.172,1.874" transform="translate(-140.95 -64.001)" fill="#fff"/>
        <path id="Path_873766" data-name="Path 873766" d="M142.95,111.622a18.583,18.583,0,1,1-18.582-18.583,18.582,18.582,0,0,1,18.582,18.583" transform="translate(-57.089 -50.211)"/>
        <path id="Path_873767" data-name="Path 873767" d="M138.836,28.2s-5.491-2.966-11.246,5.281-4.866,25.523,6.868,28.666Z" transform="translate(-66.994 -14.941)"/>
        <path id="Path_873768" data-name="Path 873768" d="M156.068,13.263S159.2-2.864,183.453.448s40.286,13.685,23.442,36.642Z" transform="translate(-84.226 0)"/>
        <path id="Path_873769" data-name="Path 873769" d="M196.193,38.31C196.415,53.948,184.75,66.762,167.91,67s-30.671-12.246-30.894-27.884,13.25-28.51,30.091-28.75,28.865,12.3,29.087,27.942" transform="translate(-73.943 -5.594)"/>
        <path id="Path_873770" data-name="Path 873770" d="M183.475,121.195l-6.422,41.745,18.108,11.187,5.8-9.693-1.813-38.624Z" transform="translate(-95.551 -65.406)" fill="#dc7c59"/>
        <path id="Path_873771" data-name="Path 873771" d="M209.053,158.705,193.328,143.8l14.685-6.235Z" transform="translate(-104.334 -74.238)" fill="#b95536"/>
        <path id="Path_873772" data-name="Path 873772" d="M173.581,22.737a33.96,33.96,0,0,1,15.873-.851c7.115,1.393,16.274,5.727,17.6,18.683,2.2,21.6-.182,37.812-10.789,42.856-8.145,3.872-14.134,2.507-23.647-2.857-3.541-2-7.019-9.38-8.029-13.5l-4.213-11.509S149,29.829,173.581,22.737" transform="translate(-85.133 -11.502)" fill="#dc7c59"/>
        <path id="Path_873773" data-name="Path 873773" d="M238.428,114.616a.4.4,0,0,1-.25-.708l2.3-1.861-2.8-5.168a.4.4,0,1,1,.7-.378l2.954,5.459a.4.4,0,0,1-.1.5l-2.552,2.071a.4.4,0,0,1-.252.087" transform="translate(-128.242 -57.362)"/>
        <path id="Path_873774" data-name="Path 873774" d="M244.518,64.588s-.858,2.135,2.476,2.522a29.7,29.7,0,0,1,5.561.915,2.076,2.076,0,0,0,2.21-.558,1.168,1.168,0,0,0-.009-1.541,8.468,8.468,0,0,0-5.566-2.779c-3.949-.5-4.672,1.441-4.672,1.441" transform="translate(-131.907 -34.034)"/>
        <path id="Path_873775" data-name="Path 873775" d="M203.263,64.529s1.136,2.12-3.531,2.568a73.979,73.979,0,0,0-9.765,1.876,3.629,3.629,0,0,1-3.069-.518.939.939,0,0,1,.058-1.542,22.489,22.489,0,0,1,9.828-3.741c5.527-.574,6.479,1.357,6.479,1.357" transform="translate(-100.661 -34.035)"/>
        <path id="Path_873776" data-name="Path 873776" d="M209.587,95.282s-2.33-8.523-13.511-2.144c0,0,4.714,7.732,13.511,2.144" transform="translate(-105.817 -48.986)" fill="#fff"/>
      </g>
    </g>
    <g id="Group_1099440" data-name="Group 1099440" transform="translate(401.393 6219.967)">
      <g id="Group_1099439" data-name="Group 1099439" clip-path="url(#clip-path-3)">
        <path id="Path_873777" data-name="Path 873777" d="M211.43,93.606a3.521,3.521,0,1,1-3.967-3.133,3.577,3.577,0,0,1,3.967,3.133" transform="translate(-200.579 -90.593)"/>
      </g>
    </g>
    <g id="Group_1099442" data-name="Group 1099442" transform="translate(311.134 6178.184)">
      <g id="Group_1099441" data-name="Group 1099441" clip-path="url(#clip-path-2)">
        <path id="Path_873779" data-name="Path 873779" d="M195.483,92.3a11.9,11.9,0,0,1,3.549-1.88,12.912,12.912,0,0,1,3.984-.706,8.1,8.1,0,0,1,4.02,1.04,5.654,5.654,0,0,1,2.6,3.475.7.7,0,1,1-1.354.332.25.25,0,0,1-.007-.035l-.015-.073a4.431,4.431,0,0,0-1.867-2.689,7.025,7.025,0,0,0-3.411-1.049,12.009,12.009,0,0,0-3.695.5,11.158,11.158,0,0,0-3.391,1.618.338.338,0,0,1-.474-.07.345.345,0,0,1,.064-.468" transform="translate(-105.428 -48.417)"/>
        <path id="Path_873780" data-name="Path 873780" d="M243.845,94.589s3.234-8.528,9.493-2.752c0,0-3.491,8.09-9.493,2.752" transform="translate(-131.597 -48.479)" fill="#fff"/>
      </g>
    </g>
    <g id="Group_1099444" data-name="Group 1099444" transform="translate(423.382 6219.535)">
      <g id="Group_1099443" data-name="Group 1099443" clip-path="url(#clip-path-5)">
        <path id="Path_873781" data-name="Path 873781" d="M248.824,92.712c-.274,1.809.664,3.45,2.1,3.668s2.814-1.073,3.088-2.881-.665-3.451-2.1-3.666-2.814,1.073-3.088,2.88" transform="translate(-246.507 -89.819)"/>
      </g>
    </g>
    <g id="Group_1099446" data-name="Group 1099446" transform="translate(311.134 6178.184)">
      <g id="Group_1099445" data-name="Group 1099445" clip-path="url(#clip-path-2)">
        <path id="Path_873783" data-name="Path 873783" d="M252.634,91.6a4.323,4.323,0,0,0-1.811-1.462,3.578,3.578,0,0,0-2.22-.149l-.04.01-.015,0a5.348,5.348,0,0,0-2.722,1.424,7.119,7.119,0,0,0-1.694,2.586l-.014.036a.589.589,0,0,1-1.1-.413l.009-.022a8.146,8.146,0,0,1,.906-1.6,8.063,8.063,0,0,1,1.218-1.338,6.288,6.288,0,0,1,3.27-1.506l-.055.012a4.311,4.311,0,0,1,2.741.307,4.963,4.963,0,0,1,2,1.781.285.285,0,0,1-.08.395.288.288,0,0,1-.389-.07" transform="translate(-131.129 -48.077)"/>
        <path id="Path_873784" data-name="Path 873784" d="M230.231,132.246a4.428,4.428,0,0,1-4.638,3.108A8.634,8.634,0,0,1,218.443,131Z" transform="translate(-117.888 -70.697)" fill="#d8553d"/>
        <path id="Path_873785" data-name="Path 873785" d="M219.472,130.349s10.46-1.817,11.124,1.12c0,0-7.285,1.105-11.124-1.12" transform="translate(-118.443 -70.046)" fill="#d8553d"/>
        <path id="Path_873786" data-name="Path 873786" d="M225.132,132.151a16.755,16.755,0,0,1-8.152-2.217.4.4,0,1,1,.384-.7c6.883,3.787,12.3,1.282,12.359,1.26a.4.4,0,0,1,.531.187.4.4,0,0,1-.185.531,12.161,12.161,0,0,1-4.937.935" transform="translate(-116.987 -69.719)"/>
        <path id="Path_873787" data-name="Path 873787" d="M157.176,69.611S168.761,44.6,152.854,36.6c0,0-5.1-5.046-7.681,8.495-4.145,21.721,12,24.514,12,24.514" transform="translate(-77.979 -19.257)"/>
        <path id="Path_873788" data-name="Path 873788" d="M159.865,105.936a23.978,23.978,0,0,0-3.628-8.34c-2.425-3.505-5.865-6.724-10.084-4.038-7.187,4.575,1.923,16.069,9.886,16.09,2.342.006,4.252-1.853,3.826-3.713" transform="translate(-77.468 -49.954)" fill="#dc7c59"/>
        <path id="Path_873789" data-name="Path 873789" d="M161.923,111.089a.4.4,0,0,1-.356-.221c-.119-.243-3.008-5.947-8.225-4.088a.4.4,0,0,1-.267-.751c5.883-2.1,9.173,4.419,9.206,4.487a.4.4,0,0,1-.18.532.406.406,0,0,1-.178.04" transform="translate(-82.468 -56.996)"/>
        <path id="Path_873790" data-name="Path 873790" d="M167.853,125.566a2.028,2.028,0,1,1-2.029-2.028,2.029,2.029,0,0,1,2.029,2.028" transform="translate(-88.397 -66.67)" fill="#fff"/>
        <path id="Path_873791" data-name="Path 873791" d="M166.651,27.147s14.043,5.8,26.01,0,19.017,5.195,19.017,5.195-4.27-17.479-24.1-16.113-20.928,10.918-20.928,10.918" transform="translate(-89.937 -8.717)"/>
        <path id="Path_873792" data-name="Path 873792" d="M1838.1,361.172s-6.379-.158-7.368,29.312c-.2,6.057-.476-4.066-.1,1.982l72.776,2.072-16.32-33.366-22.753-2.889Z" transform="translate(-987.847 -193.356)" fill="#0f4088"/>
        <path id="Path_873793" data-name="Path 873793" d="M1841.05,167.187s-11.138,11.315-24.012,16.2-37.694,20.6-56.536,22.043l6.266-26.3,40.878-22.3Z" transform="translate(-950.098 -84.641)" fill="#af2323"/>
        <path id="Path_873794" data-name="Path 873794" d="M1687.079,104.222l-.934-6.9a3.534,3.534,0,0,0-2.489-2.911l-8.174-2.446a2.658,2.658,0,0,0-2.036,4.88l3.914,2.135s-5.431,4.321-.19,10.116Z" transform="translate(-902.369 -49.572)" fill="#fbb087"/>
        <path id="Path_873795" data-name="Path 873795" d="M1680.4,79.356l-10.673-14.562a2.05,2.05,0,0,0-3.477,2.148l6.714,13.068Z" transform="translate(-899.109 -34.515)" fill="#fbb087"/>
        <path id="Path_873796" data-name="Path 873796" d="M1668.54,87.96l-4.1-1.393a2.836,2.836,0,0,0-2.478.534l-.945.755a2.84,2.84,0,0,0-.722,3.573l5.23,9.321,6.729-4.954Z" transform="translate(-895.835 -46.67)" fill="#fbb087"/>
        <path id="Path_873797" data-name="Path 873797" d="M1655.833,92.63h-1.526a2.794,2.794,0,0,0-1.953.8l-1.262,1.237a2.792,2.792,0,0,0-.278,3.669l6.7,8.926,5.808-4.326Z" transform="translate(-890.6 -49.99)" fill="#fbb087"/>
        <path id="Path_873798" data-name="Path 873798" d="M1650.51,100.306h-1.527a2.791,2.791,0,0,0-1.953.8l-1.261,1.237a2.79,2.79,0,0,0-.279,3.669l2.352,3.134A7.269,7.269,0,0,0,1658,110.61Z" transform="translate(-887.727 -54.133)" fill="#fbb087"/>
        <path id="Path_873799" data-name="Path 873799" d="M1658.262,112.921l3.13,3.461a8.046,8.046,0,0,0,11.365.568l6.875-6.22-5.331-6.816h-6.66l-5.808,4.023Z" transform="translate(-894.922 -56.079)" fill="#fbb087"/>
        <path id="Path_873800" data-name="Path 873800" d="M1689.423,118.721l11.443,15.7-12.763,9.528-11.7-19.377Z" transform="translate(-904.713 -64.071)" fill="#fbb087"/>
        <path id="Path_873801" data-name="Path 873801" d="M1728.673,168.342l-29.692-39L1680.432,143.7l25.656,40.673c5.2,6.631,12.753,8.256,18.739,3.438,5.367-4.318,10.673-14.22,3.845-19.467" transform="translate(-906.886 -69.802)" fill="#af2323"/>
        <path id="Path_873802" data-name="Path 873802" d="M1891.376,162.2l-23.563-17.263-12,.144s-11.961,1.95-20.719,14.451-6.984,113.056-6.984,113.056,9.077-.84,9.275-15.318c0,0,3.058,19.635,19.672,21.662s43.616-3.179,43.616-3.179l-18.487-48.373,14.859-41.857a23.009,23.009,0,0,0-5.669-23.324" transform="translate(-986.504 -78.218)" fill="#af2323"/>
        <path id="Path_873803" data-name="Path 873803" d="M1853.664,150.584l-7.075,12.461L1850.2,163l-3.95,5.093a81.571,81.571,0,0,0,3.627,34.239l16.844-54.084-1.3-3a28.116,28.116,0,0,0-8.172,3.114" transform="translate(-996.116 -78.387)" fill="#80c85d"/>
        <path id="Path_873804" data-name="Path 873804" d="M1890.438,151.1s-27.63,22.128-35.967,51.059c0,0-3.06-35.569,15.546-57.084l12-.145Z" transform="translate(-1000.71 -78.218)" fill="#fff"/>
      </g>
    </g>
    <g id="Group_1099448" data-name="Group 1099448" transform="translate(1164.708 6244.901)">
      <g id="Group_1099447" data-name="Group 1099447" clip-path="url(#clip-path-7)">
        <path id="Path_873805" data-name="Path 873805" d="M1899.1,142.114s-27.554,11.908-26.466-7.146l8.433-16.247s18.834,5.866,19.966,6.157l4.96,6.642,1.391,4.554Z" transform="translate(-1864.17 -130.788)" fill="#fbb087"/>
      </g>
    </g>
    <g id="Group_1099450" data-name="Group 1099450" transform="translate(311.134 6178.184)">
      <g id="Group_1099449" data-name="Group 1099449" clip-path="url(#clip-path-2)">
        <path id="Path_873807" data-name="Path 873807" d="M1890.658,158.336l5.814,4.259-7.717,13.335-7.7.093,5.371,5.3s-20.367,16-31.73,28.072c0,0,7.544-29.3,35.967-51.059" transform="translate(-1000.93 -85.45)" fill="#80c85d"/>
        <path id="Path_873808" data-name="Path 873808" d="M1831.57,219.64a.369.369,0,0,0,.37-.353,87.086,87.086,0,0,1,2.366-16.207.371.371,0,1,0-.714-.2,87.669,87.669,0,0,0-2.391,16.372.368.368,0,0,0,.353.386Z" transform="translate(-988.253 -109.344)"/>
        <path id="Path_873809" data-name="Path 873809" d="M1940.536,168.741a33.383,33.383,0,0,1,18.1,15.77c6.365,12.211,25.69,41.186,29.335,59.729l-26.85-3.136L1935.1,203.129Z" transform="translate(-1044.326 -91.065)" fill="#af2323"/>
        <path id="Path_873810" data-name="Path 873810" d="M1946.575,260.757a.364.364,0,0,0,.209-.064.371.371,0,0,0,.1-.514L1934.973,242.8a.37.37,0,0,0-.611.418L1946.27,260.6a.374.374,0,0,0,.305.16" transform="translate(-1043.891 -130.948)"/>
        <path id="Path_873811" data-name="Path 873811" d="M1809.5,283.812l43.658-17.537,4.4,10.457-42.644,16.645Z" transform="translate(-976.543 -143.702)" fill="#216102"/>
        <path id="Path_873812" data-name="Path 873812" d="M1856.2,275.817l-2.265-4.969-40.942,16.815,2.457,4.976Z" transform="translate(-978.427 -146.17)" fill="#fff"/>
        <path id="Path_873813" data-name="Path 873813" d="M1817.794,290.393l25.138,60.206L1886,332.445l-24.273-60.062Z" transform="translate(-981.018 -146.998)" fill="#216102"/>
        <path id="Path_873814" data-name="Path 873814" d="M1813.32,307.657l-3.817-3.284,24.886,60.058,4.068,3.432Z" transform="translate(-976.543 -164.262)" fill="#216102"/>
        <path id="Path_873815" data-name="Path 873815" d="M1876.7,315.3l-27.522,11.291-3.056-7.207,27.521-11.291Z" transform="translate(-996.304 -166.269)" fill="#fff"/>
        <path id="Path_873816" data-name="Path 873816" d="M1920.35,347.346,1889.924,363.8l3.387,11.807,31.965-11.022Z" transform="translate(-1019.944 -187.454)" fill="#fbb087"/>
        <path id="Path_873817" data-name="Path 873817" d="M1865.565,381.924s-21.565-3.911-20.754,3.846,4.68,26.067,24.142,7.962Z" transform="translate(-995.586 -205.583)" fill="#fbb087"/>
        <path id="Path_873818" data-name="Path 873818" d="M1872.057,375.834l-2.918-3.128a12.322,12.322,0,0,0-6.276-3.609l-4.454-1.015a2.37,2.37,0,0,0-1.832,4.289l6.414,4.233Z" transform="translate(-1001.372 -198.612)" fill="#fbb087"/>
        <path id="Path_873819" data-name="Path 873819" d="M1947.519,305.873,1899.075,331.7l9.433,22.678,50.841-21.395c7.849-3.071,11.581-9.833,8.694-16.952-2.588-6.383-13.531-15.18-20.524-10.155" transform="translate(-1024.883 -164.269)" fill="#af2323"/>
        <path id="Path_873820" data-name="Path 873820" d="M1985.485,312.067a.367.367,0,0,0,.174-.044l8.467-4.514a.37.37,0,0,0-.349-.653l-8.467,4.515a.37.37,0,0,0,.176.7" transform="translate(-1071.316 -165.579)"/>
        <path id="Path_873821" data-name="Path 873821" d="M1864.509,81.178a16.273,16.273,0,0,0-1.731-5.917c-1.333-2.563-3.373-5.021-6.44-3.572-5.221,2.466-.071,10.97,5.282,11.661,1.575.2,3.017-.884,2.888-2.171" transform="translate(-1000.646 -38.456)" fill="#ee896c"/>
        <path id="Path_873822" data-name="Path 873822" d="M1855.892,28.421c1.054,11.106,10.58,23.7,22.592,23.728s19.83-9.38,22.685-20.162c3.206-12.1-10.587-20.38-22.6-20.235-7.563.091-23.825,4.594-22.678,16.669" transform="translate(-1001.547 -6.341)" fill="#823e22"/>
        <path id="Path_873823" data-name="Path 873823" d="M1901.82,90.647l3.063,32.911-17.012.031,1.028-29.494Z" transform="translate(-1018.836 -48.92)" fill="#fbb087"/>
        <path id="Path_873824" data-name="Path 873824" d="M1888.809,117.75l11.088-10.769-10.528-4.32Z" transform="translate(-1019.342 -55.403)" fill="#ee896c"/>
        <path id="Path_873825" data-name="Path 873825" d="M1884.348,20.581a24.208,24.208,0,0,0-11.327-.47c-5.063,1.054-11.558,4.224-12.39,13.476-1.387,15.421.464,27.859,8.073,31.364,5.843,2.692,10.1,1.667,16.842-2.24,2.507-1.454,4.913-7.641,5.6-10.593l2.907-8.243s7.889-18.448-9.7-23.294" transform="translate(-1003.907 -10.603)" fill="#fbb087"/>
        <path id="Path_873826" data-name="Path 873826" d="M1877.253,78.075a.285.285,0,0,0,.176-.508l-1.664-1.314,2.393-5.2a.285.285,0,0,0-.518-.238l-2.486,5.4a.284.284,0,0,0,.083.341l1.84,1.454a.285.285,0,0,0,.175.061" transform="translate(-1011.96 -38.127)"/>
        <path id="Path_873827" data-name="Path 873827" d="M1866.735,44.741A2.046,2.046,0,0,1,1865,47.4a15.176,15.176,0,0,0-3.954,1,1.2,1.2,0,0,1-1.583-.564,1.675,1.675,0,0,1-.014-1.61,5.833,5.833,0,0,1,3.935-2.95c2.811-.559,3.351,1.465,3.351,1.465" transform="translate(-1003.39 -23.302)" fill="#823e22"/>
        <path id="Path_873828" data-name="Path 873828" d="M1890.922,44.412s-.783,2.225,2.551,2.652a38.276,38.276,0,0,1,6.989,1.877,1.953,1.953,0,0,0,2.182-.569,1.273,1.273,0,0,0-.061-1.611,13.718,13.718,0,0,0-7.057-3.822c-3.95-.553-4.6,1.472-4.6,1.472" transform="translate(-1020.44 -23.122)" fill="#823e22"/>
        <path id="Path_873829" data-name="Path 873829" d="M1889.49,65.845s1.589-6.1,9.617-1.645c0,0-3.249,6.339-9.617,1.645" transform="translate(-1019.71 -33.769)" fill="#fff"/>
      </g>
    </g>
    <g id="Group_1099452" data-name="Group 1099452" transform="translate(1180.914 6206.987)">
      <g id="Group_1099451" data-name="Group 1099451" clip-path="url(#clip-path-9)">
        <path id="Path_873830" data-name="Path 873830" d="M1892.89,64.873A2.786,2.786,0,1,0,1896,62.357a2.828,2.828,0,0,0-3.109,2.517" transform="translate(-1891.313 -62.445)"/>
      </g>
    </g>
    <g id="Group_1099454" data-name="Group 1099454" transform="translate(311.134 6178.184)">
      <g id="Group_1099453" data-name="Group 1099453" clip-path="url(#clip-path-2)">
        <path id="Path_873832" data-name="Path 873832" d="M1898.865,63.6a8.487,8.487,0,0,0-2.546-1.31,9.194,9.194,0,0,0-2.847-.47,5.769,5.769,0,0,0-2.858.777,4.036,4.036,0,0,0-1.824,2.5.5.5,0,1,0,.969.226l0-.025.009-.051a3.164,3.164,0,0,1,1.309-1.935,5.016,5.016,0,0,1,2.423-.776,8.555,8.555,0,0,1,2.641.327,7.943,7.943,0,0,1,2.432,1.125.241.241,0,0,0,.337-.054.247.247,0,0,0-.05-.334" transform="translate(-1019.325 -33.363)"/>
        <path id="Path_873833" data-name="Path 873833" d="M1868.385,65.624s-2.38-6.053-6.793-1.88c0,0,1.713,5.946,6.793,1.88" transform="translate(-1004.654 -33.609)" fill="#fff"/>
      </g>
    </g>
    <g id="Group_1099456" data-name="Group 1099456" transform="translate(1168.072 6206.851)">
      <g id="Group_1099455" data-name="Group 1099455" clip-path="url(#clip-path-11)">
        <path id="Path_873834" data-name="Path 873834" d="M1868.061,64.268a2.157,2.157,0,1,1-2.5-2.277,2.423,2.423,0,0,1,2.5,2.277" transform="translate(-1862.823 -62.11)"/>
      </g>
    </g>
    <path id="Path_873836" data-name="Path 873836" d="M1861.524,63.577a3.086,3.086,0,0,1,1.279-1.057,2.549,2.549,0,0,1,1.582-.126l.03.006.011,0a3.816,3.816,0,0,1,1.953.992,5.108,5.108,0,0,1,1.231,1.83l.012.03a.42.42,0,0,0,.784-.3.163.163,0,0,1-.009-.02,5.812,5.812,0,0,0-1.541-2.073,4.467,4.467,0,0,0-2.345-1.047l.04.007a3.081,3.081,0,0,0-1.953.243,3.539,3.539,0,0,0-1.41,1.288.2.2,0,0,0,.061.281.206.206,0,0,0,.276-.053" transform="translate(-693.284 6144.856)"/>
    <path id="Path_873837" data-name="Path 873837" d="M1877.622,92.516a11.731,11.731,0,0,0,4.881-1.166.283.283,0,0,0,.116-.384.28.28,0,0,0-.382-.118c-.057.029-5.4,2.8-9.114-.542a.284.284,0,0,0-.38.424,7.1,7.1,0,0,0,4.879,1.787" transform="translate(-699.487 6129.486)"/>
    <path id="Path_873838" data-name="Path 873838" d="M1924.168,53.788s-7.386-23.453,3.543-24.048l5.981,11.683-3.208,9.757Z" transform="translate(-725.974 6162.134)" fill="#823e22"/>
    <path id="Path_873839" data-name="Path 873839" d="M1922.84,81.541a17.118,17.118,0,0,1,2.516-5.98c1.7-2.52,4.125-4.845,7.158-2.965,5.165,3.2-1.234,11.477-6.913,11.56-1.67.024-3.048-1.285-2.76-2.615" transform="translate(-726.553 6139.375)" fill="#fbb087"/>
    <path id="Path_873840" data-name="Path 873840" d="M1927.069,85.2a.281.281,0,0,0,.256-.162c.085-.174,2.1-4.268,5.83-2.985a.284.284,0,1,0,.184-.538c-4.206-1.445-6.5,3.231-6.526,3.278a.283.283,0,0,0,.134.378.278.278,0,0,0,.123.029" transform="translate(-728.703 6134.34)"/>
    <path id="Path_873841" data-name="Path 873841" d="M1888.309,18.23s-27.246,7.039-36.641-5.88c0,0,17.267-9.635,31.965-1.694Z" transform="translate(-688.164 6174.126)" fill="#823e22"/>
    <path id="Path_873842" data-name="Path 873842" d="M1911.481,10.7s-5.935-9.355-16.784-9.477c0,0,2.97,7.49,9.415,9.549s7.369-.072,7.369-.072" transform="translate(-711.386 6177.522)" fill="#823e22"/>
    <path id="Path_873843" data-name="Path 873843" d="M1932.076,18.741s-.312-6.14-5.522-9.163c0,0-.61,4.43,1.942,7.185s3.58,1.978,3.58,1.978" transform="translate(-728.544 6173.015)" fill="#823e22"/>
    <path id="Path_873844" data-name="Path 873844" d="M576.091,225.087v-38.71a3.6,3.6,0,0,1-.392.014,21.769,21.769,0,1,1,0-43.537,3.489,3.489,0,0,1,.392.015V104.144a13.006,13.006,0,0,1,.131-1.822,12.869,12.869,0,0,0-12.708-10.848H524.789a3.4,3.4,0,0,0,.014-.392,21.769,21.769,0,0,0-43.537,0,3.588,3.588,0,0,0,.015.392h-38.71A12.867,12.867,0,0,0,429.7,104.34v38.7a21.769,21.769,0,1,1,0,43.537v38.71a12.867,12.867,0,0,0,12.867,12.867h38.7a21.768,21.768,0,1,1,43.537,0h38.71a12.868,12.868,0,0,0,12.736-11.045,12.968,12.968,0,0,1-.159-2.018" transform="translate(79.234 6140.777)" fill="#80c85d"/>
    <path id="Path_874043" data-name="Path 874043" d="M0,0H944.132V222.046H0Z" transform="translate(311.134 6178.184)" fill="none"/>
    <path id="Path_874044" data-name="Path 874044" d="M6.766,11.141V15H4.023V3.625H8.563a5.287,5.287,0,0,1,2.309.48,3.621,3.621,0,0,1,1.555,1.367,3.734,3.734,0,0,1,.551,2.012,3.291,3.291,0,0,1-1.191,2.66,4.943,4.943,0,0,1-3.27,1Zm0-2.117h1.8a1.7,1.7,0,0,0,1.215-.4A1.48,1.48,0,0,0,10.2,7.5a1.83,1.83,0,0,0-.43-1.273,1.522,1.522,0,0,0-1.172-.484H6.766Zm12.586,5.063a2.714,2.714,0,0,1-2.258,1.07,2.662,2.662,0,0,1-2.105-.809,3.4,3.4,0,0,1-.715-2.324V6.547h2.633v5.492a.946.946,0,0,0,1.055,1.086,1.376,1.376,0,0,0,1.289-.648V6.547H21.9V15H19.43Zm11.836-3.242a5.152,5.152,0,0,1-.859,3.2,2.878,2.878,0,0,1-2.422,1.117,2.5,2.5,0,0,1-2.078-1.023L25.719,15H23.359V3h2.633V7.227a2.41,2.41,0,0,1,1.9-.836,2.879,2.879,0,0,1,2.438,1.133,5.179,5.179,0,0,1,.859,3.188Zm-2.641-.168a3.437,3.437,0,0,0-.324-1.735,1.093,1.093,0,0,0-1-.519,1.261,1.261,0,0,0-1.234.679v3.354a1.268,1.268,0,0,0,1.25.671,1.118,1.118,0,0,0,1.18-.9A6.5,6.5,0,0,0,28.547,10.676ZM35.125,15H32.484V3h2.641Zm4.4,0H36.883V6.547h2.641Zm-2.8-10.633a1.175,1.175,0,0,1,.406-.922,1.727,1.727,0,0,1,2.109,0,1.175,1.175,0,0,1,.406.922,1.175,1.175,0,0,1-.406.922,1.727,1.727,0,0,1-2.109,0A1.175,1.175,0,0,1,36.727,4.367Zm7.992,8.758a1.171,1.171,0,0,0,.859-.3,1.1,1.1,0,0,0,.3-.84h2.469a2.922,2.922,0,0,1-1,2.281,3.705,3.705,0,0,1-2.566.891A3.751,3.751,0,0,1,41.875,14a4.556,4.556,0,0,1-1.062-3.2v-.109a5.149,5.149,0,0,1,.473-2.262,3.441,3.441,0,0,1,1.363-1.508,4.065,4.065,0,0,1,2.109-.527,3.658,3.658,0,0,1,2.617.914,3.242,3.242,0,0,1,.969,2.477H45.875a1.445,1.445,0,0,0-.32-1.008,1.106,1.106,0,0,0-.859-.352q-1.023,0-1.2,1.3a9.206,9.206,0,0,0-.055,1.141,3.616,3.616,0,0,0,.3,1.766A1.055,1.055,0,0,0,44.719,13.125ZM54.219,15a2.973,2.973,0,0,1-.25-.758,2.448,2.448,0,0,1-2.031.914,3,3,0,0,1-2.031-.723,2.3,2.3,0,0,1-.836-1.816,2.364,2.364,0,0,1,1.016-2.078,5.174,5.174,0,0,1,2.953-.7h.813V9.388q0-1.17-1.008-1.17a.824.824,0,0,0-.937.926H49.273a2.36,2.36,0,0,1,1.043-1.99,4.383,4.383,0,0,1,2.66-.765,3.843,3.843,0,0,1,2.555.789,2.743,2.743,0,0,1,.961,2.164v3.742a3.832,3.832,0,0,0,.359,1.781V15ZM52.57,13.281a1.469,1.469,0,0,0,.816-.211,1.322,1.322,0,0,0,.465-.477V11.242h-.766q-1.375,0-1.375,1.234a.754.754,0,0,0,.242.582A.876.876,0,0,0,52.57,13.281Zm8.953-.156a1.171,1.171,0,0,0,.859-.3,1.1,1.1,0,0,0,.3-.84h2.469a2.922,2.922,0,0,1-1,2.281,3.705,3.705,0,0,1-2.566.891A3.751,3.751,0,0,1,58.68,14a4.556,4.556,0,0,1-1.062-3.2v-.109a5.149,5.149,0,0,1,.473-2.262,3.441,3.441,0,0,1,1.363-1.508,4.065,4.065,0,0,1,2.109-.527A3.658,3.658,0,0,1,64.18,7.3a3.242,3.242,0,0,1,.969,2.477H62.68a1.445,1.445,0,0,0-.32-1.008,1.106,1.106,0,0,0-.859-.352q-1.023,0-1.2,1.3a9.206,9.206,0,0,0-.055,1.141,3.616,3.616,0,0,0,.3,1.766A1.055,1.055,0,0,0,61.523,13.125ZM69.039,15H66.4V6.547h2.641Zm-2.8-10.633a1.175,1.175,0,0,1,.406-.922,1.727,1.727,0,0,1,2.109,0,1.175,1.175,0,0,1,.406.922,1.175,1.175,0,0,1-.406.922,1.727,1.727,0,0,1-2.109,0A1.175,1.175,0,0,1,66.242,4.367ZM70.328,10.7a4.989,4.989,0,0,1,.492-2.254,3.52,3.52,0,0,1,1.414-1.52A4.259,4.259,0,0,1,74.4,6.391a3.887,3.887,0,0,1,2.992,1.176,4.512,4.512,0,0,1,1.094,3.2v.094A4.378,4.378,0,0,1,77.387,14a3.9,3.9,0,0,1-2.973,1.16,3.942,3.942,0,0,1-2.9-1.082,4.232,4.232,0,0,1-1.18-2.934Zm2.633.164a3.145,3.145,0,0,0,.367,1.719,1.223,1.223,0,0,0,1.086.547q1.406,0,1.438-2.164V10.7q0-2.273-1.453-2.273-1.32,0-1.43,1.961Zm9.1-4.312.086.992a2.867,2.867,0,0,1,2.414-1.148,2.412,2.412,0,0,1,1.973.789,3.757,3.757,0,0,1,.676,2.375V15H84.57V9.664a1.426,1.426,0,0,0-.258-.941,1.193,1.193,0,0,0-.937-.3,1.256,1.256,0,0,0-1.148.609V15H79.594V6.547Zm10.7,8.609A4.345,4.345,0,0,1,89.609,14a4.006,4.006,0,0,1-1.2-3.02v-.219a5.191,5.191,0,0,1,.48-2.289,3.516,3.516,0,0,1,1.4-1.535,4.233,4.233,0,0,1,2.188-.543A3.659,3.659,0,0,1,95.289,7.5a4.344,4.344,0,0,1,1.031,3.082V11.6H91.086a1.9,1.9,0,0,0,.617,1.117,1.836,1.836,0,0,0,1.234.406,2.366,2.366,0,0,0,1.953-.875l1.2,1.422A3.363,3.363,0,0,1,94.7,14.754,4.713,4.713,0,0,1,92.758,15.156Zm-.3-6.734q-1.156,0-1.375,1.531h2.656v-.2a1.3,1.3,0,0,0-.32-.98A1.275,1.275,0,0,0,92.461,8.422Zm9.344,4.2a.608.608,0,0,0-.352-.539,5.348,5.348,0,0,0-1.336-.422,6.092,6.092,0,0,1-1.625-.574,2.722,2.722,0,0,1-.977-.863,2.061,2.061,0,0,1-.336-1.164,2.336,2.336,0,0,1,.961-1.918,3.958,3.958,0,0,1,2.516-.754,4.386,4.386,0,0,1,2.688.758,2.37,2.37,0,0,1,1.016,1.992h-2.641q0-1.016-1.07-1.016a1.061,1.061,0,0,0-.7.23.714.714,0,0,0-.281.574.655.655,0,0,0,.344.57,3.248,3.248,0,0,0,1.1.359,9.486,9.486,0,0,1,1.324.336,2.406,2.406,0,0,1,1.906,2.352,2.214,2.214,0,0,1-1.027,1.883,4.505,4.505,0,0,1-2.66.727,4.6,4.6,0,0,1-1.937-.391A3.24,3.24,0,0,1,97.391,13.7a2.406,2.406,0,0,1-.477-1.414h2.461a1.017,1.017,0,0,0,.391.855,1.607,1.607,0,0,0,.961.27,1.264,1.264,0,0,0,.809-.219A.7.7,0,0,0,101.8,12.625ZM47.543,30.711a5.164,5.164,0,0,1,.867-3.164,2.854,2.854,0,0,1,2.422-1.156,2.428,2.428,0,0,1,1.906.891V23h2.641V35H53.012l-.133-.906a2.493,2.493,0,0,1-2.062,1.063A2.849,2.849,0,0,1,48.426,34,5.327,5.327,0,0,1,47.543,30.711Zm2.633.164q0,2.25,1.313,2.25a1.3,1.3,0,0,0,1.25-.734V29.172a1.261,1.261,0,0,0-1.234-.75q-1.219,0-1.32,1.969Zm10.789,4.281A4.345,4.345,0,0,1,57.816,34a4.006,4.006,0,0,1-1.2-3.02v-.219a5.191,5.191,0,0,1,.48-2.289,3.516,3.516,0,0,1,1.4-1.535,4.233,4.233,0,0,1,2.188-.543A3.659,3.659,0,0,1,63.5,27.5a4.344,4.344,0,0,1,1.031,3.082V31.6H59.293a1.9,1.9,0,0,0,.617,1.117,1.836,1.836,0,0,0,1.234.406A2.366,2.366,0,0,0,63.1,32.25l1.2,1.422a3.363,3.363,0,0,1-1.395,1.082A4.713,4.713,0,0,1,60.965,35.156Zm-.3-6.734q-1.156,0-1.375,1.531h2.656v-.2a1.3,1.3,0,0,0-.32-.98A1.275,1.275,0,0,0,60.668,28.422ZM18.121,55a2.973,2.973,0,0,1-.25-.758,2.448,2.448,0,0,1-2.031.914,3,3,0,0,1-2.031-.723,2.3,2.3,0,0,1-.836-1.816,2.364,2.364,0,0,1,1.016-2.078,5.174,5.174,0,0,1,2.953-.7h.813v-.448q0-1.17-1.008-1.17a.824.824,0,0,0-.937.926H13.176a2.36,2.36,0,0,1,1.043-1.99,4.383,4.383,0,0,1,2.66-.765,3.843,3.843,0,0,1,2.555.789,2.743,2.743,0,0,1,.961,2.164v3.742a3.832,3.832,0,0,0,.359,1.781V55Zm-1.648-1.719a1.469,1.469,0,0,0,.816-.211,1.322,1.322,0,0,0,.465-.477V51.242h-.766q-1.375,0-1.375,1.234a.754.754,0,0,0,.242.582A.876.876,0,0,0,16.473,53.281Zm8.953-.156a1.171,1.171,0,0,0,.859-.3,1.1,1.1,0,0,0,.3-.84h2.469a2.923,2.923,0,0,1-1,2.281,3.705,3.705,0,0,1-2.566.891A3.751,3.751,0,0,1,22.582,54a4.556,4.556,0,0,1-1.062-3.2v-.109a5.149,5.149,0,0,1,.473-2.262,3.441,3.441,0,0,1,1.363-1.508,4.065,4.065,0,0,1,2.109-.527,3.658,3.658,0,0,1,2.617.914,3.242,3.242,0,0,1,.969,2.477H26.582a1.445,1.445,0,0,0-.32-1.008,1.106,1.106,0,0,0-.859-.352q-1.023,0-1.2,1.3a9.206,9.206,0,0,0-.055,1.141,3.616,3.616,0,0,0,.3,1.766A1.055,1.055,0,0,0,25.426,53.125Zm7.8-8.68v2.1h1.391v1.828H33.23v3.867a.987.987,0,0,0,.172.664.922.922,0,0,0,.68.188,3.862,3.862,0,0,0,.656-.047V54.93a4.859,4.859,0,0,1-1.484.227,2.758,2.758,0,0,1-2.008-.641A2.626,2.626,0,0,1,30.6,52.57v-4.2H29.52V46.547H30.6v-2.1ZM38.434,55H35.793V46.547h2.641Zm-2.8-10.633a1.175,1.175,0,0,1,.406-.922,1.727,1.727,0,0,1,2.109,0,1.249,1.249,0,0,1,0,1.844,1.727,1.727,0,0,1-2.109,0A1.175,1.175,0,0,1,35.637,44.367Zm7.789,7.5,1.336-5.32h2.773L44.777,55H42.09l-2.758-8.453h2.781ZM51.1,55H48.457V46.547H51.1ZM48.3,44.367a1.175,1.175,0,0,1,.406-.922,1.727,1.727,0,0,1,2.109,0,1.249,1.249,0,0,1,0,1.844,1.727,1.727,0,0,1-2.109,0A1.175,1.175,0,0,1,48.3,44.367Zm4.086,6.344a5.164,5.164,0,0,1,.867-3.164,2.854,2.854,0,0,1,2.422-1.156,2.428,2.428,0,0,1,1.906.891V43h2.641V55H57.855l-.133-.906a2.493,2.493,0,0,1-2.062,1.063A2.849,2.849,0,0,1,53.27,54,5.327,5.327,0,0,1,52.387,50.711Zm2.633.164q0,2.25,1.313,2.25a1.3,1.3,0,0,0,1.25-.734V49.172a1.261,1.261,0,0,0-1.234-.75q-1.219,0-1.32,1.969ZM66.48,55a2.973,2.973,0,0,1-.25-.758,2.448,2.448,0,0,1-2.031.914,3,3,0,0,1-2.031-.723,2.3,2.3,0,0,1-.836-1.816,2.364,2.364,0,0,1,1.016-2.078,5.174,5.174,0,0,1,2.953-.7h.813v-.448q0-1.17-1.008-1.17a.824.824,0,0,0-.937.926H61.535a2.36,2.36,0,0,1,1.043-1.99,4.383,4.383,0,0,1,2.66-.765,3.843,3.843,0,0,1,2.555.789,2.743,2.743,0,0,1,.961,2.164v3.742a3.832,3.832,0,0,0,.359,1.781V55Zm-1.648-1.719a1.469,1.469,0,0,0,.816-.211,1.322,1.322,0,0,0,.465-.477V51.242h-.766q-1.375,0-1.375,1.234a.754.754,0,0,0,.242.582A.876.876,0,0,0,64.832,53.281Zm5.047-2.57a5.164,5.164,0,0,1,.867-3.164,2.854,2.854,0,0,1,2.422-1.156,2.428,2.428,0,0,1,1.906.891V43h2.641V55H75.348l-.133-.906a2.493,2.493,0,0,1-2.062,1.063A2.849,2.849,0,0,1,70.762,54,5.327,5.327,0,0,1,69.879,50.711Zm2.633.164q0,2.25,1.313,2.25a1.3,1.3,0,0,0,1.25-.734V49.172a1.261,1.261,0,0,0-1.234-.75q-1.219,0-1.32,1.969ZM83.3,55.156A4.345,4.345,0,0,1,80.152,54a4.006,4.006,0,0,1-1.2-3.02v-.219a5.191,5.191,0,0,1,.48-2.289,3.516,3.516,0,0,1,1.4-1.535,4.233,4.233,0,0,1,2.188-.543A3.659,3.659,0,0,1,85.832,47.5a4.344,4.344,0,0,1,1.031,3.082V51.6H81.629a1.9,1.9,0,0,0,.617,1.117,1.836,1.836,0,0,0,1.234.406,2.366,2.366,0,0,0,1.953-.875l1.2,1.422a3.363,3.363,0,0,1-1.395,1.082A4.713,4.713,0,0,1,83.3,55.156ZM83,48.422q-1.156,0-1.375,1.531h2.656v-.2a1.3,1.3,0,0,0-.32-.98A1.275,1.275,0,0,0,83,48.422Zm9.344,4.2A.608.608,0,0,0,92,52.086a5.347,5.347,0,0,0-1.336-.422,6.092,6.092,0,0,1-1.625-.574,2.722,2.722,0,0,1-.977-.863,2.061,2.061,0,0,1-.336-1.164,2.336,2.336,0,0,1,.961-1.918,3.958,3.958,0,0,1,2.516-.754,4.386,4.386,0,0,1,2.688.758A2.37,2.37,0,0,1,94.9,49.141H92.262q0-1.016-1.07-1.016a1.061,1.061,0,0,0-.7.23.714.714,0,0,0-.281.574.655.655,0,0,0,.344.57,3.248,3.248,0,0,0,1.1.359,9.486,9.486,0,0,1,1.324.336,2.406,2.406,0,0,1,1.906,2.352,2.214,2.214,0,0,1-1.027,1.883,4.505,4.505,0,0,1-2.66.727,4.6,4.6,0,0,1-1.937-.391A3.24,3.24,0,0,1,87.934,53.7a2.406,2.406,0,0,1-.477-1.414h2.461a1.017,1.017,0,0,0,.391.855,1.607,1.607,0,0,0,.961.27,1.264,1.264,0,0,0,.809-.219A.7.7,0,0,0,92.348,52.625Z" transform="translate(528 6274)" fill="#12263f"/>
    <path id="Path_874045" data-name="Path 874045" d="M34.125,10.977H32.641V15H29.9V3.625h4.477a5,5,0,0,1,3.164.9A3.041,3.041,0,0,1,38.68,7.059a3.693,3.693,0,0,1-.48,1.967,3.41,3.41,0,0,1-1.5,1.264l2.375,4.593V15H36.133ZM32.641,8.867h1.734a1.557,1.557,0,0,0,1.176-.411,1.59,1.59,0,0,0,.395-1.147,1.608,1.608,0,0,0-.4-1.155,1.542,1.542,0,0,0-1.172-.419H32.641ZM44.3,15.156A4.345,4.345,0,0,1,41.156,14a4.006,4.006,0,0,1-1.2-3.02v-.219a5.191,5.191,0,0,1,.48-2.289,3.516,3.516,0,0,1,1.4-1.535,4.233,4.233,0,0,1,2.188-.543A3.659,3.659,0,0,1,46.836,7.5a4.344,4.344,0,0,1,1.031,3.082V11.6H42.633a1.9,1.9,0,0,0,.617,1.117,1.836,1.836,0,0,0,1.234.406,2.366,2.366,0,0,0,1.953-.875l1.2,1.422a3.363,3.363,0,0,1-1.395,1.082A4.713,4.713,0,0,1,44.3,15.156Zm-.3-6.734q-1.156,0-1.375,1.531h2.656v-.2a1.3,1.3,0,0,0-.32-.98A1.275,1.275,0,0,0,44.008,8.422Zm8.492,4.7a1.171,1.171,0,0,0,.859-.3,1.1,1.1,0,0,0,.3-.84h2.469a2.922,2.922,0,0,1-1,2.281,3.705,3.705,0,0,1-2.566.891A3.751,3.751,0,0,1,49.656,14a4.556,4.556,0,0,1-1.062-3.2v-.109a5.149,5.149,0,0,1,.473-2.262A3.441,3.441,0,0,1,50.43,6.918a4.065,4.065,0,0,1,2.109-.527,3.658,3.658,0,0,1,2.617.914,3.242,3.242,0,0,1,.969,2.477H53.656a1.445,1.445,0,0,0-.32-1.008,1.106,1.106,0,0,0-.859-.352q-1.023,0-1.2,1.3a9.206,9.206,0,0,0-.055,1.141,3.616,3.616,0,0,0,.3,1.766A1.055,1.055,0,0,0,52.5,13.125Zm9.773.961a2.714,2.714,0,0,1-2.258,1.07,2.662,2.662,0,0,1-2.105-.809,3.4,3.4,0,0,1-.715-2.324V6.547h2.633v5.492a.946.946,0,0,0,1.055,1.086,1.376,1.376,0,0,0,1.289-.648V6.547H64.82V15H62.352Zm9.1-5.156-.867-.062a1.558,1.558,0,0,0-1.594.781V15H66.281V6.547H68.75l.086,1.086a2.039,2.039,0,0,1,1.852-1.242,2.567,2.567,0,0,1,.734.094Zm5.375,3.7a.608.608,0,0,0-.352-.539,5.348,5.348,0,0,0-1.336-.422,6.092,6.092,0,0,1-1.625-.574,2.722,2.722,0,0,1-.977-.863,2.061,2.061,0,0,1-.336-1.164,2.336,2.336,0,0,1,.961-1.918A3.958,3.958,0,0,1,75.6,6.391a4.386,4.386,0,0,1,2.688.758A2.37,2.37,0,0,1,79.3,9.141H76.664q0-1.016-1.07-1.016a1.061,1.061,0,0,0-.7.23.714.714,0,0,0-.281.574.655.655,0,0,0,.344.57,3.248,3.248,0,0,0,1.1.359,9.486,9.486,0,0,1,1.324.336,2.406,2.406,0,0,1,1.906,2.352,2.214,2.214,0,0,1-1.027,1.883,4.505,4.505,0,0,1-2.66.727,4.6,4.6,0,0,1-1.937-.391A3.24,3.24,0,0,1,72.336,13.7a2.406,2.406,0,0,1-.477-1.414H74.32a1.017,1.017,0,0,0,.391.855,1.607,1.607,0,0,0,.961.27,1.264,1.264,0,0,0,.809-.219A.7.7,0,0,0,76.75,12.625Zm3.438-1.93a4.989,4.989,0,0,1,.492-2.254,3.52,3.52,0,0,1,1.414-1.52,4.259,4.259,0,0,1,2.164-.531A3.887,3.887,0,0,1,87.25,7.566a4.512,4.512,0,0,1,1.094,3.2v.094A4.378,4.378,0,0,1,87.246,14a3.9,3.9,0,0,1-2.973,1.16,3.942,3.942,0,0,1-2.9-1.082,4.232,4.232,0,0,1-1.18-2.934Zm2.633.164a3.145,3.145,0,0,0,.367,1.719,1.223,1.223,0,0,0,1.086.547q1.406,0,1.438-2.164V10.7q0-2.273-1.453-2.273-1.32,0-1.43,1.961ZM93.93,12.625a.608.608,0,0,0-.352-.539,5.348,5.348,0,0,0-1.336-.422,6.092,6.092,0,0,1-1.625-.574,2.722,2.722,0,0,1-.977-.863A2.061,2.061,0,0,1,89.3,9.063a2.336,2.336,0,0,1,.961-1.918,3.958,3.958,0,0,1,2.516-.754,4.386,4.386,0,0,1,2.688.758,2.37,2.37,0,0,1,1.016,1.992H93.844q0-1.016-1.07-1.016a1.061,1.061,0,0,0-.7.23.714.714,0,0,0-.281.574.655.655,0,0,0,.344.57,3.248,3.248,0,0,0,1.1.359,9.486,9.486,0,0,1,1.324.336,2.406,2.406,0,0,1,1.906,2.352,2.214,2.214,0,0,1-1.027,1.883,4.505,4.505,0,0,1-2.66.727,4.6,4.6,0,0,1-1.937-.391A3.24,3.24,0,0,1,89.516,13.7a2.406,2.406,0,0,1-.477-1.414H91.5a1.017,1.017,0,0,0,.391.855,1.607,1.607,0,0,0,.961.27,1.264,1.264,0,0,0,.809-.219A.7.7,0,0,0,93.93,12.625ZM28.449,35.156A4.345,4.345,0,0,1,25.3,34a4.006,4.006,0,0,1-1.2-3.02v-.219a5.191,5.191,0,0,1,.48-2.289,3.516,3.516,0,0,1,1.4-1.535,4.233,4.233,0,0,1,2.188-.543A3.659,3.659,0,0,1,30.98,27.5a4.344,4.344,0,0,1,1.031,3.082V31.6H26.777a1.9,1.9,0,0,0,.617,1.117,1.836,1.836,0,0,0,1.234.406,2.366,2.366,0,0,0,1.953-.875l1.2,1.422a3.363,3.363,0,0,1-1.395,1.082A4.713,4.713,0,0,1,28.449,35.156Zm-.3-6.734q-1.156,0-1.375,1.531h2.656v-.2a1.3,1.3,0,0,0-.32-.98A1.275,1.275,0,0,0,28.152,28.422Zm4.586,2.289a5.164,5.164,0,0,1,.867-3.164,2.854,2.854,0,0,1,2.422-1.156,2.428,2.428,0,0,1,1.906.891V23h2.641V35H38.207l-.133-.906a2.493,2.493,0,0,1-2.062,1.063A2.849,2.849,0,0,1,33.621,34,5.327,5.327,0,0,1,32.738,30.711Zm2.633.164q0,2.25,1.313,2.25a1.3,1.3,0,0,0,1.25-.734V29.172a1.261,1.261,0,0,0-1.234-.75q-1.219,0-1.32,1.969Zm11.734,3.211a2.714,2.714,0,0,1-2.258,1.07,2.662,2.662,0,0,1-2.105-.809,3.4,3.4,0,0,1-.715-2.324V26.547H44.66v5.492a.946.946,0,0,0,1.055,1.086A1.376,1.376,0,0,0,47,32.477v-5.93h2.648V35H47.184Zm7.563-.961a1.171,1.171,0,0,0,.859-.3,1.1,1.1,0,0,0,.3-.84h2.469a2.923,2.923,0,0,1-1,2.281,3.705,3.705,0,0,1-2.566.891A3.751,3.751,0,0,1,51.824,34a4.556,4.556,0,0,1-1.062-3.2v-.109a5.149,5.149,0,0,1,.473-2.262A3.441,3.441,0,0,1,52.6,26.918a4.065,4.065,0,0,1,2.109-.527,3.658,3.658,0,0,1,2.617.914,3.242,3.242,0,0,1,.969,2.477H55.824a1.445,1.445,0,0,0-.32-1.008,1.106,1.106,0,0,0-.859-.352q-1.023,0-1.2,1.3a9.206,9.206,0,0,0-.055,1.141,3.616,3.616,0,0,0,.3,1.766A1.055,1.055,0,0,0,54.668,33.125ZM64.168,35a2.973,2.973,0,0,1-.25-.758,2.448,2.448,0,0,1-2.031.914,3,3,0,0,1-2.031-.723,2.3,2.3,0,0,1-.836-1.816,2.364,2.364,0,0,1,1.016-2.078,5.174,5.174,0,0,1,2.953-.7H63.8v-.448q0-1.17-1.008-1.17a.824.824,0,0,0-.937.926H59.223a2.36,2.36,0,0,1,1.043-1.99,4.383,4.383,0,0,1,2.66-.765,3.843,3.843,0,0,1,2.555.789,2.743,2.743,0,0,1,.961,2.164v3.742a3.832,3.832,0,0,0,.359,1.781V35ZM62.52,33.281a1.469,1.469,0,0,0,.816-.211,1.322,1.322,0,0,0,.465-.477V31.242h-.766q-1.375,0-1.375,1.234a.754.754,0,0,0,.242.582A.876.876,0,0,0,62.52,33.281Zm8.445-8.836v2.1h1.391v1.828H70.965v3.867a.987.987,0,0,0,.172.664.922.922,0,0,0,.68.188,3.862,3.862,0,0,0,.656-.047V34.93a4.859,4.859,0,0,1-1.484.227,2.758,2.758,0,0,1-2.008-.641,2.626,2.626,0,0,1-.648-1.945v-4.2H67.254V26.547h1.078v-2.1ZM76.168,35H73.527V26.547h2.641Zm-2.8-10.633a1.175,1.175,0,0,1,.406-.922,1.727,1.727,0,0,1,2.109,0,1.249,1.249,0,0,1,0,1.844,1.727,1.727,0,0,1-2.109,0A1.175,1.175,0,0,1,73.371,24.367Zm7.789,7.5,1.336-5.32H85.27L82.512,35H79.824l-2.758-8.453h2.781ZM85.605,30.7a4.989,4.989,0,0,1,.492-2.254,3.52,3.52,0,0,1,1.414-1.52,4.259,4.259,0,0,1,2.164-.531,3.887,3.887,0,0,1,2.992,1.176,4.512,4.512,0,0,1,1.094,3.2v.094A4.378,4.378,0,0,1,92.664,34a3.9,3.9,0,0,1-2.973,1.16,3.942,3.942,0,0,1-2.9-1.082,4.232,4.232,0,0,1-1.18-2.934Zm2.633.164a3.145,3.145,0,0,0,.367,1.719,1.223,1.223,0,0,0,1.086.547q1.406,0,1.438-2.164V30.7q0-2.273-1.453-2.273-1.32,0-1.43,1.961Zm11.109,1.766A.608.608,0,0,0,99,32.086a5.348,5.348,0,0,0-1.336-.422,6.092,6.092,0,0,1-1.625-.574,2.722,2.722,0,0,1-.977-.863,2.061,2.061,0,0,1-.336-1.164,2.336,2.336,0,0,1,.961-1.918,3.958,3.958,0,0,1,2.516-.754,4.386,4.386,0,0,1,2.688.758,2.37,2.37,0,0,1,1.016,1.992H99.262q0-1.016-1.07-1.016a1.061,1.061,0,0,0-.7.23.714.714,0,0,0-.281.574.655.655,0,0,0,.344.57,3.248,3.248,0,0,0,1.1.359,9.486,9.486,0,0,1,1.324.336,2.406,2.406,0,0,1,1.906,2.352,2.214,2.214,0,0,1-1.027,1.883,4.505,4.505,0,0,1-2.66.727,4.6,4.6,0,0,1-1.937-.391A3.24,3.24,0,0,1,94.934,33.7a2.406,2.406,0,0,1-.477-1.414h2.461a1.017,1.017,0,0,0,.391.855,1.607,1.607,0,0,0,.961.27,1.264,1.264,0,0,0,.809-.219A.7.7,0,0,0,99.348,32.625ZM32.262,50.711a5.164,5.164,0,0,1,.867-3.164,2.854,2.854,0,0,1,2.422-1.156,2.428,2.428,0,0,1,1.906.891V43H40.1V55H37.73l-.133-.906a2.493,2.493,0,0,1-2.062,1.063A2.849,2.849,0,0,1,33.145,54,5.327,5.327,0,0,1,32.262,50.711Zm2.633.164q0,2.25,1.313,2.25a1.3,1.3,0,0,0,1.25-.734V49.172a1.261,1.261,0,0,0-1.234-.75q-1.219,0-1.32,1.969ZM44.371,55H41.73V46.547h2.641Zm-2.8-10.633a1.175,1.175,0,0,1,.406-.922,1.727,1.727,0,0,1,2.109,0,1.249,1.249,0,0,1,0,1.844,1.727,1.727,0,0,1-2.109,0A1.175,1.175,0,0,1,41.574,44.367Zm4.109,6.344a5.708,5.708,0,0,1,.422-2.266,3.4,3.4,0,0,1,1.211-1.52,3.192,3.192,0,0,1,1.836-.535,2.538,2.538,0,0,1,2.063.891l.094-.734H53.7V54.68a3.564,3.564,0,0,1-.52,1.941,3.334,3.334,0,0,1-1.5,1.266,5.528,5.528,0,0,1-2.281.441,4.769,4.769,0,0,1-1.8-.352,3.251,3.251,0,0,1-1.332-.914l1.1-1.547a2.414,2.414,0,0,0,1.938.867,1.568,1.568,0,0,0,1.75-1.8V54.32a2.472,2.472,0,0,1-1.914.836,3.055,3.055,0,0,1-2.5-1.184,4.9,4.9,0,0,1-.953-3.168Zm2.641.164a3.007,3.007,0,0,0,.391,1.645,1.232,1.232,0,0,0,1.094.605,1.4,1.4,0,0,0,1.242-.57V49a1.363,1.363,0,0,0-1.227-.578,1.241,1.241,0,0,0-1.1.629A3.429,3.429,0,0,0,48.324,50.875ZM57.973,55H55.332V46.547h2.641Zm-2.8-10.633a1.175,1.175,0,0,1,.406-.922,1.727,1.727,0,0,1,2.109,0,1.249,1.249,0,0,1,0,1.844,1.727,1.727,0,0,1-2.109,0A1.175,1.175,0,0,1,55.176,44.367Zm7.484.078v2.1h1.391v1.828H62.66v3.867a.987.987,0,0,0,.172.664.922.922,0,0,0,.68.188,3.862,3.862,0,0,0,.656-.047V54.93a4.859,4.859,0,0,1-1.484.227,2.758,2.758,0,0,1-2.008-.641,2.626,2.626,0,0,1-.648-1.945v-4.2H58.949V46.547h1.078v-2.1ZM69.848,55a2.973,2.973,0,0,1-.25-.758,2.448,2.448,0,0,1-2.031.914,3,3,0,0,1-2.031-.723,2.3,2.3,0,0,1-.836-1.816,2.364,2.364,0,0,1,1.016-2.078,5.174,5.174,0,0,1,2.953-.7h.813v-.448q0-1.17-1.008-1.17a.824.824,0,0,0-.937.926H64.9a2.36,2.36,0,0,1,1.043-1.99,4.383,4.383,0,0,1,2.66-.765,3.843,3.843,0,0,1,2.555.789,2.743,2.743,0,0,1,.961,2.164v3.742a3.832,3.832,0,0,0,.359,1.781V55ZM68.2,53.281a1.469,1.469,0,0,0,.816-.211,1.322,1.322,0,0,0,.465-.477V51.242h-.766q-1.375,0-1.375,1.234a.754.754,0,0,0,.242.582A.876.876,0,0,0,68.2,53.281ZM76.355,55H73.715V43h2.641Zm5.711.156A4.345,4.345,0,0,1,78.918,54a4.006,4.006,0,0,1-1.2-3.02v-.219a5.191,5.191,0,0,1,.48-2.289,3.516,3.516,0,0,1,1.4-1.535,4.233,4.233,0,0,1,2.188-.543A3.659,3.659,0,0,1,84.6,47.5a4.344,4.344,0,0,1,1.031,3.082V51.6H80.395a1.9,1.9,0,0,0,.617,1.117,1.836,1.836,0,0,0,1.234.406A2.366,2.366,0,0,0,84.2,52.25l1.2,1.422a3.363,3.363,0,0,1-1.395,1.082A4.713,4.713,0,0,1,82.066,55.156Zm-.3-6.734q-1.156,0-1.375,1.531h2.656v-.2a1.3,1.3,0,0,0-.32-.98A1.275,1.275,0,0,0,81.77,48.422Zm9.344,4.2a.608.608,0,0,0-.352-.539,5.347,5.347,0,0,0-1.336-.422A6.092,6.092,0,0,1,87.8,51.09a2.722,2.722,0,0,1-.977-.863,2.061,2.061,0,0,1-.336-1.164,2.336,2.336,0,0,1,.961-1.918,3.958,3.958,0,0,1,2.516-.754,4.386,4.386,0,0,1,2.688.758,2.37,2.37,0,0,1,1.016,1.992H91.027q0-1.016-1.07-1.016a1.061,1.061,0,0,0-.7.23.714.714,0,0,0-.281.574.655.655,0,0,0,.344.57,3.248,3.248,0,0,0,1.1.359,9.486,9.486,0,0,1,1.324.336,2.406,2.406,0,0,1,1.906,2.352,2.214,2.214,0,0,1-1.027,1.883,4.505,4.505,0,0,1-2.66.727,4.6,4.6,0,0,1-1.937-.391A3.24,3.24,0,0,1,86.7,53.7a2.406,2.406,0,0,1-.477-1.414h2.461a1.017,1.017,0,0,0,.391.855,1.607,1.607,0,0,0,.961.27,1.264,1.264,0,0,0,.809-.219A.7.7,0,0,0,91.113,52.625Z" transform="translate(666 6279)" fill="#12263f"/>
    <path id="Path_874046" data-name="Path 874046" d="M13.3,15H10.578V10.25H6.539V15H3.8V3.625H6.539V8.141h4.039V3.625H13.3Zm5.7.156A4.345,4.345,0,0,1,15.859,14a4.006,4.006,0,0,1-1.2-3.02v-.219a5.191,5.191,0,0,1,.48-2.289,3.516,3.516,0,0,1,1.4-1.535,4.233,4.233,0,0,1,2.188-.543A3.659,3.659,0,0,1,21.539,7.5a4.344,4.344,0,0,1,1.031,3.082V11.6H17.336a1.9,1.9,0,0,0,.617,1.117,1.836,1.836,0,0,0,1.234.406,2.366,2.366,0,0,0,1.953-.875l1.2,1.422a3.363,3.363,0,0,1-1.395,1.082A4.713,4.713,0,0,1,19.008,15.156Zm-.3-6.734q-1.156,0-1.375,1.531h2.656v-.2a1.3,1.3,0,0,0-.32-.98A1.275,1.275,0,0,0,18.711,8.422Zm10.031.508-.867-.062a1.558,1.558,0,0,0-1.594.781V15H23.648V6.547h2.469L26.2,7.633a2.039,2.039,0,0,1,1.852-1.242,2.567,2.567,0,0,1,.734.094Zm6.063,0-.867-.062a1.558,1.558,0,0,0-1.594.781V15H29.711V6.547H32.18l.086,1.086a2.039,2.039,0,0,1,1.852-1.242,2.567,2.567,0,0,1,.734.094ZM40.281,15a2.973,2.973,0,0,1-.25-.758A2.448,2.448,0,0,1,38,15.156a3,3,0,0,1-2.031-.723,2.3,2.3,0,0,1-.836-1.816,2.364,2.364,0,0,1,1.016-2.078,5.174,5.174,0,0,1,2.953-.7h.813V9.388q0-1.17-1.008-1.17a.824.824,0,0,0-.937.926H35.336a2.36,2.36,0,0,1,1.043-1.99,4.383,4.383,0,0,1,2.66-.765,3.843,3.843,0,0,1,2.555.789,2.743,2.743,0,0,1,.961,2.164v3.742a3.832,3.832,0,0,0,.359,1.781V15Zm-1.648-1.719a1.469,1.469,0,0,0,.816-.211,1.322,1.322,0,0,0,.465-.477V11.242h-.766q-1.375,0-1.375,1.234a.754.754,0,0,0,.242.582A.876.876,0,0,0,38.633,13.281ZM46.5,6.547l.086.992A2.906,2.906,0,0,1,49,6.391a2.14,2.14,0,0,1,2.164,1.273,2.813,2.813,0,0,1,2.484-1.273q2.57,0,2.641,3.109V15H53.648V9.664a1.611,1.611,0,0,0-.219-.945.931.931,0,0,0-.8-.3,1.247,1.247,0,0,0-1.164.7l.008.109V15H48.836V9.68a1.694,1.694,0,0,0-.211-.961.929.929,0,0,0-.8-.3,1.263,1.263,0,0,0-1.156.7V15H44.031V6.547ZM60.57,15H57.93V6.547H60.57Zm-2.8-10.633a1.175,1.175,0,0,1,.406-.922,1.727,1.727,0,0,1,2.109,0,1.175,1.175,0,0,1,.406.922,1.175,1.175,0,0,1-.406.922,1.727,1.727,0,0,1-2.109,0A1.175,1.175,0,0,1,57.773,4.367Zm8.508,10.789A4.345,4.345,0,0,1,63.133,14a4.006,4.006,0,0,1-1.2-3.02v-.219a5.191,5.191,0,0,1,.48-2.289,3.516,3.516,0,0,1,1.4-1.535A4.233,4.233,0,0,1,66,6.391,3.659,3.659,0,0,1,68.813,7.5a4.344,4.344,0,0,1,1.031,3.082V11.6H64.609a1.9,1.9,0,0,0,.617,1.117,1.836,1.836,0,0,0,1.234.406,2.366,2.366,0,0,0,1.953-.875l1.2,1.422a3.363,3.363,0,0,1-1.395,1.082A4.713,4.713,0,0,1,66.281,15.156Zm-.3-6.734q-1.156,0-1.375,1.531h2.656v-.2a1.3,1.3,0,0,0-.32-.98A1.275,1.275,0,0,0,65.984,8.422ZM73.32,6.547l.086.992A2.867,2.867,0,0,1,75.82,6.391a2.412,2.412,0,0,1,1.973.789,3.757,3.757,0,0,1,.676,2.375V15H75.828V9.664a1.426,1.426,0,0,0-.258-.941,1.193,1.193,0,0,0-.937-.3,1.256,1.256,0,0,0-1.148.609V15H70.852V6.547Zm9.672-2.1v2.1h1.391V8.375H82.992v3.867a.987.987,0,0,0,.172.664.922.922,0,0,0,.68.188,3.862,3.862,0,0,0,.656-.047V14.93a4.859,4.859,0,0,1-1.484.227,2.758,2.758,0,0,1-2.008-.641,2.626,2.626,0,0,1-.648-1.945v-4.2H79.281V6.547h1.078v-2.1ZM90.18,15a2.973,2.973,0,0,1-.25-.758,2.448,2.448,0,0,1-2.031.914,3,3,0,0,1-2.031-.723,2.3,2.3,0,0,1-.836-1.816,2.364,2.364,0,0,1,1.016-2.078A5.174,5.174,0,0,1,89,9.836h.813V9.388q0-1.17-1.008-1.17a.824.824,0,0,0-.937.926H85.234a2.36,2.36,0,0,1,1.043-1.99,4.383,4.383,0,0,1,2.66-.765,3.843,3.843,0,0,1,2.555.789,2.743,2.743,0,0,1,.961,2.164v3.742a3.832,3.832,0,0,0,.359,1.781V15Zm-1.648-1.719a1.469,1.469,0,0,0,.816-.211,1.322,1.322,0,0,0,.465-.477V11.242h-.766q-1.375,0-1.375,1.234a.754.754,0,0,0,.242.582A.876.876,0,0,0,88.531,13.281Zm9.8-.656a.608.608,0,0,0-.352-.539,5.348,5.348,0,0,0-1.336-.422,6.092,6.092,0,0,1-1.625-.574,2.722,2.722,0,0,1-.977-.863,2.061,2.061,0,0,1-.336-1.164,2.336,2.336,0,0,1,.961-1.918,3.958,3.958,0,0,1,2.516-.754,4.386,4.386,0,0,1,2.688.758,2.37,2.37,0,0,1,1.016,1.992H98.25q0-1.016-1.07-1.016a1.061,1.061,0,0,0-.7.23.714.714,0,0,0-.281.574.655.655,0,0,0,.344.57,3.248,3.248,0,0,0,1.1.359,9.486,9.486,0,0,1,1.324.336,2.406,2.406,0,0,1,1.906,2.352,2.214,2.214,0,0,1-1.027,1.883,4.505,4.505,0,0,1-2.66.727,4.6,4.6,0,0,1-1.937-.391A3.24,3.24,0,0,1,93.922,13.7a2.406,2.406,0,0,1-.477-1.414h2.461a1.017,1.017,0,0,0,.391.855,1.607,1.607,0,0,0,.961.27,1.264,1.264,0,0,0,.809-.219A.7.7,0,0,0,98.336,12.625Zm7.422-1.914a5.164,5.164,0,0,1,.867-3.164,2.854,2.854,0,0,1,2.422-1.156,2.428,2.428,0,0,1,1.906.891V3h2.641V15h-2.367l-.133-.906a2.493,2.493,0,0,1-2.062,1.063A2.849,2.849,0,0,1,106.641,14,5.327,5.327,0,0,1,105.758,10.711Zm2.633.164q0,2.25,1.313,2.25a1.3,1.3,0,0,0,1.25-.734V9.172a1.261,1.261,0,0,0-1.234-.75q-1.219,0-1.32,1.969Zm10.789,4.281A4.345,4.345,0,0,1,116.031,14a4.006,4.006,0,0,1-1.2-3.02v-.219a5.191,5.191,0,0,1,.48-2.289,3.516,3.516,0,0,1,1.4-1.535,4.233,4.233,0,0,1,2.188-.543A3.659,3.659,0,0,1,121.711,7.5a4.344,4.344,0,0,1,1.031,3.082V11.6h-5.234a1.9,1.9,0,0,0,.617,1.117,1.836,1.836,0,0,0,1.234.406,2.366,2.366,0,0,0,1.953-.875l1.2,1.422a3.363,3.363,0,0,1-1.395,1.082A4.713,4.713,0,0,1,119.18,15.156Zm-.3-6.734q-1.156,0-1.375,1.531h2.656v-.2a1.3,1.3,0,0,0-.32-.98A1.275,1.275,0,0,0,118.883,8.422ZM16.789,33.125a1.171,1.171,0,0,0,.859-.3,1.1,1.1,0,0,0,.3-.84h2.469a2.923,2.923,0,0,1-1,2.281,3.705,3.705,0,0,1-2.566.891A3.751,3.751,0,0,1,13.945,34a4.556,4.556,0,0,1-1.062-3.2v-.109a5.149,5.149,0,0,1,.473-2.262,3.441,3.441,0,0,1,1.363-1.508,4.065,4.065,0,0,1,2.109-.527,3.658,3.658,0,0,1,2.617.914,3.242,3.242,0,0,1,.969,2.477H17.945a1.445,1.445,0,0,0-.32-1.008,1.106,1.106,0,0,0-.859-.352q-1.023,0-1.2,1.3a9.206,9.206,0,0,0-.055,1.141,3.616,3.616,0,0,0,.3,1.766A1.055,1.055,0,0,0,16.789,33.125ZM21.2,30.7a4.989,4.989,0,0,1,.492-2.254,3.52,3.52,0,0,1,1.414-1.52,4.259,4.259,0,0,1,2.164-.531,3.887,3.887,0,0,1,2.992,1.176,4.512,4.512,0,0,1,1.094,3.2v.094A4.378,4.378,0,0,1,28.254,34a3.9,3.9,0,0,1-2.973,1.16,3.942,3.942,0,0,1-2.9-1.082,4.232,4.232,0,0,1-1.18-2.934Zm2.633.164a3.145,3.145,0,0,0,.367,1.719,1.223,1.223,0,0,0,1.086.547q1.406,0,1.438-2.164V30.7q0-2.273-1.453-2.273-1.32,0-1.43,1.961ZM33,26.547l.086.992A2.906,2.906,0,0,1,35.5,26.391a2.14,2.14,0,0,1,2.164,1.273,2.813,2.813,0,0,1,2.484-1.273q2.57,0,2.641,3.109V35H40.148V29.664a1.611,1.611,0,0,0-.219-.945.931.931,0,0,0-.8-.3,1.247,1.247,0,0,0-1.164.7l.008.109V35H35.336V29.68a1.694,1.694,0,0,0-.211-.961.929.929,0,0,0-.8-.3,1.263,1.263,0,0,0-1.156.7V35H30.531V26.547Zm16.328,7.539a2.714,2.714,0,0,1-2.258,1.07,2.662,2.662,0,0,1-2.105-.809,3.4,3.4,0,0,1-.715-2.324V26.547h2.633v5.492a.946.946,0,0,0,1.055,1.086,1.376,1.376,0,0,0,1.289-.648v-5.93h2.648V35H49.406Zm6.406-7.539.086.992a2.867,2.867,0,0,1,2.414-1.148,2.412,2.412,0,0,1,1.973.789,3.757,3.757,0,0,1,.676,2.375V35H58.242V29.664a1.426,1.426,0,0,0-.258-.941,1.193,1.193,0,0,0-.937-.3,1.256,1.256,0,0,0-1.148.609V35H53.266V26.547ZM65.117,35H62.477V26.547h2.641Zm-2.8-10.633a1.175,1.175,0,0,1,.406-.922,1.727,1.727,0,0,1,2.109,0,1.249,1.249,0,0,1,0,1.844,1.727,1.727,0,0,1-2.109,0A1.175,1.175,0,0,1,62.32,24.367Zm7.992,8.758a1.171,1.171,0,0,0,.859-.3,1.1,1.1,0,0,0,.3-.84h2.469a2.923,2.923,0,0,1-1,2.281,3.705,3.705,0,0,1-2.566.891A3.751,3.751,0,0,1,67.469,34a4.556,4.556,0,0,1-1.062-3.2v-.109a5.149,5.149,0,0,1,.473-2.262,3.441,3.441,0,0,1,1.363-1.508,4.065,4.065,0,0,1,2.109-.527,3.658,3.658,0,0,1,2.617.914,3.242,3.242,0,0,1,.969,2.477H71.469a1.445,1.445,0,0,0-.32-1.008,1.106,1.106,0,0,0-.859-.352q-1.023,0-1.2,1.3a9.206,9.206,0,0,0-.055,1.141,3.616,3.616,0,0,0,.3,1.766A1.055,1.055,0,0,0,70.313,33.125ZM79.813,35a2.973,2.973,0,0,1-.25-.758,2.448,2.448,0,0,1-2.031.914,3,3,0,0,1-2.031-.723,2.3,2.3,0,0,1-.836-1.816,2.364,2.364,0,0,1,1.016-2.078,5.174,5.174,0,0,1,2.953-.7h.813v-.448q0-1.17-1.008-1.17a.824.824,0,0,0-.937.926H74.867a2.36,2.36,0,0,1,1.043-1.99,4.383,4.383,0,0,1,2.66-.765,3.843,3.843,0,0,1,2.555.789,2.743,2.743,0,0,1,.961,2.164v3.742a3.832,3.832,0,0,0,.359,1.781V35Zm-1.648-1.719a1.469,1.469,0,0,0,.816-.211,1.322,1.322,0,0,0,.465-.477V31.242H78.68q-1.375,0-1.375,1.234a.754.754,0,0,0,.242.582A.876.876,0,0,0,78.164,33.281Zm8.953-.156a1.171,1.171,0,0,0,.859-.3,1.1,1.1,0,0,0,.3-.84h2.469a2.923,2.923,0,0,1-1,2.281,3.705,3.705,0,0,1-2.566.891A3.751,3.751,0,0,1,84.273,34a4.556,4.556,0,0,1-1.062-3.2v-.109a5.149,5.149,0,0,1,.473-2.262,3.441,3.441,0,0,1,1.363-1.508,4.065,4.065,0,0,1,2.109-.527,3.658,3.658,0,0,1,2.617.914,3.242,3.242,0,0,1,.969,2.477H88.273a1.445,1.445,0,0,0-.32-1.008,1.106,1.106,0,0,0-.859-.352q-1.023,0-1.2,1.3a9.206,9.206,0,0,0-.055,1.141,3.616,3.616,0,0,0,.3,1.766A1.055,1.055,0,0,0,87.117,33.125ZM94.633,35H91.992V26.547h2.641Zm-2.8-10.633a1.175,1.175,0,0,1,.406-.922,1.727,1.727,0,0,1,2.109,0,1.249,1.249,0,0,1,0,1.844,1.727,1.727,0,0,1-2.109,0A1.175,1.175,0,0,1,91.836,24.367ZM95.922,30.7a4.989,4.989,0,0,1,.492-2.254,3.52,3.52,0,0,1,1.414-1.52,4.259,4.259,0,0,1,2.164-.531,3.887,3.887,0,0,1,2.992,1.176,4.512,4.512,0,0,1,1.094,3.2v.094A4.378,4.378,0,0,1,102.98,34a3.9,3.9,0,0,1-2.973,1.16,3.942,3.942,0,0,1-2.9-1.082,4.232,4.232,0,0,1-1.18-2.934Zm2.633.164a3.145,3.145,0,0,0,.367,1.719,1.223,1.223,0,0,0,1.086.547q1.406,0,1.438-2.164V30.7q0-2.273-1.453-2.273-1.32,0-1.43,1.961Zm1.8-7.859h2.781l-2.172,2.453-2.148,0Zm7.3,3.547.086.992a2.867,2.867,0,0,1,2.414-1.148,2.412,2.412,0,0,1,1.973.789,3.757,3.757,0,0,1,.676,2.375V35h-2.641V29.664a1.426,1.426,0,0,0-.258-.941,1.193,1.193,0,0,0-.937-.3,1.256,1.256,0,0,0-1.148.609V35h-2.633V26.547ZM20.121,52.625a.608.608,0,0,0-.352-.539,5.347,5.347,0,0,0-1.336-.422,6.092,6.092,0,0,1-1.625-.574,2.722,2.722,0,0,1-.977-.863,2.061,2.061,0,0,1-.336-1.164,2.336,2.336,0,0,1,.961-1.918,3.958,3.958,0,0,1,2.516-.754,4.386,4.386,0,0,1,2.688.758,2.37,2.37,0,0,1,1.016,1.992H20.035q0-1.016-1.07-1.016a1.061,1.061,0,0,0-.7.23.714.714,0,0,0-.281.574.655.655,0,0,0,.344.57,3.248,3.248,0,0,0,1.1.359,9.486,9.486,0,0,1,1.324.336,2.406,2.406,0,0,1,1.906,2.352,2.214,2.214,0,0,1-1.027,1.883,4.505,4.505,0,0,1-2.66.727,4.6,4.6,0,0,1-1.937-.391A3.24,3.24,0,0,1,15.707,53.7a2.406,2.406,0,0,1-.477-1.414h2.461a1.017,1.017,0,0,0,.391.855,1.607,1.607,0,0,0,.961.27,1.264,1.264,0,0,0,.809-.219A.7.7,0,0,0,20.121,52.625ZM26.668,55H24.027V46.547h2.641Zm-2.8-10.633a1.175,1.175,0,0,1,.406-.922,1.727,1.727,0,0,1,2.109,0,1.249,1.249,0,0,1,0,1.844,1.727,1.727,0,0,1-2.109,0A1.175,1.175,0,0,1,23.871,44.367Zm6.836,2.18.086.992a2.867,2.867,0,0,1,2.414-1.148,2.412,2.412,0,0,1,1.973.789,3.757,3.757,0,0,1,.676,2.375V55H33.215V49.664a1.426,1.426,0,0,0-.258-.941,1.193,1.193,0,0,0-.937-.3,1.256,1.256,0,0,0-1.148.609V55H28.238V46.547Zm10.18,6.578a1.171,1.171,0,0,0,.859-.3,1.1,1.1,0,0,0,.3-.84h2.469a2.923,2.923,0,0,1-1,2.281,3.705,3.705,0,0,1-2.566.891A3.751,3.751,0,0,1,38.043,54a4.556,4.556,0,0,1-1.062-3.2v-.109a5.149,5.149,0,0,1,.473-2.262,3.441,3.441,0,0,1,1.363-1.508,4.065,4.065,0,0,1,2.109-.527,3.658,3.658,0,0,1,2.617.914,3.242,3.242,0,0,1,.969,2.477H42.043a1.445,1.445,0,0,0-.32-1.008,1.106,1.106,0,0,0-.859-.352q-1.023,0-1.2,1.3a9.206,9.206,0,0,0-.055,1.141,3.616,3.616,0,0,0,.3,1.766A1.055,1.055,0,0,0,40.887,53.125Zm9.852-4.2-.867-.062a1.558,1.558,0,0,0-1.594.781V55H45.645V46.547h2.469l.086,1.086a2.039,2.039,0,0,1,1.852-1.242,2.567,2.567,0,0,1,.734.094Zm.336,1.766a4.989,4.989,0,0,1,.492-2.254,3.52,3.52,0,0,1,1.414-1.52,4.259,4.259,0,0,1,2.164-.531,3.887,3.887,0,0,1,2.992,1.176,4.512,4.512,0,0,1,1.094,3.2v.094A4.378,4.378,0,0,1,58.133,54a3.9,3.9,0,0,1-2.973,1.16,3.942,3.942,0,0,1-2.9-1.082,4.232,4.232,0,0,1-1.18-2.934Zm2.633.164a3.145,3.145,0,0,0,.367,1.719,1.223,1.223,0,0,0,1.086.547q1.406,0,1.438-2.164V50.7q0-2.273-1.453-2.273-1.32,0-1.43,1.961ZM55.5,43h2.781l-2.172,2.453-2.148,0Zm7.3,3.547.086.992a2.867,2.867,0,0,1,2.414-1.148,2.412,2.412,0,0,1,1.973.789,3.757,3.757,0,0,1,.676,2.375V55H65.316V49.664a1.426,1.426,0,0,0-.258-.941,1.193,1.193,0,0,0-.937-.3,1.256,1.256,0,0,0-1.148.609V55H60.34V46.547ZM72.191,55H69.551V46.547h2.641Zm-2.8-10.633a1.175,1.175,0,0,1,.406-.922,1.727,1.727,0,0,1,2.109,0,1.249,1.249,0,0,1,0,1.844,1.727,1.727,0,0,1-2.109,0A1.175,1.175,0,0,1,69.395,44.367Zm7.992,8.758a1.171,1.171,0,0,0,.859-.3,1.1,1.1,0,0,0,.3-.84h2.469a2.923,2.923,0,0,1-1,2.281,3.705,3.705,0,0,1-2.566.891A3.751,3.751,0,0,1,74.543,54a4.556,4.556,0,0,1-1.062-3.2v-.109a5.149,5.149,0,0,1,.473-2.262,3.441,3.441,0,0,1,1.363-1.508,4.065,4.065,0,0,1,2.109-.527,3.658,3.658,0,0,1,2.617.914,3.242,3.242,0,0,1,.969,2.477H78.543a1.445,1.445,0,0,0-.32-1.008,1.106,1.106,0,0,0-.859-.352q-1.023,0-1.2,1.3a9.206,9.206,0,0,0-.055,1.141,3.616,3.616,0,0,0,.3,1.766A1.055,1.055,0,0,0,77.387,53.125ZM86.887,55a2.973,2.973,0,0,1-.25-.758,2.448,2.448,0,0,1-2.031.914,3,3,0,0,1-2.031-.723,2.3,2.3,0,0,1-.836-1.816,2.364,2.364,0,0,1,1.016-2.078,5.174,5.174,0,0,1,2.953-.7h.813v-.448q0-1.17-1.008-1.17a.824.824,0,0,0-.937.926H81.941a2.36,2.36,0,0,1,1.043-1.99,4.383,4.383,0,0,1,2.66-.765,3.843,3.843,0,0,1,2.555.789,2.743,2.743,0,0,1,.961,2.164v3.742a3.832,3.832,0,0,0,.359,1.781V55Zm-1.648-1.719a1.469,1.469,0,0,0,.816-.211,1.322,1.322,0,0,0,.465-.477V51.242h-.766q-1.375,0-1.375,1.234a.754.754,0,0,0,.242.582A.876.876,0,0,0,85.238,53.281Zm9.8-.656a.608.608,0,0,0-.352-.539,5.347,5.347,0,0,0-1.336-.422,6.092,6.092,0,0,1-1.625-.574,2.722,2.722,0,0,1-.977-.863,2.061,2.061,0,0,1-.336-1.164,2.336,2.336,0,0,1,.961-1.918,3.958,3.958,0,0,1,2.516-.754,4.386,4.386,0,0,1,2.688.758A2.37,2.37,0,0,1,97.6,49.141H94.957q0-1.016-1.07-1.016a1.061,1.061,0,0,0-.7.23.714.714,0,0,0-.281.574.655.655,0,0,0,.344.57,3.248,3.248,0,0,0,1.1.359,9.486,9.486,0,0,1,1.324.336,2.406,2.406,0,0,1,1.906,2.352,2.214,2.214,0,0,1-1.027,1.883,4.505,4.505,0,0,1-2.66.727,4.6,4.6,0,0,1-1.937-.391A3.24,3.24,0,0,1,90.629,53.7a2.406,2.406,0,0,1-.477-1.414h2.461a1.017,1.017,0,0,0,.391.855,1.607,1.607,0,0,0,.961.27,1.264,1.264,0,0,0,.809-.219A.7.7,0,0,0,95.043,52.625Zm7.422-1.93a4.989,4.989,0,0,1,.492-2.254,3.52,3.52,0,0,1,1.414-1.52,4.259,4.259,0,0,1,2.164-.531,3.887,3.887,0,0,1,2.992,1.176,4.512,4.512,0,0,1,1.094,3.2v.094a4.378,4.378,0,0,1-1.1,3.137,3.9,3.9,0,0,1-2.973,1.16,3.942,3.942,0,0,1-2.9-1.082,4.232,4.232,0,0,1-1.18-2.934Zm2.633.164a3.145,3.145,0,0,0,.367,1.719,1.223,1.223,0,0,0,1.086.547q1.406,0,1.438-2.164V50.7q0-2.273-1.453-2.273-1.32,0-1.43,1.961ZM22.7,75a2.973,2.973,0,0,1-.25-.758,2.448,2.448,0,0,1-2.031.914,3,3,0,0,1-2.031-.723,2.3,2.3,0,0,1-.836-1.816,2.364,2.364,0,0,1,1.016-2.078,5.174,5.174,0,0,1,2.953-.7h.813v-.448q0-1.17-1.008-1.17a.824.824,0,0,0-.937.926H17.75a2.36,2.36,0,0,1,1.043-1.99,4.383,4.383,0,0,1,2.66-.765,3.843,3.843,0,0,1,2.555.789,2.743,2.743,0,0,1,.961,2.164v3.742a3.832,3.832,0,0,0,.359,1.781V75Zm-1.648-1.719a1.469,1.469,0,0,0,.816-.211,1.322,1.322,0,0,0,.465-.477V71.242h-.766q-1.375,0-1.375,1.234a.754.754,0,0,0,.242.582A.876.876,0,0,0,21.047,73.281Zm9.8-.656a.608.608,0,0,0-.352-.539,5.348,5.348,0,0,0-1.336-.422,6.092,6.092,0,0,1-1.625-.574,2.722,2.722,0,0,1-.977-.863,2.061,2.061,0,0,1-.336-1.164,2.336,2.336,0,0,1,.961-1.918,3.958,3.958,0,0,1,2.516-.754,4.386,4.386,0,0,1,2.688.758,2.37,2.37,0,0,1,1.016,1.992H30.766q0-1.016-1.07-1.016a1.061,1.061,0,0,0-.7.23.714.714,0,0,0-.281.574.655.655,0,0,0,.344.57,3.248,3.248,0,0,0,1.1.359,9.485,9.485,0,0,1,1.324.336,2.406,2.406,0,0,1,1.906,2.352,2.214,2.214,0,0,1-1.027,1.883,4.505,4.505,0,0,1-2.66.727,4.6,4.6,0,0,1-1.937-.391A3.24,3.24,0,0,1,26.438,73.7a2.406,2.406,0,0,1-.477-1.414h2.461a1.017,1.017,0,0,0,.391.855,1.607,1.607,0,0,0,.961.27,1.264,1.264,0,0,0,.809-.219A.7.7,0,0,0,30.852,72.625ZM37.4,75H34.758V66.547H37.4ZM34.6,64.367a1.175,1.175,0,0,1,.406-.922,1.727,1.727,0,0,1,2.109,0,1.249,1.249,0,0,1,0,1.844,1.727,1.727,0,0,1-2.109,0A1.175,1.175,0,0,1,34.6,64.367Zm6.836,2.18.086.992a2.867,2.867,0,0,1,2.414-1.148,2.412,2.412,0,0,1,1.973.789,3.757,3.757,0,0,1,.676,2.375V75H43.945V69.664a1.426,1.426,0,0,0-.258-.941,1.193,1.193,0,0,0-.937-.3,1.256,1.256,0,0,0-1.148.609V75H38.969V66.547Zm10.18,6.578a1.171,1.171,0,0,0,.859-.3,1.1,1.1,0,0,0,.3-.84h2.469a2.922,2.922,0,0,1-1,2.281,3.705,3.705,0,0,1-2.566.891A3.751,3.751,0,0,1,48.773,74a4.556,4.556,0,0,1-1.062-3.2v-.109a5.149,5.149,0,0,1,.473-2.262,3.441,3.441,0,0,1,1.363-1.508,4.065,4.065,0,0,1,2.109-.527,3.658,3.658,0,0,1,2.617.914,3.242,3.242,0,0,1,.969,2.477H52.773a1.445,1.445,0,0,0-.32-1.008,1.106,1.106,0,0,0-.859-.352q-1.023,0-1.2,1.3a9.206,9.206,0,0,0-.055,1.141,3.616,3.616,0,0,0,.3,1.766A1.055,1.055,0,0,0,51.617,73.125Zm9.852-4.2-.867-.062a1.558,1.558,0,0,0-1.594.781V75H56.375V66.547h2.469l.086,1.086a2.039,2.039,0,0,1,1.852-1.242,2.567,2.567,0,0,1,.734.094ZM61.8,70.7a4.989,4.989,0,0,1,.492-2.254,3.52,3.52,0,0,1,1.414-1.52,4.259,4.259,0,0,1,2.164-.531,3.887,3.887,0,0,1,2.992,1.176,4.512,4.512,0,0,1,1.094,3.2v.094A4.378,4.378,0,0,1,68.863,74a3.9,3.9,0,0,1-2.973,1.16,3.942,3.942,0,0,1-2.9-1.082,4.232,4.232,0,0,1-1.18-2.934Zm2.633.164a3.145,3.145,0,0,0,.367,1.719,1.223,1.223,0,0,0,1.086.547q1.406,0,1.438-2.164V70.7q0-2.273-1.453-2.273-1.32,0-1.43,1.961ZM66.234,63h2.781l-2.172,2.453-2.148,0Zm7.3,3.547.086.992a2.867,2.867,0,0,1,2.414-1.148,2.412,2.412,0,0,1,1.973.789,3.757,3.757,0,0,1,.676,2.375V75H76.047V69.664a1.426,1.426,0,0,0-.258-.941,1.193,1.193,0,0,0-.937-.3,1.256,1.256,0,0,0-1.148.609V75H71.07V66.547ZM82.922,75H80.281V66.547h2.641Zm-2.8-10.633a1.175,1.175,0,0,1,.406-.922,1.727,1.727,0,0,1,2.109,0,1.249,1.249,0,0,1,0,1.844,1.727,1.727,0,0,1-2.109,0A1.175,1.175,0,0,1,80.125,64.367Zm7.992,8.758a1.171,1.171,0,0,0,.859-.3,1.1,1.1,0,0,0,.3-.84h2.469a2.922,2.922,0,0,1-1,2.281,3.705,3.705,0,0,1-2.566.891A3.751,3.751,0,0,1,85.273,74a4.556,4.556,0,0,1-1.062-3.2v-.109a5.149,5.149,0,0,1,.473-2.262,3.441,3.441,0,0,1,1.363-1.508,4.065,4.065,0,0,1,2.109-.527,3.658,3.658,0,0,1,2.617.914,3.242,3.242,0,0,1,.969,2.477H89.273a1.445,1.445,0,0,0-.32-1.008,1.106,1.106,0,0,0-.859-.352q-1.023,0-1.2,1.3a9.206,9.206,0,0,0-.055,1.141,3.616,3.616,0,0,0,.3,1.766A1.055,1.055,0,0,0,88.117,73.125ZM97.617,75a2.973,2.973,0,0,1-.25-.758,2.448,2.448,0,0,1-2.031.914,3,3,0,0,1-2.031-.723,2.3,2.3,0,0,1-.836-1.816,2.364,2.364,0,0,1,1.016-2.078,5.174,5.174,0,0,1,2.953-.7h.813v-.448q0-1.17-1.008-1.17a.824.824,0,0,0-.937.926H92.672a2.36,2.36,0,0,1,1.043-1.99,4.383,4.383,0,0,1,2.66-.765,3.843,3.843,0,0,1,2.555.789,2.743,2.743,0,0,1,.961,2.164v3.742a3.832,3.832,0,0,0,.359,1.781V75Zm-1.648-1.719a1.469,1.469,0,0,0,.816-.211,1.322,1.322,0,0,0,.465-.477V71.242h-.766q-1.375,0-1.375,1.234a.754.754,0,0,0,.242.582A.876.876,0,0,0,95.969,73.281Zm9.8-.656a.608.608,0,0,0-.352-.539,5.348,5.348,0,0,0-1.336-.422,6.092,6.092,0,0,1-1.625-.574,2.722,2.722,0,0,1-.977-.863,2.061,2.061,0,0,1-.336-1.164,2.336,2.336,0,0,1,.961-1.918,3.958,3.958,0,0,1,2.516-.754,4.386,4.386,0,0,1,2.688.758,2.37,2.37,0,0,1,1.016,1.992h-2.641q0-1.016-1.07-1.016a1.061,1.061,0,0,0-.7.23.714.714,0,0,0-.281.574.655.655,0,0,0,.344.57,3.248,3.248,0,0,0,1.1.359,9.485,9.485,0,0,1,1.324.336,2.406,2.406,0,0,1,1.906,2.352,2.214,2.214,0,0,1-1.027,1.883,4.505,4.505,0,0,1-2.66.727,4.6,4.6,0,0,1-1.937-.391,3.24,3.24,0,0,1-1.328-1.062,2.406,2.406,0,0,1-.477-1.414h2.461a1.017,1.017,0,0,0,.391.855,1.607,1.607,0,0,0,.961.27,1.264,1.264,0,0,0,.809-.219A.7.7,0,0,0,105.773,72.625Z" transform="translate(819 6269)" fill="#12263f"/>
    <path id="Path_874047" data-name="Path 874047" d="M19.234,13.594a4.409,4.409,0,0,1-1.852,1.133,7.986,7.986,0,0,1-2.672.43,4.764,4.764,0,0,1-3.57-1.367,5.534,5.534,0,0,1-1.43-3.8L9.7,9A6.788,6.788,0,0,1,10.3,6.066,4.409,4.409,0,0,1,12,4.137a4.807,4.807,0,0,1,2.559-.676,5.039,5.039,0,0,1,3.3.973,4.121,4.121,0,0,1,1.371,2.9H16.586a2.157,2.157,0,0,0-.609-1.359,1.966,1.966,0,0,0-1.328-.406,1.789,1.789,0,0,0-1.594.875,4.672,4.672,0,0,0-.57,2.5v.688a4.574,4.574,0,0,0,.582,2.559,2.059,2.059,0,0,0,1.832.855,2.3,2.3,0,0,0,1.594-.477V10.8H14.586V8.922h4.648ZM25.82,8.93l-.867-.062a1.558,1.558,0,0,0-1.594.781V15H20.727V6.547H23.2l.086,1.086a2.039,2.039,0,0,1,1.852-1.242,2.567,2.567,0,0,1,.734.094ZM31.8,14.086a2.714,2.714,0,0,1-2.258,1.07,2.662,2.662,0,0,1-2.105-.809,3.4,3.4,0,0,1-.715-2.324V6.547h2.633v5.492a.946.946,0,0,0,1.055,1.086,1.376,1.376,0,0,0,1.289-.648V6.547h2.648V15H31.883Zm11.836-3.25a5.1,5.1,0,0,1-.887,3.145,2.843,2.843,0,0,1-2.395,1.176,2.437,2.437,0,0,1-1.914-.852V18.25H35.813V6.547h2.461l.078.781a2.437,2.437,0,0,1,1.992-.937,2.866,2.866,0,0,1,2.43,1.152,5.16,5.16,0,0,1,.867,3.168Zm-2.633-.164q0-2.25-1.312-2.25a1.239,1.239,0,0,0-1.25.672v3.328a1.279,1.279,0,0,0,1.266.7q1.258,0,1.3-2.172Zm3.461.023a4.989,4.989,0,0,1,.492-2.254,3.52,3.52,0,0,1,1.414-1.52,4.259,4.259,0,0,1,2.164-.531,3.887,3.887,0,0,1,2.992,1.176,4.512,4.512,0,0,1,1.094,3.2v.094A4.378,4.378,0,0,1,51.527,14a3.9,3.9,0,0,1-2.973,1.16,3.942,3.942,0,0,1-2.9-1.082,4.232,4.232,0,0,1-1.18-2.934Zm2.633.164a3.145,3.145,0,0,0,.367,1.719,1.223,1.223,0,0,0,1.086.547q1.406,0,1.438-2.164V10.7q0-2.273-1.453-2.273-1.32,0-1.43,1.961Zm11.109,1.766a.608.608,0,0,0-.352-.539,5.348,5.348,0,0,0-1.336-.422A6.092,6.092,0,0,1,54.9,11.09a2.722,2.722,0,0,1-.977-.863,2.061,2.061,0,0,1-.336-1.164,2.336,2.336,0,0,1,.961-1.918,3.958,3.958,0,0,1,2.516-.754,4.386,4.386,0,0,1,2.688.758,2.37,2.37,0,0,1,1.016,1.992H58.125q0-1.016-1.07-1.016a1.061,1.061,0,0,0-.7.23.714.714,0,0,0-.281.574.655.655,0,0,0,.344.57,3.248,3.248,0,0,0,1.1.359,9.485,9.485,0,0,1,1.324.336,2.406,2.406,0,0,1,1.906,2.352,2.214,2.214,0,0,1-1.027,1.883,4.505,4.505,0,0,1-2.66.727,4.6,4.6,0,0,1-1.937-.391A3.24,3.24,0,0,1,53.8,13.7a2.406,2.406,0,0,1-.477-1.414h2.461a1.017,1.017,0,0,0,.391.855,1.607,1.607,0,0,0,.961.27,1.264,1.264,0,0,0,.809-.219A.7.7,0,0,0,58.211,12.625Zm7.422-1.914A5.164,5.164,0,0,1,66.5,7.547a2.854,2.854,0,0,1,2.422-1.156,2.428,2.428,0,0,1,1.906.891V3h2.641V15H71.1l-.133-.906a2.493,2.493,0,0,1-2.062,1.063A2.849,2.849,0,0,1,66.516,14,5.327,5.327,0,0,1,65.633,10.711Zm2.633.164q0,2.25,1.313,2.25a1.3,1.3,0,0,0,1.25-.734V9.172a1.261,1.261,0,0,0-1.234-.75q-1.219,0-1.32,1.969Zm10.789,4.281A4.345,4.345,0,0,1,75.906,14a4.006,4.006,0,0,1-1.2-3.02v-.219a5.191,5.191,0,0,1,.48-2.289,3.516,3.516,0,0,1,1.4-1.535,4.233,4.233,0,0,1,2.188-.543A3.659,3.659,0,0,1,81.586,7.5a4.344,4.344,0,0,1,1.031,3.082V11.6H77.383A1.9,1.9,0,0,0,78,12.719a1.836,1.836,0,0,0,1.234.406,2.366,2.366,0,0,0,1.953-.875l1.2,1.422A3.363,3.363,0,0,1,81,14.754,4.713,4.713,0,0,1,79.055,15.156Zm-.3-6.734q-1.156,0-1.375,1.531h2.656v-.2a1.3,1.3,0,0,0-.32-.98A1.275,1.275,0,0,0,78.758,8.422ZM24.5,24.445v2.1h1.391v1.828H24.5v3.867a.987.987,0,0,0,.172.664.922.922,0,0,0,.68.188A3.862,3.862,0,0,0,26,33.047V34.93a4.859,4.859,0,0,1-1.484.227,2.758,2.758,0,0,1-2.008-.641,2.626,2.626,0,0,1-.648-1.945v-4.2H20.785V26.547h1.078v-2.1Zm7.539,4.484-.867-.062a1.558,1.558,0,0,0-1.594.781V35H26.941V26.547H29.41l.086,1.086a2.039,2.039,0,0,1,1.852-1.242,2.567,2.567,0,0,1,.734.094ZM37.512,35a2.973,2.973,0,0,1-.25-.758,2.448,2.448,0,0,1-2.031.914,3,3,0,0,1-2.031-.723,2.3,2.3,0,0,1-.836-1.816,2.364,2.364,0,0,1,1.016-2.078,5.174,5.174,0,0,1,2.953-.7h.813v-.448q0-1.17-1.008-1.17a.824.824,0,0,0-.937.926H32.566a2.36,2.36,0,0,1,1.043-1.99,4.383,4.383,0,0,1,2.66-.765,3.843,3.843,0,0,1,2.555.789,2.743,2.743,0,0,1,.961,2.164v3.742a3.832,3.832,0,0,0,.359,1.781V35Zm-1.648-1.719a1.469,1.469,0,0,0,.816-.211,1.322,1.322,0,0,0,.465-.477V31.242h-.766Q35,31.242,35,32.477a.754.754,0,0,0,.242.582A.876.876,0,0,0,35.863,33.281ZM49.09,30.844a5.152,5.152,0,0,1-.859,3.2,2.878,2.878,0,0,1-2.422,1.117,2.5,2.5,0,0,1-2.078-1.023L43.621,35H41.262V23h2.633v4.227a2.41,2.41,0,0,1,1.9-.836,2.879,2.879,0,0,1,2.438,1.133,5.179,5.179,0,0,1,.859,3.188Zm-2.641-.168a3.437,3.437,0,0,0-.324-1.735,1.093,1.093,0,0,0-1-.519,1.261,1.261,0,0,0-1.234.679v3.354a1.268,1.268,0,0,0,1.25.671,1.118,1.118,0,0,0,1.18-.9A6.5,6.5,0,0,0,46.449,30.676ZM55.012,35a2.973,2.973,0,0,1-.25-.758,2.448,2.448,0,0,1-2.031.914,3,3,0,0,1-2.031-.723,2.3,2.3,0,0,1-.836-1.816,2.364,2.364,0,0,1,1.016-2.078,5.174,5.174,0,0,1,2.953-.7h.813v-.448q0-1.17-1.008-1.17a.824.824,0,0,0-.937.926H50.066a2.36,2.36,0,0,1,1.043-1.99,4.383,4.383,0,0,1,2.66-.765,3.843,3.843,0,0,1,2.555.789,2.743,2.743,0,0,1,.961,2.164v3.742a3.832,3.832,0,0,0,.359,1.781V35Zm-1.648-1.719a1.469,1.469,0,0,0,.816-.211,1.322,1.322,0,0,0,.465-.477V31.242h-.766q-1.375,0-1.375,1.234a.754.754,0,0,0,.242.582A.876.876,0,0,0,53.363,33.281Zm8.211-6.734v8.742a3.068,3.068,0,0,1-.859,2.313,3.3,3.3,0,0,1-2.375.813,5.607,5.607,0,0,1-1.242-.133V36.289a5.037,5.037,0,0,0,.742.07.963.963,0,0,0,1.094-1.086V26.547Zm-2.836-2.18a1.175,1.175,0,0,1,.406-.922,1.727,1.727,0,0,1,2.109,0,1.249,1.249,0,0,1,0,1.844,1.727,1.727,0,0,1-2.109,0A1.175,1.175,0,0,1,58.738,24.367ZM62.73,30.7a4.989,4.989,0,0,1,.492-2.254,3.52,3.52,0,0,1,1.414-1.52,4.259,4.259,0,0,1,2.164-.531,3.887,3.887,0,0,1,2.992,1.176,4.512,4.512,0,0,1,1.094,3.2v.094A4.378,4.378,0,0,1,69.789,34a3.9,3.9,0,0,1-2.973,1.16,3.942,3.942,0,0,1-2.9-1.082,4.232,4.232,0,0,1-1.18-2.934Zm2.633.164a3.145,3.145,0,0,0,.367,1.719,1.223,1.223,0,0,0,1.086.547q1.406,0,1.438-2.164V30.7q0-2.273-1.453-2.273-1.32,0-1.43,1.961Z" transform="translate(980 6289)" fill="#f3f9ff"/>
    <path id="Path_874048" data-name="Path 874048" d="M6,0H143a6,6,0,0,1,6,6V22a6,6,0,0,1-6,6H6a6,6,0,0,1-6-6V6A6,6,0,0,1,6,0Z" transform="translate(364 6394.771)" fill="#0d599b"/>
    <path id="Path_874049" data-name="Path 874049" d="M6,0H143a6,6,0,0,1,6,6V22a6,6,0,0,1-6,6H6a6,6,0,0,1-6-6V6A6,6,0,0,1,6,0Z" transform="translate(1099 6394.771)" fill="#216102"/>
    <path id="Path_874050" data-name="Path 874050" d="M39.66,15H36.926V3.625H39.66Zm4.2-8.453.086.992a2.867,2.867,0,0,1,2.414-1.148,2.412,2.412,0,0,1,1.973.789,3.757,3.757,0,0,1,.676,2.375V15H46.371V9.664a1.426,1.426,0,0,0-.258-.941,1.193,1.193,0,0,0-.937-.3,1.256,1.256,0,0,0-1.148.609V15H41.395V6.547Zm11.031,6.078a.608.608,0,0,0-.352-.539,5.348,5.348,0,0,0-1.336-.422,6.092,6.092,0,0,1-1.625-.574,2.722,2.722,0,0,1-.977-.863,2.061,2.061,0,0,1-.336-1.164,2.336,2.336,0,0,1,.961-1.918,3.958,3.958,0,0,1,2.516-.754,4.386,4.386,0,0,1,2.688.758,2.37,2.37,0,0,1,1.016,1.992H54.809q0-1.016-1.07-1.016a1.061,1.061,0,0,0-.7.23.714.714,0,0,0-.281.574.655.655,0,0,0,.344.57,3.248,3.248,0,0,0,1.1.359,9.485,9.485,0,0,1,1.324.336,2.406,2.406,0,0,1,1.906,2.352,2.214,2.214,0,0,1-1.027,1.883,4.505,4.505,0,0,1-2.66.727,4.6,4.6,0,0,1-1.937-.391A3.24,3.24,0,0,1,50.48,13.7,2.406,2.406,0,0,1,50,12.289h2.461a1.017,1.017,0,0,0,.391.855,1.607,1.607,0,0,0,.961.27,1.264,1.264,0,0,0,.809-.219A.7.7,0,0,0,54.895,12.625Zm6.836-8.18v2.1h1.391V8.375H61.73v3.867a.987.987,0,0,0,.172.664.922.922,0,0,0,.68.188,3.862,3.862,0,0,0,.656-.047V14.93a4.859,4.859,0,0,1-1.484.227,2.758,2.758,0,0,1-2.008-.641A2.626,2.626,0,0,1,59.1,12.57v-4.2H58.02V6.547H59.1v-2.1ZM69.27,8.93,68.4,8.867a1.558,1.558,0,0,0-1.594.781V15H64.176V6.547h2.469l.086,1.086a2.039,2.039,0,0,1,1.852-1.242,2.567,2.567,0,0,1,.734.094Zm5.984,5.156A2.714,2.714,0,0,1,73,15.156a2.662,2.662,0,0,1-2.105-.809,3.4,3.4,0,0,1-.715-2.324V6.547h2.633v5.492a.946.946,0,0,0,1.055,1.086,1.376,1.376,0,0,0,1.289-.648V6.547H77.8V15H75.332Zm7.563-.961a1.171,1.171,0,0,0,.859-.3,1.1,1.1,0,0,0,.3-.84h2.469a2.922,2.922,0,0,1-1,2.281,3.705,3.705,0,0,1-2.566.891A3.751,3.751,0,0,1,79.973,14a4.556,4.556,0,0,1-1.062-3.2v-.109a5.149,5.149,0,0,1,.473-2.262,3.441,3.441,0,0,1,1.363-1.508,4.065,4.065,0,0,1,2.109-.527,3.658,3.658,0,0,1,2.617.914,3.242,3.242,0,0,1,.969,2.477H83.973a1.445,1.445,0,0,0-.32-1.008,1.106,1.106,0,0,0-.859-.352q-1.023,0-1.2,1.3a9.206,9.206,0,0,0-.055,1.141,3.616,3.616,0,0,0,.3,1.766A1.055,1.055,0,0,0,82.816,13.125Zm7.8-8.68v2.1h1.391V8.375H90.621v3.867a.987.987,0,0,0,.172.664.922.922,0,0,0,.68.188,3.862,3.862,0,0,0,.656-.047V14.93a4.859,4.859,0,0,1-1.484.227,2.758,2.758,0,0,1-2.008-.641,2.626,2.626,0,0,1-.648-1.945v-4.2H86.91V6.547h1.078v-2.1ZM92.48,10.7a4.989,4.989,0,0,1,.492-2.254,3.52,3.52,0,0,1,1.414-1.52,4.259,4.259,0,0,1,2.164-.531,3.887,3.887,0,0,1,2.992,1.176,4.512,4.512,0,0,1,1.094,3.2v.094A4.378,4.378,0,0,1,99.539,14a3.9,3.9,0,0,1-2.973,1.16,3.942,3.942,0,0,1-2.9-1.082,4.232,4.232,0,0,1-1.18-2.934Zm2.633.164a3.145,3.145,0,0,0,.367,1.719,1.223,1.223,0,0,0,1.086.547q1.406,0,1.438-2.164V10.7q0-2.273-1.453-2.273-1.32,0-1.43,1.961Zm11.8-1.93-.867-.062a1.558,1.558,0,0,0-1.594.781V15h-2.633V6.547h2.469l.086,1.086a2.039,2.039,0,0,1,1.852-1.242,2.567,2.567,0,0,1,.734.094Z" transform="translate(364 6399.771)" fill="#fff"/>
    <path id="Path_874051" data-name="Path 874051" d="M27.414,12.875H23.656L23,15H20.07L24.242,3.625H26.82L31.023,15H28.078Zm-3.1-2.117h2.445L25.531,6.813Zm14.891.078a5.1,5.1,0,0,1-.887,3.145,2.843,2.843,0,0,1-2.395,1.176,2.437,2.437,0,0,1-1.914-.852V18.25H31.375V6.547h2.461l.078.781a2.437,2.437,0,0,1,1.992-.937,2.866,2.866,0,0,1,2.43,1.152,5.16,5.16,0,0,1,.867,3.168Zm-2.633-.164q0-2.25-1.312-2.25a1.239,1.239,0,0,0-1.25.672v3.328a1.279,1.279,0,0,0,1.266.7q1.258,0,1.3-2.172ZM45.477,8.93l-.867-.062a1.558,1.558,0,0,0-1.594.781V15H40.383V6.547h2.469l.086,1.086a2.039,2.039,0,0,1,1.852-1.242,2.567,2.567,0,0,1,.734.094Zm4.891,6.227A4.345,4.345,0,0,1,47.219,14a4.006,4.006,0,0,1-1.2-3.02v-.219a5.191,5.191,0,0,1,.48-2.289,3.516,3.516,0,0,1,1.4-1.535,4.233,4.233,0,0,1,2.188-.543A3.659,3.659,0,0,1,52.9,7.5a4.344,4.344,0,0,1,1.031,3.082V11.6H48.7a1.9,1.9,0,0,0,.617,1.117,1.836,1.836,0,0,0,1.234.406A2.366,2.366,0,0,0,52.5,12.25l1.2,1.422a3.363,3.363,0,0,1-1.395,1.082A4.713,4.713,0,0,1,50.367,15.156Zm-.3-6.734q-1.156,0-1.375,1.531h2.656v-.2a1.3,1.3,0,0,0-.32-.98A1.275,1.275,0,0,0,50.07,8.422Zm7.336-1.875.086.992a2.867,2.867,0,0,1,2.414-1.148,2.412,2.412,0,0,1,1.973.789,3.757,3.757,0,0,1,.676,2.375V15H59.914V9.664a1.426,1.426,0,0,0-.258-.941,1.193,1.193,0,0,0-.937-.3,1.256,1.256,0,0,0-1.148.609V15H54.938V6.547Zm6.273,4.164a5.164,5.164,0,0,1,.867-3.164,2.854,2.854,0,0,1,2.422-1.156,2.428,2.428,0,0,1,1.906.891V3h2.641V15H69.148l-.133-.906a2.493,2.493,0,0,1-2.062,1.063A2.849,2.849,0,0,1,64.563,14,5.327,5.327,0,0,1,63.68,10.711Zm2.633.164q0,2.25,1.313,2.25a1.3,1.3,0,0,0,1.25-.734V9.172a1.261,1.261,0,0,0-1.234-.75q-1.219,0-1.32,1.969ZM75.789,15H73.148V6.547h2.641Zm-2.8-10.633a1.175,1.175,0,0,1,.406-.922,1.727,1.727,0,0,1,2.109,0,1.175,1.175,0,0,1,.406.922,1.175,1.175,0,0,1-.406.922,1.727,1.727,0,0,1-2.109,0A1.175,1.175,0,0,1,72.992,4.367Zm7.523,8.6h3.852V15h-7.18V13.531l3.75-4.953H77.352V6.547h6.93V7.969Z" transform="translate(1119 6399.771)" fill="#fff"/>
  </g>
</svg>
