<svg xmlns="http://www.w3.org/2000/svg" xmlns:xlink="http://www.w3.org/1999/xlink" width="121" height="121.071" viewBox="0 0 121 121.071">
  <defs>
    <clipPath id="clip-path">
      <rect id="Rectangle_400938" data-name="Rectangle 400938" width="121" height="121" transform="translate(0 0)" fill="none"/>
    </clipPath>
    <clipPath id="clip-path-2">
      <path id="Path_615713" data-name="Path 615713" d="M34.326,4.713C17.359,11,4.355,26.244,1.139,43.9A57.41,57.41,0,0,0,0,55.258a58.193,58.193,0,0,0,46.682,57.033,49.655,49.655,0,0,0,11.324,1.015C72.393,111.679,81.177,97.9,80.23,83.861c-.775-14.038-1.292-30.574,11.691-39.039,3.308-2.89,6.292-5.241,8.8-7.3,7.16-4.561,10-14.982,3.8-21.183C93.332,5.046,77.231,0,61.092,0A78.157,78.157,0,0,0,34.326,4.713" fill="none"/>
    </clipPath>
    <clipPath id="clip-path-3">
      <rect id="Rectangle_378821" data-name="Rectangle 378821" width="121.797" height="121.798" fill="#0d599b"/>
    </clipPath>
    <clipPath id="clip-path-4">
      <path id="Path_615689" data-name="Path 615689" d="M67.277,67.015.264,0Q.088,1.662,0,3.331L63.948,67.277q1.664-.082,3.329-.262" fill="#0d599b"/>
    </clipPath>
    <clipPath id="clip-path-5">
      <path id="Path_615690" data-name="Path 615690" d="M8.638,10.848a60.9,60.9,0,0,0,10.847,8.636L0,0A61.048,61.048,0,0,0,8.638,10.848" fill="#0d599b"/>
    </clipPath>
    <clipPath id="clip-path-6">
      <path id="Path_615691" data-name="Path 615691" d="M.8,4.392l46.358,46.36q2.179.476,4.387.8L0,0C.215,1.471.477,2.935.8,4.392" fill="#0d599b"/>
    </clipPath>
    <clipPath id="clip-path-7">
      <path id="Path_615692" data-name="Path 615692" d="M2.126,5.721,33.954,37.55a60.287,60.287,0,0,0,5.72,2.125L0,0A60.059,60.059,0,0,0,2.126,5.721" fill="#0d599b"/>
    </clipPath>
    <clipPath id="clip-path-8">
      <path id="Path_615693" data-name="Path 615693" d="M.151,3.743l56.341,56.34c1.247.091,2.495.138,3.741.152L0,0Q.018,1.872.151,3.743" fill="#0d599b"/>
    </clipPath>
    <clipPath id="clip-path-9">
      <path id="Path_615694" data-name="Path 615694" d="M77.539,74.766,2.773,0C1.843.253.918.525,0,.822L76.718,77.54q.442-1.381.821-2.774" fill="#0d599b"/>
    </clipPath>
    <clipPath id="clip-path-10">
      <path id="Path_615695" data-name="Path 615695" d="M72.985,69.962,3.025,0C2.012.168,1,.355,0,.572L72.414,72.988c.216-1.007.406-2.013.571-3.026" fill="#0d599b"/>
    </clipPath>
    <clipPath id="clip-path-11">
      <path id="Path_615696" data-name="Path 615696" d="M67.281,63.949,3.332,0C2.22.057,1.109.148,0,.264L67.018,67.279c.118-1.106.206-2.22.263-3.33" fill="#0d599b"/>
    </clipPath>
    <clipPath id="clip-path-12">
      <path id="Path_615697" data-name="Path 615697" d="M81.131,78.574,2.555,0Q1.267.49,0,1.035L80.094,81.129q.547-1.268,1.037-2.555" fill="#0d599b"/>
    </clipPath>
    <clipPath id="clip-path-13">
      <path id="Path_615698" data-name="Path 615698" d="M83.884,81.516,2.367,0Q1.171.586,0,1.23L82.655,83.885c.427-.785.837-1.571,1.229-2.369" fill="#0d599b"/>
    </clipPath>
    <clipPath id="clip-path-14">
      <path id="Path_615699" data-name="Path 615699" d="M60.087,56.494,3.746.152Q1.872.019,0,0L60.239,60.24c-.014-1.25-.062-2.5-.152-3.746" fill="#0d599b"/>
    </clipPath>
    <clipPath id="clip-path-15">
      <path id="Path_615700" data-name="Path 615700" d="M37.548,33.95,5.725,2.127Q2.908.918,0,0L39.676,39.674a60.112,60.112,0,0,0-2.128-5.725" fill="#0d599b"/>
    </clipPath>
    <clipPath id="clip-path-16">
      <path id="Path_615701" data-name="Path 615701" d="M72.982,72.412.568,0Q.245,1.5,0,3.022l69.961,69.96q1.517-.248,3.021-.57" fill="#0d599b"/>
    </clipPath>
    <clipPath id="clip-path-17">
      <path id="Path_615702" data-name="Path 615702" d="M10.848,8.638A61.2,61.2,0,0,0,0,0L19.486,19.488a61.019,61.019,0,0,0-8.638-10.85" fill="#0d599b"/>
    </clipPath>
    <clipPath id="clip-path-18">
      <path id="Path_615703" data-name="Path 615703" d="M50.748,47.158,4.39.8C2.935.477,1.47.215,0,0L51.549,51.546c-.215-1.469-.48-2.935-.8-4.388" fill="#0d599b"/>
    </clipPath>
    <clipPath id="clip-path-19">
      <path id="Path_615704" data-name="Path 615704" d="M85.885,83.688,2.2,0C1.455.449.721.914,0,1.4L84.484,85.884q.726-1.088,1.4-2.2" fill="#0d599b"/>
    </clipPath>
    <clipPath id="clip-path-20">
      <path id="Path_615705" data-name="Path 615705" d="M85.883,84.483,1.4,0Q.674,1.082,0,2.192l83.692,83.69c.736-.447,1.468-.917,2.192-1.4" fill="#0d599b"/>
    </clipPath>
    <clipPath id="clip-path-21">
      <path id="Path_615706" data-name="Path 615706" d="M83.886,82.655,1.23,0Q.588,1.171,0,2.369L81.517,83.885c.8-.39,1.586-.8,2.369-1.23" fill="#0d599b"/>
    </clipPath>
    <clipPath id="clip-path-22">
      <path id="Path_615707" data-name="Path 615707" d="M81.132,80.093,1.037,0C.671.846.323,1.7,0,2.561L78.572,81.133q1.289-.49,2.56-1.041" fill="#0d599b"/>
    </clipPath>
    <clipPath id="clip-path-23">
      <path id="Path_615708" data-name="Path 615708" d="M77.546,76.721.823,0Q.379,1.381,0,2.776L74.768,77.542c.932-.253,1.854-.524,2.778-.821" fill="#0d599b"/>
    </clipPath>
    <clipPath id="clip-path-24">
      <path id="Path_615709" data-name="Path 615709" d="M87.188,85.626,1.564,0C1.027.67.5,1.344,0,2.03L85.163,87.191c.683-.5,1.356-1.029,2.025-1.565" fill="#0d599b"/>
    </clipPath>
    <clipPath id="clip-path-25">
      <path id="Path_615710" data-name="Path 615710" d="M87.828,85.954,1.875,0Q.922.838,0,1.717L86.11,87.829q.882-.926,1.718-1.875" fill="#0d599b"/>
    </clipPath>
    <clipPath id="clip-path-26">
      <path id="Path_615711" data-name="Path 615711" d="M87.83,86.107,1.718,0Q.837.923,0,1.873L85.954,87.828q.951-.837,1.876-1.721" fill="#0d599b"/>
    </clipPath>
    <clipPath id="clip-path-27">
      <path id="Path_615712" data-name="Path 615712" d="M87.19,85.163,2.03,0C1.343.5.67,1.029,0,1.567L85.623,87.191c.538-.667,1.063-1.345,1.567-2.029" fill="#0d599b"/>
    </clipPath>
    <clipPath id="clip-path-28">
      <rect id="Rectangle_401180" data-name="Rectangle 401180" width="59.754" height="63.6" fill="#12405a"/>
    </clipPath>
  </defs>
  <g id="Group_1099539" data-name="Group 1099539" transform="translate(2838 6263)">
    <g id="Group_1099420" data-name="Group 1099420" transform="translate(-3223.607 -12275.939)">
      <ellipse id="Ellipse_11490" data-name="Ellipse 11490" cx="41.5" cy="30" rx="41.5" ry="30" transform="translate(399.607 6066.939)" fill="#d7f5f7"/>
      <g id="Mask_Group_1098657" data-name="Mask Group 1098657" transform="translate(385.607 6012.939)" clip-path="url(#clip-path)">
        <g id="Group_1098881" data-name="Group 1098881" transform="translate(7.615 109.155) rotate(-90)">
          <g id="Group_1074821" data-name="Group 1074821" transform="translate(0)" clip-path="url(#clip-path-2)">
            <g id="Group_1074820" data-name="Group 1074820" transform="translate(-4.326 -8.469)" opacity="0.5">
              <g id="Group_1074819" data-name="Group 1074819">
                <g id="Group_1074818" data-name="Group 1074818" clip-path="url(#clip-path-3)">
                  <g id="Group_1074771" data-name="Group 1074771" transform="translate(0.074 54.445)">
                    <g id="Group_1074770" data-name="Group 1074770" clip-path="url(#clip-path-4)">
                      <rect id="Rectangle_378797" data-name="Rectangle 378797" width="95.144" height="95.144" transform="translate(-33.638 33.639) rotate(-45)" fill="#0d599b"/>
                    </g>
                  </g>
                  <g id="Group_1074773" data-name="Group 1074773" transform="translate(9.195 93.117)">
                    <g id="Group_1074772" data-name="Group 1074772" clip-path="url(#clip-path-5)">
                      <rect id="Rectangle_378798" data-name="Rectangle 378798" width="27.555" height="27.555" transform="translate(-9.742 9.742) rotate(-45)" fill="#0d599b"/>
                    </g>
                  </g>
                  <g id="Group_1074775" data-name="Group 1074775" transform="translate(0.617 69.632)">
                    <g id="Group_1074774" data-name="Group 1074774" clip-path="url(#clip-path-6)">
                      <rect id="Rectangle_378799" data-name="Rectangle 378799" width="72.899" height="72.899" transform="translate(-25.774 25.774) rotate(-45)" fill="#0d599b"/>
                    </g>
                  </g>
                  <g id="Group_1074777" data-name="Group 1074777" transform="translate(2.828 79.294)">
                    <g id="Group_1074776" data-name="Group 1074776" clip-path="url(#clip-path-7)">
                      <rect id="Rectangle_378800" data-name="Rectangle 378800" width="56.108" height="56.108" transform="translate(-19.837 19.837) rotate(-45)" fill="#0d599b"/>
                    </g>
                  </g>
                  <g id="Group_1074779" data-name="Group 1074779" transform="translate(0 61.562)">
                    <g id="Group_1074778" data-name="Group 1074778" clip-path="url(#clip-path-8)">
                      <rect id="Rectangle_378801" data-name="Rectangle 378801" width="85.184" height="85.184" transform="translate(-30.118 30.118) rotate(-45)" fill="#0d599b"/>
                    </g>
                  </g>
                  <g id="Group_1074781" data-name="Group 1074781" transform="translate(42.139 2.119)">
                    <g id="Group_1074780" data-name="Group 1074780" clip-path="url(#clip-path-9)">
                      <rect id="Rectangle_378802" data-name="Rectangle 378802" width="109.658" height="109.658" transform="translate(-38.77 38.77) rotate(-45)" fill="#0d599b"/>
                    </g>
                  </g>
                  <g id="Group_1074783" data-name="Group 1074783" transform="translate(48.018 0.794)">
                    <g id="Group_1074782" data-name="Group 1074782" clip-path="url(#clip-path-10)">
                      <rect id="Rectangle_378803" data-name="Rectangle 378803" width="103.219" height="103.219" transform="translate(-36.494 36.494) rotate(-45)" fill="#0d599b"/>
                    </g>
                  </g>
                  <g id="Group_1074785" data-name="Group 1074785" transform="translate(54.442 0.075)">
                    <g id="Group_1074784" data-name="Group 1074784" clip-path="url(#clip-path-11)">
                      <rect id="Rectangle_378804" data-name="Rectangle 378804" width="95.148" height="95.148" transform="translate(-33.64 33.64) rotate(-45)" fill="#0d599b"/>
                    </g>
                  </g>
                  <g id="Group_1074787" data-name="Group 1074787" transform="translate(36.724 3.942)">
                    <g id="Group_1074786" data-name="Group 1074786" clip-path="url(#clip-path-12)">
                      <rect id="Rectangle_378805" data-name="Rectangle 378805" width="114.735" height="114.735" transform="translate(-40.565 40.565) rotate(-45)" fill="#0d599b"/>
                    </g>
                  </g>
                  <g id="Group_1074789" data-name="Group 1074789" transform="translate(31.716 6.198)">
                    <g id="Group_1074788" data-name="Group 1074788" clip-path="url(#clip-path-13)">
                      <rect id="Rectangle_378806" data-name="Rectangle 378806" width="118.631" height="118.631" transform="translate(-41.943 41.943) rotate(-45)" fill="#0d599b"/>
                    </g>
                  </g>
                  <g id="Group_1074791" data-name="Group 1074791" transform="translate(61.558 0)">
                    <g id="Group_1074790" data-name="Group 1074790" clip-path="url(#clip-path-14)">
                      <rect id="Rectangle_378807" data-name="Rectangle 378807" width="85.191" height="85.191" transform="translate(-30.12 30.12) rotate(-45)" fill="#0d599b"/>
                    </g>
                  </g>
                  <g id="Group_1074793" data-name="Group 1074793" transform="translate(79.293 2.829)">
                    <g id="Group_1074792" data-name="Group 1074792" clip-path="url(#clip-path-15)">
                      <rect id="Rectangle_378808" data-name="Rectangle 378808" width="56.109" height="56.109" transform="translate(-19.837 19.837) rotate(-45)" fill="#0d599b"/>
                    </g>
                  </g>
                  <g id="Group_1074795" data-name="Group 1074795" transform="translate(0.794 48.021)">
                    <g id="Group_1074794" data-name="Group 1074794" clip-path="url(#clip-path-16)">
                      <rect id="Rectangle_378809" data-name="Rectangle 378809" width="103.212" height="103.212" transform="translate(-36.491 36.491) rotate(-45)" fill="#0d599b"/>
                    </g>
                  </g>
                  <g id="Group_1074797" data-name="Group 1074797" transform="translate(93.116 9.194)">
                    <g id="Group_1074796" data-name="Group 1074796" clip-path="url(#clip-path-17)">
                      <rect id="Rectangle_378810" data-name="Rectangle 378810" width="27.559" height="27.559" transform="translate(-9.744 9.744) rotate(-45)" fill="#0d599b"/>
                    </g>
                  </g>
                  <g id="Group_1074799" data-name="Group 1074799" transform="translate(69.632 0.619)">
                    <g id="Group_1074798" data-name="Group 1074798" clip-path="url(#clip-path-18)">
                      <rect id="Rectangle_378811" data-name="Rectangle 378811" width="72.899" height="72.899" transform="translate(-25.773 25.773) rotate(-45)" fill="#0d599b"/>
                    </g>
                  </g>
                  <g id="Group_1074801" data-name="Group 1074801" transform="translate(27.074 8.839)">
                    <g id="Group_1074800" data-name="Group 1074800" clip-path="url(#clip-path-19)">
                      <rect id="Rectangle_378812" data-name="Rectangle 378812" width="121.459" height="121.459" transform="translate(-42.942 42.942) rotate(-45)" fill="#0d599b"/>
                    </g>
                  </g>
                  <g id="Group_1074803" data-name="Group 1074803" transform="translate(8.837 27.076)">
                    <g id="Group_1074802" data-name="Group 1074802" clip-path="url(#clip-path-20)">
                      <rect id="Rectangle_378813" data-name="Rectangle 378813" width="121.457" height="121.457" transform="translate(-42.941 42.941) rotate(-45)" fill="#0d599b"/>
                    </g>
                  </g>
                  <g id="Group_1074805" data-name="Group 1074805" transform="translate(6.196 31.716)">
                    <g id="Group_1074804" data-name="Group 1074804" clip-path="url(#clip-path-21)">
                      <rect id="Rectangle_378814" data-name="Rectangle 378814" width="118.632" height="118.632" transform="translate(-41.943 41.943) rotate(-45)" fill="#0d599b"/>
                    </g>
                  </g>
                  <g id="Group_1074807" data-name="Group 1074807" transform="translate(3.943 36.723)">
                    <g id="Group_1074806" data-name="Group 1074806" clip-path="url(#clip-path-22)">
                      <rect id="Rectangle_378815" data-name="Rectangle 378815" width="114.739" height="114.739" transform="translate(-40.567 40.567) rotate(-45)" fill="#0d599b"/>
                    </g>
                  </g>
                  <g id="Group_1074809" data-name="Group 1074809" transform="translate(2.116 42.137)">
                    <g id="Group_1074808" data-name="Group 1074808" clip-path="url(#clip-path-23)">
                      <rect id="Rectangle_378816" data-name="Rectangle 378816" width="109.664" height="109.664" transform="translate(-38.771 38.771) rotate(-45)" fill="#0d599b"/>
                    </g>
                  </g>
                  <g id="Group_1074811" data-name="Group 1074811" transform="translate(11.83 22.776)">
                    <g id="Group_1074810" data-name="Group 1074810" clip-path="url(#clip-path-24)">
                      <rect id="Rectangle_378817" data-name="Rectangle 378817" width="123.304" height="123.304" transform="translate(-43.595 43.595) rotate(-45)" fill="#0d599b"/>
                    </g>
                  </g>
                  <g id="Group_1074813" data-name="Group 1074813" transform="translate(18.809 15.161)">
                    <g id="Group_1074812" data-name="Group 1074812" clip-path="url(#clip-path-25)">
                      <rect id="Rectangle_378818" data-name="Rectangle 378818" width="124.208" height="124.208" transform="translate(-43.914 43.914) rotate(-45)" fill="#0d599b"/>
                    </g>
                  </g>
                  <g id="Group_1074815" data-name="Group 1074815" transform="translate(15.159 18.81)">
                    <g id="Group_1074814" data-name="Group 1074814" clip-path="url(#clip-path-26)">
                      <rect id="Rectangle_378819" data-name="Rectangle 378819" width="124.209" height="124.209" transform="translate(-43.914 43.914) rotate(-45)" fill="#0d599b"/>
                    </g>
                  </g>
                  <g id="Group_1074817" data-name="Group 1074817" transform="translate(22.778 11.828)">
                    <g id="Group_1074816" data-name="Group 1074816" clip-path="url(#clip-path-27)">
                      <rect id="Rectangle_378820" data-name="Rectangle 378820" width="123.306" height="123.306" transform="translate(-43.596 43.596) rotate(-45)" fill="#0d599b"/>
                    </g>
                  </g>
                </g>
              </g>
            </g>
          </g>
        </g>
      </g>
      <path id="Union_5" data-name="Union 5" d="M75.256,114.112a12.381,12.381,0,0,1-5.145-3.375,44.935,44.935,0,0,1-4.388-5.546c-5.52-9.1-12.8-17.463-23.881-20.3-7.2-1.819-13.921-1.346-20.979-1.819C13.638,82.582,6.3,79.411,3.107,72.556A28.081,28.081,0,0,1,.745,66.585l-.073-.271C.526,65.768.4,65.2.279,64.622A58.989,58.989,0,0,1,2.688,41.328,58.946,58.946,0,0,1,53.181.172c11.484-1.364,22.783,5.619,32.932,13.1a77.828,77.828,0,0,1,9.559,8.293,61.616,61.616,0,0,1,12.708,24.39l.116.43A69.353,69.353,0,0,1,110.584,58.6a67.362,67.362,0,0,1,.062,10.275c-.63,12.394-4.786,21.893-10.374,32.142-3.917,5.807-10.192,11.281-16.741,13.08l-.207.055a18.413,18.413,0,0,1-2.515.474,15.494,15.494,0,0,1-1.607.086A12.764,12.764,0,0,1,75.256,114.112Z" transform="translate(388.503 6018.796)" fill="#fff" stroke="rgba(0,0,0,0)" stroke-miterlimit="10" stroke-width="1"/>
    </g>
    <g id="Group_1099421" data-name="Group 1099421" transform="translate(-3219.527 -12276.213)">
      <path id="Path_873216" data-name="Path 873216" d="M0,0H66.473V66.474H0Z" transform="translate(408.527 6040.213)" fill="none"/>
      <g id="Group_1099433" data-name="Group 1099433" transform="translate(413.246 6041.213)">
        <g id="Group_1099432" data-name="Group 1099432" clip-path="url(#clip-path-28)">
          <path id="Path_873738" data-name="Path 873738" d="M53.006,55.455l6.447-6.4a1.008,1.008,0,0,0,.219-1.116,1.054,1.054,0,0,0-.969-.629H36.537l8.835-2.6a1.027,1.027,0,0,0,.745-.982V38.038c.093.008.186.013.279.013a3.573,3.573,0,0,0,2.815-1.456,6.113,6.113,0,0,0,1.106-3.761c0-3.419-1.994-5.208-3.96-5.208-.082,0-.159,0-.241.009V21.145a1.012,1.012,0,0,0-.422-.823,1.075,1.075,0,0,0-.931-.159l-1.835.539V17.313a1.027,1.027,0,0,0-.564-.908,1.072,1.072,0,0,0-1.084.064L39.138,17.91a15.925,15.925,0,0,0-5.165-2.661,8.263,8.263,0,0,0,3.845-6.942,8.518,8.518,0,0,0-17.032,0,8.256,8.256,0,0,0,3.847,6.942,15.922,15.922,0,0,0-5.168,2.661l-2.141-1.441a1.075,1.075,0,0,0-1.086-.064,1.023,1.023,0,0,0-.563.908V20.7l-1.834-.539a1.071,1.071,0,0,0-.93.159,1.017,1.017,0,0,0-.425.823v6.61c-1.628.465-3.051,2.19-3.051,5.079a6.1,6.1,0,0,0,1.107,3.761,3.708,3.708,0,0,0,1.944,1.338v5.8a1.029,1.029,0,0,0,.748.982l8.831,2.6H5.19A5.133,5.133,0,0,0,0,52.371v6.167A5.133,5.133,0,0,0,5.19,63.6H58.7a1.054,1.054,0,0,0,.969-.629,1.008,1.008,0,0,0-.219-1.116ZM47.518,30.328a3.965,3.965,0,0,1,.7,2.506,4.041,4.041,0,0,1-.685,2.528A1.456,1.456,0,0,1,46.4,36c-.909,0-1.824-1.087-1.824-3.166,0-2.168.926-3.156,1.785-3.156a1.506,1.506,0,0,1,1.161.65m-3.505-1.755a5.619,5.619,0,0,0-1.545,4.261,5.664,5.664,0,0,0,1.545,4.226v5.908l-13.66,4.016V26.541l13.66-4.016ZM40.825,21.32l-5.412,1.591,5.412-3.644ZM22.89,8.307a6.415,6.415,0,0,1,12.825,0A6.343,6.343,0,0,1,29.3,14.562h0a6.343,6.343,0,0,1-6.41-6.255M29.3,16.614h0a13.923,13.923,0,0,1,8.011,2.524l-8.012,5.4-8.014-5.4A13.924,13.924,0,0,1,29.3,16.614M17.779,19.267l5.412,3.644L17.779,21.32ZM12.225,35.362a4.037,4.037,0,0,1-.685-2.528c0-2.072.934-3.156,1.857-3.156a1.422,1.422,0,0,1,1.109.624,4.064,4.064,0,0,1,.675,2.531c0,2.078-.918,3.166-1.825,3.166a1.456,1.456,0,0,1-1.132-.638m2.366,2.446c1.472-.6,2.694-2.279,2.694-4.974,0-2.817-1.249-4.425-2.694-4.983V22.525l13.661,4.016V46.984L14.59,42.968ZM5.19,61.548A3.053,3.053,0,0,1,2.1,58.538V52.371A3.053,3.053,0,0,1,5.19,49.36h51l-5.1,5.069H9.4a1.026,1.026,0,1,0,0,2.052H51.095l5.1,5.068Z" fill="#12405a"/>
        </g>
      </g>
    </g>
  </g>
</svg>
