<svg xmlns="http://www.w3.org/2000/svg" xmlns:xlink="http://www.w3.org/1999/xlink" width="1030" height="324.862" viewBox="0 0 1030 324.862">
  <defs>
    <clipPath id="clip-path">
      <path id="Path_611005" data-name="Path 611005" d="M0,0H1030V323.862H0Z" transform="translate(0 0)" fill="#d7f5f7"/>
    </clipPath>
    <clipPath id="clip-path-2">
      <rect id="Rectangle_401086" data-name="Rectangle 401086" width="303.222" height="227.103" fill="none"/>
    </clipPath>
    <clipPath id="clip-path-3">
      <path id="Path_873432" data-name="Path 873432" d="M1521.317,156.5c1.16.929,2.481.779,2.568-.082a1.274,1.274,0,0,0-.761-.825,1.121,1.121,0,0,0-.37-.061,1.739,1.739,0,0,0-1.437.969" transform="translate(-1521.317 -155.535)" fill="none"/>
    </clipPath>
    <clipPath id="clip-path-5">
      <path id="Path_873436" data-name="Path 873436" d="M1544.983,156.033c1.16.929,2.481.779,2.568-.082a1.274,1.274,0,0,0-.761-.825,1.122,1.122,0,0,0-.37-.061,1.739,1.739,0,0,0-1.437.969" transform="translate(-1544.983 -155.064)" fill="none"/>
    </clipPath>
    <clipPath id="clip-path-7">
      <path id="Path_873557" data-name="Path 873557" d="M398.576,907.54a1.37,1.37,0,0,0,2.178.817c-.276-.985-.752-1.395-1.227-1.395a1.234,1.234,0,0,0-.951.578" transform="translate(-398.576 -906.962)" fill="none"/>
    </clipPath>
    <clipPath id="clip-path-9">
      <path id="Path_873561" data-name="Path 873561" d="M420.454,909.651a1.01,1.01,0,0,0,1.774-.558c-.181-.418-.451-.671-.744-.671-.349,0-.729.359-1.03,1.228" transform="translate(-420.454 -908.423)" fill="none"/>
    </clipPath>
  </defs>
  <g id="Group_1099502" data-name="Group 1099502" transform="translate(-285 -2823.477)">
    <g id="Group_1073696" data-name="Group 1073696" transform="translate(0 2376.977)">
      <g id="Group_1073695" data-name="Group 1073695" transform="translate(285 446.5)">
        <path id="Path_608309" data-name="Path 608309" d="M0,0H1030V323.862H0Z" fill="#d7f5f7"/>
      </g>
    </g>
    <g id="Group_1099267" data-name="Group 1099267" transform="translate(314 2872.477)">
      <g id="Group_1099250" data-name="Group 1099250" transform="translate(0 0)">
        <g id="Group_1099249" data-name="Group 1099249" clip-path="url(#clip-path-2)">
          <path id="Path_873411" data-name="Path 873411" d="M276.084,449.9a62.283,62.283,0,0,1-13.691,39.056H25.834a77.374,77.374,0,0,1,59.222-127.17,77.95,77.95,0,0,1,16.047,1.67,54.514,54.514,0,1,1,104.156,24.42A62.573,62.573,0,0,1,276.084,449.9" transform="translate(-6.49 -262.73)" fill="#ffebeb"/>
          <path id="Path_873412" data-name="Path 873412" d="M1331.629,279.179l.4-3.417c-6.332,2.412-12.112,2.673-15.779-1.708-4.12-4.925-4.925-35.477,4.221-47.94l17.99-6.332,3.316-2.613,7.839.4,3.015,1.91s8.542-.1,9.146-.1c6.03,1.307,13.568,8.342,13.769,8.643s2.211,17.387,2.01,17.889-16.885,17.286-17.085,17.889-7.337,14.673-7.337,14.673Z" transform="translate(-1109.877 -183.531)" fill="#12405a"/>
          <path id="Path_873413" data-name="Path 873413" d="M1331.152,278.791a.087.087,0,0,1-.087-.1l.385-3.275c-7.19,2.707-12.486,2.107-15.742-1.785-2.1-2.506-3.31-11.423-2.885-21.2.5-11.6,3.093-21.382,7.1-26.844a.087.087,0,0,1,.041-.031l17.976-6.327,3.305-2.6a.088.088,0,0,1,.058-.019l7.839.4a.088.088,0,0,1,.042.013l2.993,1.9c.521-.006,8.541-.1,9.121-.1l.019,0c5.982,1.3,13.6,8.351,13.823,8.68.269.4,2.193,17.534,2.018,17.97-.095.237-2.965,3.191-7.64,7.99-4.145,4.255-9.3,9.551-9.444,9.9-.2.6-7.05,14.109-7.341,14.684a.087.087,0,0,1-.075.048l-21.507.7h0m.4-3.591a.089.089,0,0,1,.054.018.087.087,0,0,1,.033.079l-.39,3.316,21.355-.7c.45-.888,7.117-14.042,7.308-14.615.106-.319,3.824-4.151,9.484-9.961,3.675-3.773,7.475-7.674,7.6-7.934.074-.241-.27-3.835-.857-8.941-.537-4.676-1.052-8.656-1.149-8.872-.216-.321-7.792-7.313-13.7-8.6-.669,0-9.051.1-9.136.1a.089.089,0,0,1-.047-.013l-3-1.9-7.783-.4-3.291,2.593a.08.08,0,0,1-.025.014l-17.964,6.323c-3.98,5.44-6.55,15.179-7.053,26.727-.424,9.74.772,18.607,2.844,21.084,3.224,3.853,8.5,4.419,15.681,1.683a.084.084,0,0,1,.031-.006" transform="translate(-1109.399 -183.055)" fill="#4e1721"/>
          <path id="Path_873414" data-name="Path 873414" d="M1486.782,238.011c2.585,14.448,7.937,21.835,7.937,21.835,5.276-12.663,2.479-22.087,2.479-22.087Z" transform="translate(-1256.484 -200.931)" fill="#fff"/>
          <path id="Path_873415" data-name="Path 873415" d="M1494.242,259.457a.088.088,0,0,1-.071-.036c-.053-.074-5.393-7.568-7.952-21.871a.087.087,0,0,1,.083-.1l10.416-.252a.089.089,0,0,1,.086.062c.028.094,2.746,9.6-2.482,22.145a.087.087,0,0,1-.07.053h-.01m-7.833-21.837c2.374,13.174,7.1,20.521,7.813,21.569,4.9-11.878,2.661-20.969,2.433-21.817Z" transform="translate(-1256.008 -200.456)" fill="#4e1721"/>
          <path id="Path_873416" data-name="Path 873416" d="M1497.071,192.476c.459-2.266-7.931-2.909-7.931-2.909l-2.358,7.717c1.562,3.307,10.381,4.624,10.412.245,0-.181,0-.345,0-.5a12.6,12.6,0,0,1-.126-4.556" transform="translate(-1256.484 -160.204)" fill="#ff7d6d"/>
          <path id="Path_873417" data-name="Path 873417" d="M1492.782,199.93c-2.572,0-5.653-1.176-6.555-3.085a.088.088,0,0,1,0-.063l1.16-3.8a.087.087,0,0,1,.167.051L1486.4,196.8c1.058,2.171,5.245,3.379,7.829,2.809a2.63,2.63,0,0,0,2.4-2.557l0-.488a12.757,12.757,0,0,1-.125-4.581.817.817,0,0,0-.175-.682c-1.217-1.61-7.613-2.118-7.678-2.123a.087.087,0,0,1,.014-.174c.267.02,6.54.519,7.8,2.192a.993.993,0,0,1,.207.821,12.592,12.592,0,0,0,.126,4.521.086.086,0,0,1,0,.018l0,.5c-.01,1.4-.911,2.368-2.539,2.727a6.934,6.934,0,0,1-1.484.15" transform="translate(-1256.008 -159.728)" fill="#4e1721"/>
          <path id="Path_873418" data-name="Path 873418" d="M1512.088,191.341a3.2,3.2,0,1,1-3.55-3.119,3.348,3.348,0,0,1,3.55,3.119" transform="translate(-1272.5 -159.053)" fill="#ff6a58"/>
          <path id="Path_873419" data-name="Path 873419" d="M1493.066,106.923a2.035,2.035,0,0,1-.1,2.617l-10.155,5.439-.672-1.575-.109-.049c-1.344-2.946-2.931-6.325.472-6.97-.293-1.132,2.8-2.231,2.591-1.25.416-.973,1.689-1.291,3.624-1.055s1.24-1.1,1.715-1.1.728.652.728.652c.681-1.32,3.224-.036,1.9,3.3" transform="translate(-1251.146 -87.025)" fill="#4e1721"/>
          <path id="Path_873420" data-name="Path 873420" d="M1499.845,141.114c-1.944-.8-3.226-3.784-3.42-5.372,0,0,1.153-.373,1.177-.529a6.853,6.853,0,0,1,.152-2.685c.838.162,1.882-1,1.178-2.758,0,0,.554-.17,0-1.063,3.512.544,4.2.427,3.793-.188a5.01,5.01,0,0,0,3.109.41c1.059,2.657.7,4.264,1.1,5.716a17.372,17.372,0,0,1-.02,6.1c-.315.932-4.149,1.574-7.063.371" transform="translate(-1264.633 -108.612)" fill="#ff7d6d"/>
          <path id="Path_873421" data-name="Path 873421" d="M1509.006,141.386a9.717,9.717,0,0,1-3.622-.667,4.234,4.234,0,0,1-1.564-1.2.087.087,0,1,1,.133-.113,4.061,4.061,0,0,0,1.5,1.157,9.188,9.188,0,0,0,6.351.173,1.049,1.049,0,0,0,.6-.492,17.492,17.492,0,0,0,.019-6.049,9.136,9.136,0,0,1-.242-1.717,12.394,12.394,0,0,0-.824-3.919,5.139,5.139,0,0,1-2.878-.346.292.292,0,0,1-.027.24c-.174.271-.854.341-3.777-.1a.951.951,0,0,1,.135.761.462.462,0,0,1-.188.231,2.346,2.346,0,0,1-.21,2.339,1.2,1.2,0,0,1-1.011.475,6.33,6.33,0,0,0-.147,2.382.935.935,0,0,1,.015.219.087.087,0,0,1-.172-.027,1.177,1.177,0,0,0-.016-.17,6.559,6.559,0,0,1,.169-2.522.087.087,0,0,1,.1-.065,1,1,0,0,0,.927-.4,2.207,2.207,0,0,0,.154-2.238.087.087,0,0,1,0-.07.089.089,0,0,1,.053-.046.283.283,0,0,0,.162-.17c.044-.122.042-.353-.213-.764a.087.087,0,0,1,.087-.132c1.66.257,3.59.513,3.784.21.032-.05.006-.139-.076-.264a.087.087,0,0,1,.107-.128,4.985,4.985,0,0,0,3.051.406.087.087,0,0,1,.1.051,12.675,12.675,0,0,1,.864,4.04,9.057,9.057,0,0,0,.236,1.685,17.344,17.344,0,0,1-.021,6.15,1.182,1.182,0,0,1-.689.595,7.339,7.339,0,0,1-2.868.5" transform="translate(-1270.206 -108.136)" fill="#4e1721"/>
          <path id="Path_873422" data-name="Path 873422" d="M1511.229,167.678a1.871,1.871,0,1,1-2.092-1.266,1.738,1.738,0,0,1,2.092,1.266" transform="translate(-1274.043 -140.61)" fill="#ff6a58"/>
          <path id="Path_873423" data-name="Path 873423" d="M1520.248,144.19c.045.262-.971-.128-1.885.027s-1.381.8-1.426.535a1.679,1.679,0,0,1,1.265-1.483,2.329,2.329,0,0,1,2.047.921" transform="translate(-1281.965 -121.061)" fill="#4e1721"/>
          <path id="Path_873424" data-name="Path 873424" d="M1548.727,146.031c-.045.226.624.1,1.114.193s.617.385.661.159-.009-.88-.5-.977a1.453,1.453,0,0,0-1.277.625" transform="translate(-1308.831 -122.873)" fill="#4e1721"/>
          <path id="Path_873425" data-name="Path 873425" d="M1538.175,195.969a16.027,16.027,0,0,0,2.538.127c-.45.953-1.675.459-2.538-.127" transform="translate(-1299.916 -165.615)" fill="#ff6a58"/>
          <path id="Path_873426" data-name="Path 873426" d="M1483.914,167.947c-1.563-1.991-3.589-1.872-3.75-.441s.774,3.581,3.932,2.709c.165-1.774-.182-2.268-.182-2.268" transform="translate(-1250.876 -140.66)" fill="#ff7d6d"/>
          <path id="Path_873427" data-name="Path 873427" d="M1488.364,174.256c-.244-1.791-1.7-2.522-2.446-1.882a3.175,3.175,0,0,1,2.446,1.882" transform="translate(-1255.753 -145.482)" fill="#ff6a58"/>
          <path id="Path_873428" data-name="Path 873428" d="M1487.888,173.865a.087.087,0,0,1-.086-.075,2.312,2.312,0,0,0-1.307-1.953.964.964,0,0,0-1,.126.087.087,0,1,1-.114-.132,1.132,1.132,0,0,1,1.172-.157,2.482,2.482,0,0,1,1.418,2.093.087.087,0,0,1-.075.1h-.012" transform="translate(-1255.277 -145.003)" fill="#4e1721"/>
          <path id="Path_873429" data-name="Path 873429" d="M1492.029,178.772a.087.087,0,0,1-.055-.02.734.734,0,0,1-.141-1.007.8.8,0,0,1,1.081-.24.087.087,0,1,1-.085.152.62.62,0,0,0-.852.185.558.558,0,0,0,.107.775.087.087,0,0,1-.055.155" transform="translate(-1260.635 -149.913)" fill="#4e1721"/>
          <path id="Path_873430" data-name="Path 873430" d="M1521.317,156.5a1.586,1.586,0,0,1,1.807-.907,1.274,1.274,0,0,1,.761.825c-.087.861-1.408,1.012-2.568.082" transform="translate(-1285.669 -131.443)" fill="#fff"/>
        </g>
      </g>
      <g id="Group_1099252" data-name="Group 1099252" transform="translate(235.648 24.091)">
        <g id="Group_1099251" data-name="Group 1099251" transform="translate(0)" clip-path="url(#clip-path-3)">
          <path id="Path_873431" data-name="Path 873431" d="M1526.579,156.534a.748.748,0,1,1-.785-.768.778.778,0,0,1,.785.768" transform="translate(-1524.503 -155.73)" fill="#4e1721"/>
        </g>
      </g>
      <g id="Group_1099254" data-name="Group 1099254" transform="translate(0 0)">
        <g id="Group_1099253" data-name="Group 1099253" clip-path="url(#clip-path-2)">
          <path id="Path_873433" data-name="Path 873433" d="M1521.317,156.029a1.9,1.9,0,0,1,.5-.684,1.486,1.486,0,0,1,.789-.361,1.123,1.123,0,0,1,.845.229,1.258,1.258,0,0,1,.432.734,1.615,1.615,0,0,0-.519-.615,1.113,1.113,0,0,0-.739-.178,1.56,1.56,0,0,0-.731.292,2.528,2.528,0,0,0-.578.584" transform="translate(-1285.669 -130.969)" fill="#4e1721"/>
          <path id="Path_873434" data-name="Path 873434" d="M1544.983,156.033a1.586,1.586,0,0,1,1.807-.907,1.274,1.274,0,0,1,.761.825c-.087.861-1.408,1.012-2.568.082" transform="translate(-1305.67 -131.046)" fill="#fff"/>
        </g>
      </g>
      <g id="Group_1099256" data-name="Group 1099256" transform="translate(239.313 24.018)">
        <g id="Group_1099255" data-name="Group 1099255" transform="translate(0)" clip-path="url(#clip-path-5)">
          <path id="Path_873435" data-name="Path 873435" d="M1550.929,155.843a.748.748,0,1,1-.785-.768.777.777,0,0,1,.785.768" transform="translate(-1548.748 -155.073)" fill="#4e1721"/>
        </g>
      </g>
      <g id="Group_1099258" data-name="Group 1099258" transform="translate(0 0)">
        <g id="Group_1099257" data-name="Group 1099257" clip-path="url(#clip-path-2)">
          <path id="Path_873437" data-name="Path 873437" d="M1544.983,155.559a1.9,1.9,0,0,1,.5-.684,1.487,1.487,0,0,1,.789-.361,1.123,1.123,0,0,1,.845.229,1.257,1.257,0,0,1,.432.734,1.618,1.618,0,0,0-.519-.615,1.111,1.111,0,0,0-.739-.178,1.56,1.56,0,0,0-.73.291,2.533,2.533,0,0,0-.579.584" transform="translate(-1305.67 -130.572)" fill="#4e1721"/>
          <path id="Path_873438" data-name="Path 873438" d="M1542.343,151.245a2.785,2.785,0,0,0,.814,2.089c.555.5.921.6.606,1.131-.979.769-1.939.634-2.138.195a11.21,11.21,0,0,1-.15-3.674c.13-.52.645-.463.869.259" transform="translate(-1302.621 -127.309)" fill="#ff7d6d"/>
          <path id="Path_873439" data-name="Path 873439" d="M1544.64,167.58a1.58,1.58,0,0,0-.479.884c-.016.179-.9.113-.954.569.218.389,1.172.477,2.1-.254.316-.533-.05-.626-.606-1.131-.022-.02-.042-.046-.064-.068" transform="translate(-1304.168 -141.623)" fill="#ff6a58"/>
          <path id="Path_873440" data-name="Path 873440" d="M1548.055,157.689a.087.087,0,0,1-.038-.165,1.178,1.178,0,0,0,.389-.292c.222-.349.1-.449-.269-.747-.1-.078-.205-.167-.322-.273a2.871,2.871,0,0,1-.841-2.169.087.087,0,0,1,.172.03,2.71,2.71,0,0,0,.786,2.01c.114.1.22.19.315.267.368.3.611.5.305.975a1.328,1.328,0,0,1-.459.356.088.088,0,0,1-.038.009" transform="translate(-1307.337 -130.122)" fill="#4e1721"/>
          <path id="Path_873441" data-name="Path 873441" d="M1545.171,176.257a.087.087,0,0,1-.078-.048c-.059-.119.133-.233.172-.255.191-.106.364-.083.452.06a.087.087,0,1,1-.148.091.079.079,0,0,0-.083-.043.379.379,0,0,0-.227.112.087.087,0,0,1-.048.072.085.085,0,0,1-.039.009" transform="translate(-1305.753 -148.645)" fill="#4e1721"/>
          <path id="Path_873442" data-name="Path 873442" d="M1501.317,136.882a1.746,1.746,0,0,1-.656-.132.087.087,0,0,1,.065-.162,1.4,1.4,0,0,0,1.639-.37,2.373,2.373,0,0,0-.077-2.79.087.087,0,1,1,.15-.09,2.541,2.541,0,0,1,.06,2.993,1.533,1.533,0,0,1-1.18.55" transform="translate(-1268.166 -112.65)" fill="#792838"/>
          <path id="Path_873443" data-name="Path 873443" d="M1530.869,184.722c3.185,2.327,4.256.6,4.488.148Z" transform="translate(-1293.742 -156.11)" fill="#fff"/>
          <path id="Path_873444" data-name="Path 873444" d="M1533.195,185.522a5.155,5.155,0,0,1-2.853-1.206.087.087,0,0,1,.054-.158l4.488.148a.087.087,0,0,1,.075.127,1.935,1.935,0,0,1-1.274,1.033,2.132,2.132,0,0,1-.49.055m-2.515-1.18a3.942,3.942,0,0,0,2.965.955,1.721,1.721,0,0,0,1.091-.821Z" transform="translate(-1293.266 -155.634)" fill="#4e1721"/>
          <path id="Path_873445" data-name="Path 873445" d="M1382.3,210.061c.377-5.276-1.206-12.814,2.94-16.432s4.749-9.8,5.2-9.874c2.714.377,3.166,3.09,2.563,5.729s-.829,3.92-.829,3.92c4.9,1.583,11.909,4.3,6.256,6.709a2.364,2.364,0,0,1-.98,3.693c.452.9.98,2.186-.9,2.638,2.035,1.734-1.281,2.94-3.015,2.412l.151,2.035Z" transform="translate(-1168.186 -155.292)" fill="#ff7d6d"/>
          <path id="Path_873446" data-name="Path 873446" d="M1393.207,210.5h-.006l-11.382-.829a.087.087,0,0,1-.081-.093c.1-1.331.065-2.789.034-4.332-.09-4.42-.192-9.43,2.935-12.16,3-2.62,4.153-6.658,4.706-8.6.274-.963.369-1.268.538-1.3a.079.079,0,0,1,.026,0,3.042,3.042,0,0,1,2.191,1.273,5.84,5.84,0,0,1,.444,4.561c-.516,2.256-.758,3.531-.815,3.841,5.627,1.824,8.279,3.34,8.344,4.771.033.736-.657,1.42-2.051,2.033a2.4,2.4,0,0,1,.388,2.119,2.45,2.45,0,0,1-1.383,1.585,2.2,2.2,0,0,1,.289,1.83,1.659,1.659,0,0,1-1.135.8c.669.63.608,1.144.43,1.47-.488.893-2.352,1.308-3.528,1.016l.142,1.912a.087.087,0,0,1-.087.094m-11.289-1,11.194.816-.143-1.935a.086.086,0,0,1,.033-.075.088.088,0,0,1,.08-.015c1.183.361,3.019-.119,3.446-.9.286-.522-.121-1.029-.513-1.363a.087.087,0,0,1,.036-.151,1.612,1.612,0,0,0,1.176-.75,2.172,2.172,0,0,0-.329-1.764.087.087,0,0,1,.049-.121,2.276,2.276,0,0,0,.94-3.557.087.087,0,0,1,.034-.134c1.389-.593,2.078-1.235,2.047-1.909-.09-1.985-6.267-3.98-8.3-4.636a.087.087,0,0,1-.059-.1c0-.013.234-1.314.83-3.924a5.675,5.675,0,0,0-.418-4.423,2.868,2.868,0,0,0-2.05-1.2,5.573,5.573,0,0,0-.394,1.169c-.558,1.956-1.718,6.027-4.759,8.682-3.066,2.676-2.965,7.642-2.875,12.025.031,1.514.06,2.946-.028,4.261" transform="translate(-1167.711 -154.816)" fill="#4e1721"/>
          <path id="Path_873447" data-name="Path 873447" d="M1478.974,284.645a.086.086,0,0,1-.049-.015,8.682,8.682,0,0,0-1.261-.781.088.088,0,0,1-.053-.111.087.087,0,0,1,.109-.054,8.256,8.256,0,0,1,1.3.8.087.087,0,0,1-.049.159" transform="translate(-1248.729 -239.738)" fill="#4e1721"/>
          <path id="Path_873448" data-name="Path 873448" d="M1474.5,308.9a.088.088,0,0,1-.064-.028,3,3,0,0,0-.912-.695.087.087,0,0,1,.067-.161,3.114,3.114,0,0,1,.973.737.087.087,0,0,1-.064.147" transform="translate(-1245.231 -260.302)" fill="#4e1721"/>
          <path id="Path_873449" data-name="Path 873449" d="M1468.041,327.166a.085.085,0,0,1-.042-.011,4.835,4.835,0,0,0-1.029-.481.088.088,0,0,1-.07-.1.086.086,0,0,1,.1-.071,4.665,4.665,0,0,1,1.083.5.087.087,0,0,1-.042.164" transform="translate(-1239.68 -275.928)" fill="#4e1721"/>
          <rect id="Rectangle_401088" data-name="Rectangle 401088" width="13.819" height="2.814" transform="translate(212.908 54.141)" fill="#fff"/>
          <path id="Path_873450" data-name="Path 873450" d="M1387.857,351.956h-13.819a.087.087,0,0,1-.087-.087v-2.814a.087.087,0,0,1,.087-.087h13.819a.087.087,0,0,1,.087.087v2.814a.087.087,0,0,1-.087.087m-13.732-.174h13.645v-2.64h-13.645Z" transform="translate(-1161.13 -294.915)" fill="#4e1721"/>
          <path id="Path_873451" data-name="Path 873451" d="M1385.928,354.589a.678.678,0,1,1-.679-.678Z" transform="translate(-1170.105 -299.091)" fill="#fff"/>
          <path id="Path_873452" data-name="Path 873452" d="M1384.773,354.879a.766.766,0,1,1,0-1.531.087.087,0,1,1,0,.174.591.591,0,1,0,.591.591.087.087,0,0,1,.174,0,.766.766,0,0,1-.766.766" transform="translate(-1169.628 -298.616)" fill="#4e1721"/>
          <path id="Path_873453" data-name="Path 873453" d="M1338.5,396.054a.087.087,0,0,1-.082-.056c-2.195-5.688,2.6-27.853,2.81-28.794a.087.087,0,0,1,.085-.069h19a.087.087,0,0,1,.062.027.086.086,0,0,1,.024.064c-.006.175-.641,17.611-3.924,27.161a.087.087,0,0,1-.165-.057c3.152-9.17,3.858-25.648,3.912-27.02h-18.834c-.3,1.394-4.92,23.14-2.8,28.625a.087.087,0,0,1-.081.119" transform="translate(-1130.617 -310.268)" fill="#4e1721"/>
          <path id="Path_873454" data-name="Path 873454" d="M89.043,810.354c-58.4-33.4-75.871-109.1-48.753-117.58s66.657,46.183,68.21,118.014Z" transform="translate(-23.508 -584.732)" fill="#f2d3bb"/>
          <path id="Path_873455" data-name="Path 873455" d="M51.836,1199.565c-35.155-4.062-60.446-36.06-49.086-45.776s43.294,10.9,58.913,45.311Z" transform="translate(0 -973.037)" fill="#dab988"/>
          <path id="Path_873456" data-name="Path 873456" d="M184.971,855.287a327.934,327.934,0,0,0-14.032-44.32l-.48-25.117a.728.728,0,0,0-.753-.724.739.739,0,0,0-.725.753l.4,21.176c-.2-.5-.4-.994-.6-1.5a216.486,216.486,0,0,0-10.691-22.113.725.725,0,0,0-.064-.117,325.764,325.764,0,0,0-21.352-33.61.739.739,0,1,0-1.184.884,323.864,323.864,0,0,1,19.838,30.916L138.39,770.535a.739.739,0,0,0-.8,1.241l19.276,12.5a214.74,214.74,0,0,1,10.553,21.843A333.822,333.822,0,0,1,183.527,855.6a.739.739,0,0,0,.721.583.757.757,0,0,0,.157-.017.739.739,0,0,0,.566-.879" transform="translate(-114.381 -633.339)" fill="#ffead8"/>
          <path id="Path_873457" data-name="Path 873457" d="M94.535,1233.383a.534.534,0,0,1-.353-.133c-.1-.09-10.39-9.1-18.472-16.809-8.057-7.68-26.48-22.3-26.665-22.449a.536.536,0,1,1,.666-.84c.186.147,18.647,14.8,26.739,22.514,8.066,7.689,18.336,16.688,18.439,16.778a.536.536,0,0,1-.353.939" transform="translate(-41.275 -1008.239)" fill="#ffead8"/>
          <path id="Path_873458" data-name="Path 873458" d="M128.39,1297.825a.537.537,0,0,1-.2-.041l-16.143-6.677a.536.536,0,1,1,.41-.991l16.143,6.677a.536.536,0,0,1-.205,1.032" transform="translate(-94.407 -1090.248)" fill="#ffead8"/>
          <path id="Path_873459" data-name="Path 873459" d="M278.392,1453.01a.974.974,0,0,1-.377.729,1.963,1.963,0,0,1-1.19.378H21.192a1.865,1.865,0,0,1-1.219-.413.923.923,0,0,1-.348-.694,1.085,1.085,0,0,1,.745-.932,2.035,2.035,0,0,1,.822-.168H276.825a1.985,1.985,0,0,1,1.089.308.986.986,0,0,1,.479.792" transform="translate(-16.584 -1227.013)" fill="#523d3c"/>
          <path id="Path_873460" data-name="Path 873460" d="M1019.138,517.4V398.647h121.848V517.4a15.851,15.851,0,0,1-15.853,15.849H1003.285a15.852,15.852,0,0,0,15.853-15.849" transform="translate(-847.879 -336.898)" fill="#fff"/>
          <path id="Path_873461" data-name="Path 873461" d="M1173.5,686.082h100.481a.145.145,0,1,0,0-.289H1173.5a.145.145,0,0,0,0,.289" transform="translate(-991.609 -579.566)" fill="#4e1721"/>
          <path id="Path_873462" data-name="Path 873462" d="M1173.5,851.025h83.9a.145.145,0,0,0,0-.289h-83.9a.145.145,0,0,0,0,.289" transform="translate(-991.609 -718.959)" fill="#4e1721"/>
          <path id="Path_873463" data-name="Path 873463" d="M1173.5,1024.013h100.481a.145.145,0,1,0,0-.289H1173.5a.145.145,0,0,0,0,.289" transform="translate(-991.609 -865.152)" fill="#4e1721"/>
          <path id="Path_873464" data-name="Path 873464" d="M1348.8,746.584a.144.144,0,0,0,.145-.145l.01-60.371a.145.145,0,1,0-.289,0l-.01,60.371a.145.145,0,0,0,.145.145" transform="translate(-1139.751 -579.677)" fill="#4e1721"/>
          <path id="Path_873465" data-name="Path 873465" d="M1215.231,743.642a6.016,6.016,0,1,0,6.016-6.015,6.015,6.015,0,0,0-6.016,6.015" transform="translate(-1026.995 -623.372)" fill="#dab988"/>
          <path id="Path_873466" data-name="Path 873466" d="M1215.231,906.572a6.016,6.016,0,1,0,6.016-6.015,6.015,6.015,0,0,0-6.016,6.015" transform="translate(-1026.995 -761.064)" fill="#dab988"/>
          <path id="Path_873467" data-name="Path 873467" d="M1626.079,748.977h13.82a3.576,3.576,0,1,0,0-7.153h-13.82a3.576,3.576,0,1,0,0,7.153" transform="translate(-1371.181 -626.918)" fill="#b1ec93"/>
          <path id="Path_873468" data-name="Path 873468" d="M1408.8,748.977h22.234a3.576,3.576,0,1,0,0-7.153H1408.8a3.576,3.576,0,1,0,0,7.153" transform="translate(-1187.556 -626.918)" fill="#6ed3d6"/>
          <path id="Path_873469" data-name="Path 873469" d="M1565.724,921.965h23.169a3.576,3.576,0,1,0,0-7.153h-23.169a3.576,3.576,0,1,0,0,7.153" transform="translate(-1320.174 -773.111)" fill="#93c4db"/>
          <path id="Path_873470" data-name="Path 873470" d="M1637.363,1103.785h15.243a3.576,3.576,0,1,0,0-7.153h-15.243a3.576,3.576,0,1,0,0,7.153" transform="translate(-1380.717 -926.768)" fill="#6ed3d6"/>
          <path id="Path_873471" data-name="Path 873471" d="M1408.8,921.965h12.885a3.576,3.576,0,1,0,0-7.153H1408.8a3.576,3.576,0,1,0,0,7.153" transform="translate(-1187.557 -773.111)" fill="#93c4db"/>
          <path id="Path_873472" data-name="Path 873472" d="M1043.542,1094.446c30.242,0,34.144,26.822,49.509,26.822h-78.22c-15.365,0-19.267-26.822-49.509-26.822Z" transform="translate(-815.797 -924.92)" fill="#bbd6ee"/>
          <path id="Path_873473" data-name="Path 873473" d="M518.581,1094.446h84.452c-15.375,0-23.476,11.411-31.663,23.882-9.865,15.026-19.854,31.592-42.844,31.592H444.074c42.07,0,40.607-55.474,74.507-55.474" transform="translate(-375.288 -924.92)" fill="#dbf4ff"/>
          <path id="Path_873474" data-name="Path 873474" d="M443.14,1149.13a.145.145,0,0,1,.145-.145c22.091,0,32.043-15.207,41.666-29.913,8.6-13.145,16.727-25.561,32.841-25.561h84.452a.145.145,0,0,1,0,.289c-14.736,0-22.683,10.322-31.542,23.817l-1.056,1.613c-9.666,14.771-19.66,30.044-41.908,30.044H443.285a.145.145,0,0,1-.145-.145m74.652-55.329c-15.958,0-24.041,12.352-32.6,25.43-8.887,13.581-18.05,27.586-36.762,29.754h79.306c22.091,0,32.043-15.207,41.666-29.913l1.057-1.613c8.039-12.245,15.337-21.893,27.621-23.658Z" transform="translate(-374.499 -924.131)" fill="#4e1721"/>
          <path id="Path_873475" data-name="Path 873475" d="M820.509,1141.242a.144.144,0,0,0,.114-.055c3.1-3.935,5.9-8.217,8.608-12.358l1.054-1.609c6.548-9.974,12.712-18.519,21.855-22.067a.145.145,0,0,0-.1-.27c-9.224,3.579-15.417,12.162-21.993,22.178l-1.054,1.61c-2.707,4.136-5.505,8.413-8.594,12.338a.144.144,0,0,0,.114.234" transform="translate(-693.293 -933.732)" fill="#4e1721"/>
          <path id="Path_873476" data-name="Path 873476" d="M798.774,1192.452h66.012a.145.145,0,1,0,0-.289H798.774a.145.145,0,0,0,0,.289" transform="translate(-674.924 -1007.5)" fill="#4e1721"/>
          <path id="Path_873477" data-name="Path 873477" d="M707.452,1318.388h66.012a.145.145,0,1,0,0-.289H707.452a.145.145,0,1,0,0,.289" transform="translate(-597.747 -1113.93)" fill="#4e1721"/>
          <path id="Path_873478" data-name="Path 873478" d="M868.6,1116.853c-1.52-1.4-4.379-.762-6.384,1.419s-2.4,5.082-.879,6.479,4.379.763,6.384-1.418,2.4-5.082.879-6.48" transform="translate(-727.137 -943.229)" fill="#dab988"/>
          <path id="Path_873479" data-name="Path 873479" d="M791.975,1231.246c-1.52-1.4-4.379-.762-6.384,1.418s-2.4,5.082-.878,6.479,4.379.762,6.384-1.419,2.4-5.082.879-6.479" transform="translate(-662.38 -1039.903)" fill="#dab988"/>
          <path id="Path_873480" data-name="Path 873480" d="M1112.681,1140.822h11.811a5.471,5.471,0,0,0,4.543-2.421,1.941,1.941,0,0,0-.371-2.58,1.914,1.914,0,0,0-1.241-.445h-11.811a5.473,5.473,0,0,0-4.543,2.421,1.911,1.911,0,0,0-.281,1.524,1.937,1.937,0,0,0,1.893,1.5" transform="translate(-938.685 -959.51)" fill="#93c4db"/>
          <path id="Path_873481" data-name="Path 873481" d="M911.757,1256.526h25.171a5.473,5.473,0,0,0,4.543-2.421,1.941,1.941,0,0,0-.371-2.58,1.913,1.913,0,0,0-1.242-.445H914.687a5.474,5.474,0,0,0-4.543,2.421,1.912,1.912,0,0,0-.28,1.524,1.937,1.937,0,0,0,1.893,1.5" transform="translate(-768.884 -1057.292)" fill="#93c4db"/>
          <path id="Path_873482" data-name="Path 873482" d="M1018.036,1139.248h5.619a5.471,5.471,0,0,0,4.543-2.421,1.941,1.941,0,0,0-.371-2.58,1.914,1.914,0,0,0-1.241-.445h-5.619a5.473,5.473,0,0,0-4.543,2.421,1.911,1.911,0,0,0-.28,1.524,1.936,1.936,0,0,0,1.893,1.5" transform="translate(-858.7 -958.18)" fill="#008db4"/>
          <path id="Path_873483" data-name="Path 873483" d="M1296.036,947h76.38a16,16,0,0,0,16-15.994v-42.8a.145.145,0,1,0-.289,0v42.8a15.706,15.706,0,0,1-15.708,15.7h-76.38a.145.145,0,0,0,0,.289" transform="translate(-1095.161 -750.507)" fill="#4e1721"/>
          <path id="Path_873484" data-name="Path 873484" d="M1448.81,418.362a.144.144,0,0,0,.145-.145V397.859a.144.144,0,0,0-.145-.145h-81.135a.145.145,0,1,0,0,.289h80.991v20.214a.145.145,0,0,0,.145.145" transform="translate(-1155.704 -336.11)" fill="#4e1721"/>
          <path id="Path_873485" data-name="Path 873485" d="M672.261,471H588.029a5.264,5.264,0,0,0-5.264,5.264v73.37a5.263,5.263,0,0,0,5.264,5.264h64.158a5.264,5.264,0,0,0,5.264-5.264V481.293Z" transform="translate(-492.496 -398.048)" fill="#fff"/>
          <path id="Path_873486" data-name="Path 873486" d="M651.25,554.137H587.092a5.435,5.435,0,0,1-5.436-5.436v-73.37a5.436,5.436,0,0,1,5.436-5.436h84.232a.172.172,0,0,1,.1.313l-14.736,10.237V548.7a5.436,5.436,0,0,1-5.436,5.436m-64.157-83.9A5.092,5.092,0,0,0,582,475.331V548.7a5.091,5.091,0,0,0,5.093,5.093H651.25a5.092,5.092,0,0,0,5.093-5.093V480.356a.172.172,0,0,1,.074-.141l14.36-9.976Z" transform="translate(-491.559 -397.11)" fill="#451d26"/>
          <path id="Path_873487" data-name="Path 873487" d="M600.112,492.17a.987.987,0,1,0,.987-.987.987.987,0,0,0-.987.987" transform="translate(-507.156 -415.101)" fill="#fff"/>
          <path id="Path_873488" data-name="Path 873488" d="M628.61,492.17a.987.987,0,1,0,.987-.987.987.987,0,0,0-.987.987" transform="translate(-531.24 -415.101)" fill="#fff"/>
          <path id="Path_873489" data-name="Path 873489" d="M657.108,492.17a.987.987,0,1,0,.987-.987.987.987,0,0,0-.987.987" transform="translate(-555.324 -415.101)" fill="#fff"/>
          <rect id="Rectangle_401089" data-name="Rectangle 401089" width="3.948" height="3.948" transform="translate(153.311 85.678)" fill="#80c85d"/>
          <rect id="Rectangle_401090" data-name="Rectangle 401090" width="14.001" height="3.948" transform="translate(136.742 85.678)" fill="#dab988"/>
          <rect id="Rectangle_401091" data-name="Rectangle 401091" width="29.3" height="3.948" transform="translate(104.416 86.007)" fill="#dbf4ff"/>
          <rect id="Rectangle_401092" data-name="Rectangle 401092" width="3.948" height="3.948" transform="translate(153.311 125.827)" fill="#80c85d"/>
          <rect id="Rectangle_401093" data-name="Rectangle 401093" width="14.001" height="3.948" transform="translate(136.742 125.827)" fill="#dab988"/>
          <rect id="Rectangle_401094" data-name="Rectangle 401094" width="29.3" height="3.948" transform="translate(104.416 125.827)" fill="#216102"/>
          <rect id="Rectangle_401095" data-name="Rectangle 401095" width="3.948" height="3.948" transform="translate(153.311 136.548)" fill="#80c85d"/>
          <rect id="Rectangle_401096" data-name="Rectangle 401096" width="10.289" height="3.948" transform="translate(140.454 136.548)" fill="#dab988"/>
          <rect id="Rectangle_401097" data-name="Rectangle 401097" width="21.532" height="3.948" transform="translate(116.699 136.548)" fill="#216102"/>
          <rect id="Rectangle_401098" data-name="Rectangle 401098" width="3.948" height="3.948" transform="translate(145.744 98.501)" fill="#dab988"/>
          <rect id="Rectangle_401099" data-name="Rectangle 401099" width="14.001" height="3.948" transform="translate(129.174 98.501)" fill="#216102"/>
          <rect id="Rectangle_401100" data-name="Rectangle 401100" width="15.263" height="3.948" transform="translate(110.887 98.83)" fill="#dbf4ff"/>
          <rect id="Rectangle_401101" data-name="Rectangle 401101" width="3.948" height="3.948" transform="translate(145.744 107.119)" fill="#dab988"/>
          <rect id="Rectangle_401102" data-name="Rectangle 401102" width="9.797" height="3.948" transform="translate(133.379 107.119)" fill="#216102"/>
          <rect id="Rectangle_401103" data-name="Rectangle 401103" width="19.467" height="3.948" transform="translate(110.887 107.448)" fill="#dbf4ff"/>
          <rect id="Rectangle_401104" data-name="Rectangle 401104" width="3.948" height="3.948" transform="translate(145.744 115.738)" fill="#dab988"/>
          <rect id="Rectangle_401105" data-name="Rectangle 401105" width="14.001" height="3.948" transform="translate(129.174 115.738)" fill="#216102"/>
          <rect id="Rectangle_401106" data-name="Rectangle 401106" width="15.263" height="3.948" transform="translate(110.887 115.738)" fill="#dbf4ff"/>
          <path id="Path_873490" data-name="Path 873490" d="M1093.262,34.428h-6.2V4.459a3.445,3.445,0,0,0-3.445-3.445h-32.9a3.445,3.445,0,0,0-3.445,3.445V63.192a3.445,3.445,0,0,0,3.445,3.445h32.9a3.445,3.445,0,0,0,3.445-3.445v-24.6c1.907-.679,5.036-2.065,6.2-4.161" transform="translate(-885.054 -0.858)" fill="#6ed3d6"/>
          <path id="Path_873491" data-name="Path 873491" d="M1082.762,65.94h-24.651a.157.157,0,0,1,0-.313h24.651a3.292,3.292,0,0,0,3.288-3.288v-24.6a.156.156,0,0,1,.1-.147c1.722-.613,4.726-1.913,5.977-3.857h-5.925a.156.156,0,0,1-.156-.157V3.605a3.292,3.292,0,0,0-3.288-3.288h-32.9a3.292,3.292,0,0,0-3.288,3.288V36.35a.156.156,0,1,1-.313,0V3.605a3.605,3.605,0,0,1,3.6-3.6h32.9a3.605,3.605,0,0,1,3.6,3.6V33.418h6.044a.157.157,0,0,1,.137.232c-1.179,2.123-4.333,3.527-6.181,4.195V62.339a3.606,3.606,0,0,1-3.6,3.6" transform="translate(-884.2 -0.004)" fill="#4e1721"/>
          <path id="Path_873492" data-name="Path 873492" d="M1175.546,228.174a.157.157,0,1,1,0-.313,2.3,2.3,0,0,0,2.3-2.3.156.156,0,1,1,.313,0,2.61,2.61,0,0,1-2.611,2.611" transform="translate(-993.325 -190.493)" fill="#4e1721"/>
          <path id="Path_873493" data-name="Path 873493" d="M1160.876,207.606a2.454,2.454,0,1,1-2.454-2.454,2.444,2.444,0,0,1,2.454,2.454" transform="translate(-976.911 -173.375)" fill="#fff"/>
          <path id="Path_873494" data-name="Path 873494" d="M1241.615,228.174a.157.157,0,1,1,0-.313,2.3,2.3,0,0,0,2.3-2.3.156.156,0,0,1,.313,0,2.61,2.61,0,0,1-2.611,2.611" transform="translate(-1049.16 -190.493)" fill="#4e1721"/>
          <path id="Path_873495" data-name="Path 873495" d="M1226.945,207.606a2.454,2.454,0,1,1-2.454-2.454,2.443,2.443,0,0,1,2.454,2.454" transform="translate(-1032.746 -173.375)" fill="#fff"/>
          <path id="Path_873496" data-name="Path 873496" d="M1111.607,228.174a.157.157,0,1,1,0-.313,2.3,2.3,0,0,0,2.3-2.3.157.157,0,0,1,.313,0,2.61,2.61,0,0,1-2.611,2.611" transform="translate(-939.29 -190.493)" fill="#4e1721"/>
          <path id="Path_873497" data-name="Path 873497" d="M1096.939,207.606a2.454,2.454,0,1,1-2.454-2.454,2.445,2.445,0,0,1,2.454,2.454" transform="translate(-922.878 -173.375)" fill="#fff"/>
          <path id="Path_873500" data-name="Path 873500" d="M226.5,366.555a25.946,25.946,0,1,0-31.985,25.693c3.37,1.442,6.313,3.17,6.612,7.338.154-4.176,3.034-6.006,6.352-7.564A25.957,25.957,0,0,0,226.5,366.555" transform="translate(-147.564 -288.233)" fill="#fff"/>
          <path id="Path_873501" data-name="Path 873501" d="M262.953,355.438a.17.17,0,0,1-.155-.1,25.783,25.783,0,0,0-41.981-7.162.17.17,0,1,1-.244-.236,26.123,26.123,0,0,1,42.534,7.256.17.17,0,0,1-.154.241" transform="translate(-186.367 -287.307)" fill="#451d26"/>
          <path id="Path_873502" data-name="Path 873502" d="M200.223,537.913a.17.17,0,0,1-.169-.158c-.3-4.2-3.381-5.856-6.51-7.194a26.087,26.087,0,0,1-20-24.939.17.17,0,0,1,.167-.173.18.18,0,0,1,.173.167A25.761,25.761,0,0,0,193.65,530.24c2.909,1.242,5.755,2.744,6.55,6.187.673-3.468,3.464-5.068,6.3-6.4a25.774,25.774,0,0,0,18.923-25.31.17.17,0,1,1,.34-.006,26.1,26.1,0,0,1-19.146,25.633c-3.053,1.437-6.073,3.2-6.227,7.407a.17.17,0,0,1-.167.163Z" transform="translate(-146.66 -426.391)" fill="#451d26"/>
          <path id="Path_873503" data-name="Path 873503" d="M277.312,432.557a14.4,14.4,0,1,1-14.4-14.4,14.4,14.4,0,0,1,14.4,14.4" transform="translate(-210.014 -353.384)" fill="#b1ec93"/>
          <path id="Path_873504" data-name="Path 873504" d="M261.984,524.781a14.567,14.567,0,0,1-14.572-14.572.17.17,0,1,1,.34,0,14.228,14.228,0,0,0,14.233,14.233.17.17,0,0,1,0,.34" transform="translate(-209.089 -431.036)" fill="#451d26"/>
          <path id="Path_873505" data-name="Path 873505" d="M317.006,409.372a1.58,1.58,0,0,0-2.224.224l-14.262,17.46-5.146-5.9a1.58,1.58,0,0,0-2.382,2.077l6.377,7.311a1.58,1.58,0,0,0,1.191.542h.026a1.58,1.58,0,0,0,1.2-.58L317.23,411.6a1.58,1.58,0,0,0-.224-2.224" transform="translate(-247.279 -345.661)" fill="#80c85d"/>
          <path id="Path_873506" data-name="Path 873506" d="M299.66,488.187a1.765,1.765,0,0,1-1.347-.6l-6.376-7.311a1.75,1.75,0,0,1,2.638-2.3.17.17,0,0,1-.256.223,1.411,1.411,0,1,0-2.126,1.854l6.377,7.311a1.41,1.41,0,0,0,2.155-.035l8.892-10.886a.17.17,0,1,1,.263.215l-8.892,10.886a1.747,1.747,0,0,1-1.327.643Z" transform="translate(-246.352 -402.592)" fill="#451d26"/>
          <path id="Path_873507" data-name="Path 873507" d="M342.79,426.3a.17.17,0,0,1-.131-.277l14.263-17.46a1.75,1.75,0,1,1,2.711,2.215l-4.54,5.557a.17.17,0,1,1-.263-.215l4.54-5.558a1.411,1.411,0,1,0-2.185-1.785l-14.262,17.46a.169.169,0,0,1-.132.062" transform="translate(-289.55 -344.739)" fill="#451d26"/>
          <path id="Path_873508" data-name="Path 873508" d="M687.745,241.709a23.2,23.2,0,1,1-23.2-23.2,23.2,23.2,0,0,1,23.2,23.2" transform="translate(-542.01 -184.667)" fill="#fff"/>
          <path id="Path_873509" data-name="Path 873509" d="M663.692,264.2a23.353,23.353,0,1,1,23.353-23.353A23.379,23.379,0,0,1,663.692,264.2m0-46.391a23.038,23.038,0,1,0,23.038,23.038,23.064,23.064,0,0,0-23.038-23.038" transform="translate(-541.152 -183.809)" fill="#3b232f"/>
          <path id="Path_873510" data-name="Path 873510" d="M718.206,283.862a6.591,6.591,0,1,0-3.96,0,13.632,13.632,0,0,0-11.65,13.486h27.26a13.632,13.632,0,0,0-11.65-13.486" transform="translate(-593.766 -229.01)" fill="#80c85d"/>
          <path id="Path_873511" data-name="Path 873511" d="M771.06,296.641h-19.55a.158.158,0,1,1,0-.317H770.9a13.535,13.535,0,0,0-11.514-13.17.159.159,0,0,1-.025-.308,6.433,6.433,0,1,0-6.744-10.405.159.159,0,0,1-.237-.211,6.75,6.75,0,1,1,7.647,10.71,13.861,13.861,0,0,1,11.19,13.542.158.158,0,0,1-.158.158" transform="translate(-634.97 -228.145)" fill="#451d26"/>
          <path id="Path_873512" data-name="Path 873512" d="M711.993,353.778a.158.158,0,0,1-.14-.233,13.846,13.846,0,0,1,9.583-7.075,6.7,6.7,0,0,1-1.735-1.056.159.159,0,0,1,.2-.243,6.4,6.4,0,0,0,2.2,1.2.159.159,0,0,1,.111.164.161.161,0,0,1-.135.144,13.516,13.516,0,0,0-9.944,7.01.158.158,0,0,1-.14.084" transform="translate(-601.573 -291.674)" fill="#451d26"/>
          <path id="Path_873513" data-name="Path 873513" d="M945.637,1296.07l-9.442-11.759-17.759,1.928,5.45,15.312,20.4,1.342Z" transform="translate(-776.173 -1085.376)" fill="#ff6a58"/>
          <path id="Path_873514" data-name="Path 873514" d="M943.784,1302.48h-.007l-20.4-1.341a.093.093,0,0,1-.082-.062l-5.45-15.312a.093.093,0,0,1,.077-.123l17.76-1.928a.094.094,0,0,1,.082.034l9.442,11.759a.093.093,0,0,1,.019.076l-1.348,6.823a.092.092,0,0,1-.09.075m-20.338-1.523,20.261,1.332,1.323-6.7-9.383-11.686-17.592,1.91Z" transform="translate(-775.666 -1084.87)" fill="#3b232f"/>
          <path id="Path_873515" data-name="Path 873515" d="M930.749,1351.179a.6.6,0,0,1,1-.076c.878,1.17,12.182,3.08,15.016,1.786a.581.581,0,0,0,.16-.108.612.612,0,0,0,.1-.116c.555-.882,3.639-5.485,7.811-5.921a.627.627,0,0,1,.39.086.577.577,0,0,1,.245.3c.327.907,1.281,3.035,3.227,3.723,0,0,14.174,4.354,16.731,11.4a.577.577,0,0,1-.078.54.6.6,0,0,1-.489.25l-45.533-.089a.6.6,0,0,1-.459-.218.583.583,0,0,1-.127-.292,19.105,19.105,0,0,1,2.012-11.263" transform="translate(-784.749 -1138.134)" fill="#008db4"/>
          <path id="Path_873516" data-name="Path 873516" d="M1075.079,1361.356l-15.006-.059-13.093-8.516a.6.6,0,0,0,.1-.117c.555-.882,3.639-5.485,7.812-5.921a.627.627,0,0,1,.391.086.577.577,0,0,1,.245.3c.327.907,1.281,3.035,3.227,3.723,0,0,12.969,3.988,16.33,10.5" transform="translate(-884.806 -1138.135)" fill="#fff"/>
          <path id="Path_873517" data-name="Path 873517" d="M1029.618,1396.516a2.009,2.009,0,1,0,2.008-2.01,2.009,2.009,0,0,0-2.008,2.01" transform="translate(-870.133 -1178.502)" fill="#fff"/>
          <path id="Path_873518" data-name="Path 873518" d="M1042.108,1398.11h-.031a.093.093,0,0,1,0-.186h.029a1.916,1.916,0,0,0-.029-3.832.093.093,0,0,1-.093-.093.1.1,0,0,1,.093-.093,2.1,2.1,0,0,1,.033,4.2" transform="translate(-880.582 -1177.996)" fill="#3b232f"/>
          <path id="Path_873519" data-name="Path 873519" d="M928.635,1419.661a19.875,19.875,0,0,1,.131-3.9c6.332.492,21.931,3.345,21.931,3.345Z" transform="translate(-784.756 -1196.462)" fill="#fff"/>
          <path id="Path_873520" data-name="Path 873520" d="M967,1419.466v-.906a1.65,1.65,0,0,1,1.649-1.651h3.211a14.388,14.388,0,0,1,2.443,2.585h.008c.018.024.033.049.05.074l.008.012a8.507,8.507,0,0,1,1.057,1.972.578.578,0,0,1-.078.54.6.6,0,0,1-.489.25l-45.534-.089a.6.6,0,0,1-.459-.218.588.588,0,0,1-.127-.292,17.9,17.9,0,0,1-.153-2.338Z" transform="translate(-784.751 -1197.433)" fill="#fff"/>
          <path id="Path_873521" data-name="Path 873521" d="M974.364,1421.925h-.013l-45.533-.089a.684.684,0,0,1-.678-.59,18.012,18.012,0,0,1-.154-2.351.094.094,0,0,1,.027-.066.092.092,0,0,1,.066-.027l38.322.063v-.813a1.745,1.745,0,0,1,1.717-1.744h.025l3.211,0a.093.093,0,0,1,.06.022,14.511,14.511,0,0,1,2.442,2.58.091.091,0,0,1,.024.021l.029.042.022.032a8.678,8.678,0,0,1,1.076,2.006.674.674,0,0,1-.09.625.7.7,0,0,1-.552.288m-46.192-2.937a17.738,17.738,0,0,0,.152,2.233.5.5,0,0,0,.494.429l45.533.089a.5.5,0,0,0,.414-.211.482.482,0,0,0,.066-.454,8.432,8.432,0,0,0-1.045-1.951l-.044-.065a.076.076,0,0,1-.022-.02,14.279,14.279,0,0,0-2.4-2.546h-3.177a1.554,1.554,0,0,0-1.557,1.558v.906a.093.093,0,0,1-.027.066.08.08,0,0,1-.066.027Z" transform="translate(-784.244 -1196.926)" fill="#3b232f"/>
          <path id="Path_873522" data-name="Path 873522" d="M974.384,1362.628h-.012l-45.533-.089a.686.686,0,0,1-.53-.252.676.676,0,0,1-.147-.338,19.331,19.331,0,0,1,2.022-11.32.683.683,0,0,1,.584-.362.675.675,0,0,1,.57.274c.875,1.167,12.075,3.049,14.9,1.758a.489.489,0,0,0,.134-.091.5.5,0,0,0,.081-.1c.578-.919,3.676-5.524,7.88-5.964a.727.727,0,0,1,.448.1.664.664,0,0,1,.284.347,8.068,8.068,0,0,0,.994,1.921.093.093,0,0,1-.151.108,8.26,8.26,0,0,1-1.018-1.966.481.481,0,0,0-.206-.251.538.538,0,0,0-.333-.073c-4.119.431-7.172,4.972-7.742,5.878a.707.707,0,0,1-.11.134.662.662,0,0,1-.185.125c-2.866,1.308-14.236-.626-15.128-1.815a.493.493,0,0,0-.416-.2.5.5,0,0,0-.427.264,19.136,19.136,0,0,0-2,11.207.491.491,0,0,0,.107.245.5.5,0,0,0,.387.184l45.533.089a.5.5,0,0,0,.414-.211.483.483,0,0,0,.066-.454c-1.323-3.645-5.85-6.558-9.415-8.36a.093.093,0,1,1,.083-.166c3.595,1.817,8.162,4.76,9.505,8.462a.675.675,0,0,1-.09.626.7.7,0,0,1-.553.288" transform="translate(-784.265 -1137.629)" fill="#3b232f"/>
          <path id="Path_873523" data-name="Path 873523" d="M1093.238,1373.014h-.015a.092.092,0,0,1-.077-.106,3.68,3.68,0,0,1,1.546-2.378,3.878,3.878,0,0,1,2.9-.717.093.093,0,0,1-.033.183,3.694,3.694,0,0,0-2.763.685,3.494,3.494,0,0,0-1.47,2.256.093.093,0,0,1-.09.079" transform="translate(-923.819 -1157.589)" fill="#3b232f"/>
          <path id="Path_873524" data-name="Path 873524" d="M1121.735,1382.438a.1.1,0,0,1-.025,0,.093.093,0,0,1-.066-.114,3.832,3.832,0,0,1,2-2.538,2.55,2.55,0,0,1,2-.207.093.093,0,0,1-.072.171,2.4,2.4,0,0,0-1.849.2,3.65,3.65,0,0,0-1.9,2.419.094.094,0,0,1-.088.069" transform="translate(-947.902 -1165.781)" fill="#3b232f"/>
          <path id="Path_873525" data-name="Path 873525" d="M295.858,1124.152c-9.886,13.156,2.739,28.635,22.846,24.473s49.6-26.971,49.6-26.971l15.59,11.782,27.413-9.338-28.17-25.47a13,13,0,0,0-12.9-2.432L303,1119.6Z" transform="translate(-247.127 -925.771)" fill="#216102"/>
          <path id="Path_873526" data-name="Path 873526" d="M314.756,1148.807c-8.95.856-16.83-2.214-20.667-8.263-3.266-5.149-2.782-11.461,1.295-16.886a.083.083,0,0,1,.023-.021l7.143-4.55.018-.009,67.24-23.407a13.128,13.128,0,0,1,12.982,2.45l28.17,25.469a.086.086,0,0,1-.03.146l-27.413,9.337a.086.086,0,1,1-.056-.163l27.274-9.291-28.061-25.371a12.953,12.953,0,0,0-12.81-2.415l-67.23,23.4-7.121,4.536c-4.023,5.362-4.5,11.6-1.278,16.677,4.3,6.779,13.739,9.781,24.047,7.647a.088.088,0,0,1,.1.067.086.086,0,0,1-.067.1,33.168,33.168,0,0,1-3.561.54" transform="translate(-246.722 -925.328)" fill="#3b232f"/>
          <path id="Path_873527" data-name="Path 873527" d="M812.152,1295.672l-9.442-11.76-17.76,1.928,5.45,15.313,20.4,1.342Z" transform="translate(-663.364 -1085.039)" fill="#ff7d6d"/>
          <path id="Path_873528" data-name="Path 873528" d="M810.3,1302.083h-.008l-20.4-1.342a.093.093,0,0,1-.081-.062l-5.45-15.312a.092.092,0,0,1,.077-.123l17.76-1.928a.093.093,0,0,1,.082.034l9.442,11.759a.092.092,0,0,1,.019.076l-1.347,6.823a.093.093,0,0,1-.09.075m-20.338-1.523,20.262,1.332,1.324-6.7-9.383-11.686-17.592,1.91Z" transform="translate(-662.858 -1084.533)" fill="#3b232f"/>
          <path id="Path_873529" data-name="Path 873529" d="M797.263,1350.78a.6.6,0,0,1,1-.077c.878,1.171,12.182,3.08,15.016,1.786a.576.576,0,0,0,.159-.108.6.6,0,0,0,.1-.116c.555-.882,3.639-5.485,7.811-5.922a.632.632,0,0,1,.391.086.577.577,0,0,1,.245.3c.327.907,1.281,3.035,3.227,3.723,0,0,14.174,4.354,16.731,11.4a.577.577,0,0,1-.078.539.6.6,0,0,1-.489.25l-45.533-.089a.6.6,0,0,1-.459-.218.582.582,0,0,1-.127-.292,19.1,19.1,0,0,1,2.011-11.263" transform="translate(-671.94 -1137.797)" fill="#008db4"/>
          <path id="Path_873530" data-name="Path 873530" d="M941.593,1360.957l-15.006-.059-13.093-8.516a.611.611,0,0,0,.1-.116c.555-.882,3.639-5.485,7.812-5.921a.629.629,0,0,1,.391.086.576.576,0,0,1,.245.3c.327.907,1.281,3.034,3.227,3.723,0,0,12.969,3.989,16.33,10.5" transform="translate(-771.996 -1137.798)" fill="#fff"/>
          <path id="Path_873531" data-name="Path 873531" d="M896.133,1396.117a2.009,2.009,0,1,0,2.008-2.01,2.008,2.008,0,0,0-2.008,2.01" transform="translate(-757.325 -1178.165)" fill="#fff"/>
          <path id="Path_873532" data-name="Path 873532" d="M908.622,1397.711h-.03a.093.093,0,0,1-.093-.093.1.1,0,0,1,.093-.093,1.88,1.88,0,0,0,1.355-.562,1.916,1.916,0,0,0-1.356-3.27.093.093,0,0,1,0-.186h0a2.1,2.1,0,0,1,.032,4.2" transform="translate(-767.773 -1177.658)" fill="#3b232f"/>
          <path id="Path_873533" data-name="Path 873533" d="M795.149,1419.262a19.88,19.88,0,0,1,.131-3.9c6.332.492,21.931,3.345,21.931,3.345Z" transform="translate(-671.947 -1196.125)" fill="#fff"/>
          <path id="Path_873534" data-name="Path 873534" d="M833.516,1419.068v-.906a1.65,1.65,0,0,1,1.649-1.651h3.211a14.381,14.381,0,0,1,2.442,2.585h.008c.017.024.033.049.05.074l.008.012a8.5,8.5,0,0,1,1.057,1.972.578.578,0,0,1-.078.54.6.6,0,0,1-.489.249l-45.534-.089a.591.591,0,0,1-.586-.51A17.924,17.924,0,0,1,795.1,1419Z" transform="translate(-671.942 -1197.096)" fill="#fff"/>
          <path id="Path_873535" data-name="Path 873535" d="M840.879,1421.527h-.013l-45.533-.089a.684.684,0,0,1-.678-.59,17.994,17.994,0,0,1-.154-2.351.093.093,0,0,1,.027-.066.091.091,0,0,1,.066-.027l38.322.063v-.813a1.745,1.745,0,0,1,1.742-1.744h3.211a.091.091,0,0,1,.06.022,14.527,14.527,0,0,1,2.443,2.58.092.092,0,0,1,.024.022l.029.042.022.032a8.675,8.675,0,0,1,1.076,2.006.674.674,0,0,1-.09.625.7.7,0,0,1-.552.288m-46.192-2.937a17.734,17.734,0,0,0,.152,2.233.5.5,0,0,0,.494.429l45.533.089a.5.5,0,0,0,.414-.211.482.482,0,0,0,.066-.453,8.432,8.432,0,0,0-1.045-1.951l-.044-.065a.085.085,0,0,1-.022-.02,14.264,14.264,0,0,0-2.4-2.546h-3.177a1.554,1.554,0,0,0-1.557,1.558v.906a.093.093,0,0,1-.027.066.079.079,0,0,1-.066.027Z" transform="translate(-671.435 -1196.59)" fill="#3b232f"/>
          <path id="Path_873536" data-name="Path 873536" d="M840.9,1362.231h-.012l-45.533-.089a.685.685,0,0,1-.53-.252.674.674,0,0,1-.147-.338,19.334,19.334,0,0,1,2.022-11.32.688.688,0,0,1,1.155-.088c.875,1.167,12.075,3.049,14.9,1.758a.5.5,0,0,0,.134-.091.531.531,0,0,0,.081-.1c.578-.919,3.676-5.524,7.88-5.964a.728.728,0,0,1,.448.1.663.663,0,0,1,.284.346,8.053,8.053,0,0,0,.994,1.921.093.093,0,0,1-.151.108,8.257,8.257,0,0,1-1.018-1.966.482.482,0,0,0-.206-.251.537.537,0,0,0-.333-.073c-4.119.431-7.172,4.972-7.742,5.878a.689.689,0,0,1-.11.134.659.659,0,0,1-.185.125c-2.866,1.309-14.236-.626-15.128-1.815a.492.492,0,0,0-.416-.2.5.5,0,0,0-.427.264,19.138,19.138,0,0,0-2,11.207.493.493,0,0,0,.107.245.5.5,0,0,0,.387.184l45.533.089a.5.5,0,0,0,.414-.212.483.483,0,0,0,.066-.454c-1.323-3.645-5.85-6.558-9.415-8.36a.093.093,0,1,1,.084-.166c3.595,1.817,8.162,4.76,9.505,8.463a.674.674,0,0,1-.09.625.7.7,0,0,1-.553.288" transform="translate(-671.456 -1137.293)" fill="#3b232f"/>
          <path id="Path_873537" data-name="Path 873537" d="M959.753,1372.616h-.016a.093.093,0,0,1-.077-.106,3.68,3.68,0,0,1,1.546-2.378,3.879,3.879,0,0,1,2.9-.717.093.093,0,1,1-.033.183,3.692,3.692,0,0,0-2.763.685,3.494,3.494,0,0,0-1.47,2.256.093.093,0,0,1-.09.078" transform="translate(-811.011 -1157.252)" fill="#3b232f"/>
          <path id="Path_873538" data-name="Path 873538" d="M988.25,1382.038a.1.1,0,0,1-.025,0,.093.093,0,0,1-.066-.114,3.833,3.833,0,0,1,2-2.538,2.55,2.55,0,0,1,2-.206.093.093,0,0,1-.072.171,2.4,2.4,0,0,0-1.849.2,3.65,3.65,0,0,0-1.9,2.419.093.093,0,0,1-.088.069" transform="translate(-835.093 -1165.443)" fill="#3b232f"/>
          <path id="Path_873539" data-name="Path 873539" d="M247.824,1135.236c-8.925,13.063,2.739,28.635,21.079,24.642s45.1-26.541,45.1-26.541l14.343,11.9,24.973-9.1-25.952-25.682a11.213,11.213,0,0,0-11.8-2.537l-61.252,22.834Z" transform="translate(-206.849 -935.705)" fill="#216102"/>
          <path id="Path_873540" data-name="Path 873540" d="M265.105,1160.033a22.71,22.71,0,0,1-9.807-1.1,17.182,17.182,0,0,1-8.6-6.507c-3.592-5.331-3.4-11.941.526-17.681a.084.084,0,0,1,.022-.022l6.49-4.487.019-.01,61.252-22.834a11.336,11.336,0,0,1,11.9,2.556l25.952,25.682a.086.086,0,0,1-.031.142l-24.973,9.1a.086.086,0,0,1-.085-.015L313.479,1133c-.663.554-7.168,5.955-15.625,11.732-8.2,5.6-19.972,12.715-29.459,14.781a28,28,0,0,1-3.289.516m-17.746-25.181c-3.871,5.676-4.065,12.208-.516,17.474,4.242,6.3,12.486,8.987,21.515,7.022,18.109-3.943,44.8-26.3,45.065-26.523a.086.086,0,0,1,.111,0l14.305,11.869,24.8-9.041-25.855-25.586a11.163,11.163,0,0,0-11.714-2.517l-61.242,22.83Z" transform="translate(-206.322 -935.26)" fill="#3b232f"/>
          <path id="Path_873541" data-name="Path 873541" d="M280.555,898.283c-4.987-.608-9.332-.645-7.449,2.974s-1.383,3.976-5.73,4.392-5.94,7.4.493,9.4,11.4-2.312,12.029-5.673a8.761,8.761,0,0,0-1.377-6.832c-.775-1.011,2.6-2.645,2.6-2.645Z" transform="translate(-222.744 -758.88)" fill="#3b232f"/>
          <path id="Path_873542" data-name="Path 873542" d="M180.961,1006.19s-18.71,12.191-27.2,11.375-11.841-8.907-9.988-17.9,18.744-33.81,27.025-36.59l5.841-.559,6.464-.139,4.477.266c4.905,3.058,16.516,12.394,16.516,12.394l.552,18.533-19.493,8.361-4.458,2.206Z" transform="translate(-121.085 -813.307)" fill="#b1ec93"/>
          <path id="Path_873543" data-name="Path 873543" d="M155.286,1017.163a10.478,10.478,0,0,1-1.989.018,10.836,10.836,0,0,1-7.944-4.317c-2.454-3.325-3.227-8.314-2.12-13.688.885-4.3,5.352-12.6,11.116-20.659,6.268-8.764,12.236-14.744,15.966-16l.019,0,5.841-.559,6.47-.139,4.484.267a.086.086,0,0,1,.041.013c4.853,3.026,16.408,12.306,16.524,12.4a.086.086,0,0,1,.032.065l.552,18.533a.086.086,0,0,1-.052.082l-19.493,8.361-4.4,2.177.258,1.993a.086.086,0,0,1-.038.083c-.174.113-16.219,10.505-25.267,11.37m15.074-54.475c-3.7,1.248-9.629,7.2-15.871,15.93-5.751,8.041-10.207,16.317-11.087,20.593-1.1,5.327-.335,10.266,2.09,13.551a10.67,10.67,0,0,0,7.822,4.248c8.161.784,26.065-10.665,27.1-11.332l-.259-2a.087.087,0,0,1,.047-.089l4.458-2.206,19.444-8.339-.549-18.435c-.67-.538-11.726-9.4-16.458-12.351l-4.455-.265-6.457.139Z" transform="translate(-120.629 -812.837)" fill="#3b232f"/>
          <path id="Path_873544" data-name="Path 873544" d="M440.542,1010.856a.086.086,0,0,1-.081-.039c-.04-.062-3.926-6.251-1.152-12.994,1.52-3.324.907-5.778.126-7.253a8.09,8.09,0,0,0-5.853-4.014.087.087,0,0,1-.059-.039l-3.417-5.462a.086.086,0,0,1,.146-.092l3.4,5.429a8.259,8.259,0,0,1,5.938,4.1c.8,1.509,1.427,4.018-.12,7.4-2.737,6.654,1.1,12.771,1.139,12.832a.086.086,0,0,1-.064.132" transform="translate(-363.474 -828.982)" fill="#3b232f"/>
          <path id="Path_873545" data-name="Path 873545" d="M333.394,1160.908h0a1.306,1.306,0,0,1-1.79-.453l-7.77-13.03a1.306,1.306,0,1,1,2.243-1.337l7.77,13.03a1.305,1.305,0,0,1-.453,1.79" transform="translate(-273.517 -968.025)" fill="#3b232f"/>
          <path id="Path_873546" data-name="Path 873546" d="M353.589,1096.943l-.006-.021a.893.893,0,0,0-.995-.648l-3.973.6a5.027,5.027,0,0,0-1.254.36l-8.823,3.017-.265.129-9.029,5.838,6.112,10,3.992-5.537c.871.361,3.187.182,7.917-2.647l-.2.606a.935.935,0,1,0,1.79.539l.454-1.632a.684.684,0,0,0-.281-.754l.1-.041a1.542,1.542,0,0,0,.953-1.406.856.856,0,0,0-.687-.85l.167-.15a.857.857,0,0,0,.257-.848l-.154-.606a1.14,1.14,0,0,0-.769-.809l-.088-.027a1.139,1.139,0,0,0,.078-1.056l-.333-.77a.638.638,0,0,1,.385-.859s2.663-.884,4.055-1.326a.9.9,0,0,0,.619-.749.911.911,0,0,0-.026-.349" transform="translate(-278.247 -926.456)" fill="#ff7d6d"/>
          <path id="Path_873547" data-name="Path 873547" d="M334.9,1115.829h-.012a.087.087,0,0,1-.07-.041l-6.112-10a.087.087,0,0,1,.027-.118l9.029-5.838.274-.134,8.833-3.022a5.067,5.067,0,0,1,1.269-.364l3.973-.6a.979.979,0,0,1,1.091.711l.006.021h0a.988.988,0,0,1-.65,1.2c-1.376.437-4.027,1.316-4.054,1.325a.552.552,0,0,0-.333.743l.333.77a.727.727,0,0,0,.36,1.249,1.234,1.234,0,0,1,.423.656l.154.606a.942.942,0,0,1-.282.933l-.052.047a.942.942,0,0,1,.6.89,1.627,1.627,0,0,1-.972,1.469.773.773,0,0,1,.2.753l-.454,1.631a1.021,1.021,0,1,1-1.955-.588l.126-.388c-5.006,2.959-7.042,2.807-7.734,2.56l-3.954,5.483a.087.087,0,0,1-.062.035m-6-10.056,6,9.815,3.917-5.432a.086.086,0,0,1,.1-.029c.474.2,2.442.587,7.84-2.641a.086.086,0,0,1,.126.1l-.2.606a.848.848,0,1,0,1.624.489l.454-1.631a.6.6,0,0,0-.246-.659.086.086,0,0,1-.038-.08.087.087,0,0,1,.053-.072l.1-.041a1.455,1.455,0,0,0,.9-1.327.769.769,0,0,0-.617-.764.086.086,0,0,1-.041-.149l.167-.15a.763.763,0,0,0,.24-.421.774.774,0,0,0-.009-.341l-.154-.606a1.06,1.06,0,0,0-.363-.563,1.038,1.038,0,0,0-.348-.184l-.088-.027a.087.087,0,0,1-.055-.053.086.086,0,0,1,.008-.076,1.054,1.054,0,0,0,.073-.976l-.333-.77a.724.724,0,0,1,.175-.821.716.716,0,0,1,.262-.154c.027-.009,2.679-.889,4.056-1.326a.815.815,0,0,0,.536-.993l-.006-.021a.807.807,0,0,0-.9-.586l-3.973.6a4.921,4.921,0,0,0-1.232.354l-8.829,3.02-.255.125Z" transform="translate(-277.776 -925.987)" fill="#451d26"/>
          <path id="Path_873548" data-name="Path 873548" d="M365.113,934.461a6.171,6.171,0,0,1,.991-2.8s-2.349-2.492-3.214-2.309c-.129,2.513-4.241,5.246-4.241,5.246,7.016,4.755,9.826,4.367,6.464-.139" transform="translate(-303.095 -785.393)" fill="#ff7d6d"/>
          <path id="Path_873549" data-name="Path 873549" d="M365.372,937.615c-1.227.118-3.822-1.093-7.243-3.411a.086.086,0,0,1,0-.143c.041-.027,4.077-2.738,4.2-5.178a.087.087,0,0,1,.068-.08c.889-.187,3.051,2.076,3.294,2.334a.086.086,0,0,1,.008.109,6.15,6.15,0,0,0-.974,2.722c1.282,1.723,1.7,2.9,1.22,3.406a.887.887,0,0,1-.578.242m-7.04-3.483c4.7,3.17,6.974,3.665,7.493,3.122.408-.427-.049-1.6-1.253-3.209a.086.086,0,0,1-.017-.056,6.15,6.15,0,0,1,.967-2.784c-.66-.692-2.324-2.272-3.022-2.242-.185,2.308-3.513,4.716-4.169,5.169" transform="translate(-302.624 -784.925)" fill="#3b232f"/>
          <path id="Path_873550" data-name="Path 873550" d="M371.208,880.359a20.474,20.474,0,0,0-1.139-3.169c-.723-1.542-.26-4.152,2.126-4.488.66-.776,2.281-.979,3.466-.857s2.394-.64,3.21-.376,2.567,3.358,1.112,5.424-6.657,4.037-8.776,3.465" transform="translate(-312.483 -736.434)" fill="#3b232f"/>
          <path id="Path_873551" data-name="Path 873551" d="M388.38,892.677c-2.163.636-4.448-1.426-5.432-3.484a2.4,2.4,0,0,1-.053-1.8c.647-.036,2.065-1.717,1.873-3.094.574-.078,1.219-1.314,1.077-2.283,1.576-.149,4.892.8,4.783,3.766s.2,5.908-2.248,6.893" transform="translate(-323.478 -745.384)" fill="#ff7d6d"/>
          <path id="Path_873552" data-name="Path 873552" d="M395.278,892.391a4.621,4.621,0,0,1-3.7-1.759.086.086,0,1,1,.127-.117c1.3,1.4,2.783,1.986,4.077,1.6,2.07-.833,2.111-3.069,2.158-5.658.007-.382.014-.768.028-1.155a3.05,3.05,0,0,0-.978-2.428,5.2,5.2,0,0,0-3.711-1.249.086.086,0,0,1-.016-.172h0a5.364,5.364,0,0,1,3.846,1.3,3.216,3.216,0,0,1,1.032,2.559c-.014.386-.021.772-.028,1.152-.046,2.54-.09,4.939-2.274,5.818a2.975,2.975,0,0,1-.562.109" transform="translate(-330.906 -744.909)" fill="#3b232f"/>
          <path id="Path_873553" data-name="Path 873553" d="M392.676,918.9a1.318,1.318,0,1,1-1.235-1.26,1.251,1.251,0,0,1,1.235,1.26" transform="translate(-329.639 -775.498)" fill="#ff6a58"/>
          <path id="Path_873554" data-name="Path 873554" d="M398.261,906.893a.889.889,0,0,1-.055-.393l.123.106a1,1,0,0,1,.947-.4c.5.06,1.031.487,1.14,1.479a8.469,8.469,0,0,1-2.156-.792" transform="translate(-336.523 -765.83)" fill="#3b232f"/>
          <path id="Path_873555" data-name="Path 873555" d="M398.576,907.541c.635-.87,1.7-.879,2.178.817a1.371,1.371,0,0,1-2.178-.817" transform="translate(-336.838 -766.478)" fill="#fff"/>
        </g>
      </g>
      <g id="Group_1099260" data-name="Group 1099260" transform="translate(61.738 140.485)">
        <g id="Group_1099259" data-name="Group 1099259" transform="translate(0)" clip-path="url(#clip-path-7)">
          <path id="Path_873556" data-name="Path 873556" d="M404.689,910.191a.745.745,0,1,1-.691-.854.778.778,0,0,1,.691.854" transform="translate(-402.488 -908.968)" fill="#3b232f"/>
        </g>
      </g>
      <g id="Group_1099262" data-name="Group 1099262" transform="translate(0 0)">
        <g id="Group_1099261" data-name="Group 1099261" clip-path="url(#clip-path-2)">
          <path id="Path_873558" data-name="Path 873558" d="M422.334,908.5a1.072,1.072,0,0,0,.085-.376l-.107.09c-.193-.353-.391-.5-.689-.493-.392,0-.851.361-1.043,1.315a5.7,5.7,0,0,0,1.754-.536" transform="translate(-355.433 -767.121)" fill="#3b232f"/>
          <path id="Path_873559" data-name="Path 873559" d="M422.228,909.094c-.4-.915-1.221-1.04-1.774.558a1.01,1.01,0,0,0,1.774-.558" transform="translate(-355.327 -767.712)" fill="#fff"/>
        </g>
      </g>
      <g id="Group_1099264" data-name="Group 1099264" transform="translate(65.127 140.712)">
        <g id="Group_1099263" data-name="Group 1099263" transform="translate(0)" clip-path="url(#clip-path-9)">
          <path id="Path_873560" data-name="Path 873560" d="M426.221,910.932a.745.745,0,1,1-.691-.854.778.778,0,0,1,.691.854" transform="translate(-424.073 -909.82)" fill="#3b232f"/>
        </g>
      </g>
      <g id="Group_1099266" data-name="Group 1099266" transform="translate(0 0)">
        <g id="Group_1099265" data-name="Group 1099265" clip-path="url(#clip-path-2)">
          <path id="Path_873562" data-name="Path 873562" d="M416.959,910.549a1.6,1.6,0,0,0-.053,1.288c.176.394.348.527.059.735-.693.18-.925-.015-.929-.292s.539-1.67.923-1.732" transform="translate(-351.593 -769.508)" fill="#ff7d6d"/>
          <path id="Path_873563" data-name="Path 873563" d="M416.916,918.538a.524.524,0,0,0-.328.358c-.05.09-.385-.051-.52.176.025.255.265.424.924.253.289-.208.118-.341-.059-.735-.007-.016-.012-.034-.018-.051" transform="translate(-351.621 -776.26)" fill="#ff6a58"/>
          <path id="Path_873564" data-name="Path 873564" d="M420.658,912.188a.086.086,0,0,1-.059-.156c.169-.122.144-.172.02-.412-.033-.063-.07-.135-.107-.218a1.693,1.693,0,0,1,.06-1.371.086.086,0,0,1,.144.1,1.515,1.515,0,0,0-.046,1.205c.036.08.071.148.1.209.122.236.218.423-.072.632a.087.087,0,0,1-.042.016" transform="translate(-355.278 -769.038)" fill="#3b232f"/>
          <path id="Path_873565" data-name="Path 873565" d="M372.746,912.388c-1.014-1.674-2.582-1.772-2.838-.688s.261,2.822,2.767,2.446c.292-1.347.071-1.758.071-1.758" transform="translate(-312.559 -769.88)" fill="#ff7d6d"/>
          <path id="Path_873566" data-name="Path 873566" d="M371.948,913.8a2.423,2.423,0,0,1-2.144-.634,2.18,2.18,0,0,1-.454-1.95.954.954,0,0,1,.8-.763c.559-.087,1.471.233,2.194,1.427a.086.086,0,1,1-.148.089c-.635-1.049-1.472-1.432-2.02-1.346a.779.779,0,0,0-.661.633,2.035,2.035,0,0,0,.413,1.794,2.453,2.453,0,0,0,2.257.548.087.087,0,0,1,.1.072.086.086,0,0,1-.073.1q-.137.02-.266.033" transform="translate(-312.086 -769.412)" fill="#3b232f"/>
          <path id="Path_873567" data-name="Path 873567" d="M376.25,917.344c-.021-1.4-1.07-2.095-1.7-1.673a2.456,2.456,0,0,1,1.7,1.673" transform="translate(-316.531 -773.733)" fill="#ff6a58"/>
          <path id="Path_873568" data-name="Path 873568" d="M375.789,916.956h-.007a.086.086,0,0,1-.088-.085,1.769,1.769,0,0,0-.811-1.605.726.726,0,0,0-.758,0,.086.086,0,1,1-.1-.144.894.894,0,0,1,.934-.012,1.938,1.938,0,0,1,.9,1.755.086.086,0,0,1-.078.087" transform="translate(-316.061 -773.26)" fill="#3b232f"/>
          <path id="Path_873569" data-name="Path 873569" d="M378.244,921.16a.086.086,0,0,1-.071-.026.586.586,0,0,1-.015-.812.635.635,0,0,1,.877-.086.086.086,0,0,1-.1.14.462.462,0,0,0-.646.06.413.413,0,0,0,.01.579.086.086,0,0,1-.054.146" transform="translate(-319.45 -777.579)" fill="#3b232f"/>
          <path id="Path_873570" data-name="Path 873570" d="M413.107,940.854a1.314,1.314,0,0,1-1.037-.41l.13-.114a1.135,1.135,0,0,0,.975.339.405.405,0,0,0,.326-.295l.166.048a.582.582,0,0,1-.454.415.86.86,0,0,1-.105.017" transform="translate(-348.241 -794.676)" fill="#ff6a58"/>
          <path id="Path_873571" data-name="Path 873571" d="M396.485,911.488a.086.086,0,0,1-.022-.171l.267-.043a.086.086,0,0,1,.027.171l-.267.043h-.005" transform="translate(-334.99 -770.12)" fill="#3b232f"/>
          <path id="Path_873572" data-name="Path 873572" d="M397.254,913.118a.086.086,0,0,1-.048-.163l.195-.1a.086.086,0,0,1,.079.153l-.195.1a.092.092,0,0,1-.031.009" transform="translate(-335.641 -771.449)" fill="#3b232f"/>
          <path id="Path_873573" data-name="Path 873573" d="M401.451,900.081c-.024.162-.677-.2-1.424-.315s-1.305.078-1.281-.084a1.387,1.387,0,0,1,1.368-.5,1.787,1.787,0,0,1,1.338.9" transform="translate(-336.98 -759.885)" fill="#3b232f"/>
          <path id="Path_873574" data-name="Path 873574" d="M424.673,901.379c-.013.147-.2-.167-.635-.206s-.951.21-.937.064a1.213,1.213,0,0,1,.986-.6c.434.039.6.591.587.738" transform="translate(-357.563 -761.134)" fill="#3b232f"/>
          <path id="Path_873575" data-name="Path 873575" d="M407.809,927.775c2.194-.67,3.081-.442,2.43.285.117,1.25-1.283,1.437-2.43-.285" transform="translate(-344.641 -783.729)" fill="#59394b"/>
          <path id="Path_873576" data-name="Path 873576" d="M409.578,929.883a6.349,6.349,0,0,1-2.265-.321.086.086,0,1,1,.05-.165,5.42,5.42,0,0,0,2.383.284.086.086,0,1,1,.044.167,1.373,1.373,0,0,1-.212.035" transform="translate(-344.169 -785.434)" fill="#3b232f"/>
          <path id="Path_873577" data-name="Path 873577" d="M526.432,984.792l-26.753,9.834a.835.835,0,0,1-1.119-.7l-1.78-18.605a1.154,1.154,0,0,1,.751-1.193L524,964.393a.93.93,0,0,1,1.247.785l1.785,18.657a.926.926,0,0,1-.6.957" transform="translate(-419.826 -814.963)" fill="#3b232f"/>
          <path id="Path_873578" data-name="Path 873578" d="M536.309,981.219l-26.754,9.834a.835.835,0,0,1-1.119-.7l-1.78-18.605a1.154,1.154,0,0,1,.751-1.193l26.472-9.73a.93.93,0,0,1,1.247.785l1.785,18.657a.926.926,0,0,1-.6.957" transform="translate(-428.173 -811.944)" fill="#93c4db"/>
          <path id="Path_873579" data-name="Path 873579" d="M508.709,990.649a.938.938,0,0,1-.932-.848L506,971.195a1.256,1.256,0,0,1,.817-1.3l26.472-9.73a1.033,1.033,0,0,1,1.385.871l1.785,18.657a1.028,1.028,0,0,1-.669,1.063l-.035-.1.035.1-26.754,9.834a.94.94,0,0,1-.324.058m24.935-30.342a.829.829,0,0,0-.287.051l-26.472,9.73a1.051,1.051,0,0,0-.684,1.087l1.78,18.605a.732.732,0,0,0,.982.618l26.753-9.834a.822.822,0,0,0,.536-.851l-1.785-18.657a.829.829,0,0,0-.823-.749" transform="translate(-427.615 -811.385)" fill="#3b232f"/>
          <path id="Path_873580" data-name="Path 873580" d="M433.943,1141.05l-26.754,9.834a.834.834,0,0,1-1.119-.7l-.054-.568a1.154,1.154,0,0,1,.751-1.193l26.472-9.73a.93.93,0,0,1,1.247.785l.059.619a.926.926,0,0,1-.6.957" transform="translate(-343.121 -962.261)" fill="#3b232f"/>
          <path id="Path_873581" data-name="Path 873581" d="M545.049,1100.059l-26.754,9.834a.834.834,0,0,1-1.119-.7l-.054-.568a1.154,1.154,0,0,1,.751-1.193l26.472-9.73a.93.93,0,0,1,1.247.785l.059.619a.926.926,0,0,1-.6.957" transform="translate(-437.017 -927.62)" fill="#93c4db"/>
          <path id="Path_873582" data-name="Path 873582" d="M517.449,1109.489a.938.938,0,0,1-.932-.848l-.054-.568a1.257,1.257,0,0,1,.817-1.3l26.472-9.73a1.033,1.033,0,0,1,1.384.871l.059.619a1.028,1.028,0,0,1-.669,1.063l-26.754,9.834a.943.943,0,0,1-.324.058m26.66-12.3a.83.83,0,0,0-.287.051l-26.472,9.73a1.053,1.053,0,0,0-.684,1.087l.054.568a.732.732,0,0,0,.982.618l26.754-9.834a.822.822,0,0,0,.535-.851l-.059-.619a.828.828,0,0,0-.823-.75" transform="translate(-436.459 -927.062)" fill="#3b232f"/>
          <path id="Path_873583" data-name="Path 873583" d="M601.808,1048.7a1.666,1.666,0,1,1-1.817-1.5,1.666,1.666,0,0,1,1.817,1.5" transform="translate(-505.781 -884.985)" fill="#fff"/>
          <path id="Path_873584" data-name="Path 873584" d="M447.329,1131.83a.086.086,0,0,1-.035,0,4.2,4.2,0,0,0-1.391-.254.087.087,0,0,1-.091-.081.085.085,0,0,1,.081-.091,4.255,4.255,0,0,1,1.455.263.086.086,0,0,1-.019.168" transform="translate(-376.756 -956.148)" fill="#451d26"/>
          <path id="Path_873585" data-name="Path 873585" d="M451.352,1147.245a.084.084,0,0,1-.031,0,8.591,8.591,0,0,0-1.35-.318.083.083,0,0,1-.094-.072.089.089,0,0,1,.076-.1,6.8,6.8,0,0,1,1.413.322.086.086,0,0,1-.014.169" transform="translate(-380.191 -969.124)" fill="#451d26"/>
          <path id="Path_873586" data-name="Path 873586" d="M451.735,1161.375a.085.085,0,0,1-.05-.011,5.7,5.7,0,0,0-.857-.439.087.087,0,0,1-.064-.1.085.085,0,0,1,.1-.068,4.814,4.814,0,0,1,.908.458.086.086,0,0,1-.034.161" transform="translate(-380.94 -980.958)" fill="#451d26"/>
          <path id="Path_873587" data-name="Path 873587" d="M445.128,1169.81a.086.086,0,0,1-.079-.136c.25-.353.395-.4.433-.406a.087.087,0,0,1,.1.072.086.086,0,0,1-.072.1h0s-.109.039-.319.336a.086.086,0,0,1-.062.036" transform="translate(-376.099 -988.151)" fill="#451d26"/>
          <path id="Path_873588" data-name="Path 873588" d="M212.882,1154.555a.086.086,0,0,1-.045-.164l17.723-8.3a.086.086,0,0,1,.073.156l-17.723,8.3a.085.085,0,0,1-.028.008" transform="translate(-179.827 -968.56)" fill="#451d26"/>
          <path id="Path_873589" data-name="Path 873589" d="M218.951,1191.11h0l-2.16.116a.086.086,0,0,1-.091-.082.083.083,0,0,1,.082-.091l2.16-.116a.086.086,0,0,1,.013.172" transform="translate(-183.131 -1006.465)" fill="#451d26"/>
          <path id="Path_873590" data-name="Path 873590" d="M322.655,979.309a.091.091,0,0,1-.041-.006.087.087,0,0,1-.047-.113c.741-1.778,2.687-9.63-2.142-12.708a.086.086,0,1,1,.093-.145c4.93,3.142,2.96,11.115,2.209,12.92a.087.087,0,0,1-.072.053" transform="translate(-270.758 -816.642)" fill="#3b232f"/>
          <path id="Path_873591" data-name="Path 873591" d="M286.281,1120.214a.086.086,0,0,1-.081-.131l5.146-8.248a.086.086,0,1,1,.146.091l-5.146,8.248a.085.085,0,0,1-.065.04" transform="translate(-241.857 -939.581)" fill="#451d26"/>
          <path id="Path_873592" data-name="Path 873592" d="M668.195,1255.515h-.012a7.54,7.54,0,0,1-3.9-1.549.086.086,0,1,1,.106-.136,7.494,7.494,0,0,0,3.421,1.469c-3.24-1.989-3.91-3.438-3.937-3.5a.086.086,0,0,1,.158-.07c.007.015.731,1.567,4.2,3.625a.086.086,0,0,1-.036.16" transform="translate(-561.03 -1057.798)" fill="#3b232f"/>
        </g>
      </g>
    </g>
    <path id="Path_874026" data-name="Path 874026" d="M9,0H150a9,9,0,0,1,9,9V134a9,9,0,0,1-9,9H9a9,9,0,0,1-9-9V9A9,9,0,0,1,9,0Z" transform="translate(627.533 2873.109)" fill="#fff"/>
    <path id="Path_874027" data-name="Path 874027" d="M9,0H150a9,9,0,0,1,9,9V134a9,9,0,0,1-9,9H9a9,9,0,0,1-9-9V9A9,9,0,0,1,9,0Z" transform="translate(794.533 2873.109)" fill="#fff"/>
    <path id="Path_874028" data-name="Path 874028" d="M9,0H150a9,9,0,0,1,9,9V134a9,9,0,0,1-9,9H9a9,9,0,0,1-9-9V9A9,9,0,0,1,9,0Z" transform="translate(960.533 2873.109)" fill="#fff"/>
    <path id="Path_874029" data-name="Path 874029" d="M9,0H150a9,9,0,0,1,9,9V134a9,9,0,0,1-9,9H9a9,9,0,0,1-9-9V9A9,9,0,0,1,9,0Z" transform="translate(1126.533 2873.109)" fill="#fff"/>
    <path id="Path_874030" data-name="Path 874030" d="M26.465,12.875H22.707L22.051,15h-2.93L23.293,3.625h2.578L30.074,15H27.129Zm-3.1-2.117h2.445L24.582,6.813Zm9.461-4.211.086.992a2.867,2.867,0,0,1,2.414-1.148A2.412,2.412,0,0,1,37.3,7.18a3.757,3.757,0,0,1,.676,2.375V15H35.332V9.664a1.426,1.426,0,0,0-.258-.941,1.193,1.193,0,0,0-.937-.3,1.256,1.256,0,0,0-1.148.609V15H30.355V6.547Zm9.672-2.1v2.1h1.391V8.375H42.5v3.867a.987.987,0,0,0,.172.664.922.922,0,0,0,.68.188A3.862,3.862,0,0,0,44,13.047V14.93a4.859,4.859,0,0,1-1.484.227,2.758,2.758,0,0,1-2.008-.641,2.626,2.626,0,0,1-.648-1.945v-4.2H38.785V6.547h1.078v-2.1Zm6.516,10.711A4.345,4.345,0,0,1,45.863,14a4.006,4.006,0,0,1-1.2-3.02v-.219a5.191,5.191,0,0,1,.48-2.289,3.516,3.516,0,0,1,1.4-1.535,4.233,4.233,0,0,1,2.188-.543A3.659,3.659,0,0,1,51.543,7.5a4.344,4.344,0,0,1,1.031,3.082V11.6H47.34a1.9,1.9,0,0,0,.617,1.117,1.836,1.836,0,0,0,1.234.406,2.366,2.366,0,0,0,1.953-.875l1.2,1.422a3.363,3.363,0,0,1-1.395,1.082A4.713,4.713,0,0,1,49.012,15.156Zm-.3-6.734q-1.156,0-1.375,1.531H50v-.2a1.3,1.3,0,0,0-.32-.98A1.275,1.275,0,0,0,48.715,8.422Zm9.344,4.2a.608.608,0,0,0-.352-.539,5.348,5.348,0,0,0-1.336-.422,6.092,6.092,0,0,1-1.625-.574,2.722,2.722,0,0,1-.977-.863,2.061,2.061,0,0,1-.336-1.164,2.336,2.336,0,0,1,.961-1.918,3.958,3.958,0,0,1,2.516-.754,4.386,4.386,0,0,1,2.688.758,2.37,2.37,0,0,1,1.016,1.992H57.973q0-1.016-1.07-1.016a1.061,1.061,0,0,0-.7.23.714.714,0,0,0-.281.574.655.655,0,0,0,.344.57,3.248,3.248,0,0,0,1.1.359,9.485,9.485,0,0,1,1.324.336A2.406,2.406,0,0,1,60.6,12.547,2.214,2.214,0,0,1,59.57,14.43a4.505,4.505,0,0,1-2.66.727,4.6,4.6,0,0,1-1.937-.391A3.24,3.24,0,0,1,53.645,13.7a2.406,2.406,0,0,1-.477-1.414h2.461a1.017,1.017,0,0,0,.391.855,1.607,1.607,0,0,0,.961.27,1.264,1.264,0,0,0,.809-.219A.7.7,0,0,0,58.059,12.625Zm7.422-1.914a5.164,5.164,0,0,1,.867-3.164A2.854,2.854,0,0,1,68.77,6.391a2.428,2.428,0,0,1,1.906.891V3h2.641V15H70.949l-.133-.906a2.493,2.493,0,0,1-2.062,1.063A2.849,2.849,0,0,1,66.363,14,5.327,5.327,0,0,1,65.48,10.711Zm2.633.164q0,2.25,1.313,2.25a1.3,1.3,0,0,0,1.25-.734V9.172a1.261,1.261,0,0,0-1.234-.75q-1.219,0-1.32,1.969ZM78.9,15.156A4.345,4.345,0,0,1,75.754,14a4.006,4.006,0,0,1-1.2-3.02v-.219a5.191,5.191,0,0,1,.48-2.289,3.516,3.516,0,0,1,1.4-1.535,4.233,4.233,0,0,1,2.188-.543A3.659,3.659,0,0,1,81.434,7.5a4.344,4.344,0,0,1,1.031,3.082V11.6H77.23a1.9,1.9,0,0,0,.617,1.117,1.836,1.836,0,0,0,1.234.406,2.366,2.366,0,0,0,1.953-.875l1.2,1.422a3.363,3.363,0,0,1-1.395,1.082A4.713,4.713,0,0,1,78.9,15.156Zm-.3-6.734q-1.156,0-1.375,1.531h2.656v-.2a1.3,1.3,0,0,0-.32-.98A1.275,1.275,0,0,0,78.605,8.422ZM90.285,15H87.645V6.547h2.641Zm-2.8-10.633a1.175,1.175,0,0,1,.406-.922,1.727,1.727,0,0,1,2.109,0,1.175,1.175,0,0,1,.406.922A1.175,1.175,0,0,1,90,5.289a1.727,1.727,0,0,1-2.109,0A1.175,1.175,0,0,1,87.488,4.367Zm6.836,2.18.086.992a2.867,2.867,0,0,1,2.414-1.148A2.412,2.412,0,0,1,98.8,7.18a3.757,3.757,0,0,1,.676,2.375V15H96.832V9.664a1.426,1.426,0,0,0-.258-.941,1.193,1.193,0,0,0-.937-.3,1.256,1.256,0,0,0-1.148.609V15H91.855V6.547ZM103.707,15h-2.641V6.547h2.641Zm-2.8-10.633a1.175,1.175,0,0,1,.406-.922,1.727,1.727,0,0,1,2.109,0,1.175,1.175,0,0,1,.406.922,1.175,1.175,0,0,1-.406.922,1.727,1.727,0,0,1-2.109,0A1.175,1.175,0,0,1,100.91,4.367Zm7.992,8.758a1.171,1.171,0,0,0,.859-.3,1.1,1.1,0,0,0,.3-.84h2.469a2.922,2.922,0,0,1-1,2.281,3.705,3.705,0,0,1-2.566.891A3.751,3.751,0,0,1,106.059,14,4.556,4.556,0,0,1,105,10.8v-.109a5.149,5.149,0,0,1,.473-2.262,3.441,3.441,0,0,1,1.363-1.508,4.065,4.065,0,0,1,2.109-.527,3.658,3.658,0,0,1,2.617.914,3.242,3.242,0,0,1,.969,2.477h-2.469a1.445,1.445,0,0,0-.32-1.008,1.106,1.106,0,0,0-.859-.352q-1.023,0-1.2,1.3a9.206,9.206,0,0,0-.055,1.141,3.616,3.616,0,0,0,.3,1.766A1.055,1.055,0,0,0,108.9,13.125ZM116.418,15h-2.641V6.547h2.641Zm-2.8-10.633a1.175,1.175,0,0,1,.406-.922,1.727,1.727,0,0,1,2.109,0,1.175,1.175,0,0,1,.406.922,1.175,1.175,0,0,1-.406.922,1.727,1.727,0,0,1-2.109,0A1.175,1.175,0,0,1,113.621,4.367ZM122.8,15a2.973,2.973,0,0,1-.25-.758,2.448,2.448,0,0,1-2.031.914,3,3,0,0,1-2.031-.723,2.3,2.3,0,0,1-.836-1.816,2.364,2.364,0,0,1,1.016-2.078,5.174,5.174,0,0,1,2.953-.7h.813V9.388q0-1.17-1.008-1.17a.824.824,0,0,0-.937.926h-2.633a2.36,2.36,0,0,1,1.043-1.99,4.383,4.383,0,0,1,2.66-.765,3.843,3.843,0,0,1,2.555.789,2.743,2.743,0,0,1,.961,2.164v3.742a3.832,3.832,0,0,0,.359,1.781V15Zm-1.648-1.719a1.469,1.469,0,0,0,.816-.211,1.322,1.322,0,0,0,.465-.477V11.242h-.766q-1.375,0-1.375,1.234a.754.754,0,0,0,.242.582A.876.876,0,0,0,121.152,13.281ZM131.645,8.93l-.867-.062a1.558,1.558,0,0,0-1.594.781V15h-2.633V6.547h2.469l.086,1.086a2.039,2.039,0,0,1,1.852-1.242,2.567,2.567,0,0,1,.734.094ZM53.484,40.156A4.345,4.345,0,0,1,50.336,39a4.006,4.006,0,0,1-1.2-3.02v-.219a5.191,5.191,0,0,1,.48-2.289,3.516,3.516,0,0,1,1.4-1.535,4.233,4.233,0,0,1,2.188-.543A3.659,3.659,0,0,1,56.016,32.5a4.344,4.344,0,0,1,1.031,3.082V36.6H51.813a1.9,1.9,0,0,0,.617,1.117,1.836,1.836,0,0,0,1.234.406,2.366,2.366,0,0,0,1.953-.875l1.2,1.422a3.363,3.363,0,0,1-1.395,1.082A4.713,4.713,0,0,1,53.484,40.156Zm-.3-6.734q-1.156,0-1.375,1.531h2.656v-.2a1.3,1.3,0,0,0-.32-.98A1.275,1.275,0,0,0,53.188,33.422ZM60.883,40H58.242V28h2.641Zm9.18-1.875a1.171,1.171,0,0,0,.859-.3,1.1,1.1,0,0,0,.3-.84h2.469a2.923,2.923,0,0,1-1,2.281,3.705,3.705,0,0,1-2.566.891A3.751,3.751,0,0,1,67.219,39a4.556,4.556,0,0,1-1.062-3.2v-.109a5.149,5.149,0,0,1,.473-2.262,3.441,3.441,0,0,1,1.363-1.508,4.065,4.065,0,0,1,2.109-.527,3.658,3.658,0,0,1,2.617.914,3.242,3.242,0,0,1,.969,2.477H71.219a1.445,1.445,0,0,0-.32-1.008,1.106,1.106,0,0,0-.859-.352q-1.023,0-1.2,1.3a9.206,9.206,0,0,0-.055,1.141,3.616,3.616,0,0,0,.3,1.766A1.055,1.055,0,0,0,70.063,38.125Zm9.773.961a2.714,2.714,0,0,1-2.258,1.07,2.662,2.662,0,0,1-2.105-.809,3.4,3.4,0,0,1-.715-2.324V31.547h2.633v5.492a.946.946,0,0,0,1.055,1.086,1.376,1.376,0,0,0,1.289-.648v-5.93h2.648V40H79.914Zm9.1-5.156-.867-.062a1.558,1.558,0,0,0-1.594.781V40H83.844V31.547h2.469l.086,1.086a2.039,2.039,0,0,1,1.852-1.242,2.567,2.567,0,0,1,.734.094Zm5.375,3.7a.608.608,0,0,0-.352-.539,5.347,5.347,0,0,0-1.336-.422A6.092,6.092,0,0,1,91,36.09a2.722,2.722,0,0,1-.977-.863,2.061,2.061,0,0,1-.336-1.164,2.336,2.336,0,0,1,.961-1.918,3.958,3.958,0,0,1,2.516-.754,4.386,4.386,0,0,1,2.688.758,2.37,2.37,0,0,1,1.016,1.992H94.227q0-1.016-1.07-1.016a1.061,1.061,0,0,0-.7.23.714.714,0,0,0-.281.574.655.655,0,0,0,.344.57,3.248,3.248,0,0,0,1.1.359,9.486,9.486,0,0,1,1.324.336,2.406,2.406,0,0,1,1.906,2.352,2.214,2.214,0,0,1-1.027,1.883,4.505,4.505,0,0,1-2.66.727,4.6,4.6,0,0,1-1.937-.391A3.24,3.24,0,0,1,89.9,38.7a2.406,2.406,0,0,1-.477-1.414h2.461a1.017,1.017,0,0,0,.391.855,1.607,1.607,0,0,0,.961.27,1.264,1.264,0,0,0,.809-.219A.7.7,0,0,0,94.313,37.625ZM97.75,35.7a4.989,4.989,0,0,1,.492-2.254,3.52,3.52,0,0,1,1.414-1.52,4.259,4.259,0,0,1,2.164-.531,3.887,3.887,0,0,1,2.992,1.176,4.512,4.512,0,0,1,1.094,3.2v.094a4.378,4.378,0,0,1-1.1,3.137,3.9,3.9,0,0,1-2.973,1.16,3.942,3.942,0,0,1-2.9-1.082,4.232,4.232,0,0,1-1.18-2.934Zm2.633.164a3.145,3.145,0,0,0,.367,1.719,1.223,1.223,0,0,0,1.086.547q1.406,0,1.438-2.164V35.7q0-2.273-1.453-2.273-1.32,0-1.43,1.961Z" transform="translate(634 2919.109)" fill="#12263f"/>
    <path id="Path_874031" data-name="Path 874031" d="M53.422,12.875H49.664L49.008,15h-2.93L50.25,3.625h2.578L57.031,15H54.086Zm-3.1-2.117h2.445L51.539,6.813ZM60.516,15H57.875V3h2.641ZM68.9,15H66.258V6.547H68.9ZM66.1,4.367a1.175,1.175,0,0,1,.406-.922,1.727,1.727,0,0,1,2.109,0,1.175,1.175,0,0,1,.406.922,1.175,1.175,0,0,1-.406.922,1.727,1.727,0,0,1-2.109,0A1.175,1.175,0,0,1,66.1,4.367Zm6.836,2.18.086.992a2.867,2.867,0,0,1,2.414-1.148,2.412,2.412,0,0,1,1.973.789,3.757,3.757,0,0,1,.676,2.375V15H75.445V9.664a1.426,1.426,0,0,0-.258-.941,1.193,1.193,0,0,0-.937-.3,1.256,1.256,0,0,0-1.148.609V15H70.469V6.547ZM82.32,15H79.68V6.547H82.32Zm-2.8-10.633a1.175,1.175,0,0,1,.406-.922,1.727,1.727,0,0,1,2.109,0,1.175,1.175,0,0,1,.406.922,1.175,1.175,0,0,1-.406.922,1.727,1.727,0,0,1-2.109,0A1.175,1.175,0,0,1,79.523,4.367Zm7.992,8.758a1.171,1.171,0,0,0,.859-.3,1.1,1.1,0,0,0,.3-.84h2.469a2.922,2.922,0,0,1-1,2.281,3.705,3.705,0,0,1-2.566.891A3.751,3.751,0,0,1,84.672,14a4.556,4.556,0,0,1-1.062-3.2v-.109a5.149,5.149,0,0,1,.473-2.262,3.441,3.441,0,0,1,1.363-1.508,4.065,4.065,0,0,1,2.109-.527,3.658,3.658,0,0,1,2.617.914,3.242,3.242,0,0,1,.969,2.477H88.672a1.445,1.445,0,0,0-.32-1.008,1.106,1.106,0,0,0-.859-.352q-1.023,0-1.2,1.3a9.206,9.206,0,0,0-.055,1.141,3.616,3.616,0,0,0,.3,1.766A1.055,1.055,0,0,0,87.516,13.125ZM95.031,15H92.391V6.547h2.641Zm-2.8-10.633a1.175,1.175,0,0,1,.406-.922,1.727,1.727,0,0,1,2.109,0,1.175,1.175,0,0,1,.406.922,1.175,1.175,0,0,1-.406.922,1.727,1.727,0,0,1-2.109,0A1.175,1.175,0,0,1,92.234,4.367ZM96.32,10.7a4.989,4.989,0,0,1,.492-2.254,3.52,3.52,0,0,1,1.414-1.52,4.259,4.259,0,0,1,2.164-.531,3.887,3.887,0,0,1,2.992,1.176,4.512,4.512,0,0,1,1.094,3.2v.094a4.378,4.378,0,0,1-1.1,3.137,3.9,3.9,0,0,1-2.973,1.16,3.942,3.942,0,0,1-2.9-1.082,4.232,4.232,0,0,1-1.18-2.934Zm2.633.164a3.145,3.145,0,0,0,.367,1.719,1.223,1.223,0,0,0,1.086.547q1.406,0,1.438-2.164V10.7q0-2.273-1.453-2.273-1.32,0-1.43,1.961ZM42.57,35.711a5.164,5.164,0,0,1,.867-3.164,2.854,2.854,0,0,1,2.422-1.156,2.428,2.428,0,0,1,1.906.891V28h2.641V40H48.039l-.133-.906a2.493,2.493,0,0,1-2.062,1.063A2.849,2.849,0,0,1,43.453,39,5.327,5.327,0,0,1,42.57,35.711Zm2.633.164q0,2.25,1.313,2.25a1.3,1.3,0,0,0,1.25-.734V34.172a1.261,1.261,0,0,0-1.234-.75q-1.219,0-1.32,1.969Zm10.789,4.281A4.345,4.345,0,0,1,52.844,39a4.006,4.006,0,0,1-1.2-3.02v-.219a5.191,5.191,0,0,1,.48-2.289,3.516,3.516,0,0,1,1.4-1.535,4.233,4.233,0,0,1,2.188-.543A3.659,3.659,0,0,1,58.523,32.5a4.344,4.344,0,0,1,1.031,3.082V36.6H54.32a1.9,1.9,0,0,0,.617,1.117,1.836,1.836,0,0,0,1.234.406,2.366,2.366,0,0,0,1.953-.875l1.2,1.422a3.363,3.363,0,0,1-1.395,1.082A4.713,4.713,0,0,1,55.992,40.156Zm-.3-6.734q-1.156,0-1.375,1.531h2.656v-.2a1.3,1.3,0,0,0-.32-.98A1.275,1.275,0,0,0,55.7,33.422ZM63.391,40H60.75V28h2.641Zm9.18-1.875a1.171,1.171,0,0,0,.859-.3,1.1,1.1,0,0,0,.3-.84H76.2a2.923,2.923,0,0,1-1,2.281,3.705,3.705,0,0,1-2.566.891A3.751,3.751,0,0,1,69.727,39a4.556,4.556,0,0,1-1.062-3.2v-.109a5.149,5.149,0,0,1,.473-2.262A3.441,3.441,0,0,1,70.5,31.918a4.065,4.065,0,0,1,2.109-.527,3.658,3.658,0,0,1,2.617.914,3.242,3.242,0,0,1,.969,2.477H73.727a1.445,1.445,0,0,0-.32-1.008,1.106,1.106,0,0,0-.859-.352q-1.023,0-1.2,1.3a9.206,9.206,0,0,0-.055,1.141,3.616,3.616,0,0,0,.3,1.766A1.055,1.055,0,0,0,72.57,38.125Zm9.773.961a2.714,2.714,0,0,1-2.258,1.07,2.662,2.662,0,0,1-2.105-.809,3.4,3.4,0,0,1-.715-2.324V31.547H79.9v5.492a.946.946,0,0,0,1.055,1.086,1.376,1.376,0,0,0,1.289-.648v-5.93h2.648V40H82.422Zm9.1-5.156-.867-.062a1.558,1.558,0,0,0-1.594.781V40H86.352V31.547H88.82l.086,1.086a2.039,2.039,0,0,1,1.852-1.242,2.567,2.567,0,0,1,.734.094Zm5.375,3.7a.608.608,0,0,0-.352-.539,5.347,5.347,0,0,0-1.336-.422,6.092,6.092,0,0,1-1.625-.574,2.722,2.722,0,0,1-.977-.863,2.061,2.061,0,0,1-.336-1.164,2.336,2.336,0,0,1,.961-1.918,3.958,3.958,0,0,1,2.516-.754,4.386,4.386,0,0,1,2.688.758,2.37,2.37,0,0,1,1.016,1.992H96.734q0-1.016-1.07-1.016a1.061,1.061,0,0,0-.7.23.714.714,0,0,0-.281.574.655.655,0,0,0,.344.57,3.248,3.248,0,0,0,1.1.359,9.486,9.486,0,0,1,1.324.336,2.406,2.406,0,0,1,1.906,2.352,2.214,2.214,0,0,1-1.027,1.883,4.505,4.505,0,0,1-2.66.727,4.6,4.6,0,0,1-1.937-.391A3.24,3.24,0,0,1,92.406,38.7a2.406,2.406,0,0,1-.477-1.414h2.461a1.017,1.017,0,0,0,.391.855,1.607,1.607,0,0,0,.961.27,1.264,1.264,0,0,0,.809-.219A.7.7,0,0,0,96.82,37.625Zm3.438-1.93a4.989,4.989,0,0,1,.492-2.254,3.52,3.52,0,0,1,1.414-1.52,4.259,4.259,0,0,1,2.164-.531,3.887,3.887,0,0,1,2.992,1.176,4.512,4.512,0,0,1,1.094,3.2v.094a4.378,4.378,0,0,1-1.1,3.137,3.9,3.9,0,0,1-2.973,1.16,3.942,3.942,0,0,1-2.9-1.082,4.232,4.232,0,0,1-1.18-2.934Zm2.633.164a3.145,3.145,0,0,0,.367,1.719,1.223,1.223,0,0,0,1.086.547q1.406,0,1.438-2.164V35.7q0-2.273-1.453-2.273-1.32,0-1.43,1.961Z" transform="translate(799.533 2919.109)" fill="#12263f"/>
    <path id="Path_874032" data-name="Path 874032" d="M47.9,15V3.625h3.664a5.39,5.39,0,0,1,2.711.684,4.805,4.805,0,0,1,1.879,1.93,5.826,5.826,0,0,1,.684,2.793v.523a5.86,5.86,0,0,1-.66,2.8,4.826,4.826,0,0,1-1.859,1.938A5.271,5.271,0,0,1,51.645,15Zm2.742-9.258v7.148H51.6a2.133,2.133,0,0,0,1.813-.84,4.116,4.116,0,0,0,.633-2.5V9.063a4.082,4.082,0,0,0-.633-2.484,2.17,2.17,0,0,0-1.844-.836ZM63.16,14.086a2.714,2.714,0,0,1-2.258,1.07,2.662,2.662,0,0,1-2.105-.809,3.4,3.4,0,0,1-.715-2.324V6.547h2.633v5.492a.946.946,0,0,0,1.055,1.086,1.376,1.376,0,0,0,1.289-.648V6.547h2.648V15H63.238Zm9.1-5.156-.867-.062a1.558,1.558,0,0,0-1.594.781V15H67.168V6.547h2.469l.086,1.086a2.039,2.039,0,0,1,1.852-1.242,2.567,2.567,0,0,1,.734.094ZM77.738,15a2.973,2.973,0,0,1-.25-.758,2.448,2.448,0,0,1-2.031.914,3,3,0,0,1-2.031-.723,2.3,2.3,0,0,1-.836-1.816,2.364,2.364,0,0,1,1.016-2.078,5.174,5.174,0,0,1,2.953-.7h.813V9.388q0-1.17-1.008-1.17a.824.824,0,0,0-.937.926H72.793a2.36,2.36,0,0,1,1.043-1.99,4.383,4.383,0,0,1,2.66-.765,3.843,3.843,0,0,1,2.555.789,2.743,2.743,0,0,1,.961,2.164v3.742a3.832,3.832,0,0,0,.359,1.781V15ZM76.09,13.281a1.469,1.469,0,0,0,.816-.211,1.322,1.322,0,0,0,.465-.477V11.242h-.766q-1.375,0-1.375,1.234a.754.754,0,0,0,.242.582A.876.876,0,0,0,76.09,13.281Zm7.8-6.734.086.992a2.867,2.867,0,0,1,2.414-1.148,2.412,2.412,0,0,1,1.973.789,3.757,3.757,0,0,1,.676,2.375V15H86.395V9.664a1.426,1.426,0,0,0-.258-.941,1.193,1.193,0,0,0-.937-.3,1.256,1.256,0,0,0-1.148.609V15H81.418V6.547Zm9.672-2.1v2.1h1.391V8.375H93.559v3.867a.987.987,0,0,0,.172.664.922.922,0,0,0,.68.188,3.862,3.862,0,0,0,.656-.047V14.93a4.859,4.859,0,0,1-1.484.227,2.758,2.758,0,0,1-2.008-.641,2.626,2.626,0,0,1-.648-1.945v-4.2H89.848V6.547h1.078v-2.1Zm6.516,10.711A4.345,4.345,0,0,1,96.926,14a4.006,4.006,0,0,1-1.2-3.02v-.219a5.191,5.191,0,0,1,.48-2.289,3.516,3.516,0,0,1,1.4-1.535,4.233,4.233,0,0,1,2.188-.543A3.659,3.659,0,0,1,102.605,7.5a4.344,4.344,0,0,1,1.031,3.082V11.6H98.4a1.9,1.9,0,0,0,.617,1.117,1.836,1.836,0,0,0,1.234.406,2.366,2.366,0,0,0,1.953-.875l1.2,1.422a3.363,3.363,0,0,1-1.395,1.082A4.713,4.713,0,0,1,100.074,15.156Zm-.3-6.734q-1.156,0-1.375,1.531h2.656v-.2a1.3,1.3,0,0,0-.32-.98A1.275,1.275,0,0,0,99.777,8.422ZM53.484,40.156A4.345,4.345,0,0,1,50.336,39a4.006,4.006,0,0,1-1.2-3.02v-.219a5.191,5.191,0,0,1,.48-2.289,3.516,3.516,0,0,1,1.4-1.535,4.233,4.233,0,0,1,2.188-.543A3.659,3.659,0,0,1,56.016,32.5a4.344,4.344,0,0,1,1.031,3.082V36.6H51.813a1.9,1.9,0,0,0,.617,1.117,1.836,1.836,0,0,0,1.234.406,2.366,2.366,0,0,0,1.953-.875l1.2,1.422a3.363,3.363,0,0,1-1.395,1.082A4.713,4.713,0,0,1,53.484,40.156Zm-.3-6.734q-1.156,0-1.375,1.531h2.656v-.2a1.3,1.3,0,0,0-.32-.98A1.275,1.275,0,0,0,53.188,33.422ZM60.883,40H58.242V28h2.641Zm9.18-1.875a1.171,1.171,0,0,0,.859-.3,1.1,1.1,0,0,0,.3-.84h2.469a2.923,2.923,0,0,1-1,2.281,3.705,3.705,0,0,1-2.566.891A3.751,3.751,0,0,1,67.219,39a4.556,4.556,0,0,1-1.062-3.2v-.109a5.149,5.149,0,0,1,.473-2.262,3.441,3.441,0,0,1,1.363-1.508,4.065,4.065,0,0,1,2.109-.527,3.658,3.658,0,0,1,2.617.914,3.242,3.242,0,0,1,.969,2.477H71.219a1.445,1.445,0,0,0-.32-1.008,1.106,1.106,0,0,0-.859-.352q-1.023,0-1.2,1.3a9.206,9.206,0,0,0-.055,1.141,3.616,3.616,0,0,0,.3,1.766A1.055,1.055,0,0,0,70.063,38.125Zm9.773.961a2.714,2.714,0,0,1-2.258,1.07,2.662,2.662,0,0,1-2.105-.809,3.4,3.4,0,0,1-.715-2.324V31.547h2.633v5.492a.946.946,0,0,0,1.055,1.086,1.376,1.376,0,0,0,1.289-.648v-5.93h2.648V40H79.914Zm9.1-5.156-.867-.062a1.558,1.558,0,0,0-1.594.781V40H83.844V31.547h2.469l.086,1.086a2.039,2.039,0,0,1,1.852-1.242,2.567,2.567,0,0,1,.734.094Zm5.375,3.7a.608.608,0,0,0-.352-.539,5.347,5.347,0,0,0-1.336-.422A6.092,6.092,0,0,1,91,36.09a2.722,2.722,0,0,1-.977-.863,2.061,2.061,0,0,1-.336-1.164,2.336,2.336,0,0,1,.961-1.918,3.958,3.958,0,0,1,2.516-.754,4.386,4.386,0,0,1,2.688.758,2.37,2.37,0,0,1,1.016,1.992H94.227q0-1.016-1.07-1.016a1.061,1.061,0,0,0-.7.23.714.714,0,0,0-.281.574.655.655,0,0,0,.344.57,3.248,3.248,0,0,0,1.1.359,9.486,9.486,0,0,1,1.324.336,2.406,2.406,0,0,1,1.906,2.352,2.214,2.214,0,0,1-1.027,1.883,4.505,4.505,0,0,1-2.66.727,4.6,4.6,0,0,1-1.937-.391A3.24,3.24,0,0,1,89.9,38.7a2.406,2.406,0,0,1-.477-1.414h2.461a1.017,1.017,0,0,0,.391.855,1.607,1.607,0,0,0,.961.27,1.264,1.264,0,0,0,.809-.219A.7.7,0,0,0,94.313,37.625ZM97.75,35.7a4.989,4.989,0,0,1,.492-2.254,3.52,3.52,0,0,1,1.414-1.52,4.259,4.259,0,0,1,2.164-.531,3.887,3.887,0,0,1,2.992,1.176,4.512,4.512,0,0,1,1.094,3.2v.094a4.378,4.378,0,0,1-1.1,3.137,3.9,3.9,0,0,1-2.973,1.16,3.942,3.942,0,0,1-2.9-1.082,4.232,4.232,0,0,1-1.18-2.934Zm2.633.164a3.145,3.145,0,0,0,.367,1.719,1.223,1.223,0,0,0,1.086.547q1.406,0,1.438-2.164V35.7q0-2.273-1.453-2.273-1.32,0-1.43,1.961Z" transform="translate(965.533 2919.109)" fill="#12263f"/>
    <path id="Path_874033" data-name="Path 874033" d="M43.543,12.875H39.785L39.129,15H36.2L40.371,3.625h2.578L47.152,15H44.207Zm-3.1-2.117h2.445L41.66,6.813ZM50.637,15H48V3h2.641Zm6.219,0V8.375H55.629V6.547h1.227V6.266A3.228,3.228,0,0,1,57.965,3.68a4.433,4.433,0,0,1,2.883-.844,10.23,10.23,0,0,1,2.75.453l-.359,2.078L62.8,5.25A6.962,6.962,0,0,0,61,5.023Q59.5,5.023,59.5,6.4v.148h1.656V8.375H59.5V15Zm7.953,0H62.16V6.547h2.648Zm4.023-8.453.086.992a2.867,2.867,0,0,1,2.414-1.148A2.412,2.412,0,0,1,73.3,7.18a3.757,3.757,0,0,1,.676,2.375V15H71.34V9.664a1.426,1.426,0,0,0-.258-.941,1.193,1.193,0,0,0-.937-.3A1.256,1.256,0,0,0,69,9.031V15H66.363V6.547ZM80.2,15a2.973,2.973,0,0,1-.25-.758,2.448,2.448,0,0,1-2.031.914,3,3,0,0,1-2.031-.723,2.3,2.3,0,0,1-.836-1.816,2.364,2.364,0,0,1,1.016-2.078,5.174,5.174,0,0,1,2.953-.7h.813V9.388q0-1.17-1.008-1.17a.824.824,0,0,0-.937.926H75.254A2.36,2.36,0,0,1,76.3,7.155a4.383,4.383,0,0,1,2.66-.765,3.843,3.843,0,0,1,2.555.789,2.743,2.743,0,0,1,.961,2.164v3.742a3.832,3.832,0,0,0,.359,1.781V15Zm-1.648-1.719a1.469,1.469,0,0,0,.816-.211,1.322,1.322,0,0,0,.465-.477V11.242h-.766q-1.375,0-1.375,1.234a.754.754,0,0,0,.242.582A.876.876,0,0,0,78.551,13.281ZM86.707,15H84.066V3h2.641Zm4.4,0H88.465V6.547h2.641Zm-2.8-10.633a1.175,1.175,0,0,1,.406-.922,1.727,1.727,0,0,1,2.109,0,1.175,1.175,0,0,1,.406.922,1.175,1.175,0,0,1-.406.922,1.727,1.727,0,0,1-2.109,0A1.175,1.175,0,0,1,88.309,4.367Zm7.523,8.6h3.852V15H92.5V13.531l3.75-4.953H92.668V6.547H99.6V7.969ZM105.723,15a2.973,2.973,0,0,1-.25-.758,2.448,2.448,0,0,1-2.031.914,3,3,0,0,1-2.031-.723,2.3,2.3,0,0,1-.836-1.816,2.364,2.364,0,0,1,1.016-2.078,5.174,5.174,0,0,1,2.953-.7h.813V9.388q0-1.17-1.008-1.17a.824.824,0,0,0-.937.926h-2.633a2.36,2.36,0,0,1,1.043-1.99,4.383,4.383,0,0,1,2.66-.765,3.843,3.843,0,0,1,2.555.789A2.743,2.743,0,0,1,108,9.344v3.742a3.832,3.832,0,0,0,.359,1.781V15Zm-1.648-1.719a1.469,1.469,0,0,0,.816-.211,1.322,1.322,0,0,0,.465-.477V11.242h-.766q-1.375,0-1.375,1.234a.754.754,0,0,0,.242.582A.876.876,0,0,0,104.074,13.281ZM114.566,8.93l-.867-.062a1.558,1.558,0,0,0-1.594.781V15h-2.633V6.547h2.469l.086,1.086a2.039,2.039,0,0,1,1.852-1.242,2.567,2.567,0,0,1,.734.094ZM53.484,40.156A4.345,4.345,0,0,1,50.336,39a4.006,4.006,0,0,1-1.2-3.02v-.219a5.191,5.191,0,0,1,.48-2.289,3.516,3.516,0,0,1,1.4-1.535,4.233,4.233,0,0,1,2.188-.543A3.659,3.659,0,0,1,56.016,32.5a4.344,4.344,0,0,1,1.031,3.082V36.6H51.813a1.9,1.9,0,0,0,.617,1.117,1.836,1.836,0,0,0,1.234.406,2.366,2.366,0,0,0,1.953-.875l1.2,1.422a3.363,3.363,0,0,1-1.395,1.082A4.713,4.713,0,0,1,53.484,40.156Zm-.3-6.734q-1.156,0-1.375,1.531h2.656v-.2a1.3,1.3,0,0,0-.32-.98A1.275,1.275,0,0,0,53.188,33.422ZM60.883,40H58.242V28h2.641Zm9.18-1.875a1.171,1.171,0,0,0,.859-.3,1.1,1.1,0,0,0,.3-.84h2.469a2.923,2.923,0,0,1-1,2.281,3.705,3.705,0,0,1-2.566.891A3.751,3.751,0,0,1,67.219,39a4.556,4.556,0,0,1-1.062-3.2v-.109a5.149,5.149,0,0,1,.473-2.262,3.441,3.441,0,0,1,1.363-1.508,4.065,4.065,0,0,1,2.109-.527,3.658,3.658,0,0,1,2.617.914,3.242,3.242,0,0,1,.969,2.477H71.219a1.445,1.445,0,0,0-.32-1.008,1.106,1.106,0,0,0-.859-.352q-1.023,0-1.2,1.3a9.206,9.206,0,0,0-.055,1.141,3.616,3.616,0,0,0,.3,1.766A1.055,1.055,0,0,0,70.063,38.125Zm9.773.961a2.714,2.714,0,0,1-2.258,1.07,2.662,2.662,0,0,1-2.105-.809,3.4,3.4,0,0,1-.715-2.324V31.547h2.633v5.492a.946.946,0,0,0,1.055,1.086,1.376,1.376,0,0,0,1.289-.648v-5.93h2.648V40H79.914Zm9.1-5.156-.867-.062a1.558,1.558,0,0,0-1.594.781V40H83.844V31.547h2.469l.086,1.086a2.039,2.039,0,0,1,1.852-1.242,2.567,2.567,0,0,1,.734.094Zm5.375,3.7a.608.608,0,0,0-.352-.539,5.347,5.347,0,0,0-1.336-.422A6.092,6.092,0,0,1,91,36.09a2.722,2.722,0,0,1-.977-.863,2.061,2.061,0,0,1-.336-1.164,2.336,2.336,0,0,1,.961-1.918,3.958,3.958,0,0,1,2.516-.754,4.386,4.386,0,0,1,2.688.758,2.37,2.37,0,0,1,1.016,1.992H94.227q0-1.016-1.07-1.016a1.061,1.061,0,0,0-.7.23.714.714,0,0,0-.281.574.655.655,0,0,0,.344.57,3.248,3.248,0,0,0,1.1.359,9.486,9.486,0,0,1,1.324.336,2.406,2.406,0,0,1,1.906,2.352,2.214,2.214,0,0,1-1.027,1.883,4.505,4.505,0,0,1-2.66.727,4.6,4.6,0,0,1-1.937-.391A3.24,3.24,0,0,1,89.9,38.7a2.406,2.406,0,0,1-.477-1.414h2.461a1.017,1.017,0,0,0,.391.855,1.607,1.607,0,0,0,.961.27,1.264,1.264,0,0,0,.809-.219A.7.7,0,0,0,94.313,37.625ZM97.75,35.7a4.989,4.989,0,0,1,.492-2.254,3.52,3.52,0,0,1,1.414-1.52,4.259,4.259,0,0,1,2.164-.531,3.887,3.887,0,0,1,2.992,1.176,4.512,4.512,0,0,1,1.094,3.2v.094a4.378,4.378,0,0,1-1.1,3.137,3.9,3.9,0,0,1-2.973,1.16,3.942,3.942,0,0,1-2.9-1.082,4.232,4.232,0,0,1-1.18-2.934Zm2.633.164a3.145,3.145,0,0,0,.367,1.719,1.223,1.223,0,0,0,1.086.547q1.406,0,1.438-2.164V35.7q0-2.273-1.453-2.273-1.32,0-1.43,1.961Z" transform="translate(1132 2919.109)" fill="#12263f"/>
    <path id="Path_874034" data-name="Path 874034" d="M0,0H659V28H0Z" transform="translate(626.533 3071.109)" fill="#0d599b"/>
    <path id="Path_874035" data-name="Path 874035" d="M0,0H492V28H0Z" transform="translate(793.533 3033.109)" fill="#216102"/>
    <path id="Path_874036" data-name="Path 874036" d="M45.66,15H42.926V3.625H45.66Zm4.2-8.453.086.992a2.867,2.867,0,0,1,2.414-1.148,2.412,2.412,0,0,1,1.973.789,3.757,3.757,0,0,1,.676,2.375V15H52.371V9.664a1.426,1.426,0,0,0-.258-.941,1.193,1.193,0,0,0-.937-.3,1.256,1.256,0,0,0-1.148.609V15H47.395V6.547Zm11.031,6.078a.608.608,0,0,0-.352-.539,5.348,5.348,0,0,0-1.336-.422,6.092,6.092,0,0,1-1.625-.574,2.722,2.722,0,0,1-.977-.863,2.061,2.061,0,0,1-.336-1.164,2.336,2.336,0,0,1,.961-1.918,3.958,3.958,0,0,1,2.516-.754,4.386,4.386,0,0,1,2.688.758,2.37,2.37,0,0,1,1.016,1.992H60.809q0-1.016-1.07-1.016a1.061,1.061,0,0,0-.7.23.714.714,0,0,0-.281.574.655.655,0,0,0,.344.57,3.248,3.248,0,0,0,1.1.359,9.485,9.485,0,0,1,1.324.336,2.406,2.406,0,0,1,1.906,2.352,2.214,2.214,0,0,1-1.027,1.883,4.505,4.505,0,0,1-2.66.727,4.6,4.6,0,0,1-1.937-.391A3.24,3.24,0,0,1,56.48,13.7,2.406,2.406,0,0,1,56,12.289h2.461a1.017,1.017,0,0,0,.391.855,1.607,1.607,0,0,0,.961.27,1.264,1.264,0,0,0,.809-.219A.7.7,0,0,0,60.895,12.625Zm6.836-8.18v2.1h1.391V8.375H67.73v3.867a.987.987,0,0,0,.172.664.922.922,0,0,0,.68.188,3.862,3.862,0,0,0,.656-.047V14.93a4.859,4.859,0,0,1-1.484.227,2.758,2.758,0,0,1-2.008-.641A2.626,2.626,0,0,1,65.1,12.57v-4.2H64.02V6.547H65.1v-2.1ZM75.27,8.93,74.4,8.867a1.558,1.558,0,0,0-1.594.781V15H70.176V6.547h2.469l.086,1.086a2.039,2.039,0,0,1,1.852-1.242,2.567,2.567,0,0,1,.734.094Zm5.984,5.156A2.714,2.714,0,0,1,79,15.156a2.662,2.662,0,0,1-2.105-.809,3.4,3.4,0,0,1-.715-2.324V6.547h2.633v5.492a.946.946,0,0,0,1.055,1.086,1.376,1.376,0,0,0,1.289-.648V6.547H83.8V15H81.332Zm7.563-.961a1.171,1.171,0,0,0,.859-.3,1.1,1.1,0,0,0,.3-.84h2.469a2.922,2.922,0,0,1-1,2.281,3.705,3.705,0,0,1-2.566.891A3.751,3.751,0,0,1,85.973,14a4.556,4.556,0,0,1-1.062-3.2v-.109a5.149,5.149,0,0,1,.473-2.262,3.441,3.441,0,0,1,1.363-1.508,4.065,4.065,0,0,1,2.109-.527,3.658,3.658,0,0,1,2.617.914,3.242,3.242,0,0,1,.969,2.477H89.973a1.445,1.445,0,0,0-.32-1.008,1.106,1.106,0,0,0-.859-.352q-1.023,0-1.2,1.3a9.206,9.206,0,0,0-.055,1.141,3.616,3.616,0,0,0,.3,1.766A1.055,1.055,0,0,0,88.816,13.125Zm7.8-8.68v2.1h1.391V8.375H96.621v3.867a.987.987,0,0,0,.172.664.922.922,0,0,0,.68.188,3.862,3.862,0,0,0,.656-.047V14.93a4.859,4.859,0,0,1-1.484.227,2.758,2.758,0,0,1-2.008-.641,2.626,2.626,0,0,1-.648-1.945v-4.2H92.91V6.547h1.078v-2.1ZM98.48,10.7a4.989,4.989,0,0,1,.492-2.254,3.52,3.52,0,0,1,1.414-1.52,4.259,4.259,0,0,1,2.164-.531,3.887,3.887,0,0,1,2.992,1.176,4.512,4.512,0,0,1,1.094,3.2v.094a4.378,4.378,0,0,1-1.1,3.137,3.9,3.9,0,0,1-2.973,1.16,3.942,3.942,0,0,1-2.9-1.082,4.232,4.232,0,0,1-1.18-2.934Zm2.633.164a3.145,3.145,0,0,0,.367,1.719,1.223,1.223,0,0,0,1.086.547q1.406,0,1.438-2.164V10.7q0-2.273-1.453-2.273-1.32,0-1.43,1.961Zm11.8-1.93-.867-.062a1.558,1.558,0,0,0-1.594.781V15h-2.633V6.547h2.469l.086,1.086a2.039,2.039,0,0,1,1.852-1.242,2.567,2.567,0,0,1,.734.094Z" transform="translate(633.533 3076.109)" fill="#fff"/>
    <path id="Path_874037" data-name="Path 874037" d="M52.914,12.875H49.156L48.5,15H45.57L49.742,3.625H52.32L56.523,15H53.578Zm-3.1-2.117h2.445L51.031,6.813Zm14.891.078a5.1,5.1,0,0,1-.887,3.145,2.843,2.843,0,0,1-2.395,1.176,2.437,2.437,0,0,1-1.914-.852V18.25H56.875V6.547h2.461l.078.781a2.437,2.437,0,0,1,1.992-.937,2.866,2.866,0,0,1,2.43,1.152,5.16,5.16,0,0,1,.867,3.168Zm-2.633-.164q0-2.25-1.312-2.25a1.239,1.239,0,0,0-1.25.672v3.328a1.279,1.279,0,0,0,1.266.7q1.258,0,1.3-2.172ZM70.977,8.93l-.867-.062a1.558,1.558,0,0,0-1.594.781V15H65.883V6.547h2.469l.086,1.086a2.039,2.039,0,0,1,1.852-1.242,2.567,2.567,0,0,1,.734.094Zm4.891,6.227A4.345,4.345,0,0,1,72.719,14a4.006,4.006,0,0,1-1.2-3.02v-.219A5.191,5.191,0,0,1,72,8.469a3.516,3.516,0,0,1,1.4-1.535,4.233,4.233,0,0,1,2.188-.543A3.659,3.659,0,0,1,78.4,7.5a4.344,4.344,0,0,1,1.031,3.082V11.6H74.2a1.9,1.9,0,0,0,.617,1.117,1.836,1.836,0,0,0,1.234.406A2.366,2.366,0,0,0,78,12.25l1.2,1.422a3.363,3.363,0,0,1-1.395,1.082A4.713,4.713,0,0,1,75.867,15.156Zm-.3-6.734q-1.156,0-1.375,1.531h2.656v-.2a1.3,1.3,0,0,0-.32-.98A1.275,1.275,0,0,0,75.57,8.422Zm7.336-1.875.086.992a2.867,2.867,0,0,1,2.414-1.148,2.412,2.412,0,0,1,1.973.789,3.757,3.757,0,0,1,.676,2.375V15H85.414V9.664a1.426,1.426,0,0,0-.258-.941,1.193,1.193,0,0,0-.937-.3,1.256,1.256,0,0,0-1.148.609V15H80.438V6.547Zm6.273,4.164a5.164,5.164,0,0,1,.867-3.164,2.854,2.854,0,0,1,2.422-1.156,2.428,2.428,0,0,1,1.906.891V3h2.641V15H94.648l-.133-.906a2.493,2.493,0,0,1-2.062,1.063A2.849,2.849,0,0,1,90.063,14,5.327,5.327,0,0,1,89.18,10.711Zm2.633.164q0,2.25,1.313,2.25a1.3,1.3,0,0,0,1.25-.734V9.172a1.261,1.261,0,0,0-1.234-.75q-1.219,0-1.32,1.969ZM101.289,15H98.648V6.547h2.641Zm-2.8-10.633a1.175,1.175,0,0,1,.406-.922,1.727,1.727,0,0,1,2.109,0,1.175,1.175,0,0,1,.406.922,1.175,1.175,0,0,1-.406.922,1.727,1.727,0,0,1-2.109,0A1.175,1.175,0,0,1,98.492,4.367Zm7.523,8.6h3.852V15h-7.18V13.531l3.75-4.953h-3.586V6.547h6.93V7.969Z" transform="translate(798.533 3035.109)" fill="#fff"/>
    <path id="Path_873594" data-name="Path 873594" d="M-8039.733-9304v216.957" transform="translate(8668.104 12186.623)" fill="none" stroke="#0d599b" stroke-width="2" stroke-dasharray="3 5"/>
    <path id="Path_873596" data-name="Path 873596" d="M-8039.733-9304v178.1" transform="translate(8834.331 12186.625)" fill="#216102" stroke="#216102" stroke-width="2" stroke-dasharray="3 5"/>
    <path id="Path_873595" data-name="Path 873595" d="M-8039.733-9304v54.829" transform="translate(9326.533 12345.511)" fill="none" stroke="#0d599b" stroke-width="2" stroke-dasharray="3 5"/>
    <path id="Path_873597" data-name="Path 873597" d="M-8039.733-9304v182.635" transform="translate(9325.454 12186.624)" fill="none" stroke="#216102" stroke-width="2" stroke-dasharray="3 5"/>
    <path id="Path_873599" data-name="Path 873599" d="M35.145,21.192a1.066,1.066,0,0,1-.825.389H24.985V41.017H10.37V21.581H1.059a1.06,1.06,0,0,1-1.049-1.2,1.031,1.031,0,0,1,.259-.566L17.831,0,35.122,19.825a1.069,1.069,0,0,1,.024,1.367" transform="translate(900.379 2973.477) rotate(90)" fill="#6ed3d6"/>
    <path id="Path_873600" data-name="Path 873600" d="M35.145,21.192a1.066,1.066,0,0,1-.825.389H24.985V41.017H10.37V21.581H1.059a1.06,1.06,0,0,1-1.049-1.2,1.031,1.031,0,0,1,.259-.566L17.831,0,35.122,19.825a1.069,1.069,0,0,1,.024,1.367" transform="translate(1066.605 2973.477) rotate(90)" fill="#6ed3d6"/>
    <path id="Path_874038" data-name="Path 874038" d="M11.5,0A11.5,11.5,0,1,1,0,11.5,11.5,11.5,0,0,1,11.5,0Z" transform="translate(1196 3002.477) rotate(-90)" fill="#6ed3d6"/>
    <path id="Path_874039" data-name="Path 874039" d="M11.5,0A11.5,11.5,0,1,1,0,11.5,11.5,11.5,0,0,1,11.5,0Z" transform="translate(698 3002.477) rotate(-90)" fill="#6ed3d6"/>
    <path id="Path_873608" data-name="Path 873608" d="M-8462.491-9500.5v509.549" transform="translate(10205.5 -5471.514) rotate(-90)" fill="none" stroke="#6ed3d6" stroke-width="2"/>
  </g>
</svg>
