<svg xmlns="http://www.w3.org/2000/svg" xmlns:xlink="http://www.w3.org/1999/xlink" width="400" height="895" viewBox="0 0 400 895">
  <defs>
    <clipPath id="clip-path">
      <rect id="Rectangle_401086" data-name="Rectangle 401086" width="345.467" height="258.743" fill="none"/>
    </clipPath>
    <clipPath id="clip-path-2">
      <path id="Path_873432" data-name="Path 873432" d="M1521.317,156.639c1.322,1.059,2.827.888,2.926-.094a1.451,1.451,0,0,0-.867-.94,1.276,1.276,0,0,0-.421-.07,1.981,1.981,0,0,0-1.637,1.1" transform="translate(-1521.317 -155.535)" fill="none"/>
    </clipPath>
    <clipPath id="clip-path-4">
      <path id="Path_873436" data-name="Path 873436" d="M1544.983,156.168c1.322,1.059,2.827.888,2.926-.094a1.451,1.451,0,0,0-.867-.94,1.278,1.278,0,0,0-.421-.07,1.981,1.981,0,0,0-1.637,1.1" transform="translate(-1544.983 -155.064)" fill="none"/>
    </clipPath>
    <clipPath id="clip-path-6">
      <path id="Path_873557" data-name="Path 873557" d="M398.576,907.621a1.561,1.561,0,0,0,2.481.931c-.315-1.123-.857-1.589-1.4-1.589a1.406,1.406,0,0,0-1.083.659" transform="translate(-398.576 -906.962)" fill="none"/>
    </clipPath>
    <clipPath id="clip-path-8">
      <path id="Path_873561" data-name="Path 873561" d="M420.454,909.823a1.15,1.15,0,0,0,2.021-.635c-.206-.476-.514-.764-.847-.764-.4,0-.831.41-1.174,1.4" transform="translate(-420.454 -908.423)" fill="none"/>
    </clipPath>
  </defs>
  <g id="Group_1099503" data-name="Group 1099503" transform="translate(8718 9546)">
    <path id="Path_874040" data-name="Path 874040" d="M0,0H400V895H0Z" transform="translate(-8718 -9546)" fill="#d7f5f7"/>
    <g id="Group_1099269" data-name="Group 1099269" transform="translate(-8690.467 -9541.232)">
      <g id="Group_1099250" data-name="Group 1099250" transform="translate(0 0)">
        <g id="Group_1099249" data-name="Group 1099249" clip-path="url(#clip-path)">
          <path id="Path_873411" data-name="Path 873411" d="M313.478,469.27a70.96,70.96,0,0,1-15.6,44.5H28.363A88.153,88.153,0,0,1,95.835,368.88a88.811,88.811,0,0,1,18.282,1.9A62.109,62.109,0,1,1,232.785,398.6a71.29,71.29,0,0,1,80.693,70.666" transform="translate(-6.325 -256.022)" fill="#ffebeb"/>
          <path id="Path_873412" data-name="Path 873412" d="M1334.182,287.818l.458-3.893c-7.214,2.748-13.8,3.046-17.977-1.947-4.694-5.611-5.611-40.42,4.809-54.619l20.5-7.214,3.779-2.977,8.931.458,3.436,2.176s9.732-.115,10.419-.115c6.87,1.489,15.458,9.5,15.687,9.847s2.519,19.809,2.29,20.382-19.237,19.695-19.466,20.382-8.359,16.717-8.359,16.717Z" transform="translate(-1081.535 -178.844)" fill="#12405a"/>
          <path id="Path_873413" data-name="Path 873413" d="M1333.717,287.454a.1.1,0,0,1-.1-.111l.439-3.731c-8.192,3.084-14.226,2.4-17.935-2.034-2.389-2.856-3.771-13.015-3.286-24.157.575-13.213,3.524-24.361,8.092-30.584a.1.1,0,0,1,.047-.035l20.481-7.208,3.766-2.967a.1.1,0,0,1,.067-.021l8.931.458a.1.1,0,0,1,.048.015l3.41,2.16c.593-.007,9.731-.114,10.392-.114l.021,0c6.816,1.477,15.5,9.514,15.749,9.889.306.459,2.5,19.976,2.3,20.473-.108.27-3.378,3.635-8.7,9.1-4.723,4.848-10.6,10.882-10.76,11.274-.228.685-8.032,16.075-8.364,16.73a.1.1,0,0,1-.085.054l-24.5.8h0m.458-4.092a.1.1,0,0,1,.061.021.1.1,0,0,1,.038.09l-.445,3.779,24.33-.8c.513-1.012,8.109-16,8.326-16.652.121-.363,4.357-4.729,10.806-11.349,4.187-4.3,8.516-8.743,8.663-9.04.084-.274-.308-4.369-.976-10.186-.612-5.327-1.2-9.862-1.309-10.109-.246-.365-8.878-8.331-15.611-9.8-.762,0-10.311.113-10.408.114a.1.1,0,0,1-.054-.015l-3.413-2.162-8.868-.455-3.75,2.954a.09.09,0,0,1-.028.016l-20.467,7.2c-4.534,6.2-7.463,17.293-8.035,30.45-.483,11.1.88,21.2,3.24,24.021,3.673,4.389,9.684,5.034,17.866,1.917a.1.1,0,0,1,.035-.007" transform="translate(-1081.07 -178.381)" fill="#4e1721"/>
          <path id="Path_873414" data-name="Path 873414" d="M1486.782,238.046c2.945,16.461,9.042,24.877,9.042,24.877,6.011-14.428,2.824-25.164,2.824-25.164Z" transform="translate(-1224.399 -195.801)" fill="#fff"/>
          <path id="Path_873415" data-name="Path 873415" d="M1495.36,262.559a.1.1,0,0,1-.081-.041c-.061-.084-6.144-8.623-9.06-24.918a.1.1,0,0,1,.1-.117l11.867-.287a.1.1,0,0,1,.1.071c.032.108,3.128,10.936-2.828,25.231a.1.1,0,0,1-.08.06h-.011m-8.924-24.88c2.7,15.009,8.093,23.38,8.9,24.574,5.582-13.532,3.031-23.89,2.772-24.857Z" transform="translate(-1223.935 -195.337)" fill="#4e1721"/>
          <path id="Path_873416" data-name="Path 873416" d="M1498.5,192.881c.523-2.582-9.036-3.314-9.036-3.314l-2.686,8.792c1.779,3.768,11.827,5.268,11.862.279,0-.206,0-.393,0-.566a14.362,14.362,0,0,1-.144-5.19" transform="translate(-1224.399 -156.113)" fill="#ff7d6d"/>
          <path id="Path_873417" data-name="Path 873417" d="M1493.7,201.452c-2.931,0-6.441-1.34-7.468-3.514a.1.1,0,0,1-.005-.071l1.322-4.326a.1.1,0,0,1,.19.058l-1.311,4.289c1.206,2.473,5.975,3.849,8.92,3.2,1.755-.387,2.727-1.422,2.737-2.914l0-.556a14.534,14.534,0,0,1-.142-5.22.931.931,0,0,0-.2-.777c-1.386-1.834-8.674-2.413-8.748-2.419a.1.1,0,1,1,.016-.2c.3.023,7.451.592,8.891,2.5a1.13,1.13,0,0,1,.235.936,14.347,14.347,0,0,0,.144,5.151.093.093,0,0,1,0,.02l0,.566c-.011,1.594-1.038,2.7-2.893,3.106a7.9,7.9,0,0,1-1.69.171" transform="translate(-1223.936 -155.65)" fill="#4e1721"/>
          <path id="Path_873418" data-name="Path 873418" d="M1512.973,191.778a3.644,3.644,0,1,1-4.044-3.554,3.815,3.815,0,0,1,4.044,3.554" transform="translate(-1240.006 -154.991)" fill="#ff6a58"/>
          <path id="Path_873419" data-name="Path 873419" d="M1494.822,107.473a2.318,2.318,0,0,1-.11,2.981l-11.57,6.2-.766-1.794-.125-.056c-1.532-3.357-3.339-7.206.537-7.941-.334-1.29,3.186-2.542,2.952-1.425.474-1.108,1.924-1.471,4.129-1.2s1.413-1.257,1.954-1.258.829.743.829.743c.776-1.5,3.673-.041,2.169,3.755" transform="translate(-1219.197 -84.803)" fill="#4e1721"/>
          <path id="Path_873420" data-name="Path 873420" d="M1500.321,142.869c-2.215-.914-3.675-4.311-3.9-6.121,0,0,1.313-.425,1.341-.6a7.806,7.806,0,0,1,.173-3.06c.955.184,2.144-1.143,1.343-3.143,0,0,.631-.194,0-1.212,4,.619,4.787.486,4.322-.214a5.708,5.708,0,0,0,3.542.467c1.206,3.027.8,4.858,1.25,6.512a19.789,19.789,0,0,1-.023,6.949c-.359,1.061-4.727,1.793-8.047.423" transform="translate(-1232.34 -105.838)" fill="#ff7d6d"/>
          <path id="Path_873421" data-name="Path 873421" d="M1509.84,143.257a11.071,11.071,0,0,1-4.126-.76,4.825,4.825,0,0,1-1.782-1.372.1.1,0,0,1,.151-.129,4.628,4.628,0,0,0,1.707,1.318,10.468,10.468,0,0,0,7.236.2,1.2,1.2,0,0,0,.68-.561,19.925,19.925,0,0,0,.021-6.891,10.426,10.426,0,0,1-.276-1.956,14.118,14.118,0,0,0-.939-4.465,5.854,5.854,0,0,1-3.279-.394.333.333,0,0,1-.031.273c-.2.309-.973.389-4.3-.119a1.084,1.084,0,0,1,.153.866.527.527,0,0,1-.214.264,2.673,2.673,0,0,1-.239,2.665,1.366,1.366,0,0,1-1.152.541,7.209,7.209,0,0,0-.168,2.714,1.061,1.061,0,0,1,.017.25.1.1,0,0,1-.2-.03,1.326,1.326,0,0,0-.018-.194,7.473,7.473,0,0,1,.193-2.874.1.1,0,0,1,.115-.074,1.141,1.141,0,0,0,1.057-.459,2.515,2.515,0,0,0,.175-2.549.1.1,0,0,1,0-.08.1.1,0,0,1,.061-.052.322.322,0,0,0,.184-.194c.05-.139.048-.4-.243-.87a.1.1,0,0,1,.1-.151c1.891.293,4.09.585,4.311.24.037-.057.007-.158-.087-.3a.1.1,0,0,1,.122-.146,5.679,5.679,0,0,0,3.476.463.1.1,0,0,1,.119.059,14.435,14.435,0,0,1,.984,4.6,10.318,10.318,0,0,0,.269,1.92,19.76,19.76,0,0,1-.025,7.007,1.346,1.346,0,0,1-.785.678,8.362,8.362,0,0,1-3.267.565" transform="translate(-1237.771 -105.375)" fill="#4e1721"/>
          <path id="Path_873422" data-name="Path 873422" d="M1511.74,167.859a2.131,2.131,0,1,1-2.384-1.442,1.98,1.98,0,0,1,2.384,1.442" transform="translate(-1241.51 -137.02)" fill="#ff6a58"/>
          <path id="Path_873423" data-name="Path 873423" d="M1520.71,144.321c.051.3-1.107-.146-2.148.031s-1.574.908-1.625.61a1.913,1.913,0,0,1,1.441-1.69,2.653,2.653,0,0,1,2.332,1.049" transform="translate(-1249.229 -117.97)" fill="#4e1721"/>
          <path id="Path_873424" data-name="Path 873424" d="M1548.727,146.12c-.051.257.711.11,1.269.22s.7.438.754.181-.01-1-.569-1.113a1.655,1.655,0,0,0-1.454.712" transform="translate(-1275.41 -119.736)" fill="#4e1721"/>
          <path id="Path_873425" data-name="Path 873425" d="M1538.175,195.969a18.262,18.262,0,0,0,2.892.145c-.513,1.086-1.908.523-2.892-.145" transform="translate(-1266.722 -161.386)" fill="#ff6a58"/>
          <path id="Path_873426" data-name="Path 873426" d="M1484.439,168.157c-1.781-2.268-4.089-2.133-4.273-.5s.882,4.08,4.48,3.087c.188-2.021-.208-2.584-.208-2.584" transform="translate(-1218.934 -137.068)" fill="#ff7d6d"/>
          <path id="Path_873427" data-name="Path 873427" d="M1488.705,174.55c-.278-2.04-1.937-2.873-2.787-2.144a3.617,3.617,0,0,1,2.787,2.144" transform="translate(-1223.687 -141.767)" fill="#ff6a58"/>
          <path id="Path_873428" data-name="Path 873428" d="M1488.241,174.183a.1.1,0,0,1-.1-.086,2.633,2.633,0,0,0-1.489-2.226,1.1,1.1,0,0,0-1.135.143.1.1,0,1,1-.13-.151,1.289,1.289,0,0,1,1.335-.178,2.828,2.828,0,0,1,1.615,2.384.1.1,0,0,1-.085.112h-.013" transform="translate(-1223.223 -141.301)" fill="#4e1721"/>
          <path id="Path_873429" data-name="Path 873429" d="M1492.076,178.965a.1.1,0,0,1-.063-.022.836.836,0,0,1-.161-1.147.909.909,0,0,1,1.231-.273.1.1,0,1,1-.1.174.707.707,0,0,0-.97.211.636.636,0,0,0,.122.883.1.1,0,0,1-.062.176" transform="translate(-1228.444 -146.085)" fill="#4e1721"/>
          <path id="Path_873430" data-name="Path 873430" d="M1521.317,156.638a1.807,1.807,0,0,1,2.058-1.034,1.451,1.451,0,0,1,.867.94c-.1.981-1.6,1.153-2.926.094" transform="translate(-1252.839 -128.087)" fill="#fff"/>
        </g>
      </g>
      <g id="Group_1099252" data-name="Group 1099252" transform="translate(268.478 27.448)">
        <g id="Group_1099251" data-name="Group 1099251" transform="translate(0)" clip-path="url(#clip-path-2)">
          <path id="Path_873431" data-name="Path 873431" d="M1526.787,156.641a.852.852,0,1,1-.894-.875.886.886,0,0,1,.894.875" transform="translate(-1524.422 -155.725)" fill="#4e1721"/>
        </g>
      </g>
      <g id="Group_1099254" data-name="Group 1099254" transform="translate(0 0)">
        <g id="Group_1099253" data-name="Group 1099253" clip-path="url(#clip-path)">
          <path id="Path_873433" data-name="Path 873433" d="M1521.317,156.176a2.167,2.167,0,0,1,.571-.779,1.693,1.693,0,0,1,.9-.412,1.28,1.28,0,0,1,.963.261,1.433,1.433,0,0,1,.493.836,1.84,1.84,0,0,0-.592-.7,1.268,1.268,0,0,0-.842-.2,1.778,1.778,0,0,0-.833.332,2.882,2.882,0,0,0-.659.665" transform="translate(-1252.839 -127.625)" fill="#4e1721"/>
          <path id="Path_873434" data-name="Path 873434" d="M1544.983,156.168a1.807,1.807,0,0,1,2.058-1.034,1.451,1.451,0,0,1,.867.94c-.1.981-1.6,1.153-2.926.094" transform="translate(-1272.329 -127.7)" fill="#fff"/>
        </g>
      </g>
      <g id="Group_1099256" data-name="Group 1099256" transform="translate(272.654 27.365)">
        <g id="Group_1099255" data-name="Group 1099255" transform="translate(0)" clip-path="url(#clip-path-4)">
          <path id="Path_873435" data-name="Path 873435" d="M1551.137,155.95a.852.852,0,1,1-.894-.875.886.886,0,0,1,.894.875" transform="translate(-1548.652 -155.073)" fill="#4e1721"/>
        </g>
      </g>
      <g id="Group_1099258" data-name="Group 1099258" transform="translate(0 0)">
        <g id="Group_1099257" data-name="Group 1099257" clip-path="url(#clip-path)">
          <path id="Path_873437" data-name="Path 873437" d="M1544.983,155.706a2.171,2.171,0,0,1,.571-.779,1.694,1.694,0,0,1,.9-.412,1.279,1.279,0,0,1,.963.261,1.432,1.432,0,0,1,.493.836,1.843,1.843,0,0,0-.592-.7,1.266,1.266,0,0,0-.842-.2,1.777,1.777,0,0,0-.832.332,2.887,2.887,0,0,0-.659.666" transform="translate(-1272.329 -127.238)" fill="#4e1721"/>
          <path id="Path_873438" data-name="Path 873438" d="M1542.478,151.329a3.173,3.173,0,0,0,.927,2.38c.633.575,1.05.68.69,1.288-1.115.876-2.21.723-2.436.222a12.767,12.767,0,0,1-.171-4.186c.148-.592.735-.527.99.3" transform="translate(-1269.358 -124.058)" fill="#ff7d6d"/>
          <path id="Path_873439" data-name="Path 873439" d="M1544.839,167.58a1.8,1.8,0,0,0-.546,1.008c-.019.2-1.021.129-1.087.648.249.443,1.336.544,2.4-.289.36-.608-.057-.713-.69-1.288-.025-.023-.048-.053-.073-.078" transform="translate(-1270.866 -138.007)" fill="#ff6a58"/>
          <path id="Path_873440" data-name="Path 873440" d="M1548.208,158.207a.1.1,0,0,1-.044-.188,1.341,1.341,0,0,0,.443-.333c.253-.4.112-.512-.306-.851-.11-.089-.234-.19-.367-.311a3.271,3.271,0,0,1-.958-2.471.1.1,0,0,1,.2.034,3.087,3.087,0,0,0,.9,2.29c.13.118.251.216.359.3.419.34.7.564.348,1.111a1.513,1.513,0,0,1-.523.405.1.1,0,0,1-.043.01" transform="translate(-1273.954 -126.799)" fill="#4e1721"/>
          <path id="Path_873441" data-name="Path 873441" d="M1545.183,176.309a.1.1,0,0,1-.089-.055c-.067-.135.151-.265.2-.29.217-.121.415-.094.515.069a.1.1,0,1,1-.169.1.09.09,0,0,0-.094-.049.432.432,0,0,0-.259.128.1.1,0,0,1-.055.082.1.1,0,0,1-.044.01" transform="translate(-1272.41 -144.849)" fill="#4e1721"/>
          <path id="Path_873442" data-name="Path 873442" d="M1501.416,137.381a1.991,1.991,0,0,1-.748-.15.1.1,0,0,1,.074-.184,1.6,1.6,0,0,0,1.867-.421,2.7,2.7,0,0,0-.088-3.178.1.1,0,0,1,.171-.1,2.9,2.9,0,0,1,.068,3.41,1.747,1.747,0,0,1-1.344.626" transform="translate(-1235.783 -109.774)" fill="#792838"/>
          <path id="Path_873443" data-name="Path 873443" d="M1530.869,184.722c3.628,2.652,4.849.681,5.114.168Z" transform="translate(-1260.705 -152.123)" fill="#fff"/>
          <path id="Path_873444" data-name="Path 873444" d="M1533.6,185.712a5.873,5.873,0,0,1-3.25-1.374.1.1,0,0,1,.062-.179l5.114.168a.1.1,0,0,1,.085.145,2.205,2.205,0,0,1-1.452,1.177,2.431,2.431,0,0,1-.558.063m-2.866-1.344c1.349.933,2.485,1.3,3.378,1.088a1.961,1.961,0,0,0,1.243-.936Z" transform="translate(-1260.242 -151.66)" fill="#4e1721"/>
          <path id="Path_873445" data-name="Path 873445" d="M1382.3,213.726c.429-6.012-1.374-14.6,3.349-18.721s5.41-11.164,5.925-11.25c3.092.429,3.607,3.521,2.92,6.527s-.944,4.466-.944,4.466c5.582,1.8,13.569,4.9,7.128,7.643a2.693,2.693,0,0,1-1.116,4.208c.515,1.031,1.116,2.49-1.031,3.006,2.319,1.975-1.46,3.349-3.435,2.748l.172,2.319Z" transform="translate(-1138.356 -151.326)" fill="#ff7d6d"/>
          <path id="Path_873446" data-name="Path 873446" d="M1394.8,214.306h-.007l-12.968-.945a.1.1,0,0,1-.092-.106c.109-1.517.075-3.177.039-4.936-.1-5.036-.219-10.744,3.344-13.854,3.421-2.986,4.732-7.585,5.362-9.8.312-1.1.42-1.445.613-1.477a.09.09,0,0,1,.03,0,3.465,3.465,0,0,1,2.5,1.451c.821,1.189,1,3.035.506,5.2-.587,2.57-.863,4.022-.928,4.376,6.411,2.078,9.433,3.806,9.507,5.435.038.839-.748,1.618-2.337,2.316a2.729,2.729,0,0,1,.442,2.415,2.792,2.792,0,0,1-1.576,1.806,2.507,2.507,0,0,1,.329,2.084,1.89,1.89,0,0,1-1.293.917c.763.718.693,1.3.49,1.675-.556,1.017-2.679,1.491-4.019,1.157l.161,2.178a.1.1,0,0,1-.1.107m-12.862-1.136,12.754.929-.163-2.2a.1.1,0,0,1,.037-.085.1.1,0,0,1,.091-.017c1.348.411,3.439-.135,3.926-1.025.326-.6-.138-1.173-.584-1.553a.1.1,0,0,1,.042-.172,1.837,1.837,0,0,0,1.34-.855,2.475,2.475,0,0,0-.375-2.01.1.1,0,0,1,.056-.138,2.594,2.594,0,0,0,1.072-4.053.1.1,0,0,1,.039-.153c1.583-.675,2.367-1.407,2.333-2.175-.1-2.262-7.14-4.535-9.453-5.282a.1.1,0,0,1-.067-.112c0-.015.266-1.5.946-4.471.481-2.106.312-3.9-.476-5.039a3.268,3.268,0,0,0-2.336-1.364,6.337,6.337,0,0,0-.449,1.332c-.635,2.229-1.957,6.867-5.422,9.891-3.493,3.048-3.378,8.707-3.276,13.7.035,1.725.068,3.356-.032,4.855" transform="translate(-1137.893 -150.863)" fill="#4e1721"/>
          <path id="Path_873447" data-name="Path 873447" d="M1479.164,284.779a.1.1,0,0,1-.056-.017,9.9,9.9,0,0,0-1.437-.89.1.1,0,0,1-.061-.126.1.1,0,0,1,.125-.062,9.415,9.415,0,0,1,1.484.914.1.1,0,0,1-.056.181" transform="translate(-1216.842 -233.617)" fill="#4e1721"/>
          <path id="Path_873448" data-name="Path 873448" d="M1474.639,309.025a.1.1,0,0,1-.073-.032,3.419,3.419,0,0,0-1.039-.792.1.1,0,0,1,.077-.183,3.549,3.549,0,0,1,1.108.84.1.1,0,0,1-.073.167" transform="translate(-1213.433 -253.655)" fill="#4e1721"/>
          <path id="Path_873449" data-name="Path 873449" d="M1468.2,327.258a.1.1,0,0,1-.047-.012,5.514,5.514,0,0,0-1.173-.548.1.1,0,0,1-.079-.115.1.1,0,0,1,.113-.08,5.312,5.312,0,0,1,1.234.569.1.1,0,0,1-.047.187" transform="translate(-1208.025 -268.882)" fill="#4e1721"/>
          <rect id="Rectangle_401088" data-name="Rectangle 401088" width="15.744" height="3.206" transform="translate(242.57 61.684)" fill="#fff"/>
          <path id="Path_873450" data-name="Path 873450" d="M1389.795,352.373h-15.744a.1.1,0,0,1-.1-.1v-3.206a.1.1,0,0,1,.1-.1h15.744a.1.1,0,0,1,.1.1v3.206a.1.1,0,0,1-.1.1m-15.645-.2H1389.7v-3.007H1374.15Z" transform="translate(-1131.48 -287.384)" fill="#4e1721"/>
          <path id="Path_873451" data-name="Path 873451" d="M1386.117,354.683a.773.773,0,1,1-.773-.773Z" transform="translate(-1140.226 -291.454)" fill="#fff"/>
          <path id="Path_873452" data-name="Path 873452" d="M1384.879,355.092a.872.872,0,1,1,0-1.744.1.1,0,1,1,0,.2.674.674,0,1,0,.674.673.1.1,0,0,1,.2,0,.873.873,0,0,1-.872.872" transform="translate(-1139.761 -290.991)" fill="#4e1721"/>
          <path id="Path_873453" data-name="Path 873453" d="M1338.591,400.083a.1.1,0,0,1-.093-.064c-2.5-6.48,2.968-31.733,3.2-32.8a.1.1,0,0,1,.1-.078h21.642a.1.1,0,0,1,.071.03.1.1,0,0,1,.028.072c-.007.2-.731,20.064-4.471,30.945a.1.1,0,0,1-.188-.065c3.591-10.448,4.4-29.221,4.457-30.784h-21.458c-.342,1.588-5.605,26.364-3.194,32.613a.1.1,0,0,1-.092.135" transform="translate(-1101.746 -302.346)" fill="#4e1721"/>
          <path id="Path_873454" data-name="Path 873454" d="M97.573,826.856C31.04,788.806,11.132,702.555,42.028,692.9s75.943,52.617,77.713,134.456Z" transform="translate(-22.907 -569.801)" fill="#f2d3bb"/>
          <path id="Path_873455" data-name="Path 873455" d="M59.058,1206.278c-40.053-4.628-68.867-41.084-55.924-52.153s49.325,12.413,67.12,51.624Z" transform="translate(0 -948.19)" fill="#dab988"/>
          <path id="Path_873456" data-name="Path 873456" d="M191.885,870.036c-.049-.228-4.745-21.654-15.987-50.495l-.547-28.617a.829.829,0,0,0-.858-.825.842.842,0,0,0-.826.858l.461,24.126c-.229-.568-.455-1.133-.688-1.705a246.642,246.642,0,0,0-12.18-25.193.83.83,0,0,0-.073-.133,371.146,371.146,0,0,0-24.326-38.293.842.842,0,1,0-1.349,1.008,368.979,368.979,0,0,1,22.6,35.223l-19.3-12.514a.842.842,0,0,0-.916,1.413l21.961,14.239a244.663,244.663,0,0,1,12.023,24.886c12.961,31.756,18.305,56.135,18.358,56.378a.842.842,0,0,0,.822.664.865.865,0,0,0,.179-.019.842.842,0,0,0,.645-1" transform="translate(-111.46 -617.166)" fill="#ffead8"/>
          <path id="Path_873457" data-name="Path 873457" d="M100.9,1239a.608.608,0,0,1-.4-.151c-.117-.1-11.838-10.373-21.046-19.151-9.179-8.75-30.17-25.41-30.38-25.577a.611.611,0,0,1,.759-.958c.212.168,21.245,16.862,30.465,25.65,9.19,8.76,20.891,19.013,21.008,19.116a.611.611,0,0,1-.4,1.07" transform="translate(-40.221 -982.493)" fill="#ffead8"/>
          <path id="Path_873458" data-name="Path 873458" d="M130.713,1298.905a.609.609,0,0,1-.233-.047l-18.392-7.607a.611.611,0,1,1,.467-1.129l18.392,7.607a.611.611,0,0,1-.234,1.176" transform="translate(-91.996 -1062.408)" fill="#ffead8"/>
          <path id="Path_873459" data-name="Path 873459" d="M314.444,1453.163a1.11,1.11,0,0,1-.43.83,2.236,2.236,0,0,1-1.356.431H21.41a2.124,2.124,0,0,1-1.389-.471,1.051,1.051,0,0,1-.4-.79,1.236,1.236,0,0,1,.849-1.062,2.319,2.319,0,0,1,.937-.191H312.658a2.262,2.262,0,0,1,1.24.351,1.123,1.123,0,0,1,.546.9" transform="translate(-16.161 -1195.681)" fill="#523d3c"/>
          <path id="Path_873460" data-name="Path 873460" d="M1021.347,533.941V398.647H1160.17V533.941A18.06,18.06,0,0,1,1142.109,552H1003.286a18.06,18.06,0,0,0,18.061-18.058" transform="translate(-826.229 -328.296)" fill="#fff"/>
          <path id="Path_873461" data-name="Path 873461" d="M1173.524,686.123H1288a.165.165,0,1,0,0-.33h-114.48a.165.165,0,0,0,0,.33" transform="translate(-966.288 -564.767)" fill="#4e1721"/>
          <path id="Path_873462" data-name="Path 873462" d="M1173.524,851.065h95.585a.165.165,0,0,0,0-.33h-95.585a.165.165,0,0,0,0,.33" transform="translate(-966.288 -700.601)" fill="#4e1721"/>
          <path id="Path_873463" data-name="Path 873463" d="M1173.524,1024.053H1288a.165.165,0,1,0,0-.33h-114.48a.165.165,0,0,0,0,.33" transform="translate(-966.288 -843.06)" fill="#4e1721"/>
          <path id="Path_873464" data-name="Path 873464" d="M1348.819,755.035a.165.165,0,0,0,.164-.165l.012-68.781a.165.165,0,1,0-.329,0l-.012,68.781a.165.165,0,0,0,.165.165" transform="translate(-1110.647 -564.875)" fill="#4e1721"/>
          <path id="Path_873465" data-name="Path 873465" d="M1215.231,744.48a6.854,6.854,0,1,0,6.854-6.853,6.853,6.853,0,0,0-6.854,6.853" transform="translate(-1000.771 -607.454)" fill="#dab988"/>
          <path id="Path_873466" data-name="Path 873466" d="M1215.231,907.41a6.854,6.854,0,1,0,6.854-6.853,6.853,6.853,0,0,0-6.854,6.853" transform="translate(-1000.771 -741.63)" fill="#dab988"/>
          <path id="Path_873467" data-name="Path 873467" d="M1626.578,749.973h15.745a4.075,4.075,0,1,0,0-8.149h-15.745a4.075,4.075,0,1,0,0,8.149" transform="translate(-1336.167 -610.91)" fill="#b1ec93"/>
          <path id="Path_873468" data-name="Path 873468" d="M1409.3,749.973h25.332a4.075,4.075,0,1,0,0-8.149H1409.3a4.075,4.075,0,1,0,0,8.149" transform="translate(-1157.231 -610.91)" fill="#6ed3d6"/>
          <path id="Path_873469" data-name="Path 873469" d="M1566.222,922.961h26.4a4.075,4.075,0,1,0,0-8.149h-26.4a4.075,4.075,0,1,0,0,8.149" transform="translate(-1286.463 -753.369)" fill="#93c4db"/>
          <path id="Path_873470" data-name="Path 873470" d="M1637.861,1104.781h17.367a4.075,4.075,0,1,0,0-8.149h-17.367a4.075,4.075,0,1,0,0,8.149" transform="translate(-1345.46 -903.102)" fill="#6ed3d6"/>
          <path id="Path_873471" data-name="Path 873471" d="M1409.3,922.961h14.681a4.075,4.075,0,1,0,0-8.149H1409.3a4.075,4.075,0,1,0,0,8.149" transform="translate(-1157.232 -753.369)" fill="#93c4db"/>
          <path id="Path_873472" data-name="Path 873472" d="M1054.439,1094.446c34.455,0,38.9,30.559,56.406,30.559h-89.117c-17.505,0-21.951-30.559-56.407-30.559Z" transform="translate(-794.965 -901.302)" fill="#bbd6ee"/>
          <path id="Path_873473" data-name="Path 873473" d="M528.961,1094.446H625.18c-17.517,0-26.747,13-36.075,27.209-11.239,17.12-22.62,35.993-48.813,35.993H444.074c47.932,0,46.264-63.2,84.888-63.2" transform="translate(-365.705 -901.302)" fill="#dbf4ff"/>
          <path id="Path_873474" data-name="Path 873474" d="M443.14,1156.879a.165.165,0,0,1,.165-.165c25.169,0,36.507-17.325,47.471-34.08,9.8-14.976,19.057-29.122,37.417-29.122h96.218a.165.165,0,0,1,0,.33c-16.789,0-25.844,11.76-35.937,27.135l-1.2,1.838c-11.012,16.829-22.4,34.23-47.747,34.23H443.3a.165.165,0,0,1-.165-.165m85.053-63.037c-18.181,0-27.391,14.073-37.141,28.973-10.125,15.473-20.565,31.429-41.883,33.9h90.355c25.169,0,36.507-17.325,47.471-34.081l1.2-1.838c9.159-13.951,17.473-24.943,31.469-26.954Z" transform="translate(-364.936 -900.533)" fill="#4e1721"/>
          <path id="Path_873475" data-name="Path 873475" d="M820.53,1146.309a.164.164,0,0,0,.129-.063c3.528-4.483,6.72-9.362,9.808-14.08l1.2-1.833c7.46-11.363,14.483-21.1,24.9-25.141a.165.165,0,0,0-.119-.308c-10.509,4.078-17.565,13.856-25.057,25.267l-1.2,1.834c-3.084,4.712-6.272,9.585-9.791,14.057a.165.165,0,0,0,.13.267" transform="translate(-675.589 -909.889)" fill="#4e1721"/>
          <path id="Path_873476" data-name="Path 873476" d="M798.794,1192.492H874a.165.165,0,1,0,0-.33H798.794a.165.165,0,1,0,0,.33" transform="translate(-657.689 -981.773)" fill="#4e1721"/>
          <path id="Path_873477" data-name="Path 873477" d="M707.472,1318.429H782.68a.165.165,0,1,0,0-.329H707.472a.165.165,0,1,0,0,.329" transform="translate(-582.483 -1085.485)" fill="#4e1721"/>
          <path id="Path_873478" data-name="Path 873478" d="M869.742,1116.956c-1.732-1.592-4.989-.869-7.274,1.616s-2.733,5.79-1,7.382,4.989.869,7.274-1.616,2.733-5.79,1-7.383" transform="translate(-708.569 -919.143)" fill="#dab988"/>
          <path id="Path_873479" data-name="Path 873479" d="M793.116,1231.349c-1.732-1.592-4.989-.869-7.274,1.616s-2.733,5.79-1,7.382,4.989.869,7.274-1.616,2.733-5.79,1-7.382" transform="translate(-645.466 -1013.349)" fill="#dab988"/>
          <path id="Path_873480" data-name="Path 873480" d="M1112.952,1141.581h13.457a6.234,6.234,0,0,0,5.176-2.758,2.212,2.212,0,0,0-.423-2.939,2.18,2.18,0,0,0-1.414-.507h-13.457a6.236,6.236,0,0,0-5.176,2.758,2.178,2.178,0,0,0-.32,1.736,2.207,2.207,0,0,0,2.157,1.71" transform="translate(-914.716 -935.009)" fill="#93c4db"/>
          <path id="Path_873481" data-name="Path 873481" d="M912.028,1257.285h28.678a6.236,6.236,0,0,0,5.176-2.758,2.212,2.212,0,0,0-.423-2.939,2.179,2.179,0,0,0-1.414-.507H915.366a6.237,6.237,0,0,0-5.176,2.758,2.179,2.179,0,0,0-.32,1.737,2.207,2.207,0,0,0,2.157,1.71" transform="translate(-749.25 -1030.293)" fill="#93c4db"/>
          <path id="Path_873482" data-name="Path 873482" d="M1018.307,1140.007h6.4a6.233,6.233,0,0,0,5.176-2.758,2.212,2.212,0,0,0-.423-2.939,2.182,2.182,0,0,0-1.415-.507h-6.4a6.235,6.235,0,0,0-5.176,2.758,2.179,2.179,0,0,0-.319,1.736,2.206,2.206,0,0,0,2.157,1.71" transform="translate(-836.773 -933.713)" fill="#008db4"/>
          <path id="Path_873483" data-name="Path 873483" d="M1296.056,955.211h87.021a18.224,18.224,0,0,0,18.226-18.223V888.23a.165.165,0,1,0-.329,0v48.758a17.895,17.895,0,0,1-17.9,17.893h-87.021a.165.165,0,0,0,0,.33" transform="translate(-1067.196 -731.343)" fill="#4e1721"/>
          <path id="Path_873484" data-name="Path 873484" d="M1460.134,421.238a.165.165,0,0,0,.165-.165V397.879a.164.164,0,0,0-.165-.165H1367.7a.165.165,0,1,0,0,.33h92.274v23.03a.165.165,0,0,0,.165.165" transform="translate(-1126.192 -327.527)" fill="#4e1721"/>
          <path id="Path_873485" data-name="Path 873485" d="M684.73,471H588.763a6,6,0,0,0-6,6v83.592a6,6,0,0,0,6,6h73.1a6,6,0,0,0,6-6V482.726Z" transform="translate(-479.92 -387.883)" fill="#fff"/>
          <path id="Path_873486" data-name="Path 873486" d="M660.945,565.874h-73.1a6.192,6.192,0,0,1-6.194-6.194V476.088a6.193,6.193,0,0,1,6.194-6.193h95.967a.2.2,0,0,1,.112.357l-16.789,11.664V559.68a6.193,6.193,0,0,1-6.194,6.194m-73.1-95.587a5.8,5.8,0,0,0-5.8,5.8V559.68a5.8,5.8,0,0,0,5.8,5.8h73.1a5.8,5.8,0,0,0,5.8-5.8V481.813a.2.2,0,0,1,.084-.161l16.36-11.365Z" transform="translate(-479.007 -386.97)" fill="#451d26"/>
          <path id="Path_873487" data-name="Path 873487" d="M600.112,492.308a1.125,1.125,0,1,0,1.124-1.124,1.124,1.124,0,0,0-1.124,1.124" transform="translate(-494.206 -404.501)" fill="#fff"/>
          <path id="Path_873488" data-name="Path 873488" d="M628.61,492.308a1.125,1.125,0,1,0,1.124-1.124,1.124,1.124,0,0,0-1.124,1.124" transform="translate(-517.675 -404.501)" fill="#fff"/>
          <path id="Path_873489" data-name="Path 873489" d="M657.108,492.308a1.125,1.125,0,1,0,1.125-1.124,1.125,1.125,0,0,0-1.125,1.124" transform="translate(-541.143 -404.501)" fill="#fff"/>
          <rect id="Rectangle_401089" data-name="Rectangle 401089" width="4.498" height="4.498" transform="translate(174.671 97.615)" fill="#80c85d"/>
          <rect id="Rectangle_401090" data-name="Rectangle 401090" width="15.952" height="4.498" transform="translate(155.793 97.615)" fill="#dab988"/>
          <rect id="Rectangle_401091" data-name="Rectangle 401091" width="33.383" height="4.498" transform="translate(118.963 97.99)" fill="#dbf4ff"/>
          <rect id="Rectangle_401092" data-name="Rectangle 401092" width="4.498" height="4.498" transform="translate(174.671 143.357)" fill="#80c85d"/>
          <rect id="Rectangle_401093" data-name="Rectangle 401093" width="15.952" height="4.498" transform="translate(155.793 143.357)" fill="#dab988"/>
          <rect id="Rectangle_401094" data-name="Rectangle 401094" width="33.383" height="4.498" transform="translate(118.963 143.357)" fill="#216102"/>
          <rect id="Rectangle_401095" data-name="Rectangle 401095" width="4.498" height="4.498" transform="translate(174.671 155.571)" fill="#80c85d"/>
          <rect id="Rectangle_401096" data-name="Rectangle 401096" width="11.723" height="4.498" transform="translate(160.022 155.571)" fill="#dab988"/>
          <rect id="Rectangle_401097" data-name="Rectangle 401097" width="24.532" height="4.498" transform="translate(132.958 155.571)" fill="#216102"/>
          <rect id="Rectangle_401098" data-name="Rectangle 401098" width="4.498" height="4.498" transform="translate(166.049 112.224)" fill="#dab988"/>
          <rect id="Rectangle_401099" data-name="Rectangle 401099" width="15.952" height="4.498" transform="translate(147.171 112.224)" fill="#216102"/>
          <rect id="Rectangle_401100" data-name="Rectangle 401100" width="17.389" height="4.498" transform="translate(126.335 112.599)" fill="#dbf4ff"/>
          <rect id="Rectangle_401101" data-name="Rectangle 401101" width="4.498" height="4.498" transform="translate(166.049 122.043)" fill="#dab988"/>
          <rect id="Rectangle_401102" data-name="Rectangle 401102" width="11.162" height="4.498" transform="translate(151.961 122.043)" fill="#216102"/>
          <rect id="Rectangle_401103" data-name="Rectangle 401103" width="22.179" height="4.498" transform="translate(126.335 122.418)" fill="#dbf4ff"/>
          <rect id="Rectangle_401104" data-name="Rectangle 401104" width="4.498" height="4.498" transform="translate(166.049 131.862)" fill="#dab988"/>
          <rect id="Rectangle_401105" data-name="Rectangle 401105" width="15.952" height="4.498" transform="translate(147.171 131.862)" fill="#216102"/>
          <rect id="Rectangle_401106" data-name="Rectangle 401106" width="17.389" height="4.498" transform="translate(126.335 131.862)" fill="#dbf4ff"/>
          <path id="Path_873490" data-name="Path 873490" d="M1099.669,39.084H1092.6V4.939a3.925,3.925,0,0,0-3.925-3.925H1051.2a3.924,3.924,0,0,0-3.925,3.925V71.855a3.925,3.925,0,0,0,3.925,3.925h37.48a3.925,3.925,0,0,0,3.925-3.925V43.824c2.173-.774,5.738-2.353,7.064-4.74" transform="translate(-862.454 -0.836)" fill="#6ed3d6"/>
          <path id="Path_873491" data-name="Path 873491" d="M1087.847,75.127h-28.085a.178.178,0,0,1,0-.357h28.085a3.751,3.751,0,0,0,3.746-3.746V42.992a.178.178,0,0,1,.118-.168c1.962-.7,5.385-2.179,6.81-4.394h-6.75a.178.178,0,0,1-.178-.178V4.107a3.751,3.751,0,0,0-3.746-3.746h-37.481a3.751,3.751,0,0,0-3.747,3.746V41.413a.178.178,0,1,1-.356,0V4.107a4.108,4.108,0,0,1,4.1-4.1h37.481a4.108,4.108,0,0,1,4.1,4.1V38.074h6.886a.178.178,0,0,1,.156.265c-1.344,2.419-4.937,4.018-7.042,4.779V71.023a4.108,4.108,0,0,1-4.1,4.1" transform="translate(-861.621 -0.004)" fill="#4e1721"/>
          <path id="Path_873492" data-name="Path 873492" d="M1175.568,228.56a.178.178,0,1,1,0-.357,2.618,2.618,0,0,0,2.618-2.618.178.178,0,1,1,.356,0,2.974,2.974,0,0,1-2.975,2.975" transform="translate(-967.96 -185.629)" fill="#4e1721"/>
          <path id="Path_873493" data-name="Path 873493" d="M1161.56,207.948a2.8,2.8,0,1,1-2.8-2.8,2.786,2.786,0,0,1,2.8,2.8" transform="translate(-951.965 -168.948)" fill="#fff"/>
          <path id="Path_873494" data-name="Path 873494" d="M1241.637,228.56a.178.178,0,1,1,0-.357,2.617,2.617,0,0,0,2.618-2.618.178.178,0,0,1,.357,0,2.974,2.974,0,0,1-2.974,2.975" transform="translate(-1022.369 -185.629)" fill="#4e1721"/>
          <path id="Path_873495" data-name="Path 873495" d="M1227.629,207.948a2.8,2.8,0,1,1-2.8-2.8,2.784,2.784,0,0,1,2.8,2.8" transform="translate(-1006.374 -168.948)" fill="#fff"/>
          <path id="Path_873496" data-name="Path 873496" d="M1111.629,228.56a.178.178,0,1,1,0-.357,2.618,2.618,0,0,0,2.618-2.618.178.178,0,0,1,.357,0,2.974,2.974,0,0,1-2.975,2.975" transform="translate(-915.305 -185.629)" fill="#4e1721"/>
          <path id="Path_873497" data-name="Path 873497" d="M1097.623,207.948a2.8,2.8,0,1,1-2.8-2.8,2.786,2.786,0,0,1,2.8,2.8" transform="translate(-899.312 -168.948)" fill="#fff"/>
          <path id="Path_873500" data-name="Path 873500" d="M233.729,370.107a29.561,29.561,0,1,0-36.441,29.273c3.839,1.642,7.192,3.612,7.533,8.36.175-4.758,3.457-6.842,7.237-8.618a29.574,29.574,0,0,0,21.671-29.014" transform="translate(-143.796 -280.873)" fill="#fff"/>
          <path id="Path_873501" data-name="Path 873501" d="M268.864,357.594a.194.194,0,0,1-.176-.113,29.375,29.375,0,0,0-47.83-8.16.193.193,0,1,1-.279-.268,29.762,29.762,0,0,1,48.46,8.267.193.193,0,0,1-.176.274" transform="translate(-181.608 -279.97)" fill="#451d26"/>
          <path id="Path_873502" data-name="Path 873502" d="M203.94,542.562a.193.193,0,0,1-.193-.18c-.344-4.782-3.852-6.671-7.417-8.2a29.721,29.721,0,0,1-22.789-28.413.193.193,0,0,1,.19-.2.206.206,0,0,1,.2.19,29.35,29.35,0,0,0,22.524,28.054c3.314,1.415,6.557,3.127,7.462,7.049.767-3.951,3.946-5.774,7.181-7.294a29.365,29.365,0,0,0,21.56-28.836.193.193,0,1,1,.387-.007,29.737,29.737,0,0,1-21.813,29.2c-3.478,1.637-6.919,3.648-7.095,8.439a.193.193,0,0,1-.19.186Z" transform="translate(-142.915 -415.503)" fill="#451d26"/>
          <path id="Path_873503" data-name="Path 873503" d="M281.325,434.563a16.409,16.409,0,1,1-16.409-16.409,16.409,16.409,0,0,1,16.409,16.409" transform="translate(-204.651 -344.36)" fill="#b1ec93"/>
          <path id="Path_873504" data-name="Path 873504" d="M264.014,526.835a16.6,16.6,0,0,1-16.6-16.6.193.193,0,1,1,.387,0,16.21,16.21,0,0,0,16.216,16.216.193.193,0,0,1,0,.387" transform="translate(-203.749 -420.029)" fill="#451d26"/>
          <path id="Path_873505" data-name="Path 873505" d="M320.406,409.422a1.8,1.8,0,0,0-2.534.255L301.623,429.57l-5.863-6.722a1.8,1.8,0,0,0-2.714,2.367l7.265,8.33a1.8,1.8,0,0,0,1.357.617h.029a1.8,1.8,0,0,0,1.365-.661l17.6-21.545a1.8,1.8,0,0,0-.255-2.533" transform="translate(-240.965 -336.834)" fill="#80c85d"/>
          <path id="Path_873506" data-name="Path 873506" d="M300.8,489.832a2.011,2.011,0,0,1-1.534-.683L292,480.819A1.994,1.994,0,0,1,295,478.2a.194.194,0,0,1-.292.254,1.607,1.607,0,1,0-2.422,2.113l7.265,8.33a1.607,1.607,0,0,0,2.456-.04l10.131-12.4a.193.193,0,1,1,.3.245l-10.131,12.4a1.99,1.99,0,0,1-1.512.732Z" transform="translate(-240.061 -392.311)" fill="#451d26"/>
          <path id="Path_873507" data-name="Path 873507" d="M342.814,428.865a.193.193,0,0,1-.15-.316l16.25-19.893A1.994,1.994,0,1,1,362,411.18l-5.172,6.332a.193.193,0,1,1-.3-.245l5.172-6.332a1.607,1.607,0,1,0-2.489-2.034l-16.249,19.893a.193.193,0,0,1-.15.071" transform="translate(-282.156 -335.936)" fill="#451d26"/>
          <path id="Path_873508" data-name="Path 873508" d="M694.208,244.94a26.427,26.427,0,1,1-26.427-26.427,26.427,26.427,0,0,1,26.427,26.427" transform="translate(-528.169 -179.951)" fill="#fff"/>
          <path id="Path_873509" data-name="Path 873509" d="M666.945,270.71A26.606,26.606,0,1,1,693.552,244.1a26.636,26.636,0,0,1-26.606,26.606m0-52.854A26.248,26.248,0,1,0,693.193,244.1a26.278,26.278,0,0,0-26.248-26.248" transform="translate(-527.334 -179.115)" fill="#3b232f"/>
          <path id="Path_873510" data-name="Path 873510" d="M720.381,285.656a7.509,7.509,0,1,0-4.512,0A15.532,15.532,0,0,0,702.6,301.02h31.058a15.531,15.531,0,0,0-13.273-15.364" transform="translate(-578.604 -223.162)" fill="#80c85d"/>
          <path id="Path_873511" data-name="Path 873511" d="M773.806,300.358H751.533a.18.18,0,1,1,0-.361h22.092a15.421,15.421,0,0,0-13.118-15.005.181.181,0,0,1-.028-.351,7.329,7.329,0,1,0-7.683-11.855.181.181,0,0,1-.27-.24,7.69,7.69,0,1,1,8.712,12.2,15.792,15.792,0,0,1,12.749,15.429.18.18,0,0,1-.18.18" transform="translate(-618.756 -222.319)" fill="#451d26"/>
          <path id="Path_873512" data-name="Path 873512" d="M712.015,354.982a.181.181,0,0,1-.159-.266,15.775,15.775,0,0,1,10.918-8.06,7.634,7.634,0,0,1-1.977-1.2.181.181,0,0,1,.233-.276,7.293,7.293,0,0,0,2.5,1.372.181.181,0,0,1,.126.187.183.183,0,0,1-.154.164,15.4,15.4,0,0,0-11.329,7.987.18.18,0,0,1-.159.1" transform="translate(-586.212 -284.226)" fill="#451d26"/>
          <path id="Path_873513" data-name="Path 873513" d="M949.427,1297.709l-10.757-13.4-20.234,2.2,6.209,17.446,23.246,1.529Z" transform="translate(-756.353 -1057.66)" fill="#ff6a58"/>
          <path id="Path_873514" data-name="Path 873514" d="M947.4,1305.095h-.009l-23.246-1.528a.106.106,0,0,1-.093-.07l-6.209-17.446a.105.105,0,0,1,.01-.092.106.106,0,0,1,.078-.049l20.234-2.2a.106.106,0,0,1,.094.039l10.757,13.4a.106.106,0,0,1,.021.087l-1.535,7.773a.105.105,0,0,1-.1.085m-23.171-1.735,23.084,1.518,1.508-7.634-10.69-13.314-20.043,2.177Z" transform="translate(-755.859 -1057.167)" fill="#3b232f"/>
          <path id="Path_873515" data-name="Path 873515" d="M931.051,1351.8a.678.678,0,0,1,1.138-.087c1,1.333,13.879,3.509,17.108,2.035a.661.661,0,0,0,.182-.123.706.706,0,0,0,.108-.133c.632-1,4.146-6.249,8.9-6.746a.717.717,0,0,1,.445.1.658.658,0,0,1,.279.34c.372,1.033,1.459,3.457,3.676,4.242,0,0,16.149,4.961,19.062,12.989a.658.658,0,0,1-.089.615.682.682,0,0,1-.558.285l-51.877-.1a.678.678,0,0,1-.523-.249.665.665,0,0,1-.145-.332,21.768,21.768,0,0,1,2.292-12.833" transform="translate(-764.71 -1109.071)" fill="#008db4"/>
          <path id="Path_873516" data-name="Path 873516" d="M1078.994,1363.393l-17.1-.067-14.917-9.7a.683.683,0,0,0,.108-.133c.633-1,4.146-6.249,8.9-6.746a.715.715,0,0,1,.445.1.658.658,0,0,1,.279.34c.372,1.033,1.459,3.457,3.676,4.242,0,0,14.776,4.544,18.6,11.968" transform="translate(-862.212 -1109.072)" fill="#fff"/>
          <path id="Path_873517" data-name="Path 873517" d="M1029.618,1396.8a2.289,2.289,0,1,0,2.288-2.29,2.289,2.289,0,0,0-2.288,2.29" transform="translate(-847.914 -1148.409)" fill="#fff"/>
          <path id="Path_873518" data-name="Path 873518" d="M1042.125,1398.7h-.035a.106.106,0,0,1,0-.211h.033a2.183,2.183,0,0,0-.033-4.366.106.106,0,0,1-.106-.106.113.113,0,0,1,.106-.106,2.394,2.394,0,0,1,.037,4.789" transform="translate(-858.096 -1147.915)" fill="#3b232f"/>
          <path id="Path_873519" data-name="Path 873519" d="M928.641,1420.2a22.648,22.648,0,0,1,.149-4.447c7.214.56,24.986,3.811,24.986,3.811Z" transform="translate(-764.717 -1165.91)" fill="#fff"/>
          <path id="Path_873520" data-name="Path 873520" d="M972.353,1419.822v-1.033a1.88,1.88,0,0,1,1.879-1.881l3.658,0a16.39,16.39,0,0,1,2.783,2.945h.009c.02.027.037.056.057.084l.009.014a9.691,9.691,0,0,1,1.2,2.247.658.658,0,0,1-.089.615.679.679,0,0,1-.557.284l-51.877-.1a.678.678,0,0,1-.523-.248.668.668,0,0,1-.145-.332,20.389,20.389,0,0,1-.174-2.664Z" transform="translate(-764.712 -1166.856)" fill="#fff"/>
          <path id="Path_873521" data-name="Path 873521" d="M980.825,1422.708h-.015l-51.877-.1a.779.779,0,0,1-.772-.672,20.51,20.51,0,0,1-.176-2.678.107.107,0,0,1,.031-.075.1.1,0,0,1,.075-.031l43.661.072v-.926a1.988,1.988,0,0,1,1.956-1.986h.028l3.658,0a.106.106,0,0,1,.068.025,16.53,16.53,0,0,1,2.783,2.94.1.1,0,0,1,.027.024l.032.048.025.037a9.892,9.892,0,0,1,1.226,2.286.768.768,0,0,1-.1.713.792.792,0,0,1-.629.328m-52.627-3.347a20.2,20.2,0,0,0,.173,2.544.569.569,0,0,0,.563.489l51.877.1a.573.573,0,0,0,.471-.241.55.55,0,0,0,.075-.517,9.6,9.6,0,0,0-1.191-2.222l-.05-.074a.086.086,0,0,1-.025-.023,16.266,16.266,0,0,0-2.736-2.9l-3.619,0a1.771,1.771,0,0,0-1.773,1.775v1.033a.107.107,0,0,1-.031.075.09.09,0,0,1-.075.031Z" transform="translate(-764.218 -1166.362)" fill="#3b232f"/>
          <path id="Path_873522" data-name="Path 873522" d="M980.845,1364.925h-.014l-51.877-.1a.781.781,0,0,1-.6-.287.77.77,0,0,1-.168-.385,22.024,22.024,0,0,1,2.3-12.9.778.778,0,0,1,.666-.412.769.769,0,0,1,.65.312c1,1.329,13.758,3.474,16.979,2a.556.556,0,0,0,.153-.1.57.57,0,0,0,.092-.112c.659-1.047,4.189-6.294,8.978-6.795a.828.828,0,0,1,.511.112.757.757,0,0,1,.324.4,9.194,9.194,0,0,0,1.133,2.189.106.106,0,0,1-.172.123,9.407,9.407,0,0,1-1.16-2.24.549.549,0,0,0-.234-.286.614.614,0,0,0-.379-.083c-4.693.491-8.172,5.665-8.821,6.7a.81.81,0,0,1-.125.153.755.755,0,0,1-.211.143c-3.265,1.49-16.22-.714-17.236-2.068a.562.562,0,0,0-.474-.227.569.569,0,0,0-.487.3,21.8,21.8,0,0,0-2.28,12.768.559.559,0,0,0,.122.28.57.57,0,0,0,.441.21l51.877.1a.57.57,0,0,0,.472-.241.55.55,0,0,0,.075-.517c-1.507-4.153-6.665-7.472-10.726-9.525a.106.106,0,1,1,.1-.189c4.1,2.07,9.3,5.423,10.83,9.641a.77.77,0,0,1-.1.713.793.793,0,0,1-.63.328" transform="translate(-764.238 -1108.579)" fill="#3b232f"/>
          <path id="Path_873523" data-name="Path 873523" d="M1093.251,1373.468h-.017a.105.105,0,0,1-.088-.121,4.192,4.192,0,0,1,1.761-2.709,4.416,4.416,0,0,1,3.308-.817.106.106,0,0,1-.037.208,4.21,4.21,0,0,0-3.148.781,3.981,3.981,0,0,0-1.675,2.57.105.105,0,0,1-.1.09" transform="translate(-900.229 -1128.029)" fill="#3b232f"/>
          <path id="Path_873524" data-name="Path 873524" d="M1121.748,1382.854a.114.114,0,0,1-.029,0,.106.106,0,0,1-.075-.13,4.367,4.367,0,0,1,2.279-2.891,2.906,2.906,0,0,1,2.281-.235.106.106,0,0,1-.082.195,2.733,2.733,0,0,0-2.106.23,4.158,4.158,0,0,0-2.168,2.756.107.107,0,0,1-.1.079" transform="translate(-923.697 -1136.012)" fill="#3b232f"/>
          <path id="Path_873525" data-name="Path 873525" d="M296.337,1128.151c-11.263,14.989,3.121,32.624,26.029,27.883s56.51-30.729,56.51-30.729l17.762,13.423,31.232-10.639-32.095-29.018a14.809,14.809,0,0,0-14.693-2.771l-76.608,26.667Z" transform="translate(-240.816 -902.131)" fill="#216102"/>
          <path id="Path_873526" data-name="Path 873526" d="M317.934,1156.313c-10.2.975-19.175-2.523-23.546-9.415-3.72-5.866-3.169-13.058,1.475-19.239a.094.094,0,0,1,.026-.023l8.138-5.184a.092.092,0,0,1,.02-.01l76.608-26.668a14.958,14.958,0,0,1,14.791,2.791l32.094,29.018a.1.1,0,0,1-.034.166l-31.232,10.638a.1.1,0,1,1-.063-.186l31.074-10.585-31.971-28.906a14.758,14.758,0,0,0-14.594-2.751l-76.6,26.664-8.113,5.168c-4.583,6.109-5.128,13.211-1.456,19,4.9,7.724,15.653,11.144,27.4,8.712a.1.1,0,0,1,.116.077.1.1,0,0,1-.076.116,37.841,37.841,0,0,1-4.057.615" transform="translate(-240.421 -901.7)" fill="#3b232f"/>
          <path id="Path_873527" data-name="Path 873527" d="M815.941,1297.311l-10.757-13.4-20.234,2.2,6.21,17.446,23.246,1.528Z" transform="translate(-646.424 -1057.332)" fill="#ff7d6d"/>
          <path id="Path_873528" data-name="Path 873528" d="M813.915,1304.7h-.009l-23.246-1.528a.106.106,0,0,1-.093-.07l-6.209-17.446a.107.107,0,0,1,.01-.091.105.105,0,0,1,.078-.049l20.234-2.2a.106.106,0,0,1,.094.039l10.758,13.4a.105.105,0,0,1,.021.087l-1.535,7.774a.106.106,0,0,1-.1.085m-23.172-1.735,23.084,1.518,1.508-7.634-10.69-13.314-20.043,2.176Z" transform="translate(-645.931 -1056.839)" fill="#3b232f"/>
          <path id="Path_873529" data-name="Path 873529" d="M797.565,1351.4a.678.678,0,0,1,1.138-.087c1,1.334,13.879,3.509,17.108,2.035a.659.659,0,0,0,.182-.123.686.686,0,0,0,.109-.132c.633-1,4.146-6.249,8.9-6.746a.72.72,0,0,1,.445.1.658.658,0,0,1,.279.341c.372,1.033,1.459,3.457,3.677,4.242,0,0,16.149,4.961,19.062,12.989a.657.657,0,0,1-.088.615.684.684,0,0,1-.557.285l-51.877-.1a.677.677,0,0,1-.523-.249.663.663,0,0,1-.145-.332,21.766,21.766,0,0,1,2.292-12.833" transform="translate(-654.781 -1108.743)" fill="#008db4"/>
          <path id="Path_873530" data-name="Path 873530" d="M945.508,1362.994l-17.1-.067-14.917-9.7a.7.7,0,0,0,.109-.133c.633-1,4.146-6.249,8.9-6.746a.718.718,0,0,1,.445.1.657.657,0,0,1,.279.341c.372,1.033,1.459,3.457,3.677,4.242,0,0,14.776,4.544,18.6,11.968" transform="translate(-752.283 -1108.744)" fill="#fff"/>
          <path id="Path_873531" data-name="Path 873531" d="M896.133,1396.4a2.289,2.289,0,1,0,2.288-2.29,2.288,2.288,0,0,0-2.288,2.29" transform="translate(-737.986 -1148.08)" fill="#fff"/>
          <path id="Path_873532" data-name="Path 873532" d="M908.64,1398.3h-.035a.106.106,0,0,1-.106-.106.11.11,0,0,1,.106-.106,2.142,2.142,0,0,0,1.543-.64,2.183,2.183,0,0,0-1.545-3.726.106.106,0,0,1,0-.212h0a2.395,2.395,0,0,1,.037,4.789" transform="translate(-748.168 -1147.586)" fill="#3b232f"/>
          <path id="Path_873533" data-name="Path 873533" d="M795.155,1419.806a22.648,22.648,0,0,1,.15-4.446c7.214.56,24.986,3.811,24.986,3.811Z" transform="translate(-654.789 -1165.581)" fill="#fff"/>
          <path id="Path_873534" data-name="Path 873534" d="M838.868,1419.424v-1.032a1.88,1.88,0,0,1,1.879-1.881l3.658,0a16.384,16.384,0,0,1,2.783,2.945h.009c.02.027.037.056.057.084l.009.014a9.686,9.686,0,0,1,1.2,2.247.659.659,0,0,1-.089.615.681.681,0,0,1-.557.284l-51.877-.1a.679.679,0,0,1-.523-.248.672.672,0,0,1-.145-.333,20.406,20.406,0,0,1-.174-2.664Z" transform="translate(-654.784 -1166.528)" fill="#fff"/>
          <path id="Path_873535" data-name="Path 873535" d="M847.34,1422.31h-.015l-51.877-.1a.779.779,0,0,1-.772-.672,20.507,20.507,0,0,1-.175-2.678.106.106,0,0,1,.106-.106l43.661.073v-.926a1.988,1.988,0,0,1,1.985-1.987h3.658a.1.1,0,0,1,.068.025,16.548,16.548,0,0,1,2.783,2.94.1.1,0,0,1,.027.025l.033.048.025.037a9.882,9.882,0,0,1,1.226,2.286.768.768,0,0,1-.1.713.792.792,0,0,1-.629.328m-52.627-3.347a20.19,20.19,0,0,0,.173,2.544.569.569,0,0,0,.563.489l51.877.1a.574.574,0,0,0,.471-.241.549.549,0,0,0,.075-.517,9.61,9.61,0,0,0-1.191-2.222l-.05-.074a.1.1,0,0,1-.025-.023,16.257,16.257,0,0,0-2.735-2.9h-3.619a1.77,1.77,0,0,0-1.774,1.776v1.032a.107.107,0,0,1-.031.075.09.09,0,0,1-.075.031Z" transform="translate(-654.29 -1166.034)" fill="#3b232f"/>
          <path id="Path_873536" data-name="Path 873536" d="M847.359,1364.527h-.014l-51.877-.1a.781.781,0,0,1-.6-.288.768.768,0,0,1-.168-.385,22.026,22.026,0,0,1,2.3-12.9.779.779,0,0,1,.666-.412.771.771,0,0,1,.65.311c1,1.33,13.758,3.474,16.979,2a.56.56,0,0,0,.153-.1.605.605,0,0,0,.092-.112c.659-1.047,4.188-6.294,8.978-6.8a.829.829,0,0,1,.511.113.755.755,0,0,1,.324.395,9.177,9.177,0,0,0,1.133,2.188.106.106,0,0,1-.172.123,9.409,9.409,0,0,1-1.16-2.239.548.548,0,0,0-.234-.286.611.611,0,0,0-.38-.083c-4.693.491-8.172,5.665-8.821,6.7a.786.786,0,0,1-.125.153.752.752,0,0,1-.211.143c-3.265,1.491-16.22-.713-17.236-2.068a.56.56,0,0,0-.474-.227.569.569,0,0,0-.487.3,21.805,21.805,0,0,0-2.28,12.768.562.562,0,0,0,.122.28.569.569,0,0,0,.441.21l51.877.1a.567.567,0,0,0,.471-.241.55.55,0,0,0,.075-.517c-1.507-4.153-6.665-7.472-10.726-9.525a.106.106,0,1,1,.1-.189c4.1,2.07,9.3,5.423,10.83,9.642a.768.768,0,0,1-.1.712.793.793,0,0,1-.63.329" transform="translate(-654.31 -1108.252)" fill="#3b232f"/>
          <path id="Path_873537" data-name="Path 873537" d="M959.766,1373.069h-.018a.106.106,0,0,1-.088-.121,4.193,4.193,0,0,1,1.761-2.709,4.42,4.42,0,0,1,3.308-.817.106.106,0,1,1-.038.208,4.206,4.206,0,0,0-3.148.781,3.981,3.981,0,0,0-1.675,2.57.105.105,0,0,1-.1.089" transform="translate(-790.301 -1127.701)" fill="#3b232f"/>
          <path id="Path_873538" data-name="Path 873538" d="M988.263,1382.454a.109.109,0,0,1-.029,0,.106.106,0,0,1-.075-.13,4.367,4.367,0,0,1,2.279-2.891,2.9,2.9,0,0,1,2.281-.235.106.106,0,0,1-.082.2,2.734,2.734,0,0,0-2.106.23,4.158,4.158,0,0,0-2.168,2.756.106.106,0,0,1-.1.078" transform="translate(-813.769 -1135.683)" fill="#3b232f"/>
          <path id="Path_873539" data-name="Path 873539" d="M248.251,1139.141c-10.169,14.883,3.121,32.624,24.016,28.075s51.386-30.239,51.386-30.239l16.341,13.559,28.453-10.373-29.568-29.26a12.775,12.775,0,0,0-13.449-2.89l-69.785,26.015Z" transform="translate(-201.567 -911.811)" fill="#216102"/>
          <path id="Path_873540" data-name="Path 873540" d="M268.026,1167.466a25.875,25.875,0,0,1-11.173-1.257,19.575,19.575,0,0,1-9.8-7.414c-4.093-6.074-3.869-13.6.6-20.144a.094.094,0,0,1,.025-.025l7.394-5.113a.1.1,0,0,1,.022-.011l69.785-26.016a12.915,12.915,0,0,1,13.553,2.912L368,1139.659a.1.1,0,0,1-.035.162l-28.453,10.373a.1.1,0,0,1-.1-.017l-16.278-13.506c-.756.631-8.167,6.785-17.8,13.366-9.345,6.384-22.754,14.487-33.563,16.84a31.932,31.932,0,0,1-3.748.588m-20.218-28.689c-4.411,6.467-4.631,13.908-.588,19.908,4.834,7.174,14.226,10.239,24.512,8,20.632-4.492,51.039-29.961,51.344-30.218a.1.1,0,0,1,.126,0l16.3,13.522,28.254-10.3L338.3,1110.539a12.718,12.718,0,0,0-13.346-2.868l-69.774,26.011Z" transform="translate(-201.054 -911.378)" fill="#3b232f"/>
          <path id="Path_873541" data-name="Path 873541" d="M282.921,898.326c-5.682-.693-10.632-.735-8.486,3.388s-1.576,4.53-6.528,5-6.768,8.427.561,10.714,12.989-2.634,13.7-6.463a9.981,9.981,0,0,0-1.569-7.784c-.883-1.152,2.958-3.014,2.958-3.014Z" transform="translate(-217.056 -739.502)" fill="#3b232f"/>
          <path id="Path_873542" data-name="Path 873542" d="M186.211,1012.294s-21.317,13.89-30.989,12.96-13.49-10.148-11.38-20.4,21.355-38.52,30.79-41.688l6.654-.637,7.364-.158,5.1.3c5.589,3.484,18.817,14.12,18.817,14.12l.629,21.116-22.209,9.525-5.079,2.514Z" transform="translate(-117.993 -792.538)" fill="#b1ec93"/>
          <path id="Path_873543" data-name="Path 873543" d="M157.034,1024.873a11.925,11.925,0,0,1-2.266.021,12.347,12.347,0,0,1-9.051-4.919c-2.8-3.788-3.677-9.472-2.415-15.595,1.008-4.9,6.1-14.355,12.665-23.537,7.141-9.985,13.941-16.8,18.19-18.225l.022,0,6.654-.636,7.371-.159,5.108.3a.1.1,0,0,1,.046.015c5.53,3.447,18.694,14.021,18.826,14.127a.1.1,0,0,1,.037.074l.629,21.115a.1.1,0,0,1-.059.093l-22.209,9.525-5.012,2.48.294,2.271a.1.1,0,0,1-.044.095c-.2.129-18.478,11.969-28.787,12.954m17.174-62.064c-4.212,1.422-10.97,8.2-18.082,18.149-6.552,9.162-11.629,18.591-12.632,23.462-1.25,6.069-.382,11.7,2.381,15.439a12.156,12.156,0,0,0,8.912,4.84c9.3.893,29.7-12.151,30.875-12.911l-.3-2.279a.1.1,0,0,1,.054-.1l5.079-2.514,22.153-9.5-.625-21c-.764-.613-13.36-10.706-18.751-14.072l-5.076-.3-7.356.158Z" transform="translate(-117.549 -792.081)" fill="#3b232f"/>
          <path id="Path_873544" data-name="Path 873544" d="M442,1015.026a.1.1,0,0,1-.092-.045c-.045-.07-4.472-7.122-1.313-14.8,1.731-3.787,1.033-6.583.143-8.263a9.218,9.218,0,0,0-6.668-4.573A.1.1,0,0,1,434,987.3l-3.893-6.222a.1.1,0,0,1,.167-.1l3.869,6.185a9.409,9.409,0,0,1,6.765,4.667c.911,1.719,1.626,4.578-.137,8.434-3.118,7.581,1.253,14.55,1.3,14.62a.1.1,0,0,1-.03.136.1.1,0,0,1-.044.015" transform="translate(-354.192 -807.813)" fill="#3b232f"/>
          <path id="Path_873545" data-name="Path 873545" d="M334.751,1163.061h0a1.487,1.487,0,0,1-2.039-.516L323.86,1147.7a1.487,1.487,0,1,1,2.555-1.524l8.852,14.845a1.487,1.487,0,0,1-.516,2.039" transform="translate(-266.533 -943.306)" fill="#3b232f"/>
          <path id="Path_873546" data-name="Path 873546" d="M356.981,1097.037l-.007-.024a1.017,1.017,0,0,0-1.133-.738l-4.526.68a5.716,5.716,0,0,0-1.428.41l-10.052,3.438-.3.147-10.286,6.651,6.963,11.39,4.549-6.309c.993.411,3.631.207,9.02-3.016l-.223.69a1.065,1.065,0,1,0,2.039.614l.517-1.859a.78.78,0,0,0-.32-.859l.112-.047a1.757,1.757,0,0,0,1.086-1.6.975.975,0,0,0-.782-.968l.19-.171a.976.976,0,0,0,.292-.966l-.176-.69a1.3,1.3,0,0,0-.876-.921l-.1-.031a1.3,1.3,0,0,0,.089-1.2l-.379-.877a.727.727,0,0,1,.438-.979s3.034-1.007,4.62-1.51a1.022,1.022,0,0,0,.705-.854,1.038,1.038,0,0,0-.03-.4" transform="translate(-271.142 -902.799)" fill="#ff7d6d"/>
          <path id="Path_873547" data-name="Path 873547" d="M335.76,1118.632h-.013a.1.1,0,0,1-.08-.047L328.7,1107.2a.1.1,0,0,1,.031-.134l10.286-6.651.312-.153,10.063-3.443a5.762,5.762,0,0,1,1.446-.414l4.526-.68a1.115,1.115,0,0,1,1.242.81l.007.024h0a1.125,1.125,0,0,1-.741,1.371c-1.567.5-4.588,1.5-4.618,1.51a.629.629,0,0,0-.379.846l.38.877a.828.828,0,0,0,.41,1.423,1.406,1.406,0,0,1,.482.747l.176.691a1.073,1.073,0,0,1-.322,1.063l-.059.053a1.073,1.073,0,0,1,.684,1.014,1.854,1.854,0,0,1-1.108,1.674.88.88,0,0,1,.226.858l-.518,1.859a1.163,1.163,0,1,1-2.227-.67l.143-.442c-5.7,3.371-8.023,3.2-8.811,2.917l-4.5,6.247a.1.1,0,0,1-.07.04m-6.839-11.457,6.836,11.182,4.462-6.189a.1.1,0,0,1,.117-.033c.541.224,2.782.669,8.932-3.009a.1.1,0,0,1,.144.115l-.223.69a.966.966,0,1,0,1.85.557l.518-1.859a.682.682,0,0,0-.28-.751.1.1,0,0,1-.043-.091.1.1,0,0,1,.06-.082l.112-.046a1.657,1.657,0,0,0,1.025-1.512.876.876,0,0,0-.7-.871.1.1,0,0,1-.046-.17l.19-.171a.868.868,0,0,0,.273-.48.882.882,0,0,0-.01-.388l-.176-.69a1.208,1.208,0,0,0-.414-.642,1.182,1.182,0,0,0-.4-.21l-.1-.031a.1.1,0,0,1-.063-.06.1.1,0,0,1,.009-.086,1.2,1.2,0,0,0,.083-1.112l-.379-.877a.825.825,0,0,1,.2-.935.814.814,0,0,1,.3-.176c.03-.01,3.052-1.013,4.621-1.511a.929.929,0,0,0,.611-1.132l-.007-.024a.919.919,0,0,0-1.024-.667l-4.526.68a5.612,5.612,0,0,0-1.4.4l-10.059,3.441-.291.143Z" transform="translate(-270.683 -902.341)" fill="#451d26"/>
          <path id="Path_873548" data-name="Path 873548" d="M366.013,935.174a7.031,7.031,0,0,1,1.129-3.187s-2.676-2.84-3.661-2.631c-.147,2.863-4.832,5.976-4.832,5.976,7.993,5.417,11.2,4.975,7.364-.158" transform="translate(-295.356 -765.337)" fill="#ff7d6d"/>
          <path id="Path_873549" data-name="Path 873549" d="M366.386,938.844c-1.4.134-4.354-1.245-8.252-3.887a.1.1,0,0,1,0-.163c.046-.031,4.645-3.119,4.788-5.9A.1.1,0,0,1,363,928.8c1.013-.214,3.476,2.365,3.753,2.659a.1.1,0,0,1,.009.124,7.007,7.007,0,0,0-1.109,3.1c1.46,1.963,1.941,3.3,1.39,3.881a1.011,1.011,0,0,1-.658.276m-8.021-3.968c5.355,3.611,7.945,4.176,8.537,3.557.464-.486-.056-1.819-1.427-3.656a.1.1,0,0,1-.019-.064,7.007,7.007,0,0,1,1.1-3.172c-.752-.789-2.648-2.588-3.443-2.554-.211,2.629-4,5.373-4.749,5.889" transform="translate(-294.896 -764.881)" fill="#3b232f"/>
          <path id="Path_873550" data-name="Path 873550" d="M371.41,881.6a23.327,23.327,0,0,0-1.3-3.61c-.823-1.757-.3-4.731,2.422-5.113.752-.884,2.6-1.115,3.949-.976s2.727-.729,3.657-.428,2.924,3.825,1.267,6.18-7.584,4.6-10,3.948" transform="translate(-304.503 -717.629)" fill="#3b232f"/>
          <path id="Path_873551" data-name="Path 873551" d="M389.162,894.164c-2.464.725-5.068-1.625-6.189-3.97a2.732,2.732,0,0,1-.06-2.048c.737-.041,2.353-1.956,2.134-3.525.654-.089,1.389-1.5,1.227-2.6,1.8-.169,5.573.908,5.449,4.29s.23,6.731-2.561,7.853" transform="translate(-315.217 -726.351)" fill="#ff7d6d"/>
          <path id="Path_873552" data-name="Path 873552" d="M395.8,893.916a5.265,5.265,0,0,1-4.214-2,.1.1,0,1,1,.144-.133c1.477,1.6,3.171,2.262,4.645,1.828,2.358-.949,2.4-3.5,2.458-6.446.008-.435.016-.875.032-1.316a3.475,3.475,0,0,0-1.114-2.766,5.924,5.924,0,0,0-4.228-1.423.1.1,0,0,1-.018-.2h0a6.111,6.111,0,0,1,4.381,1.476,3.664,3.664,0,0,1,1.175,2.916c-.016.44-.024.879-.032,1.313-.053,2.894-.1,5.627-2.591,6.628a3.4,3.4,0,0,1-.64.124" transform="translate(-322.456 -725.888)" fill="#3b232f"/>
          <path id="Path_873553" data-name="Path 873553" d="M393.041,919.075a1.5,1.5,0,1,1-1.407-1.436,1.425,1.425,0,0,1,1.407,1.436" transform="translate(-321.221 -755.695)" fill="#ff6a58"/>
          <path id="Path_873554" data-name="Path 873554" d="M398.269,906.99a1.013,1.013,0,0,1-.062-.447l.14.121a1.139,1.139,0,0,1,1.079-.457c.567.068,1.175.554,1.3,1.685a9.645,9.645,0,0,1-2.456-.9" transform="translate(-327.93 -746.274)" fill="#3b232f"/>
          <path id="Path_873555" data-name="Path 873555" d="M398.576,907.621c.724-.991,1.939-1,2.481.931a1.561,1.561,0,0,1-2.481-.931" transform="translate(-328.236 -746.905)" fill="#fff"/>
        </g>
      </g>
      <g id="Group_1099260" data-name="Group 1099260" transform="translate(70.34 160.057)">
        <g id="Group_1099259" data-name="Group 1099259" transform="translate(0)" clip-path="url(#clip-path-6)">
          <path id="Path_873556" data-name="Path 873556" d="M404.9,910.31a.849.849,0,1,1-.787-.973.886.886,0,0,1,.787.973" transform="translate(-402.388 -908.917)" fill="#3b232f"/>
        </g>
      </g>
      <g id="Group_1099262" data-name="Group 1099262" transform="translate(0 0)">
        <g id="Group_1099261" data-name="Group 1099261" clip-path="url(#clip-path)">
          <path id="Path_873558" data-name="Path 873558" d="M422.579,908.611a1.221,1.221,0,0,0,.1-.429l-.122.1c-.219-.4-.445-.565-.785-.562-.447.005-.969.411-1.189,1.5a6.493,6.493,0,0,0,2-.61" transform="translate(-346.357 -747.532)" fill="#3b232f"/>
          <path id="Path_873559" data-name="Path 873559" d="M422.475,909.188c-.452-1.042-1.391-1.185-2.021.635a1.15,1.15,0,0,0,2.021-.635" transform="translate(-346.254 -748.108)" fill="#fff"/>
        </g>
      </g>
      <g id="Group_1099264" data-name="Group 1099264" transform="translate(74.201 160.315)">
        <g id="Group_1099263" data-name="Group 1099263" transform="translate(0)" clip-path="url(#clip-path-8)">
          <path id="Path_873560" data-name="Path 873560" d="M426.428,911.051a.849.849,0,1,1-.787-.973.887.887,0,0,1,.787.973" transform="translate(-423.981 -909.785)" fill="#3b232f"/>
        </g>
      </g>
      <g id="Group_1099266" data-name="Group 1099266" transform="translate(0 0)">
        <g id="Group_1099265" data-name="Group 1099265" clip-path="url(#clip-path)">
          <path id="Path_873562" data-name="Path 873562" d="M417.088,910.549a1.825,1.825,0,0,0-.06,1.468c.2.449.4.6.067.837-.789.2-1.054-.017-1.058-.333s.614-1.9,1.052-1.973" transform="translate(-342.615 -749.859)" fill="#ff7d6d"/>
          <path id="Path_873563" data-name="Path 873563" d="M417.035,918.538a.6.6,0,0,0-.373.408c-.057.1-.438-.058-.592.2.029.291.3.483,1.053.288.33-.237.134-.389-.067-.838-.008-.018-.013-.039-.02-.058" transform="translate(-342.642 -756.438)" fill="#ff6a58"/>
          <path id="Path_873564" data-name="Path 873564" d="M420.695,912.494a.1.1,0,0,1-.067-.178c.193-.139.164-.2.022-.47-.037-.072-.079-.154-.121-.248a1.928,1.928,0,0,1,.068-1.562.1.1,0,1,1,.164.109,1.726,1.726,0,0,0-.052,1.373c.041.091.081.169.117.238.139.269.248.482-.082.72a.1.1,0,0,1-.048.018" transform="translate(-346.206 -749.4)" fill="#3b232f"/>
          <path id="Path_873565" data-name="Path 873565" d="M373.149,912.583c-1.156-1.907-2.941-2.018-3.234-.784s.3,3.215,3.153,2.787c.333-1.534.081-2,.081-2" transform="translate(-304.578 -750.221)" fill="#ff7d6d"/>
          <path id="Path_873566" data-name="Path 873566" d="M372.319,914.265a2.76,2.76,0,0,1-2.443-.723,2.484,2.484,0,0,1-.517-2.222,1.087,1.087,0,0,1,.914-.87c.637-.1,1.675.265,2.5,1.625a.1.1,0,1,1-.168.1c-.724-1.2-1.677-1.632-2.3-1.533a.888.888,0,0,0-.753.721,2.318,2.318,0,0,0,.471,2.044,2.8,2.8,0,0,0,2.572.624.1.1,0,0,1,.112.083.1.1,0,0,1-.083.112q-.157.023-.3.037" transform="translate(-304.117 -749.765)" fill="#3b232f"/>
          <path id="Path_873567" data-name="Path 873567" d="M376.487,917.594c-.023-1.592-1.22-2.386-1.94-1.906a2.8,2.8,0,0,1,1.94,1.906" transform="translate(-308.448 -753.976)" fill="#ff6a58"/>
          <path id="Path_873568" data-name="Path 873568" d="M376.039,917.23h-.008a.1.1,0,0,1-.1-.1,2.016,2.016,0,0,0-.924-1.829.828.828,0,0,0-.863,0,.1.1,0,1,1-.109-.164,1.018,1.018,0,0,1,1.064-.014,2.208,2.208,0,0,1,1.03,2,.1.1,0,0,1-.089.1" transform="translate(-307.99 -753.514)" fill="#3b232f"/>
          <path id="Path_873569" data-name="Path 873569" d="M378.278,921.308a.1.1,0,0,1-.08-.03.668.668,0,0,1-.018-.925.724.724,0,0,1,1-.1.1.1,0,1,1-.115.159.526.526,0,0,0-.736.068.471.471,0,0,0,.011.66.1.1,0,0,1-.061.166" transform="translate(-311.293 -757.723)" fill="#3b232f"/>
          <path id="Path_873570" data-name="Path 873570" d="M413.251,940.927a1.5,1.5,0,0,1-1.181-.467l.148-.13a1.293,1.293,0,0,0,1.111.386.462.462,0,0,0,.372-.336l.189.055a.663.663,0,0,1-.518.473.986.986,0,0,1-.12.019" transform="translate(-339.349 -774.384)" fill="#ff6a58"/>
          <path id="Path_873571" data-name="Path 873571" d="M396.5,911.518a.1.1,0,0,1-.025-.2l.3-.049a.1.1,0,0,1,.031.194l-.3.048H396.5" transform="translate(-326.436 -750.455)" fill="#3b232f"/>
          <path id="Path_873572" data-name="Path 873572" d="M397.268,913.156a.1.1,0,0,1-.054-.185l.222-.114a.1.1,0,0,1,.09.175l-.222.114a.105.105,0,0,1-.036.011" transform="translate(-327.07 -751.75)" fill="#3b232f"/>
          <path id="Path_873573" data-name="Path 873573" d="M401.828,900.209c-.027.184-.772-.233-1.623-.359s-1.487.089-1.46-.1a1.58,1.58,0,0,1,1.558-.572,2.036,2.036,0,0,1,1.524,1.027" transform="translate(-328.375 -740.481)" fill="#3b232f"/>
          <path id="Path_873574" data-name="Path 873574" d="M424.892,901.483c-.015.167-.229-.19-.723-.235s-1.083.24-1.068.073a1.382,1.382,0,0,1,1.123-.678c.495.045.684.673.669.84" transform="translate(-348.433 -741.698)" fill="#3b232f"/>
          <path id="Path_873575" data-name="Path 873575" d="M407.809,927.831c2.5-.763,3.511-.5,2.769.325.133,1.424-1.462,1.638-2.769-.325" transform="translate(-335.84 -763.716)" fill="#59394b"/>
          <path id="Path_873576" data-name="Path 873576" d="M409.9,929.951a7.233,7.233,0,0,1-2.581-.365.1.1,0,1,1,.057-.188,6.177,6.177,0,0,0,2.715.324.1.1,0,1,1,.05.19,1.562,1.562,0,0,1-.242.039" transform="translate(-335.381 -765.378)" fill="#3b232f"/>
          <path id="Path_873577" data-name="Path 873577" d="M530.564,987.642l-30.481,11.2a.951.951,0,0,1-1.275-.8l-2.028-21.2a1.315,1.315,0,0,1,.855-1.359L527.8,964.4a1.06,1.06,0,0,1,1.421.894l2.033,21.256a1.055,1.055,0,0,1-.686,1.09" transform="translate(-409.105 -794.153)" fill="#3b232f"/>
          <path id="Path_873578" data-name="Path 873578" d="M540.441,984.069l-30.481,11.2a.951.951,0,0,1-1.275-.8l-2.028-21.2a1.314,1.314,0,0,1,.855-1.359l30.16-11.086a1.06,1.06,0,0,1,1.421.894l2.033,21.256a1.055,1.055,0,0,1-.686,1.09" transform="translate(-417.239 -791.21)" fill="#93c4db"/>
          <path id="Path_873579" data-name="Path 873579" d="M509.087,994.9a1.068,1.068,0,0,1-1.061-.966L506,972.74a1.431,1.431,0,0,1,.931-1.48l30.16-11.086a1.177,1.177,0,0,1,1.577.993l2.033,21.256a1.171,1.171,0,0,1-.762,1.211l-.04-.11.04.11-30.481,11.2a1.072,1.072,0,0,1-.37.066M537.5,960.336a.946.946,0,0,0-.326.058l-30.16,11.086a1.2,1.2,0,0,0-.779,1.239l2.028,21.2a.834.834,0,0,0,1.118.7l30.481-11.2a.936.936,0,0,0,.61-.97l-2.033-21.256a.944.944,0,0,0-.938-.854" transform="translate(-416.695 -790.666)" fill="#3b232f"/>
          <path id="Path_873580" data-name="Path 873580" d="M437.835,1141.387l-30.481,11.2a.95.95,0,0,1-1.275-.8l-.062-.647a1.315,1.315,0,0,1,.855-1.359l30.16-11.086a1.06,1.06,0,0,1,1.421.894l.068.705a1.055,1.055,0,0,1-.686,1.09" transform="translate(-334.359 -937.689)" fill="#3b232f"/>
          <path id="Path_873581" data-name="Path 873581" d="M548.941,1100.4l-30.481,11.2a.951.951,0,0,1-1.275-.8l-.062-.646a1.315,1.315,0,0,1,.855-1.359l30.16-11.086a1.06,1.06,0,0,1,1.421.894l.068.705a1.056,1.056,0,0,1-.686,1.091" transform="translate(-425.858 -903.933)" fill="#93c4db"/>
          <path id="Path_873582" data-name="Path 873582" d="M517.587,1111.232a1.068,1.068,0,0,1-1.062-.967l-.062-.647a1.432,1.432,0,0,1,.931-1.48l30.16-11.085a1.176,1.176,0,0,1,1.577.992l.068.705a1.171,1.171,0,0,1-.762,1.211l-30.481,11.2a1.075,1.075,0,0,1-.37.066m30.375-14.018a.947.947,0,0,0-.327.059l-30.16,11.086a1.2,1.2,0,0,0-.779,1.239l.062.647a.834.834,0,0,0,1.118.7l30.481-11.2a.937.937,0,0,0,.61-.97l-.067-.706a.944.944,0,0,0-.938-.854" transform="translate(-425.314 -903.389)" fill="#3b232f"/>
          <path id="Path_873583" data-name="Path 873583" d="M602.271,1048.907a1.9,1.9,0,1,1-2.07-1.708,1.9,1.9,0,0,1,2.07,1.708" transform="translate(-492.865 -862.386)" fill="#fff"/>
          <path id="Path_873584" data-name="Path 873584" d="M447.54,1131.891a.1.1,0,0,1-.04,0,4.784,4.784,0,0,0-1.585-.29.1.1,0,0,1-.1-.092.1.1,0,0,1,.092-.1,4.85,4.85,0,0,1,1.658.3.1.1,0,0,1-.022.191" transform="translate(-367.135 -931.733)" fill="#451d26"/>
          <path id="Path_873585" data-name="Path 873585" d="M451.557,1147.313a.094.094,0,0,1-.035,0,9.753,9.753,0,0,0-1.538-.362.094.094,0,0,1-.108-.083.1.1,0,0,1,.086-.113,7.741,7.741,0,0,1,1.61.367.1.1,0,0,1-.016.193" transform="translate(-370.483 -944.377)" fill="#451d26"/>
          <path id="Path_873586" data-name="Path 873586" d="M451.87,1161.461a.1.1,0,0,1-.057-.013,6.473,6.473,0,0,0-.976-.5.1.1,0,0,1-.073-.116.1.1,0,0,1,.111-.077,5.5,5.5,0,0,1,1.035.521.1.1,0,0,1-.039.184" transform="translate(-371.212 -955.908)" fill="#451d26"/>
          <path id="Path_873587" data-name="Path 873587" d="M445.141,1169.885a.1.1,0,0,1-.066-.017.1.1,0,0,1-.023-.137c.285-.4.449-.456.493-.463a.1.1,0,1,1,.031.194h0s-.124.044-.363.383a.1.1,0,0,1-.071.041" transform="translate(-366.495 -962.918)" fill="#451d26"/>
          <path id="Path_873588" data-name="Path 873588" d="M212.9,1155.735a.1.1,0,0,1-.051-.187l20.192-9.454a.1.1,0,0,1,.083.178l-20.192,9.453a.1.1,0,0,1-.032.009" transform="translate(-175.235 -943.828)" fill="#451d26"/>
          <path id="Path_873589" data-name="Path 873589" d="M219.265,1191.134h0l-2.46.132a.1.1,0,0,1-.1-.093.1.1,0,0,1,.093-.1l2.46-.132a.1.1,0,0,1,.015.2" transform="translate(-178.455 -980.765)" fill="#451d26"/>
          <path id="Path_873590" data-name="Path 873590" d="M322.971,981.118a.1.1,0,0,1-.047-.007.1.1,0,0,1-.053-.129c.844-2.026,3.062-10.972-2.44-14.479a.1.1,0,1,1,.106-.166c5.617,3.58,3.373,12.663,2.516,14.72a.1.1,0,0,1-.082.06" transform="translate(-263.844 -795.789)" fill="#3b232f"/>
          <path id="Path_873591" data-name="Path 873591" d="M286.294,1121.386a.1.1,0,0,1-.093-.15l5.863-9.4a.1.1,0,1,1,.167.1l-5.863,9.4a.1.1,0,0,1-.074.046" transform="translate(-235.681 -915.588)" fill="#451d26"/>
          <path id="Path_873592" data-name="Path 873592" d="M668.8,1256.049h-.013a8.589,8.589,0,0,1-4.448-1.765.1.1,0,1,1,.121-.155,8.54,8.54,0,0,0,3.9,1.674c-3.691-2.266-4.455-3.917-4.486-3.988a.1.1,0,0,1,.18-.079c.008.017.833,1.785,4.79,4.13a.1.1,0,0,1-.041.182" transform="translate(-546.704 -1030.786)" fill="#3b232f"/>
        </g>
      </g>
    </g>
    <path id="Path_874041" data-name="Path 874041" d="M9,0H150a9,9,0,0,1,9,9V134a9,9,0,0,1-9,9H9a9,9,0,0,1-9-9V9A9,9,0,0,1,9,0Z" transform="translate(-8500 -9272.367)" fill="#fff"/>
    <path id="Path_874042" data-name="Path 874042" d="M9,0H150a9,9,0,0,1,9,9V134a9,9,0,0,1-9,9H9a9,9,0,0,1-9-9V9A9,9,0,0,1,9,0Z" transform="translate(-8500 -9118.367)" fill="#fff"/>
    <path id="Path_874043" data-name="Path 874043" d="M9,0H150a9,9,0,0,1,9,9V134a9,9,0,0,1-9,9H9a9,9,0,0,1-9-9V9A9,9,0,0,1,9,0Z" transform="translate(-8500 -8964.367)" fill="#fff"/>
    <path id="Path_874044" data-name="Path 874044" d="M9,0H150a9,9,0,0,1,9,9V134a9,9,0,0,1-9,9H9a9,9,0,0,1-9-9V9A9,9,0,0,1,9,0Z" transform="translate(-8500 -8810.367)" fill="#fff"/>
    <path id="Path_874045" data-name="Path 874045" d="M26.465,12.875H22.707L22.051,15h-2.93L23.293,3.625h2.578L30.074,15H27.129Zm-3.1-2.117h2.445L24.582,6.813Zm9.461-4.211.086.992a2.867,2.867,0,0,1,2.414-1.148A2.412,2.412,0,0,1,37.3,7.18a3.757,3.757,0,0,1,.676,2.375V15H35.332V9.664a1.426,1.426,0,0,0-.258-.941,1.193,1.193,0,0,0-.937-.3,1.256,1.256,0,0,0-1.148.609V15H30.355V6.547Zm9.672-2.1v2.1h1.391V8.375H42.5v3.867a.987.987,0,0,0,.172.664.922.922,0,0,0,.68.188A3.862,3.862,0,0,0,44,13.047V14.93a4.859,4.859,0,0,1-1.484.227,2.758,2.758,0,0,1-2.008-.641,2.626,2.626,0,0,1-.648-1.945v-4.2H38.785V6.547h1.078v-2.1Zm6.516,10.711A4.345,4.345,0,0,1,45.863,14a4.006,4.006,0,0,1-1.2-3.02v-.219a5.191,5.191,0,0,1,.48-2.289,3.516,3.516,0,0,1,1.4-1.535,4.233,4.233,0,0,1,2.188-.543A3.659,3.659,0,0,1,51.543,7.5a4.344,4.344,0,0,1,1.031,3.082V11.6H47.34a1.9,1.9,0,0,0,.617,1.117,1.836,1.836,0,0,0,1.234.406,2.366,2.366,0,0,0,1.953-.875l1.2,1.422a3.363,3.363,0,0,1-1.395,1.082A4.713,4.713,0,0,1,49.012,15.156Zm-.3-6.734q-1.156,0-1.375,1.531H50v-.2a1.3,1.3,0,0,0-.32-.98A1.275,1.275,0,0,0,48.715,8.422Zm9.344,4.2a.608.608,0,0,0-.352-.539,5.348,5.348,0,0,0-1.336-.422,6.092,6.092,0,0,1-1.625-.574,2.722,2.722,0,0,1-.977-.863,2.061,2.061,0,0,1-.336-1.164,2.336,2.336,0,0,1,.961-1.918,3.958,3.958,0,0,1,2.516-.754,4.386,4.386,0,0,1,2.688.758,2.37,2.37,0,0,1,1.016,1.992H57.973q0-1.016-1.07-1.016a1.061,1.061,0,0,0-.7.23.714.714,0,0,0-.281.574.655.655,0,0,0,.344.57,3.248,3.248,0,0,0,1.1.359,9.485,9.485,0,0,1,1.324.336A2.406,2.406,0,0,1,60.6,12.547,2.214,2.214,0,0,1,59.57,14.43a4.505,4.505,0,0,1-2.66.727,4.6,4.6,0,0,1-1.937-.391A3.24,3.24,0,0,1,53.645,13.7a2.406,2.406,0,0,1-.477-1.414h2.461a1.017,1.017,0,0,0,.391.855,1.607,1.607,0,0,0,.961.27,1.264,1.264,0,0,0,.809-.219A.7.7,0,0,0,58.059,12.625Zm7.422-1.914a5.164,5.164,0,0,1,.867-3.164A2.854,2.854,0,0,1,68.77,6.391a2.428,2.428,0,0,1,1.906.891V3h2.641V15H70.949l-.133-.906a2.493,2.493,0,0,1-2.062,1.063A2.849,2.849,0,0,1,66.363,14,5.327,5.327,0,0,1,65.48,10.711Zm2.633.164q0,2.25,1.313,2.25a1.3,1.3,0,0,0,1.25-.734V9.172a1.261,1.261,0,0,0-1.234-.75q-1.219,0-1.32,1.969ZM78.9,15.156A4.345,4.345,0,0,1,75.754,14a4.006,4.006,0,0,1-1.2-3.02v-.219a5.191,5.191,0,0,1,.48-2.289,3.516,3.516,0,0,1,1.4-1.535,4.233,4.233,0,0,1,2.188-.543A3.659,3.659,0,0,1,81.434,7.5a4.344,4.344,0,0,1,1.031,3.082V11.6H77.23a1.9,1.9,0,0,0,.617,1.117,1.836,1.836,0,0,0,1.234.406,2.366,2.366,0,0,0,1.953-.875l1.2,1.422a3.363,3.363,0,0,1-1.395,1.082A4.713,4.713,0,0,1,78.9,15.156Zm-.3-6.734q-1.156,0-1.375,1.531h2.656v-.2a1.3,1.3,0,0,0-.32-.98A1.275,1.275,0,0,0,78.605,8.422ZM90.285,15H87.645V6.547h2.641Zm-2.8-10.633a1.175,1.175,0,0,1,.406-.922,1.727,1.727,0,0,1,2.109,0,1.175,1.175,0,0,1,.406.922A1.175,1.175,0,0,1,90,5.289a1.727,1.727,0,0,1-2.109,0A1.175,1.175,0,0,1,87.488,4.367Zm6.836,2.18.086.992a2.867,2.867,0,0,1,2.414-1.148A2.412,2.412,0,0,1,98.8,7.18a3.757,3.757,0,0,1,.676,2.375V15H96.832V9.664a1.426,1.426,0,0,0-.258-.941,1.193,1.193,0,0,0-.937-.3,1.256,1.256,0,0,0-1.148.609V15H91.855V6.547ZM103.707,15h-2.641V6.547h2.641Zm-2.8-10.633a1.175,1.175,0,0,1,.406-.922,1.727,1.727,0,0,1,2.109,0,1.175,1.175,0,0,1,.406.922,1.175,1.175,0,0,1-.406.922,1.727,1.727,0,0,1-2.109,0A1.175,1.175,0,0,1,100.91,4.367Zm7.992,8.758a1.171,1.171,0,0,0,.859-.3,1.1,1.1,0,0,0,.3-.84h2.469a2.922,2.922,0,0,1-1,2.281,3.705,3.705,0,0,1-2.566.891A3.751,3.751,0,0,1,106.059,14,4.556,4.556,0,0,1,105,10.8v-.109a5.149,5.149,0,0,1,.473-2.262,3.441,3.441,0,0,1,1.363-1.508,4.065,4.065,0,0,1,2.109-.527,3.658,3.658,0,0,1,2.617.914,3.242,3.242,0,0,1,.969,2.477h-2.469a1.445,1.445,0,0,0-.32-1.008,1.106,1.106,0,0,0-.859-.352q-1.023,0-1.2,1.3a9.206,9.206,0,0,0-.055,1.141,3.616,3.616,0,0,0,.3,1.766A1.055,1.055,0,0,0,108.9,13.125ZM116.418,15h-2.641V6.547h2.641Zm-2.8-10.633a1.175,1.175,0,0,1,.406-.922,1.727,1.727,0,0,1,2.109,0,1.175,1.175,0,0,1,.406.922,1.175,1.175,0,0,1-.406.922,1.727,1.727,0,0,1-2.109,0A1.175,1.175,0,0,1,113.621,4.367ZM122.8,15a2.973,2.973,0,0,1-.25-.758,2.448,2.448,0,0,1-2.031.914,3,3,0,0,1-2.031-.723,2.3,2.3,0,0,1-.836-1.816,2.364,2.364,0,0,1,1.016-2.078,5.174,5.174,0,0,1,2.953-.7h.813V9.388q0-1.17-1.008-1.17a.824.824,0,0,0-.937.926h-2.633a2.36,2.36,0,0,1,1.043-1.99,4.383,4.383,0,0,1,2.66-.765,3.843,3.843,0,0,1,2.555.789,2.743,2.743,0,0,1,.961,2.164v3.742a3.832,3.832,0,0,0,.359,1.781V15Zm-1.648-1.719a1.469,1.469,0,0,0,.816-.211,1.322,1.322,0,0,0,.465-.477V11.242h-.766q-1.375,0-1.375,1.234a.754.754,0,0,0,.242.582A.876.876,0,0,0,121.152,13.281ZM131.645,8.93l-.867-.062a1.558,1.558,0,0,0-1.594.781V15h-2.633V6.547h2.469l.086,1.086a2.039,2.039,0,0,1,1.852-1.242,2.567,2.567,0,0,1,.734.094ZM53.484,40.156A4.345,4.345,0,0,1,50.336,39a4.006,4.006,0,0,1-1.2-3.02v-.219a5.191,5.191,0,0,1,.48-2.289,3.516,3.516,0,0,1,1.4-1.535,4.233,4.233,0,0,1,2.188-.543A3.659,3.659,0,0,1,56.016,32.5a4.344,4.344,0,0,1,1.031,3.082V36.6H51.813a1.9,1.9,0,0,0,.617,1.117,1.836,1.836,0,0,0,1.234.406,2.366,2.366,0,0,0,1.953-.875l1.2,1.422a3.363,3.363,0,0,1-1.395,1.082A4.713,4.713,0,0,1,53.484,40.156Zm-.3-6.734q-1.156,0-1.375,1.531h2.656v-.2a1.3,1.3,0,0,0-.32-.98A1.275,1.275,0,0,0,53.188,33.422ZM60.883,40H58.242V28h2.641Zm9.18-1.875a1.171,1.171,0,0,0,.859-.3,1.1,1.1,0,0,0,.3-.84h2.469a2.923,2.923,0,0,1-1,2.281,3.705,3.705,0,0,1-2.566.891A3.751,3.751,0,0,1,67.219,39a4.556,4.556,0,0,1-1.062-3.2v-.109a5.149,5.149,0,0,1,.473-2.262,3.441,3.441,0,0,1,1.363-1.508,4.065,4.065,0,0,1,2.109-.527,3.658,3.658,0,0,1,2.617.914,3.242,3.242,0,0,1,.969,2.477H71.219a1.445,1.445,0,0,0-.32-1.008,1.106,1.106,0,0,0-.859-.352q-1.023,0-1.2,1.3a9.206,9.206,0,0,0-.055,1.141,3.616,3.616,0,0,0,.3,1.766A1.055,1.055,0,0,0,70.063,38.125Zm9.773.961a2.714,2.714,0,0,1-2.258,1.07,2.662,2.662,0,0,1-2.105-.809,3.4,3.4,0,0,1-.715-2.324V31.547h2.633v5.492a.946.946,0,0,0,1.055,1.086,1.376,1.376,0,0,0,1.289-.648v-5.93h2.648V40H79.914Zm9.1-5.156-.867-.062a1.558,1.558,0,0,0-1.594.781V40H83.844V31.547h2.469l.086,1.086a2.039,2.039,0,0,1,1.852-1.242,2.567,2.567,0,0,1,.734.094Zm5.375,3.7a.608.608,0,0,0-.352-.539,5.347,5.347,0,0,0-1.336-.422A6.092,6.092,0,0,1,91,36.09a2.722,2.722,0,0,1-.977-.863,2.061,2.061,0,0,1-.336-1.164,2.336,2.336,0,0,1,.961-1.918,3.958,3.958,0,0,1,2.516-.754,4.386,4.386,0,0,1,2.688.758,2.37,2.37,0,0,1,1.016,1.992H94.227q0-1.016-1.07-1.016a1.061,1.061,0,0,0-.7.23.714.714,0,0,0-.281.574.655.655,0,0,0,.344.57,3.248,3.248,0,0,0,1.1.359,9.486,9.486,0,0,1,1.324.336,2.406,2.406,0,0,1,1.906,2.352,2.214,2.214,0,0,1-1.027,1.883,4.505,4.505,0,0,1-2.66.727,4.6,4.6,0,0,1-1.937-.391A3.24,3.24,0,0,1,89.9,38.7a2.406,2.406,0,0,1-.477-1.414h2.461a1.017,1.017,0,0,0,.391.855,1.607,1.607,0,0,0,.961.27,1.264,1.264,0,0,0,.809-.219A.7.7,0,0,0,94.313,37.625ZM97.75,35.7a4.989,4.989,0,0,1,.492-2.254,3.52,3.52,0,0,1,1.414-1.52,4.259,4.259,0,0,1,2.164-.531,3.887,3.887,0,0,1,2.992,1.176,4.512,4.512,0,0,1,1.094,3.2v.094a4.378,4.378,0,0,1-1.1,3.137,3.9,3.9,0,0,1-2.973,1.16,3.942,3.942,0,0,1-2.9-1.082,4.232,4.232,0,0,1-1.18-2.934Zm2.633.164a3.145,3.145,0,0,0,.367,1.719,1.223,1.223,0,0,0,1.086.547q1.406,0,1.438-2.164V35.7q0-2.273-1.453-2.273-1.32,0-1.43,1.961Z" transform="translate(-8496 -9238.087)" fill="#12263f"/>
    <path id="Path_874046" data-name="Path 874046" d="M53.422,12.875H49.664L49.008,15h-2.93L50.25,3.625h2.578L57.031,15H54.086Zm-3.1-2.117h2.445L51.539,6.813ZM60.516,15H57.875V3h2.641ZM68.9,15H66.258V6.547H68.9ZM66.1,4.367a1.175,1.175,0,0,1,.406-.922,1.727,1.727,0,0,1,2.109,0,1.175,1.175,0,0,1,.406.922,1.175,1.175,0,0,1-.406.922,1.727,1.727,0,0,1-2.109,0A1.175,1.175,0,0,1,66.1,4.367Zm6.836,2.18.086.992a2.867,2.867,0,0,1,2.414-1.148,2.412,2.412,0,0,1,1.973.789,3.757,3.757,0,0,1,.676,2.375V15H75.445V9.664a1.426,1.426,0,0,0-.258-.941,1.193,1.193,0,0,0-.937-.3,1.256,1.256,0,0,0-1.148.609V15H70.469V6.547ZM82.32,15H79.68V6.547H82.32Zm-2.8-10.633a1.175,1.175,0,0,1,.406-.922,1.727,1.727,0,0,1,2.109,0,1.175,1.175,0,0,1,.406.922,1.175,1.175,0,0,1-.406.922,1.727,1.727,0,0,1-2.109,0A1.175,1.175,0,0,1,79.523,4.367Zm7.992,8.758a1.171,1.171,0,0,0,.859-.3,1.1,1.1,0,0,0,.3-.84h2.469a2.922,2.922,0,0,1-1,2.281,3.705,3.705,0,0,1-2.566.891A3.751,3.751,0,0,1,84.672,14a4.556,4.556,0,0,1-1.062-3.2v-.109a5.149,5.149,0,0,1,.473-2.262,3.441,3.441,0,0,1,1.363-1.508,4.065,4.065,0,0,1,2.109-.527,3.658,3.658,0,0,1,2.617.914,3.242,3.242,0,0,1,.969,2.477H88.672a1.445,1.445,0,0,0-.32-1.008,1.106,1.106,0,0,0-.859-.352q-1.023,0-1.2,1.3a9.206,9.206,0,0,0-.055,1.141,3.616,3.616,0,0,0,.3,1.766A1.055,1.055,0,0,0,87.516,13.125ZM95.031,15H92.391V6.547h2.641Zm-2.8-10.633a1.175,1.175,0,0,1,.406-.922,1.727,1.727,0,0,1,2.109,0,1.175,1.175,0,0,1,.406.922,1.175,1.175,0,0,1-.406.922,1.727,1.727,0,0,1-2.109,0A1.175,1.175,0,0,1,92.234,4.367ZM96.32,10.7a4.989,4.989,0,0,1,.492-2.254,3.52,3.52,0,0,1,1.414-1.52,4.259,4.259,0,0,1,2.164-.531,3.887,3.887,0,0,1,2.992,1.176,4.512,4.512,0,0,1,1.094,3.2v.094a4.378,4.378,0,0,1-1.1,3.137,3.9,3.9,0,0,1-2.973,1.16,3.942,3.942,0,0,1-2.9-1.082,4.232,4.232,0,0,1-1.18-2.934Zm2.633.164a3.145,3.145,0,0,0,.367,1.719,1.223,1.223,0,0,0,1.086.547q1.406,0,1.438-2.164V10.7q0-2.273-1.453-2.273-1.32,0-1.43,1.961ZM42.57,35.711a5.164,5.164,0,0,1,.867-3.164,2.854,2.854,0,0,1,2.422-1.156,2.428,2.428,0,0,1,1.906.891V28h2.641V40H48.039l-.133-.906a2.493,2.493,0,0,1-2.062,1.063A2.849,2.849,0,0,1,43.453,39,5.327,5.327,0,0,1,42.57,35.711Zm2.633.164q0,2.25,1.313,2.25a1.3,1.3,0,0,0,1.25-.734V34.172a1.261,1.261,0,0,0-1.234-.75q-1.219,0-1.32,1.969Zm10.789,4.281A4.345,4.345,0,0,1,52.844,39a4.006,4.006,0,0,1-1.2-3.02v-.219a5.191,5.191,0,0,1,.48-2.289,3.516,3.516,0,0,1,1.4-1.535,4.233,4.233,0,0,1,2.188-.543A3.659,3.659,0,0,1,58.523,32.5a4.344,4.344,0,0,1,1.031,3.082V36.6H54.32a1.9,1.9,0,0,0,.617,1.117,1.836,1.836,0,0,0,1.234.406,2.366,2.366,0,0,0,1.953-.875l1.2,1.422a3.363,3.363,0,0,1-1.395,1.082A4.713,4.713,0,0,1,55.992,40.156Zm-.3-6.734q-1.156,0-1.375,1.531h2.656v-.2a1.3,1.3,0,0,0-.32-.98A1.275,1.275,0,0,0,55.7,33.422ZM63.391,40H60.75V28h2.641Zm9.18-1.875a1.171,1.171,0,0,0,.859-.3,1.1,1.1,0,0,0,.3-.84H76.2a2.923,2.923,0,0,1-1,2.281,3.705,3.705,0,0,1-2.566.891A3.751,3.751,0,0,1,69.727,39a4.556,4.556,0,0,1-1.062-3.2v-.109a5.149,5.149,0,0,1,.473-2.262A3.441,3.441,0,0,1,70.5,31.918a4.065,4.065,0,0,1,2.109-.527,3.658,3.658,0,0,1,2.617.914,3.242,3.242,0,0,1,.969,2.477H73.727a1.445,1.445,0,0,0-.32-1.008,1.106,1.106,0,0,0-.859-.352q-1.023,0-1.2,1.3a9.206,9.206,0,0,0-.055,1.141,3.616,3.616,0,0,0,.3,1.766A1.055,1.055,0,0,0,72.57,38.125Zm9.773.961a2.714,2.714,0,0,1-2.258,1.07,2.662,2.662,0,0,1-2.105-.809,3.4,3.4,0,0,1-.715-2.324V31.547H79.9v5.492a.946.946,0,0,0,1.055,1.086,1.376,1.376,0,0,0,1.289-.648v-5.93h2.648V40H82.422Zm9.1-5.156-.867-.062a1.558,1.558,0,0,0-1.594.781V40H86.352V31.547H88.82l.086,1.086a2.039,2.039,0,0,1,1.852-1.242,2.567,2.567,0,0,1,.734.094Zm5.375,3.7a.608.608,0,0,0-.352-.539,5.347,5.347,0,0,0-1.336-.422,6.092,6.092,0,0,1-1.625-.574,2.722,2.722,0,0,1-.977-.863,2.061,2.061,0,0,1-.336-1.164,2.336,2.336,0,0,1,.961-1.918,3.958,3.958,0,0,1,2.516-.754,4.386,4.386,0,0,1,2.688.758,2.37,2.37,0,0,1,1.016,1.992H96.734q0-1.016-1.07-1.016a1.061,1.061,0,0,0-.7.23.714.714,0,0,0-.281.574.655.655,0,0,0,.344.57,3.248,3.248,0,0,0,1.1.359,9.486,9.486,0,0,1,1.324.336,2.406,2.406,0,0,1,1.906,2.352,2.214,2.214,0,0,1-1.027,1.883,4.505,4.505,0,0,1-2.66.727,4.6,4.6,0,0,1-1.937-.391A3.24,3.24,0,0,1,92.406,38.7a2.406,2.406,0,0,1-.477-1.414h2.461a1.017,1.017,0,0,0,.391.855,1.607,1.607,0,0,0,.961.27,1.264,1.264,0,0,0,.809-.219A.7.7,0,0,0,96.82,37.625Zm3.438-1.93a4.989,4.989,0,0,1,.492-2.254,3.52,3.52,0,0,1,1.414-1.52,4.259,4.259,0,0,1,2.164-.531,3.887,3.887,0,0,1,2.992,1.176,4.512,4.512,0,0,1,1.094,3.2v.094a4.378,4.378,0,0,1-1.1,3.137,3.9,3.9,0,0,1-2.973,1.16,3.942,3.942,0,0,1-2.9-1.082,4.232,4.232,0,0,1-1.18-2.934Zm2.633.164a3.145,3.145,0,0,0,.367,1.719,1.223,1.223,0,0,0,1.086.547q1.406,0,1.438-2.164V35.7q0-2.273-1.453-2.273-1.32,0-1.43,1.961Z" transform="translate(-8496 -9093.381)" fill="#12263f"/>
    <path id="Path_874047" data-name="Path 874047" d="M47.9,15V3.625h3.664a5.39,5.39,0,0,1,2.711.684,4.805,4.805,0,0,1,1.879,1.93,5.826,5.826,0,0,1,.684,2.793v.523a5.86,5.86,0,0,1-.66,2.8,4.826,4.826,0,0,1-1.859,1.938A5.271,5.271,0,0,1,51.645,15Zm2.742-9.258v7.148H51.6a2.133,2.133,0,0,0,1.813-.84,4.116,4.116,0,0,0,.633-2.5V9.063a4.082,4.082,0,0,0-.633-2.484,2.17,2.17,0,0,0-1.844-.836ZM63.16,14.086a2.714,2.714,0,0,1-2.258,1.07,2.662,2.662,0,0,1-2.105-.809,3.4,3.4,0,0,1-.715-2.324V6.547h2.633v5.492a.946.946,0,0,0,1.055,1.086,1.376,1.376,0,0,0,1.289-.648V6.547h2.648V15H63.238Zm9.1-5.156-.867-.062a1.558,1.558,0,0,0-1.594.781V15H67.168V6.547h2.469l.086,1.086a2.039,2.039,0,0,1,1.852-1.242,2.567,2.567,0,0,1,.734.094ZM77.738,15a2.973,2.973,0,0,1-.25-.758,2.448,2.448,0,0,1-2.031.914,3,3,0,0,1-2.031-.723,2.3,2.3,0,0,1-.836-1.816,2.364,2.364,0,0,1,1.016-2.078,5.174,5.174,0,0,1,2.953-.7h.813V9.388q0-1.17-1.008-1.17a.824.824,0,0,0-.937.926H72.793a2.36,2.36,0,0,1,1.043-1.99,4.383,4.383,0,0,1,2.66-.765,3.843,3.843,0,0,1,2.555.789,2.743,2.743,0,0,1,.961,2.164v3.742a3.832,3.832,0,0,0,.359,1.781V15ZM76.09,13.281a1.469,1.469,0,0,0,.816-.211,1.322,1.322,0,0,0,.465-.477V11.242h-.766q-1.375,0-1.375,1.234a.754.754,0,0,0,.242.582A.876.876,0,0,0,76.09,13.281Zm7.8-6.734.086.992a2.867,2.867,0,0,1,2.414-1.148,2.412,2.412,0,0,1,1.973.789,3.757,3.757,0,0,1,.676,2.375V15H86.395V9.664a1.426,1.426,0,0,0-.258-.941,1.193,1.193,0,0,0-.937-.3,1.256,1.256,0,0,0-1.148.609V15H81.418V6.547Zm9.672-2.1v2.1h1.391V8.375H93.559v3.867a.987.987,0,0,0,.172.664.922.922,0,0,0,.68.188,3.862,3.862,0,0,0,.656-.047V14.93a4.859,4.859,0,0,1-1.484.227,2.758,2.758,0,0,1-2.008-.641,2.626,2.626,0,0,1-.648-1.945v-4.2H89.848V6.547h1.078v-2.1Zm6.516,10.711A4.345,4.345,0,0,1,96.926,14a4.006,4.006,0,0,1-1.2-3.02v-.219a5.191,5.191,0,0,1,.48-2.289,3.516,3.516,0,0,1,1.4-1.535,4.233,4.233,0,0,1,2.188-.543A3.659,3.659,0,0,1,102.605,7.5a4.344,4.344,0,0,1,1.031,3.082V11.6H98.4a1.9,1.9,0,0,0,.617,1.117,1.836,1.836,0,0,0,1.234.406,2.366,2.366,0,0,0,1.953-.875l1.2,1.422a3.363,3.363,0,0,1-1.395,1.082A4.713,4.713,0,0,1,100.074,15.156Zm-.3-6.734q-1.156,0-1.375,1.531h2.656v-.2a1.3,1.3,0,0,0-.32-.98A1.275,1.275,0,0,0,99.777,8.422ZM53.484,40.156A4.345,4.345,0,0,1,50.336,39a4.006,4.006,0,0,1-1.2-3.02v-.219a5.191,5.191,0,0,1,.48-2.289,3.516,3.516,0,0,1,1.4-1.535,4.233,4.233,0,0,1,2.188-.543A3.659,3.659,0,0,1,56.016,32.5a4.344,4.344,0,0,1,1.031,3.082V36.6H51.813a1.9,1.9,0,0,0,.617,1.117,1.836,1.836,0,0,0,1.234.406,2.366,2.366,0,0,0,1.953-.875l1.2,1.422a3.363,3.363,0,0,1-1.395,1.082A4.713,4.713,0,0,1,53.484,40.156Zm-.3-6.734q-1.156,0-1.375,1.531h2.656v-.2a1.3,1.3,0,0,0-.32-.98A1.275,1.275,0,0,0,53.188,33.422ZM60.883,40H58.242V28h2.641Zm9.18-1.875a1.171,1.171,0,0,0,.859-.3,1.1,1.1,0,0,0,.3-.84h2.469a2.923,2.923,0,0,1-1,2.281,3.705,3.705,0,0,1-2.566.891A3.751,3.751,0,0,1,67.219,39a4.556,4.556,0,0,1-1.062-3.2v-.109a5.149,5.149,0,0,1,.473-2.262,3.441,3.441,0,0,1,1.363-1.508,4.065,4.065,0,0,1,2.109-.527,3.658,3.658,0,0,1,2.617.914,3.242,3.242,0,0,1,.969,2.477H71.219a1.445,1.445,0,0,0-.32-1.008,1.106,1.106,0,0,0-.859-.352q-1.023,0-1.2,1.3a9.206,9.206,0,0,0-.055,1.141,3.616,3.616,0,0,0,.3,1.766A1.055,1.055,0,0,0,70.063,38.125Zm9.773.961a2.714,2.714,0,0,1-2.258,1.07,2.662,2.662,0,0,1-2.105-.809,3.4,3.4,0,0,1-.715-2.324V31.547h2.633v5.492a.946.946,0,0,0,1.055,1.086,1.376,1.376,0,0,0,1.289-.648v-5.93h2.648V40H79.914Zm9.1-5.156-.867-.062a1.558,1.558,0,0,0-1.594.781V40H83.844V31.547h2.469l.086,1.086a2.039,2.039,0,0,1,1.852-1.242,2.567,2.567,0,0,1,.734.094Zm5.375,3.7a.608.608,0,0,0-.352-.539,5.347,5.347,0,0,0-1.336-.422A6.092,6.092,0,0,1,91,36.09a2.722,2.722,0,0,1-.977-.863,2.061,2.061,0,0,1-.336-1.164,2.336,2.336,0,0,1,.961-1.918,3.958,3.958,0,0,1,2.516-.754,4.386,4.386,0,0,1,2.688.758,2.37,2.37,0,0,1,1.016,1.992H94.227q0-1.016-1.07-1.016a1.061,1.061,0,0,0-.7.23.714.714,0,0,0-.281.574.655.655,0,0,0,.344.57,3.248,3.248,0,0,0,1.1.359,9.486,9.486,0,0,1,1.324.336,2.406,2.406,0,0,1,1.906,2.352,2.214,2.214,0,0,1-1.027,1.883,4.505,4.505,0,0,1-2.66.727,4.6,4.6,0,0,1-1.937-.391A3.24,3.24,0,0,1,89.9,38.7a2.406,2.406,0,0,1-.477-1.414h2.461a1.017,1.017,0,0,0,.391.855,1.607,1.607,0,0,0,.961.27,1.264,1.264,0,0,0,.809-.219A.7.7,0,0,0,94.313,37.625ZM97.75,35.7a4.989,4.989,0,0,1,.492-2.254,3.52,3.52,0,0,1,1.414-1.52,4.259,4.259,0,0,1,2.164-.531,3.887,3.887,0,0,1,2.992,1.176,4.512,4.512,0,0,1,1.094,3.2v.094a4.378,4.378,0,0,1-1.1,3.137,3.9,3.9,0,0,1-2.973,1.16,3.942,3.942,0,0,1-2.9-1.082,4.232,4.232,0,0,1-1.18-2.934Zm2.633.164a3.145,3.145,0,0,0,.367,1.719,1.223,1.223,0,0,0,1.086.547q1.406,0,1.438-2.164V35.7q0-2.273-1.453-2.273-1.32,0-1.43,1.961Z" transform="translate(-8496 -8939.381)" fill="#12263f"/>
    <path id="Path_874048" data-name="Path 874048" d="M43.543,12.875H39.785L39.129,15H36.2L40.371,3.625h2.578L47.152,15H44.207Zm-3.1-2.117h2.445L41.66,6.813ZM50.637,15H48V3h2.641Zm6.219,0V8.375H55.629V6.547h1.227V6.266A3.228,3.228,0,0,1,57.965,3.68a4.433,4.433,0,0,1,2.883-.844,10.23,10.23,0,0,1,2.75.453l-.359,2.078L62.8,5.25A6.962,6.962,0,0,0,61,5.023Q59.5,5.023,59.5,6.4v.148h1.656V8.375H59.5V15Zm7.953,0H62.16V6.547h2.648Zm4.023-8.453.086.992a2.867,2.867,0,0,1,2.414-1.148A2.412,2.412,0,0,1,73.3,7.18a3.757,3.757,0,0,1,.676,2.375V15H71.34V9.664a1.426,1.426,0,0,0-.258-.941,1.193,1.193,0,0,0-.937-.3A1.256,1.256,0,0,0,69,9.031V15H66.363V6.547ZM80.2,15a2.973,2.973,0,0,1-.25-.758,2.448,2.448,0,0,1-2.031.914,3,3,0,0,1-2.031-.723,2.3,2.3,0,0,1-.836-1.816,2.364,2.364,0,0,1,1.016-2.078,5.174,5.174,0,0,1,2.953-.7h.813V9.388q0-1.17-1.008-1.17a.824.824,0,0,0-.937.926H75.254A2.36,2.36,0,0,1,76.3,7.155a4.383,4.383,0,0,1,2.66-.765,3.843,3.843,0,0,1,2.555.789,2.743,2.743,0,0,1,.961,2.164v3.742a3.832,3.832,0,0,0,.359,1.781V15Zm-1.648-1.719a1.469,1.469,0,0,0,.816-.211,1.322,1.322,0,0,0,.465-.477V11.242h-.766q-1.375,0-1.375,1.234a.754.754,0,0,0,.242.582A.876.876,0,0,0,78.551,13.281ZM86.707,15H84.066V3h2.641Zm4.4,0H88.465V6.547h2.641Zm-2.8-10.633a1.175,1.175,0,0,1,.406-.922,1.727,1.727,0,0,1,2.109,0,1.175,1.175,0,0,1,.406.922,1.175,1.175,0,0,1-.406.922,1.727,1.727,0,0,1-2.109,0A1.175,1.175,0,0,1,88.309,4.367Zm7.523,8.6h3.852V15H92.5V13.531l3.75-4.953H92.668V6.547H99.6V7.969ZM105.723,15a2.973,2.973,0,0,1-.25-.758,2.448,2.448,0,0,1-2.031.914,3,3,0,0,1-2.031-.723,2.3,2.3,0,0,1-.836-1.816,2.364,2.364,0,0,1,1.016-2.078,5.174,5.174,0,0,1,2.953-.7h.813V9.388q0-1.17-1.008-1.17a.824.824,0,0,0-.937.926h-2.633a2.36,2.36,0,0,1,1.043-1.99,4.383,4.383,0,0,1,2.66-.765,3.843,3.843,0,0,1,2.555.789A2.743,2.743,0,0,1,108,9.344v3.742a3.832,3.832,0,0,0,.359,1.781V15Zm-1.648-1.719a1.469,1.469,0,0,0,.816-.211,1.322,1.322,0,0,0,.465-.477V11.242h-.766q-1.375,0-1.375,1.234a.754.754,0,0,0,.242.582A.876.876,0,0,0,104.074,13.281ZM114.566,8.93l-.867-.062a1.558,1.558,0,0,0-1.594.781V15h-2.633V6.547h2.469l.086,1.086a2.039,2.039,0,0,1,1.852-1.242,2.567,2.567,0,0,1,.734.094ZM53.484,40.156A4.345,4.345,0,0,1,50.336,39a4.006,4.006,0,0,1-1.2-3.02v-.219a5.191,5.191,0,0,1,.48-2.289,3.516,3.516,0,0,1,1.4-1.535,4.233,4.233,0,0,1,2.188-.543A3.659,3.659,0,0,1,56.016,32.5a4.344,4.344,0,0,1,1.031,3.082V36.6H51.813a1.9,1.9,0,0,0,.617,1.117,1.836,1.836,0,0,0,1.234.406,2.366,2.366,0,0,0,1.953-.875l1.2,1.422a3.363,3.363,0,0,1-1.395,1.082A4.713,4.713,0,0,1,53.484,40.156Zm-.3-6.734q-1.156,0-1.375,1.531h2.656v-.2a1.3,1.3,0,0,0-.32-.98A1.275,1.275,0,0,0,53.188,33.422ZM60.883,40H58.242V28h2.641Zm9.18-1.875a1.171,1.171,0,0,0,.859-.3,1.1,1.1,0,0,0,.3-.84h2.469a2.923,2.923,0,0,1-1,2.281,3.705,3.705,0,0,1-2.566.891A3.751,3.751,0,0,1,67.219,39a4.556,4.556,0,0,1-1.062-3.2v-.109a5.149,5.149,0,0,1,.473-2.262,3.441,3.441,0,0,1,1.363-1.508,4.065,4.065,0,0,1,2.109-.527,3.658,3.658,0,0,1,2.617.914,3.242,3.242,0,0,1,.969,2.477H71.219a1.445,1.445,0,0,0-.32-1.008,1.106,1.106,0,0,0-.859-.352q-1.023,0-1.2,1.3a9.206,9.206,0,0,0-.055,1.141,3.616,3.616,0,0,0,.3,1.766A1.055,1.055,0,0,0,70.063,38.125Zm9.773.961a2.714,2.714,0,0,1-2.258,1.07,2.662,2.662,0,0,1-2.105-.809,3.4,3.4,0,0,1-.715-2.324V31.547h2.633v5.492a.946.946,0,0,0,1.055,1.086,1.376,1.376,0,0,0,1.289-.648v-5.93h2.648V40H79.914Zm9.1-5.156-.867-.062a1.558,1.558,0,0,0-1.594.781V40H83.844V31.547h2.469l.086,1.086a2.039,2.039,0,0,1,1.852-1.242,2.567,2.567,0,0,1,.734.094Zm5.375,3.7a.608.608,0,0,0-.352-.539,5.347,5.347,0,0,0-1.336-.422A6.092,6.092,0,0,1,91,36.09a2.722,2.722,0,0,1-.977-.863,2.061,2.061,0,0,1-.336-1.164,2.336,2.336,0,0,1,.961-1.918,3.958,3.958,0,0,1,2.516-.754,4.386,4.386,0,0,1,2.688.758,2.37,2.37,0,0,1,1.016,1.992H94.227q0-1.016-1.07-1.016a1.061,1.061,0,0,0-.7.23.714.714,0,0,0-.281.574.655.655,0,0,0,.344.57,3.248,3.248,0,0,0,1.1.359,9.486,9.486,0,0,1,1.324.336,2.406,2.406,0,0,1,1.906,2.352,2.214,2.214,0,0,1-1.027,1.883,4.505,4.505,0,0,1-2.66.727,4.6,4.6,0,0,1-1.937-.391A3.24,3.24,0,0,1,89.9,38.7a2.406,2.406,0,0,1-.477-1.414h2.461a1.017,1.017,0,0,0,.391.855,1.607,1.607,0,0,0,.961.27,1.264,1.264,0,0,0,.809-.219A.7.7,0,0,0,94.313,37.625ZM97.75,35.7a4.989,4.989,0,0,1,.492-2.254,3.52,3.52,0,0,1,1.414-1.52,4.259,4.259,0,0,1,2.164-.531,3.887,3.887,0,0,1,2.992,1.176,4.512,4.512,0,0,1,1.094,3.2v.094a4.378,4.378,0,0,1-1.1,3.137,3.9,3.9,0,0,1-2.973,1.16,3.942,3.942,0,0,1-2.9-1.082,4.232,4.232,0,0,1-1.18-2.934Zm2.633.164a3.145,3.145,0,0,0,.367,1.719,1.223,1.223,0,0,0,1.086.547q1.406,0,1.438-2.164V35.7q0-2.273-1.453-2.273-1.32,0-1.43,1.961Z" transform="translate(-8496 -8783.972)" fill="#12263f"/>
    <path id="Path_873594" data-name="Path 873594" d="M-8039.733-9304v349.467" transform="translate(613.532 -17313.805) rotate(-90)" fill="none" stroke="#0d599b" stroke-width="2" stroke-dasharray="3 5"/>
    <path id="Path_873602" data-name="Path 873602" d="M-8039.733-9304v325.129" transform="translate(633.87 -16703.984) rotate(-90)" fill="none" stroke="#0d599b" stroke-width="2" stroke-dasharray="3 5"/>
    <path id="Path_873603" data-name="Path 873603" d="M-8039.733-9304v250.317" transform="translate(712.686 -17158.1) rotate(-90)" fill="none" stroke="#216102" stroke-width="2" stroke-dasharray="3 5"/>
    <path id="Path_873599" data-name="Path 873599" d="M35.145,21.192a1.066,1.066,0,0,1-.825.389H24.985V41.017H10.37V21.581H1.059a1.06,1.06,0,0,1-1.049-1.2,1.031,1.031,0,0,1,.259-.566L17.831,0,35.122,19.825a1.069,1.069,0,0,1,.024,1.367" transform="translate(-8402.801 -8994.277) rotate(180)" fill="#6ed3d6"/>
    <path id="Path_873600" data-name="Path 873600" d="M35.145,21.192a1.066,1.066,0,0,1-.825.389H24.985V41.017H10.37V21.581H1.059a1.06,1.06,0,0,1-1.049-1.2,1.031,1.031,0,0,1,.259-.566L17.831,0,35.122,19.825a1.069,1.069,0,0,1,.024,1.367" transform="translate(-8402.801 -8837.061) rotate(180)" fill="#6ed3d6"/>
    <g id="Group_1099270" data-name="Group 1099270" transform="translate(55 357)">
      <rect id="Rectangle_401114" data-name="Rectangle 401114" width="91" height="28" transform="translate(-8745.467 -9631.072)" fill="#0d599b"/>
      <rect id="Rectangle_401120" data-name="Rectangle 401120" width="609.82" height="28" transform="translate(-8682.467 -9021.252) rotate(-90)" fill="#0d599b"/>
      <text id="Instructor" transform="translate(-8739.467 -9626.572)" fill="#fff" font-size="16" font-family="Roboto-Black, Roboto" font-weight="800"><tspan x="6.879" y="15">Instructor</tspan></text>
    </g>
    <g id="Group_1099271" data-name="Group 1099271" transform="translate(144 512.705)">
      <rect id="Rectangle_401114-2" data-name="Rectangle 401114" width="81" height="28" transform="translate(-8735.467 -9631.072)" fill="#216102"/>
      <rect id="Rectangle_401120-2" data-name="Rectangle 401120" width="454.82" height="28" transform="translate(-8682.467 -9176.252) rotate(-90)" fill="#216102"/>
      <text id="Aprendiz" transform="translate(-8731.467 -9626.572)" fill="#fff" font-size="16" font-family="Roboto-Black, Roboto" font-weight="800"><tspan x="6.094" y="15">Aprendiz</tspan></text>
    </g>
    <path id="Path_874049" data-name="Path 874049" d="M11.5,0A11.5,11.5,0,1,1,0,11.5,11.5,11.5,0,0,1,11.5,0Z" transform="translate(-8432 -9180)" fill="#6ed3d6"/>
    <path id="Path_874050" data-name="Path 874050" d="M11.5,0A11.5,11.5,0,1,1,0,11.5,11.5,11.5,0,0,1,11.5,0Z" transform="translate(-8432 -8713)" fill="#6ed3d6"/>
    <path id="Path_873604" data-name="Path 873604" d="M-8462.491-9500.5v65.1" transform="translate(42 332)" fill="none" stroke="#6ed3d6" stroke-width="2"/>
    <path id="Path_873605" data-name="Path 873605" d="M-8462.491-9500.5v89.494" transform="translate(42 465.206)" fill="none" stroke="#6ed3d6" stroke-width="2"/>
    <path id="Path_873606" data-name="Path 873606" d="M-8462.491-9500.5v92.7" transform="translate(42 622.423)" fill="none" stroke="#6ed3d6" stroke-width="2"/>
    <path id="Path_873607" data-name="Path 873607" d="M-8462.491-9500.5v42.485" transform="translate(42 761.633)" fill="none" stroke="#6ed3d6" stroke-width="2"/>
  </g>
</svg>
