<svg xmlns="http://www.w3.org/2000/svg" xmlns:xlink="http://www.w3.org/1999/xlink" width="70" height="70" viewBox="0 0 70 70">
  <defs>
    <clipPath id="clip-path">
      <rect id="Rectangle_401151" data-name="Rectangle 401151" width="47" height="47" transform="translate(281 970)" fill="none" stroke="#707070" stroke-width="1"/>
    </clipPath>
    <clipPath id="clip-path-2">
      <rect id="Rectangle_401155" data-name="Rectangle 401155" width="44.583" height="43.219" fill="#12405a"/>
    </clipPath>
  </defs>
  <g id="Group_1099506" data-name="Group 1099506" transform="translate(-920 -2964)">
    <g id="Group_1072266" data-name="Group 1072266" transform="translate(651 2006)">
      <circle id="Ellipse_5614" data-name="Ellipse 5614" cx="35" cy="35" r="35" transform="translate(269 958)" fill="#fff"/>
      <g id="Mask_Group_1098672" data-name="Mask Group 1098672" clip-path="url(#clip-path)">
        <g id="Group_1099326" data-name="Group 1099326" transform="translate(282 971.781)">
          <g id="Group_1099325" data-name="Group 1099325" transform="translate(0 1)" clip-path="url(#clip-path-2)">
            <path id="Path_873649" data-name="Path 873649" d="M159.7,157.632v-.781q0-7.018,0-14.036a2.2,2.2,0,0,1,2.482-2.47q7.63,0,15.26,0a2.183,2.183,0,0,1,2.426,2.451q0,6.19,0,12.38a2.183,2.183,0,0,1-2.423,2.454q-8.53,0-17.059,0Zm10.11-12.243a3.6,3.6,0,1,0,3.573,3.585,3.624,3.624,0,0,0-3.573-3.585" transform="translate(-136.695 -120.128)" fill="#12405a"/>
            <path id="Path_873650" data-name="Path 873650" d="M19.308,150.339c.713,3.068,1.9,4.331,4.057,4.314a3.905,3.905,0,0,0,2.93-1.307,4.312,4.312,0,0,0,1.045-2.975h2.5v11.437a3.843,3.843,0,0,1-.567.054c-2.034-.11-4.109.339-6.092-.544a4.431,4.431,0,0,0-1.7-.165c-2.159-.017-4.319,0-6.478-.01-.51,0-.965.119-.976.7-.012.627.463.748,1,.746,1.8-.009,3.6,0,5.4,0h.739v3.6h-.676q-3.851,0-7.7,0a2.884,2.884,0,0,1-3.11-3.083c-.005-1.871-.01-3.743,0-5.614a7.193,7.193,0,0,1,7.139-7.148c.836-.005,1.672,0,2.493,0" transform="translate(-8.277 -128.682)" fill="#12405a"/>
            <rect id="Rectangle_401154" data-name="Rectangle 401154" width="44.583" height="4.242" transform="translate(0 38.977)" fill="#12405a"/>
            <path id="Path_873651" data-name="Path 873651" d="M65.185,53.214a11.46,11.46,0,0,0,8.778-2.867c.84.917,1.667,1.812,2.481,2.719a.618.618,0,0,1,.136.391,48.675,48.675,0,0,1-.148,5.239,5.71,5.71,0,0,1-11.208,0,49.012,49.012,0,0,1-.039-5.482" transform="translate(-55.741 -43.095)" fill="#12405a"/>
            <path id="Path_873652" data-name="Path 873652" d="M60.174,9c-.811-.107-1.583-.193-2.347-.322a1.032,1.032,0,0,1-.52-.318c-.593-.626-1.159-1.278-1.747-1.909a1.453,1.453,0,0,0-2.313-.138A9.314,9.314,0,0,1,46.735,8.7c-.455-.008-.913-.025-1.366,0-1.033.065-2.064.155-3.163.24a8.623,8.623,0,0,1,3.958-7.322,8.66,8.66,0,0,1,9.507-.38A8.713,8.713,0,0,1,60.174,9" transform="translate(-36.126 0)" fill="#12405a"/>
            <path id="Path_873653" data-name="Path 873653" d="M92.222,147.205a2.772,2.772,0,0,1-1.15,2.939,2.388,2.388,0,0,1-2.707-.01,2.744,2.744,0,0,1-1.127-2.923,7.239,7.239,0,0,0,4.984-.006" transform="translate(-74.641 -126.001)" fill="#12405a"/>
            <path id="Path_873654" data-name="Path 873654" d="M103.405,240.078H99.981c0-1.143,0-2.256,0-3.37,1.448-.15,3.281,1.617,3.424,3.37" transform="translate(-85.579 -202.604)" fill="#12405a"/>
            <path id="Path_873655" data-name="Path 873655" d="M130.653,240.607v2.845c-.641,0-1.257.014-1.871-.011a.489.489,0,0,1-.363-.243c-.33-.855-.63-1.721-.942-2.591Z" transform="translate(-109.115 -205.949)" fill="#12405a"/>
            <path id="Path_873656" data-name="Path 873656" d="M154.93,75.059V70.848a1.7,1.7,0,0,1,1.782,1.854c.062,1.5-.505,2.261-1.782,2.357" transform="translate(-132.613 -60.642)" fill="#12405a"/>
            <path id="Path_873657" data-name="Path 873657" d="M43.9,74.8c-1.283-.2-1.772-.841-1.757-2.222a1.8,1.8,0,0,1,1.757-2.06Z" transform="translate(-36.076 -60.356)" fill="#12405a"/>
            <path id="Path_873658" data-name="Path 873658" d="M216.9,185.354a2.162,2.162,0,1,1-2.192,2.113,2.156,2.156,0,0,1,2.192-2.113" transform="translate(-183.779 -158.655)" fill="#12405a"/>
          </g>
        </g>
      </g>
    </g>
  </g>
</svg>
