<svg xmlns="http://www.w3.org/2000/svg" xmlns:xlink="http://www.w3.org/1999/xlink" width="62.504" height="62.504" viewBox="0 0 62.504 62.504">
  <defs>
    <clipPath id="clip-path">
      <rect id="Rectangle_378562" data-name="Rectangle 378562" width="41" height="41" transform="translate(20.143 27.212)" fill="none" stroke="#707070" stroke-width="1"/>
    </clipPath>
    <clipPath id="clip-path-2">
      <rect id="Rectangle_378561" data-name="Rectangle 378561" width="37.429" height="37.398" fill="#fff"/>
    </clipPath>
  </defs>
  <g id="Group_1099501" data-name="Group 1099501" transform="translate(-273 -1679)">
    <g id="Group_1099203" data-name="Group 1099203" transform="translate(-6.818 480.283)">
      <g id="Group_1072053" data-name="Group 1072053" transform="translate(279.818 1198.717)">
        <circle id="Ellipse_4742" data-name="Ellipse 4742" cx="31.252" cy="31.252" r="31.252" transform="translate(0)" fill="#af2323"/>
      </g>
      <g id="Group_1099208" data-name="Group 1099208" transform="translate(271.675 1181.505)">
        <g id="Mask_Group_1073351" data-name="Mask Group 1073351" clip-path="url(#clip-path)">
          <g id="Group_1074172" data-name="Group 1074172" transform="translate(22.143 29.211)" clip-path="url(#clip-path-2)">
            <path id="Path_615523" data-name="Path 615523" d="M89.689,136.426a.72.72,0,0,0-.718.714.773.773,0,0,0,.727.72.748.748,0,0,0,.719-.739.7.7,0,0,0-.728-.7" transform="translate(-77.005 -118.078)" fill="#fff"/>
            <path id="Path_615524" data-name="Path 615524" d="M35.812,10.791a9.544,9.544,0,0,0-.948-.32.792.792,0,0,1,.008-.105A2.7,2.7,0,0,0,34.234,8a2.75,2.75,0,0,0-1.628-.931c-.138-.025-.187-.065-.179-.226a4.644,4.644,0,0,0-.021-1.1,2.886,2.886,0,0,0-3-2.259,4.529,4.529,0,0,0-.5.093c-.014-.084-.026-.17-.043-.254a2.837,2.837,0,0,0-4.494-1.7,8.56,8.56,0,0,0-.865.817.3.3,0,0,1-.325.092c-.8-.188-1.609-.38-2.419-.543a14.31,14.31,0,0,0-2.907-.247c-.525,0-1.05.068-1.576.09a.479.479,0,0,1-.3-.1A7.53,7.53,0,0,0,13.091.146,3.089,3.089,0,0,0,10.91.255,2.474,2.474,0,0,0,9.477,2.762a8.19,8.19,0,0,0,.229.982c-.127.068-.29.154-.451.242l-.243.133A15.08,15.08,0,0,0,3.2,9.481a.859.859,0,0,0-.137.154c-.3.444-.581.9-.84,1.365q-.286.479-.572,1l.038.044a17.455,17.455,0,0,0-.755,1.88,15.612,15.612,0,0,0-.67,2.707C.178,17.217.072,17.8.034,18.389a17.8,17.8,0,0,0,.412,5.037A17.852,17.852,0,0,0,14.32,37.01c.553.112,1.11.215,1.67.277a16.7,16.7,0,0,0,3.355.048,18.929,18.929,0,0,0,4.009-.779A17.974,17.974,0,0,0,34.907,25.362a17.526,17.526,0,0,0,.884-3.923,15.94,15.94,0,0,0,.033-3.246c-.053-.549-.114-1.1-.2-1.643a.372.372,0,0,1,.117-.375c.332-.324.667-.647.978-.991a2.8,2.8,0,0,0-.91-4.393m-17.2,20.148q-2.046,2.024-4.089,4.05a.194.194,0,0,1-.153.054c-.616-.182-1.238-.346-1.842-.563a16.428,16.428,0,0,1-9.385-8.672c-.121-.268-.121-.268.085-.472l5.128-5.1c.019-.019.042-.033.086-.067L18.919,30.69a3.581,3.581,0,0,0-.3.25m3.955-3.932q-1.268,1.258-2.534,2.519a.763.763,0,0,1-.083.062L9.466,19.2a.588.588,0,0,1,.056-.091q1.239-1.24,2.48-2.479a2.535,2.535,0,0,1,.324-.291.718.718,0,0,1,1.08.1c.86.817,1.686,1.667,2.528,2.5q3.316,3.293,6.633,6.584c.56.556.562.936,0,1.49M36.224,12.916a1.461,1.461,0,0,1-.462.974q-3.568,3.539-7.132,7.084a8.006,8.006,0,0,1-2.022,1.363c-.749.389-1.5.766-2.247,1.167a8.459,8.459,0,0,0-.912.595c-.122.088-.186.086-.291-.019q-1.366-1.375-2.742-2.74-2.76-2.733-5.53-5.458a.924.924,0,0,1-.309-.7c-.009-.708-.054-1.416-.084-2.125h.03c0-.469-.022-.94.007-1.407a8.123,8.123,0,0,1,.17-1.241,4.775,4.775,0,0,0-.02-1.876,9.072,9.072,0,0,0-1.356-3.287,13.47,13.47,0,0,0-1.668-2.138,1.506,1.506,0,0,1-.473-.774A1.054,1.054,0,0,1,12.254.984a4.093,4.093,0,0,1,2.237.764A9.743,9.743,0,0,1,17,4.214a13.435,13.435,0,0,1,1.408,2.373,1.768,1.768,0,0,0,.96.956.767.767,0,0,0,.912-.136c.706-.694,1.417-1.383,2.122-2.078S23.833,3.91,24.547,3.2c.293-.292.572-.6.881-.872a1.381,1.381,0,0,1,1.6-.141,1.367,1.367,0,0,1,.666,1.378A1.5,1.5,0,0,1,27.3,4.4a.706.706,0,0,0,.02,1,.718.718,0,0,0,1.013-.022c.183-.172.352-.36.54-.528a1.393,1.393,0,0,1,2.256.411,1.293,1.293,0,0,1-.111,1.366,5.08,5.08,0,0,1-.393.434,4.344,4.344,0,0,0-.429.489.645.645,0,0,0,.119.826.68.68,0,0,0,.845.124,2.682,2.682,0,0,0,.242-.179,1.327,1.327,0,0,1,1.732-.087,1.366,1.366,0,0,1,.487,1.665,1.819,1.819,0,0,1-.317.467c-.152.178-.332.332-.49.506a.668.668,0,0,0-.165.739.755.755,0,0,0,.647.493.825.825,0,0,0,.6-.291,1.481,1.481,0,0,1,.7-.332,1.412,1.412,0,0,1,1.622,1.442" transform="translate(0 0)" fill="#fff"/>
          </g>
        </g>
      </g>
    </g>
  </g>
</svg>
