<svg xmlns="http://www.w3.org/2000/svg" xmlns:xlink="http://www.w3.org/1999/xlink" width="400" height="980.467" viewBox="0 0 400 980.467">
  <defs>
    <clipPath id="clip-path">
      <rect id="Rectangle_401189" data-name="Rectangle 401189" width="134.606" height="154.2" fill="none"/>
    </clipPath>
    <clipPath id="clip-path-2">
      <path id="Path_873879" data-name="Path 873879" d="M196.076,92.469s3.384,5.551,9.7,1.539a4.6,4.6,0,0,0-4.461-3.24,10.834,10.834,0,0,0-5.238,1.7" transform="translate(-196.076 -90.768)" fill="none"/>
    </clipPath>
    <clipPath id="clip-path-4">
      <path id="Path_873883" data-name="Path 873883" d="M243.845,93.247c4.309,3.832,6.815-1.975,6.815-1.975a4.508,4.508,0,0,0-2.991-1.441c-2.528,0-3.824,3.416-3.824,3.416" transform="translate(-243.845 -89.831)" fill="none"/>
    </clipPath>
    <clipPath id="clip-path-6">
      <rect id="Rectangle_401192" data-name="Rectangle 401192" width="143.26" height="155.604" fill="none"/>
    </clipPath>
    <clipPath id="clip-path-7">
      <path id="Path_873907" data-name="Path 873907" d="M221.412,143.82c-14.259,16.489-11.914,43.748-11.914,43.748,6.389-22.173,27.565-39.132,27.565-39.132l-6.453-4.728Z" transform="translate(-209.354 -143.709)" fill="none"/>
    </clipPath>
    <clipPath id="clip-path-9">
      <path id="Path_873932" data-name="Path 873932" d="M244.56,63.854c4.88,3.6,7.37-1.261,7.37-1.261a8.335,8.335,0,0,0-3.949-1.247,3.5,3.5,0,0,0-3.421,2.508" transform="translate(-244.56 -61.346)" fill="none"/>
    </clipPath>
    <clipPath id="clip-path-11">
      <path id="Path_873936" data-name="Path 873936" d="M216.661,62.175s1.313,4.557,5.206,1.441c0,0-1.009-2.565-2.917-2.565a3.41,3.41,0,0,0-2.289,1.124" transform="translate(-216.661 -61.051)" fill="none"/>
    </clipPath>
  </defs>
  <g id="Group_1099536" data-name="Group 1099536" transform="translate(3284.033 5237.967)">
    <path id="Path_874052" data-name="Path 874052" d="M0,0H400V980.467H0Z" transform="translate(-3284.033 -5237.967)" fill="#d7f5f7"/>
    <path id="Path_874053" data-name="Path 874053" d="M6,0H143a6,6,0,0,1,6,6V22a6,6,0,0,1-6,6H6a6,6,0,0,1-6-6V6A6,6,0,0,1,6,0Z" transform="translate(-3169.137 -5210.278)" fill="#0d599b"/>
    <path id="Path_874054" data-name="Path 874054" d="M39.66,15H36.926V3.625H39.66Zm4.2-8.453.086.992a2.867,2.867,0,0,1,2.414-1.148,2.412,2.412,0,0,1,1.973.789,3.757,3.757,0,0,1,.676,2.375V15H46.371V9.664a1.426,1.426,0,0,0-.258-.941,1.193,1.193,0,0,0-.937-.3,1.256,1.256,0,0,0-1.148.609V15H41.395V6.547Zm11.031,6.078a.608.608,0,0,0-.352-.539,5.348,5.348,0,0,0-1.336-.422,6.092,6.092,0,0,1-1.625-.574,2.722,2.722,0,0,1-.977-.863,2.061,2.061,0,0,1-.336-1.164,2.336,2.336,0,0,1,.961-1.918,3.958,3.958,0,0,1,2.516-.754,4.386,4.386,0,0,1,2.688.758,2.37,2.37,0,0,1,1.016,1.992H54.809q0-1.016-1.07-1.016a1.061,1.061,0,0,0-.7.23.714.714,0,0,0-.281.574.655.655,0,0,0,.344.57,3.248,3.248,0,0,0,1.1.359,9.485,9.485,0,0,1,1.324.336,2.406,2.406,0,0,1,1.906,2.352,2.214,2.214,0,0,1-1.027,1.883,4.505,4.505,0,0,1-2.66.727,4.6,4.6,0,0,1-1.937-.391A3.24,3.24,0,0,1,50.48,13.7,2.406,2.406,0,0,1,50,12.289h2.461a1.017,1.017,0,0,0,.391.855,1.607,1.607,0,0,0,.961.27,1.264,1.264,0,0,0,.809-.219A.7.7,0,0,0,54.895,12.625Zm6.836-8.18v2.1h1.391V8.375H61.73v3.867a.987.987,0,0,0,.172.664.922.922,0,0,0,.68.188,3.862,3.862,0,0,0,.656-.047V14.93a4.859,4.859,0,0,1-1.484.227,2.758,2.758,0,0,1-2.008-.641A2.626,2.626,0,0,1,59.1,12.57v-4.2H58.02V6.547H59.1v-2.1ZM69.27,8.93,68.4,8.867a1.558,1.558,0,0,0-1.594.781V15H64.176V6.547h2.469l.086,1.086a2.039,2.039,0,0,1,1.852-1.242,2.567,2.567,0,0,1,.734.094Zm5.984,5.156A2.714,2.714,0,0,1,73,15.156a2.662,2.662,0,0,1-2.105-.809,3.4,3.4,0,0,1-.715-2.324V6.547h2.633v5.492a.946.946,0,0,0,1.055,1.086,1.376,1.376,0,0,0,1.289-.648V6.547H77.8V15H75.332Zm7.563-.961a1.171,1.171,0,0,0,.859-.3,1.1,1.1,0,0,0,.3-.84h2.469a2.922,2.922,0,0,1-1,2.281,3.705,3.705,0,0,1-2.566.891A3.751,3.751,0,0,1,79.973,14a4.556,4.556,0,0,1-1.062-3.2v-.109a5.149,5.149,0,0,1,.473-2.262,3.441,3.441,0,0,1,1.363-1.508,4.065,4.065,0,0,1,2.109-.527,3.658,3.658,0,0,1,2.617.914,3.242,3.242,0,0,1,.969,2.477H83.973a1.445,1.445,0,0,0-.32-1.008,1.106,1.106,0,0,0-.859-.352q-1.023,0-1.2,1.3a9.206,9.206,0,0,0-.055,1.141,3.616,3.616,0,0,0,.3,1.766A1.055,1.055,0,0,0,82.816,13.125Zm7.8-8.68v2.1h1.391V8.375H90.621v3.867a.987.987,0,0,0,.172.664.922.922,0,0,0,.68.188,3.862,3.862,0,0,0,.656-.047V14.93a4.859,4.859,0,0,1-1.484.227,2.758,2.758,0,0,1-2.008-.641,2.626,2.626,0,0,1-.648-1.945v-4.2H86.91V6.547h1.078v-2.1ZM92.48,10.7a4.989,4.989,0,0,1,.492-2.254,3.52,3.52,0,0,1,1.414-1.52,4.259,4.259,0,0,1,2.164-.531,3.887,3.887,0,0,1,2.992,1.176,4.512,4.512,0,0,1,1.094,3.2v.094A4.378,4.378,0,0,1,99.539,14a3.9,3.9,0,0,1-2.973,1.16,3.942,3.942,0,0,1-2.9-1.082,4.232,4.232,0,0,1-1.18-2.934Zm2.633.164a3.145,3.145,0,0,0,.367,1.719,1.223,1.223,0,0,0,1.086.547q1.406,0,1.438-2.164V10.7q0-2.273-1.453-2.273-1.32,0-1.43,1.961Zm11.8-1.93-.867-.062a1.558,1.558,0,0,0-1.594.781V15h-2.633V6.547h2.469l.086,1.086a2.039,2.039,0,0,1,1.852-1.242,2.567,2.567,0,0,1,.734.094Z" transform="translate(-3169.137 -5205.278)" fill="#fff"/>
    <path id="Path_873740" data-name="Path 873740" d="M161.626,117.686H122.9a12.867,12.867,0,0,0-12.867,12.867V251.51A12.867,12.867,0,0,0,122.9,264.377H243.859a12.867,12.867,0,0,0,12.867-12.867V212.8a21.768,21.768,0,1,0,0-43.537v-38.71a12.867,12.867,0,0,0-12.867-12.867H205.135a21.757,21.757,0,0,1-43.508,0" transform="translate(-2902.451 -5292.313) rotate(90)" fill="#216102"/>
    <path id="Path_873741" data-name="Path 873741" d="M1161.846,236.85h38.71a12.868,12.868,0,0,0,12.868-12.867v-38.71a21.769,21.769,0,0,0,0-43.537v-38.7a12.867,12.867,0,0,0-12.867-12.867h-38.724a3.591,3.591,0,0,0,.014-.392,21.769,21.769,0,0,0-43.537,0,3.591,3.591,0,0,0,.014.392h-38.71a12.867,12.867,0,0,0-12.867,12.867v38.7a21.769,21.769,0,0,1,0,43.537v38.71a12.867,12.867,0,0,0,12.867,12.867h38.7a21.769,21.769,0,1,1,43.537,0" transform="translate(-2929.258 -5808.626) rotate(90)" fill="#6ed3d6"/>
    <path id="Path_873742" data-name="Path 873742" d="M1810.854,90.191h-38.71a21.768,21.768,0,1,0-43.537,0H1689.9a12.958,12.958,0,0,0-12.943,12.9V141.8a21.769,21.769,0,0,0,0,43.537v38.71a12.867,12.867,0,0,0,12.867,12.867h38.724c0-.012,0-.023,0-.035h43.505c0,.012,0,.023,0,.035h38.724a12.958,12.958,0,0,0,12.943-12.9V103.058a12.867,12.867,0,0,0-12.867-12.867" transform="translate(-2929.037 -6126.192) rotate(90)" fill="#124877"/>
    <path id="Path_873743" data-name="Path 873743" d="M1530.56,249.316v-38.71a21.769,21.769,0,1,1,0-43.537v-38.71c0-.254.01-.505.024-.755a12.865,12.865,0,0,0-12.857-12.463h-38.7a21.769,21.769,0,0,1-43.537,0h-38.71a12.867,12.867,0,0,0-12.867,12.867v38.7a21.769,21.769,0,0,1,0,43.537v38.71a12.867,12.867,0,0,0,12.867,12.867h38.71a21.769,21.769,0,1,0,43.537,0h38.7a12.866,12.866,0,0,0,12.843-12.108c0-.131-.01-.261-.01-.393" transform="translate(-2903.825 -5979.796) rotate(90)" fill="#0d599b"/>
    <path id="Path_873744" data-name="Path 873744" d="M868.987,168c-.028,0-.055,0-.082,0V129.4a13.222,13.222,0,0,0-13.176-12.956h-38.7a21.615,21.615,0,1,1-43.228.089H773.5c0-.03,0-.059,0-.089h-38.71a12.867,12.867,0,0,0-12.867,12.867V168c.1,0,.206.006.31.008v.1a21.766,21.766,0,0,0-.31,43.529v38.615a13.248,13.248,0,0,0,12.418,12.931c.131,0,.261-.01.393-.01h38.71c0-.018,0-.036,0-.054h.055a21.768,21.768,0,0,0,43.536.054h38.655c.254,0,.5.009.755.024A12.865,12.865,0,0,0,868.9,250.339v-38.7c-.1,0-.206-.006-.31-.008v-.11a3.607,3.607,0,0,0,.392.014,21.769,21.769,0,0,0,0-43.537" transform="translate(-2903.123 -5610.951) rotate(90)" fill="#b1ec93"/>
    <path id="Path_873844" data-name="Path 873844" d="M576.091,225.087v-38.71a3.6,3.6,0,0,1-.392.014,21.769,21.769,0,1,1,0-43.537,3.489,3.489,0,0,1,.392.015V104.144a13.006,13.006,0,0,1,.131-1.822,12.869,12.869,0,0,0-12.708-10.848H524.789a3.4,3.4,0,0,0,.014-.392,21.769,21.769,0,0,0-43.537,0,3.588,3.588,0,0,0,.015.392h-38.71A12.867,12.867,0,0,0,429.7,104.34v38.7a21.769,21.769,0,1,1,0,43.537v38.71a12.867,12.867,0,0,0,12.867,12.867h38.7a21.768,21.768,0,1,1,43.537,0h38.71a12.868,12.868,0,0,0,12.736-11.045,12.968,12.968,0,0,1-.159-2.018" transform="translate(-2928.557 -5464.831) rotate(90)" fill="#80c85d"/>
    <path id="Path_874055" data-name="Path 874055" d="M6.766,11.141V15H4.023V3.625H8.563a5.287,5.287,0,0,1,2.309.48,3.621,3.621,0,0,1,1.555,1.367,3.734,3.734,0,0,1,.551,2.012,3.291,3.291,0,0,1-1.191,2.66,4.943,4.943,0,0,1-3.27,1Zm0-2.117h1.8a1.7,1.7,0,0,0,1.215-.4A1.48,1.48,0,0,0,10.2,7.5a1.83,1.83,0,0,0-.43-1.273,1.522,1.522,0,0,0-1.172-.484H6.766Zm12.586,5.063a2.714,2.714,0,0,1-2.258,1.07,2.662,2.662,0,0,1-2.105-.809,3.4,3.4,0,0,1-.715-2.324V6.547h2.633v5.492a.946.946,0,0,0,1.055,1.086,1.376,1.376,0,0,0,1.289-.648V6.547H21.9V15H19.43Zm11.836-3.242a5.152,5.152,0,0,1-.859,3.2,2.878,2.878,0,0,1-2.422,1.117,2.5,2.5,0,0,1-2.078-1.023L25.719,15H23.359V3h2.633V7.227a2.41,2.41,0,0,1,1.9-.836,2.879,2.879,0,0,1,2.438,1.133,5.179,5.179,0,0,1,.859,3.188Zm-2.641-.168a3.437,3.437,0,0,0-.324-1.735,1.093,1.093,0,0,0-1-.519,1.261,1.261,0,0,0-1.234.679v3.354a1.268,1.268,0,0,0,1.25.671,1.118,1.118,0,0,0,1.18-.9A6.5,6.5,0,0,0,28.547,10.676ZM35.125,15H32.484V3h2.641Zm4.4,0H36.883V6.547h2.641Zm-2.8-10.633a1.175,1.175,0,0,1,.406-.922,1.727,1.727,0,0,1,2.109,0,1.175,1.175,0,0,1,.406.922,1.175,1.175,0,0,1-.406.922,1.727,1.727,0,0,1-2.109,0A1.175,1.175,0,0,1,36.727,4.367Zm7.992,8.758a1.171,1.171,0,0,0,.859-.3,1.1,1.1,0,0,0,.3-.84h2.469a2.922,2.922,0,0,1-1,2.281,3.705,3.705,0,0,1-2.566.891A3.751,3.751,0,0,1,41.875,14a4.556,4.556,0,0,1-1.062-3.2v-.109a5.149,5.149,0,0,1,.473-2.262,3.441,3.441,0,0,1,1.363-1.508,4.065,4.065,0,0,1,2.109-.527,3.658,3.658,0,0,1,2.617.914,3.242,3.242,0,0,1,.969,2.477H45.875a1.445,1.445,0,0,0-.32-1.008,1.106,1.106,0,0,0-.859-.352q-1.023,0-1.2,1.3a9.206,9.206,0,0,0-.055,1.141,3.616,3.616,0,0,0,.3,1.766A1.055,1.055,0,0,0,44.719,13.125ZM54.219,15a2.973,2.973,0,0,1-.25-.758,2.448,2.448,0,0,1-2.031.914,3,3,0,0,1-2.031-.723,2.3,2.3,0,0,1-.836-1.816,2.364,2.364,0,0,1,1.016-2.078,5.174,5.174,0,0,1,2.953-.7h.813V9.388q0-1.17-1.008-1.17a.824.824,0,0,0-.937.926H49.273a2.36,2.36,0,0,1,1.043-1.99,4.383,4.383,0,0,1,2.66-.765,3.843,3.843,0,0,1,2.555.789,2.743,2.743,0,0,1,.961,2.164v3.742a3.832,3.832,0,0,0,.359,1.781V15ZM52.57,13.281a1.469,1.469,0,0,0,.816-.211,1.322,1.322,0,0,0,.465-.477V11.242h-.766q-1.375,0-1.375,1.234a.754.754,0,0,0,.242.582A.876.876,0,0,0,52.57,13.281Zm8.953-.156a1.171,1.171,0,0,0,.859-.3,1.1,1.1,0,0,0,.3-.84h2.469a2.922,2.922,0,0,1-1,2.281,3.705,3.705,0,0,1-2.566.891A3.751,3.751,0,0,1,58.68,14a4.556,4.556,0,0,1-1.062-3.2v-.109a5.149,5.149,0,0,1,.473-2.262,3.441,3.441,0,0,1,1.363-1.508,4.065,4.065,0,0,1,2.109-.527A3.658,3.658,0,0,1,64.18,7.3a3.242,3.242,0,0,1,.969,2.477H62.68a1.445,1.445,0,0,0-.32-1.008,1.106,1.106,0,0,0-.859-.352q-1.023,0-1.2,1.3a9.206,9.206,0,0,0-.055,1.141,3.616,3.616,0,0,0,.3,1.766A1.055,1.055,0,0,0,61.523,13.125ZM69.039,15H66.4V6.547h2.641Zm-2.8-10.633a1.175,1.175,0,0,1,.406-.922,1.727,1.727,0,0,1,2.109,0,1.175,1.175,0,0,1,.406.922,1.175,1.175,0,0,1-.406.922,1.727,1.727,0,0,1-2.109,0A1.175,1.175,0,0,1,66.242,4.367ZM70.328,10.7a4.989,4.989,0,0,1,.492-2.254,3.52,3.52,0,0,1,1.414-1.52A4.259,4.259,0,0,1,74.4,6.391a3.887,3.887,0,0,1,2.992,1.176,4.512,4.512,0,0,1,1.094,3.2v.094A4.378,4.378,0,0,1,77.387,14a3.9,3.9,0,0,1-2.973,1.16,3.942,3.942,0,0,1-2.9-1.082,4.232,4.232,0,0,1-1.18-2.934Zm2.633.164a3.145,3.145,0,0,0,.367,1.719,1.223,1.223,0,0,0,1.086.547q1.406,0,1.438-2.164V10.7q0-2.273-1.453-2.273-1.32,0-1.43,1.961Zm9.1-4.312.086.992a2.867,2.867,0,0,1,2.414-1.148,2.412,2.412,0,0,1,1.973.789,3.757,3.757,0,0,1,.676,2.375V15H84.57V9.664a1.426,1.426,0,0,0-.258-.941,1.193,1.193,0,0,0-.937-.3,1.256,1.256,0,0,0-1.148.609V15H79.594V6.547Zm10.7,8.609A4.345,4.345,0,0,1,89.609,14a4.006,4.006,0,0,1-1.2-3.02v-.219a5.191,5.191,0,0,1,.48-2.289,3.516,3.516,0,0,1,1.4-1.535,4.233,4.233,0,0,1,2.188-.543A3.659,3.659,0,0,1,95.289,7.5a4.344,4.344,0,0,1,1.031,3.082V11.6H91.086a1.9,1.9,0,0,0,.617,1.117,1.836,1.836,0,0,0,1.234.406,2.366,2.366,0,0,0,1.953-.875l1.2,1.422A3.363,3.363,0,0,1,94.7,14.754,4.713,4.713,0,0,1,92.758,15.156Zm-.3-6.734q-1.156,0-1.375,1.531h2.656v-.2a1.3,1.3,0,0,0-.32-.98A1.275,1.275,0,0,0,92.461,8.422Zm9.344,4.2a.608.608,0,0,0-.352-.539,5.348,5.348,0,0,0-1.336-.422,6.092,6.092,0,0,1-1.625-.574,2.722,2.722,0,0,1-.977-.863,2.061,2.061,0,0,1-.336-1.164,2.336,2.336,0,0,1,.961-1.918,3.958,3.958,0,0,1,2.516-.754,4.386,4.386,0,0,1,2.688.758,2.37,2.37,0,0,1,1.016,1.992h-2.641q0-1.016-1.07-1.016a1.061,1.061,0,0,0-.7.23.714.714,0,0,0-.281.574.655.655,0,0,0,.344.57,3.248,3.248,0,0,0,1.1.359,9.486,9.486,0,0,1,1.324.336,2.406,2.406,0,0,1,1.906,2.352,2.214,2.214,0,0,1-1.027,1.883,4.505,4.505,0,0,1-2.66.727,4.6,4.6,0,0,1-1.937-.391A3.24,3.24,0,0,1,97.391,13.7a2.406,2.406,0,0,1-.477-1.414h2.461a1.017,1.017,0,0,0,.391.855,1.607,1.607,0,0,0,.961.27,1.264,1.264,0,0,0,.809-.219A.7.7,0,0,0,101.8,12.625ZM47.543,30.711a5.164,5.164,0,0,1,.867-3.164,2.854,2.854,0,0,1,2.422-1.156,2.428,2.428,0,0,1,1.906.891V23h2.641V35H53.012l-.133-.906a2.493,2.493,0,0,1-2.062,1.063A2.849,2.849,0,0,1,48.426,34,5.327,5.327,0,0,1,47.543,30.711Zm2.633.164q0,2.25,1.313,2.25a1.3,1.3,0,0,0,1.25-.734V29.172a1.261,1.261,0,0,0-1.234-.75q-1.219,0-1.32,1.969Zm10.789,4.281A4.345,4.345,0,0,1,57.816,34a4.006,4.006,0,0,1-1.2-3.02v-.219a5.191,5.191,0,0,1,.48-2.289,3.516,3.516,0,0,1,1.4-1.535,4.233,4.233,0,0,1,2.188-.543A3.659,3.659,0,0,1,63.5,27.5a4.344,4.344,0,0,1,1.031,3.082V31.6H59.293a1.9,1.9,0,0,0,.617,1.117,1.836,1.836,0,0,0,1.234.406A2.366,2.366,0,0,0,63.1,32.25l1.2,1.422a3.363,3.363,0,0,1-1.395,1.082A4.713,4.713,0,0,1,60.965,35.156Zm-.3-6.734q-1.156,0-1.375,1.531h2.656v-.2a1.3,1.3,0,0,0-.32-.98A1.275,1.275,0,0,0,60.668,28.422ZM18.121,55a2.973,2.973,0,0,1-.25-.758,2.448,2.448,0,0,1-2.031.914,3,3,0,0,1-2.031-.723,2.3,2.3,0,0,1-.836-1.816,2.364,2.364,0,0,1,1.016-2.078,5.174,5.174,0,0,1,2.953-.7h.813v-.448q0-1.17-1.008-1.17a.824.824,0,0,0-.937.926H13.176a2.36,2.36,0,0,1,1.043-1.99,4.383,4.383,0,0,1,2.66-.765,3.843,3.843,0,0,1,2.555.789,2.743,2.743,0,0,1,.961,2.164v3.742a3.832,3.832,0,0,0,.359,1.781V55Zm-1.648-1.719a1.469,1.469,0,0,0,.816-.211,1.322,1.322,0,0,0,.465-.477V51.242h-.766q-1.375,0-1.375,1.234a.754.754,0,0,0,.242.582A.876.876,0,0,0,16.473,53.281Zm8.953-.156a1.171,1.171,0,0,0,.859-.3,1.1,1.1,0,0,0,.3-.84h2.469a2.923,2.923,0,0,1-1,2.281,3.705,3.705,0,0,1-2.566.891A3.751,3.751,0,0,1,22.582,54a4.556,4.556,0,0,1-1.062-3.2v-.109a5.149,5.149,0,0,1,.473-2.262,3.441,3.441,0,0,1,1.363-1.508,4.065,4.065,0,0,1,2.109-.527,3.658,3.658,0,0,1,2.617.914,3.242,3.242,0,0,1,.969,2.477H26.582a1.445,1.445,0,0,0-.32-1.008,1.106,1.106,0,0,0-.859-.352q-1.023,0-1.2,1.3a9.206,9.206,0,0,0-.055,1.141,3.616,3.616,0,0,0,.3,1.766A1.055,1.055,0,0,0,25.426,53.125Zm7.8-8.68v2.1h1.391v1.828H33.23v3.867a.987.987,0,0,0,.172.664.922.922,0,0,0,.68.188,3.862,3.862,0,0,0,.656-.047V54.93a4.859,4.859,0,0,1-1.484.227,2.758,2.758,0,0,1-2.008-.641A2.626,2.626,0,0,1,30.6,52.57v-4.2H29.52V46.547H30.6v-2.1ZM38.434,55H35.793V46.547h2.641Zm-2.8-10.633a1.175,1.175,0,0,1,.406-.922,1.727,1.727,0,0,1,2.109,0,1.249,1.249,0,0,1,0,1.844,1.727,1.727,0,0,1-2.109,0A1.175,1.175,0,0,1,35.637,44.367Zm7.789,7.5,1.336-5.32h2.773L44.777,55H42.09l-2.758-8.453h2.781ZM51.1,55H48.457V46.547H51.1ZM48.3,44.367a1.175,1.175,0,0,1,.406-.922,1.727,1.727,0,0,1,2.109,0,1.249,1.249,0,0,1,0,1.844,1.727,1.727,0,0,1-2.109,0A1.175,1.175,0,0,1,48.3,44.367Zm4.086,6.344a5.164,5.164,0,0,1,.867-3.164,2.854,2.854,0,0,1,2.422-1.156,2.428,2.428,0,0,1,1.906.891V43h2.641V55H57.855l-.133-.906a2.493,2.493,0,0,1-2.062,1.063A2.849,2.849,0,0,1,53.27,54,5.327,5.327,0,0,1,52.387,50.711Zm2.633.164q0,2.25,1.313,2.25a1.3,1.3,0,0,0,1.25-.734V49.172a1.261,1.261,0,0,0-1.234-.75q-1.219,0-1.32,1.969ZM66.48,55a2.973,2.973,0,0,1-.25-.758,2.448,2.448,0,0,1-2.031.914,3,3,0,0,1-2.031-.723,2.3,2.3,0,0,1-.836-1.816,2.364,2.364,0,0,1,1.016-2.078,5.174,5.174,0,0,1,2.953-.7h.813v-.448q0-1.17-1.008-1.17a.824.824,0,0,0-.937.926H61.535a2.36,2.36,0,0,1,1.043-1.99,4.383,4.383,0,0,1,2.66-.765,3.843,3.843,0,0,1,2.555.789,2.743,2.743,0,0,1,.961,2.164v3.742a3.832,3.832,0,0,0,.359,1.781V55Zm-1.648-1.719a1.469,1.469,0,0,0,.816-.211,1.322,1.322,0,0,0,.465-.477V51.242h-.766q-1.375,0-1.375,1.234a.754.754,0,0,0,.242.582A.876.876,0,0,0,64.832,53.281Zm5.047-2.57a5.164,5.164,0,0,1,.867-3.164,2.854,2.854,0,0,1,2.422-1.156,2.428,2.428,0,0,1,1.906.891V43h2.641V55H75.348l-.133-.906a2.493,2.493,0,0,1-2.062,1.063A2.849,2.849,0,0,1,70.762,54,5.327,5.327,0,0,1,69.879,50.711Zm2.633.164q0,2.25,1.313,2.25a1.3,1.3,0,0,0,1.25-.734V49.172a1.261,1.261,0,0,0-1.234-.75q-1.219,0-1.32,1.969ZM83.3,55.156A4.345,4.345,0,0,1,80.152,54a4.006,4.006,0,0,1-1.2-3.02v-.219a5.191,5.191,0,0,1,.48-2.289,3.516,3.516,0,0,1,1.4-1.535,4.233,4.233,0,0,1,2.188-.543A3.659,3.659,0,0,1,85.832,47.5a4.344,4.344,0,0,1,1.031,3.082V51.6H81.629a1.9,1.9,0,0,0,.617,1.117,1.836,1.836,0,0,0,1.234.406,2.366,2.366,0,0,0,1.953-.875l1.2,1.422a3.363,3.363,0,0,1-1.395,1.082A4.713,4.713,0,0,1,83.3,55.156ZM83,48.422q-1.156,0-1.375,1.531h2.656v-.2a1.3,1.3,0,0,0-.32-.98A1.275,1.275,0,0,0,83,48.422Zm9.344,4.2A.608.608,0,0,0,92,52.086a5.347,5.347,0,0,0-1.336-.422,6.092,6.092,0,0,1-1.625-.574,2.722,2.722,0,0,1-.977-.863,2.061,2.061,0,0,1-.336-1.164,2.336,2.336,0,0,1,.961-1.918,3.958,3.958,0,0,1,2.516-.754,4.386,4.386,0,0,1,2.688.758A2.37,2.37,0,0,1,94.9,49.141H92.262q0-1.016-1.07-1.016a1.061,1.061,0,0,0-.7.23.714.714,0,0,0-.281.574.655.655,0,0,0,.344.57,3.248,3.248,0,0,0,1.1.359,9.486,9.486,0,0,1,1.324.336,2.406,2.406,0,0,1,1.906,2.352,2.214,2.214,0,0,1-1.027,1.883,4.505,4.505,0,0,1-2.66.727,4.6,4.6,0,0,1-1.937-.391A3.24,3.24,0,0,1,87.934,53.7a2.406,2.406,0,0,1-.477-1.414h2.461a1.017,1.017,0,0,0,.391.855,1.607,1.607,0,0,0,.961.27,1.264,1.264,0,0,0,.809-.219A.7.7,0,0,0,92.348,52.625Z" transform="translate(-3144.197 -4996.015)" fill="#12263f"/>
    <path id="Path_874056" data-name="Path 874056" d="M34.125,10.977H32.641V15H29.9V3.625h4.477a5,5,0,0,1,3.164.9A3.041,3.041,0,0,1,38.68,7.059a3.693,3.693,0,0,1-.48,1.967,3.41,3.41,0,0,1-1.5,1.264l2.375,4.593V15H36.133ZM32.641,8.867h1.734a1.557,1.557,0,0,0,1.176-.411,1.59,1.59,0,0,0,.395-1.147,1.608,1.608,0,0,0-.4-1.155,1.542,1.542,0,0,0-1.172-.419H32.641ZM44.3,15.156A4.345,4.345,0,0,1,41.156,14a4.006,4.006,0,0,1-1.2-3.02v-.219a5.191,5.191,0,0,1,.48-2.289,3.516,3.516,0,0,1,1.4-1.535,4.233,4.233,0,0,1,2.188-.543A3.659,3.659,0,0,1,46.836,7.5a4.344,4.344,0,0,1,1.031,3.082V11.6H42.633a1.9,1.9,0,0,0,.617,1.117,1.836,1.836,0,0,0,1.234.406,2.366,2.366,0,0,0,1.953-.875l1.2,1.422a3.363,3.363,0,0,1-1.395,1.082A4.713,4.713,0,0,1,44.3,15.156Zm-.3-6.734q-1.156,0-1.375,1.531h2.656v-.2a1.3,1.3,0,0,0-.32-.98A1.275,1.275,0,0,0,44.008,8.422Zm8.492,4.7a1.171,1.171,0,0,0,.859-.3,1.1,1.1,0,0,0,.3-.84h2.469a2.922,2.922,0,0,1-1,2.281,3.705,3.705,0,0,1-2.566.891A3.751,3.751,0,0,1,49.656,14a4.556,4.556,0,0,1-1.062-3.2v-.109a5.149,5.149,0,0,1,.473-2.262A3.441,3.441,0,0,1,50.43,6.918a4.065,4.065,0,0,1,2.109-.527,3.658,3.658,0,0,1,2.617.914,3.242,3.242,0,0,1,.969,2.477H53.656a1.445,1.445,0,0,0-.32-1.008,1.106,1.106,0,0,0-.859-.352q-1.023,0-1.2,1.3a9.206,9.206,0,0,0-.055,1.141,3.616,3.616,0,0,0,.3,1.766A1.055,1.055,0,0,0,52.5,13.125Zm9.773.961a2.714,2.714,0,0,1-2.258,1.07,2.662,2.662,0,0,1-2.105-.809,3.4,3.4,0,0,1-.715-2.324V6.547h2.633v5.492a.946.946,0,0,0,1.055,1.086,1.376,1.376,0,0,0,1.289-.648V6.547H64.82V15H62.352Zm9.1-5.156-.867-.062a1.558,1.558,0,0,0-1.594.781V15H66.281V6.547H68.75l.086,1.086a2.039,2.039,0,0,1,1.852-1.242,2.567,2.567,0,0,1,.734.094Zm5.375,3.7a.608.608,0,0,0-.352-.539,5.348,5.348,0,0,0-1.336-.422,6.092,6.092,0,0,1-1.625-.574,2.722,2.722,0,0,1-.977-.863,2.061,2.061,0,0,1-.336-1.164,2.336,2.336,0,0,1,.961-1.918A3.958,3.958,0,0,1,75.6,6.391a4.386,4.386,0,0,1,2.688.758A2.37,2.37,0,0,1,79.3,9.141H76.664q0-1.016-1.07-1.016a1.061,1.061,0,0,0-.7.23.714.714,0,0,0-.281.574.655.655,0,0,0,.344.57,3.248,3.248,0,0,0,1.1.359,9.486,9.486,0,0,1,1.324.336,2.406,2.406,0,0,1,1.906,2.352,2.214,2.214,0,0,1-1.027,1.883,4.505,4.505,0,0,1-2.66.727,4.6,4.6,0,0,1-1.937-.391A3.24,3.24,0,0,1,72.336,13.7a2.406,2.406,0,0,1-.477-1.414H74.32a1.017,1.017,0,0,0,.391.855,1.607,1.607,0,0,0,.961.27,1.264,1.264,0,0,0,.809-.219A.7.7,0,0,0,76.75,12.625Zm3.438-1.93a4.989,4.989,0,0,1,.492-2.254,3.52,3.52,0,0,1,1.414-1.52,4.259,4.259,0,0,1,2.164-.531A3.887,3.887,0,0,1,87.25,7.566a4.512,4.512,0,0,1,1.094,3.2v.094A4.378,4.378,0,0,1,87.246,14a3.9,3.9,0,0,1-2.973,1.16,3.942,3.942,0,0,1-2.9-1.082,4.232,4.232,0,0,1-1.18-2.934Zm2.633.164a3.145,3.145,0,0,0,.367,1.719,1.223,1.223,0,0,0,1.086.547q1.406,0,1.438-2.164V10.7q0-2.273-1.453-2.273-1.32,0-1.43,1.961ZM93.93,12.625a.608.608,0,0,0-.352-.539,5.348,5.348,0,0,0-1.336-.422,6.092,6.092,0,0,1-1.625-.574,2.722,2.722,0,0,1-.977-.863A2.061,2.061,0,0,1,89.3,9.063a2.336,2.336,0,0,1,.961-1.918,3.958,3.958,0,0,1,2.516-.754,4.386,4.386,0,0,1,2.688.758,2.37,2.37,0,0,1,1.016,1.992H93.844q0-1.016-1.07-1.016a1.061,1.061,0,0,0-.7.23.714.714,0,0,0-.281.574.655.655,0,0,0,.344.57,3.248,3.248,0,0,0,1.1.359,9.486,9.486,0,0,1,1.324.336,2.406,2.406,0,0,1,1.906,2.352,2.214,2.214,0,0,1-1.027,1.883,4.505,4.505,0,0,1-2.66.727,4.6,4.6,0,0,1-1.937-.391A3.24,3.24,0,0,1,89.516,13.7a2.406,2.406,0,0,1-.477-1.414H91.5a1.017,1.017,0,0,0,.391.855,1.607,1.607,0,0,0,.961.27,1.264,1.264,0,0,0,.809-.219A.7.7,0,0,0,93.93,12.625ZM28.449,35.156A4.345,4.345,0,0,1,25.3,34a4.006,4.006,0,0,1-1.2-3.02v-.219a5.191,5.191,0,0,1,.48-2.289,3.516,3.516,0,0,1,1.4-1.535,4.233,4.233,0,0,1,2.188-.543A3.659,3.659,0,0,1,30.98,27.5a4.344,4.344,0,0,1,1.031,3.082V31.6H26.777a1.9,1.9,0,0,0,.617,1.117,1.836,1.836,0,0,0,1.234.406,2.366,2.366,0,0,0,1.953-.875l1.2,1.422a3.363,3.363,0,0,1-1.395,1.082A4.713,4.713,0,0,1,28.449,35.156Zm-.3-6.734q-1.156,0-1.375,1.531h2.656v-.2a1.3,1.3,0,0,0-.32-.98A1.275,1.275,0,0,0,28.152,28.422Zm4.586,2.289a5.164,5.164,0,0,1,.867-3.164,2.854,2.854,0,0,1,2.422-1.156,2.428,2.428,0,0,1,1.906.891V23h2.641V35H38.207l-.133-.906a2.493,2.493,0,0,1-2.062,1.063A2.849,2.849,0,0,1,33.621,34,5.327,5.327,0,0,1,32.738,30.711Zm2.633.164q0,2.25,1.313,2.25a1.3,1.3,0,0,0,1.25-.734V29.172a1.261,1.261,0,0,0-1.234-.75q-1.219,0-1.32,1.969Zm11.734,3.211a2.714,2.714,0,0,1-2.258,1.07,2.662,2.662,0,0,1-2.105-.809,3.4,3.4,0,0,1-.715-2.324V26.547H44.66v5.492a.946.946,0,0,0,1.055,1.086A1.376,1.376,0,0,0,47,32.477v-5.93h2.648V35H47.184Zm7.563-.961a1.171,1.171,0,0,0,.859-.3,1.1,1.1,0,0,0,.3-.84h2.469a2.923,2.923,0,0,1-1,2.281,3.705,3.705,0,0,1-2.566.891A3.751,3.751,0,0,1,51.824,34a4.556,4.556,0,0,1-1.062-3.2v-.109a5.149,5.149,0,0,1,.473-2.262A3.441,3.441,0,0,1,52.6,26.918a4.065,4.065,0,0,1,2.109-.527,3.658,3.658,0,0,1,2.617.914,3.242,3.242,0,0,1,.969,2.477H55.824a1.445,1.445,0,0,0-.32-1.008,1.106,1.106,0,0,0-.859-.352q-1.023,0-1.2,1.3a9.206,9.206,0,0,0-.055,1.141,3.616,3.616,0,0,0,.3,1.766A1.055,1.055,0,0,0,54.668,33.125ZM64.168,35a2.973,2.973,0,0,1-.25-.758,2.448,2.448,0,0,1-2.031.914,3,3,0,0,1-2.031-.723,2.3,2.3,0,0,1-.836-1.816,2.364,2.364,0,0,1,1.016-2.078,5.174,5.174,0,0,1,2.953-.7H63.8v-.448q0-1.17-1.008-1.17a.824.824,0,0,0-.937.926H59.223a2.36,2.36,0,0,1,1.043-1.99,4.383,4.383,0,0,1,2.66-.765,3.843,3.843,0,0,1,2.555.789,2.743,2.743,0,0,1,.961,2.164v3.742a3.832,3.832,0,0,0,.359,1.781V35ZM62.52,33.281a1.469,1.469,0,0,0,.816-.211,1.322,1.322,0,0,0,.465-.477V31.242h-.766q-1.375,0-1.375,1.234a.754.754,0,0,0,.242.582A.876.876,0,0,0,62.52,33.281Zm8.445-8.836v2.1h1.391v1.828H70.965v3.867a.987.987,0,0,0,.172.664.922.922,0,0,0,.68.188,3.862,3.862,0,0,0,.656-.047V34.93a4.859,4.859,0,0,1-1.484.227,2.758,2.758,0,0,1-2.008-.641,2.626,2.626,0,0,1-.648-1.945v-4.2H67.254V26.547h1.078v-2.1ZM76.168,35H73.527V26.547h2.641Zm-2.8-10.633a1.175,1.175,0,0,1,.406-.922,1.727,1.727,0,0,1,2.109,0,1.249,1.249,0,0,1,0,1.844,1.727,1.727,0,0,1-2.109,0A1.175,1.175,0,0,1,73.371,24.367Zm7.789,7.5,1.336-5.32H85.27L82.512,35H79.824l-2.758-8.453h2.781ZM85.605,30.7a4.989,4.989,0,0,1,.492-2.254,3.52,3.52,0,0,1,1.414-1.52,4.259,4.259,0,0,1,2.164-.531,3.887,3.887,0,0,1,2.992,1.176,4.512,4.512,0,0,1,1.094,3.2v.094A4.378,4.378,0,0,1,92.664,34a3.9,3.9,0,0,1-2.973,1.16,3.942,3.942,0,0,1-2.9-1.082,4.232,4.232,0,0,1-1.18-2.934Zm2.633.164a3.145,3.145,0,0,0,.367,1.719,1.223,1.223,0,0,0,1.086.547q1.406,0,1.438-2.164V30.7q0-2.273-1.453-2.273-1.32,0-1.43,1.961Zm11.109,1.766A.608.608,0,0,0,99,32.086a5.348,5.348,0,0,0-1.336-.422,6.092,6.092,0,0,1-1.625-.574,2.722,2.722,0,0,1-.977-.863,2.061,2.061,0,0,1-.336-1.164,2.336,2.336,0,0,1,.961-1.918,3.958,3.958,0,0,1,2.516-.754,4.386,4.386,0,0,1,2.688.758,2.37,2.37,0,0,1,1.016,1.992H99.262q0-1.016-1.07-1.016a1.061,1.061,0,0,0-.7.23.714.714,0,0,0-.281.574.655.655,0,0,0,.344.57,3.248,3.248,0,0,0,1.1.359,9.486,9.486,0,0,1,1.324.336,2.406,2.406,0,0,1,1.906,2.352,2.214,2.214,0,0,1-1.027,1.883,4.505,4.505,0,0,1-2.66.727,4.6,4.6,0,0,1-1.937-.391A3.24,3.24,0,0,1,94.934,33.7a2.406,2.406,0,0,1-.477-1.414h2.461a1.017,1.017,0,0,0,.391.855,1.607,1.607,0,0,0,.961.27,1.264,1.264,0,0,0,.809-.219A.7.7,0,0,0,99.348,32.625ZM32.262,50.711a5.164,5.164,0,0,1,.867-3.164,2.854,2.854,0,0,1,2.422-1.156,2.428,2.428,0,0,1,1.906.891V43H40.1V55H37.73l-.133-.906a2.493,2.493,0,0,1-2.062,1.063A2.849,2.849,0,0,1,33.145,54,5.327,5.327,0,0,1,32.262,50.711Zm2.633.164q0,2.25,1.313,2.25a1.3,1.3,0,0,0,1.25-.734V49.172a1.261,1.261,0,0,0-1.234-.75q-1.219,0-1.32,1.969ZM44.371,55H41.73V46.547h2.641Zm-2.8-10.633a1.175,1.175,0,0,1,.406-.922,1.727,1.727,0,0,1,2.109,0,1.249,1.249,0,0,1,0,1.844,1.727,1.727,0,0,1-2.109,0A1.175,1.175,0,0,1,41.574,44.367Zm4.109,6.344a5.708,5.708,0,0,1,.422-2.266,3.4,3.4,0,0,1,1.211-1.52,3.192,3.192,0,0,1,1.836-.535,2.538,2.538,0,0,1,2.063.891l.094-.734H53.7V54.68a3.564,3.564,0,0,1-.52,1.941,3.334,3.334,0,0,1-1.5,1.266,5.528,5.528,0,0,1-2.281.441,4.769,4.769,0,0,1-1.8-.352,3.251,3.251,0,0,1-1.332-.914l1.1-1.547a2.414,2.414,0,0,0,1.938.867,1.568,1.568,0,0,0,1.75-1.8V54.32a2.472,2.472,0,0,1-1.914.836,3.055,3.055,0,0,1-2.5-1.184,4.9,4.9,0,0,1-.953-3.168Zm2.641.164a3.007,3.007,0,0,0,.391,1.645,1.232,1.232,0,0,0,1.094.605,1.4,1.4,0,0,0,1.242-.57V49a1.363,1.363,0,0,0-1.227-.578,1.241,1.241,0,0,0-1.1.629A3.429,3.429,0,0,0,48.324,50.875ZM57.973,55H55.332V46.547h2.641Zm-2.8-10.633a1.175,1.175,0,0,1,.406-.922,1.727,1.727,0,0,1,2.109,0,1.249,1.249,0,0,1,0,1.844,1.727,1.727,0,0,1-2.109,0A1.175,1.175,0,0,1,55.176,44.367Zm7.484.078v2.1h1.391v1.828H62.66v3.867a.987.987,0,0,0,.172.664.922.922,0,0,0,.68.188,3.862,3.862,0,0,0,.656-.047V54.93a4.859,4.859,0,0,1-1.484.227,2.758,2.758,0,0,1-2.008-.641,2.626,2.626,0,0,1-.648-1.945v-4.2H58.949V46.547h1.078v-2.1ZM69.848,55a2.973,2.973,0,0,1-.25-.758,2.448,2.448,0,0,1-2.031.914,3,3,0,0,1-2.031-.723,2.3,2.3,0,0,1-.836-1.816,2.364,2.364,0,0,1,1.016-2.078,5.174,5.174,0,0,1,2.953-.7h.813v-.448q0-1.17-1.008-1.17a.824.824,0,0,0-.937.926H64.9a2.36,2.36,0,0,1,1.043-1.99,4.383,4.383,0,0,1,2.66-.765,3.843,3.843,0,0,1,2.555.789,2.743,2.743,0,0,1,.961,2.164v3.742a3.832,3.832,0,0,0,.359,1.781V55ZM68.2,53.281a1.469,1.469,0,0,0,.816-.211,1.322,1.322,0,0,0,.465-.477V51.242h-.766q-1.375,0-1.375,1.234a.754.754,0,0,0,.242.582A.876.876,0,0,0,68.2,53.281ZM76.355,55H73.715V43h2.641Zm5.711.156A4.345,4.345,0,0,1,78.918,54a4.006,4.006,0,0,1-1.2-3.02v-.219a5.191,5.191,0,0,1,.48-2.289,3.516,3.516,0,0,1,1.4-1.535,4.233,4.233,0,0,1,2.188-.543A3.659,3.659,0,0,1,84.6,47.5a4.344,4.344,0,0,1,1.031,3.082V51.6H80.395a1.9,1.9,0,0,0,.617,1.117,1.836,1.836,0,0,0,1.234.406A2.366,2.366,0,0,0,84.2,52.25l1.2,1.422a3.363,3.363,0,0,1-1.395,1.082A4.713,4.713,0,0,1,82.066,55.156Zm-.3-6.734q-1.156,0-1.375,1.531h2.656v-.2a1.3,1.3,0,0,0-.32-.98A1.275,1.275,0,0,0,81.77,48.422Zm9.344,4.2a.608.608,0,0,0-.352-.539,5.347,5.347,0,0,0-1.336-.422A6.092,6.092,0,0,1,87.8,51.09a2.722,2.722,0,0,1-.977-.863,2.061,2.061,0,0,1-.336-1.164,2.336,2.336,0,0,1,.961-1.918,3.958,3.958,0,0,1,2.516-.754,4.386,4.386,0,0,1,2.688.758,2.37,2.37,0,0,1,1.016,1.992H91.027q0-1.016-1.07-1.016a1.061,1.061,0,0,0-.7.23.714.714,0,0,0-.281.574.655.655,0,0,0,.344.57,3.248,3.248,0,0,0,1.1.359,9.486,9.486,0,0,1,1.324.336,2.406,2.406,0,0,1,1.906,2.352,2.214,2.214,0,0,1-1.027,1.883,4.505,4.505,0,0,1-2.66.727,4.6,4.6,0,0,1-1.937-.391A3.24,3.24,0,0,1,86.7,53.7a2.406,2.406,0,0,1-.477-1.414h2.461a1.017,1.017,0,0,0,.391.855,1.607,1.607,0,0,0,.961.27,1.264,1.264,0,0,0,.809-.219A.7.7,0,0,0,91.113,52.625Z" transform="translate(-3158.872 -4844.843)" fill="#12263f"/>
    <path id="Path_874057" data-name="Path 874057" d="M13.3,15H10.578V10.25H6.539V15H3.8V3.625H6.539V8.141h4.039V3.625H13.3Zm5.7.156A4.345,4.345,0,0,1,15.859,14a4.006,4.006,0,0,1-1.2-3.02v-.219a5.191,5.191,0,0,1,.48-2.289,3.516,3.516,0,0,1,1.4-1.535,4.233,4.233,0,0,1,2.188-.543A3.659,3.659,0,0,1,21.539,7.5a4.344,4.344,0,0,1,1.031,3.082V11.6H17.336a1.9,1.9,0,0,0,.617,1.117,1.836,1.836,0,0,0,1.234.406,2.366,2.366,0,0,0,1.953-.875l1.2,1.422a3.363,3.363,0,0,1-1.395,1.082A4.713,4.713,0,0,1,19.008,15.156Zm-.3-6.734q-1.156,0-1.375,1.531h2.656v-.2a1.3,1.3,0,0,0-.32-.98A1.275,1.275,0,0,0,18.711,8.422Zm10.031.508-.867-.062a1.558,1.558,0,0,0-1.594.781V15H23.648V6.547h2.469L26.2,7.633a2.039,2.039,0,0,1,1.852-1.242,2.567,2.567,0,0,1,.734.094Zm6.063,0-.867-.062a1.558,1.558,0,0,0-1.594.781V15H29.711V6.547H32.18l.086,1.086a2.039,2.039,0,0,1,1.852-1.242,2.567,2.567,0,0,1,.734.094ZM40.281,15a2.973,2.973,0,0,1-.25-.758A2.448,2.448,0,0,1,38,15.156a3,3,0,0,1-2.031-.723,2.3,2.3,0,0,1-.836-1.816,2.364,2.364,0,0,1,1.016-2.078,5.174,5.174,0,0,1,2.953-.7h.813V9.388q0-1.17-1.008-1.17a.824.824,0,0,0-.937.926H35.336a2.36,2.36,0,0,1,1.043-1.99,4.383,4.383,0,0,1,2.66-.765,3.843,3.843,0,0,1,2.555.789,2.743,2.743,0,0,1,.961,2.164v3.742a3.832,3.832,0,0,0,.359,1.781V15Zm-1.648-1.719a1.469,1.469,0,0,0,.816-.211,1.322,1.322,0,0,0,.465-.477V11.242h-.766q-1.375,0-1.375,1.234a.754.754,0,0,0,.242.582A.876.876,0,0,0,38.633,13.281ZM46.5,6.547l.086.992A2.906,2.906,0,0,1,49,6.391a2.14,2.14,0,0,1,2.164,1.273,2.813,2.813,0,0,1,2.484-1.273q2.57,0,2.641,3.109V15H53.648V9.664a1.611,1.611,0,0,0-.219-.945.931.931,0,0,0-.8-.3,1.247,1.247,0,0,0-1.164.7l.008.109V15H48.836V9.68a1.694,1.694,0,0,0-.211-.961.929.929,0,0,0-.8-.3,1.263,1.263,0,0,0-1.156.7V15H44.031V6.547ZM60.57,15H57.93V6.547H60.57Zm-2.8-10.633a1.175,1.175,0,0,1,.406-.922,1.727,1.727,0,0,1,2.109,0,1.175,1.175,0,0,1,.406.922,1.175,1.175,0,0,1-.406.922,1.727,1.727,0,0,1-2.109,0A1.175,1.175,0,0,1,57.773,4.367Zm8.508,10.789A4.345,4.345,0,0,1,63.133,14a4.006,4.006,0,0,1-1.2-3.02v-.219a5.191,5.191,0,0,1,.48-2.289,3.516,3.516,0,0,1,1.4-1.535A4.233,4.233,0,0,1,66,6.391,3.659,3.659,0,0,1,68.813,7.5a4.344,4.344,0,0,1,1.031,3.082V11.6H64.609a1.9,1.9,0,0,0,.617,1.117,1.836,1.836,0,0,0,1.234.406,2.366,2.366,0,0,0,1.953-.875l1.2,1.422a3.363,3.363,0,0,1-1.395,1.082A4.713,4.713,0,0,1,66.281,15.156Zm-.3-6.734q-1.156,0-1.375,1.531h2.656v-.2a1.3,1.3,0,0,0-.32-.98A1.275,1.275,0,0,0,65.984,8.422ZM73.32,6.547l.086.992A2.867,2.867,0,0,1,75.82,6.391a2.412,2.412,0,0,1,1.973.789,3.757,3.757,0,0,1,.676,2.375V15H75.828V9.664a1.426,1.426,0,0,0-.258-.941,1.193,1.193,0,0,0-.937-.3,1.256,1.256,0,0,0-1.148.609V15H70.852V6.547Zm9.672-2.1v2.1h1.391V8.375H82.992v3.867a.987.987,0,0,0,.172.664.922.922,0,0,0,.68.188,3.862,3.862,0,0,0,.656-.047V14.93a4.859,4.859,0,0,1-1.484.227,2.758,2.758,0,0,1-2.008-.641,2.626,2.626,0,0,1-.648-1.945v-4.2H79.281V6.547h1.078v-2.1ZM90.18,15a2.973,2.973,0,0,1-.25-.758,2.448,2.448,0,0,1-2.031.914,3,3,0,0,1-2.031-.723,2.3,2.3,0,0,1-.836-1.816,2.364,2.364,0,0,1,1.016-2.078A5.174,5.174,0,0,1,89,9.836h.813V9.388q0-1.17-1.008-1.17a.824.824,0,0,0-.937.926H85.234a2.36,2.36,0,0,1,1.043-1.99,4.383,4.383,0,0,1,2.66-.765,3.843,3.843,0,0,1,2.555.789,2.743,2.743,0,0,1,.961,2.164v3.742a3.832,3.832,0,0,0,.359,1.781V15Zm-1.648-1.719a1.469,1.469,0,0,0,.816-.211,1.322,1.322,0,0,0,.465-.477V11.242h-.766q-1.375,0-1.375,1.234a.754.754,0,0,0,.242.582A.876.876,0,0,0,88.531,13.281Zm9.8-.656a.608.608,0,0,0-.352-.539,5.348,5.348,0,0,0-1.336-.422,6.092,6.092,0,0,1-1.625-.574,2.722,2.722,0,0,1-.977-.863,2.061,2.061,0,0,1-.336-1.164,2.336,2.336,0,0,1,.961-1.918,3.958,3.958,0,0,1,2.516-.754,4.386,4.386,0,0,1,2.688.758,2.37,2.37,0,0,1,1.016,1.992H98.25q0-1.016-1.07-1.016a1.061,1.061,0,0,0-.7.23.714.714,0,0,0-.281.574.655.655,0,0,0,.344.57,3.248,3.248,0,0,0,1.1.359,9.486,9.486,0,0,1,1.324.336,2.406,2.406,0,0,1,1.906,2.352,2.214,2.214,0,0,1-1.027,1.883,4.505,4.505,0,0,1-2.66.727,4.6,4.6,0,0,1-1.937-.391A3.24,3.24,0,0,1,93.922,13.7a2.406,2.406,0,0,1-.477-1.414h2.461a1.017,1.017,0,0,0,.391.855,1.607,1.607,0,0,0,.961.27,1.264,1.264,0,0,0,.809-.219A.7.7,0,0,0,98.336,12.625Zm7.422-1.914a5.164,5.164,0,0,1,.867-3.164,2.854,2.854,0,0,1,2.422-1.156,2.428,2.428,0,0,1,1.906.891V3h2.641V15h-2.367l-.133-.906a2.493,2.493,0,0,1-2.062,1.063A2.849,2.849,0,0,1,106.641,14,5.327,5.327,0,0,1,105.758,10.711Zm2.633.164q0,2.25,1.313,2.25a1.3,1.3,0,0,0,1.25-.734V9.172a1.261,1.261,0,0,0-1.234-.75q-1.219,0-1.32,1.969Zm10.789,4.281A4.345,4.345,0,0,1,116.031,14a4.006,4.006,0,0,1-1.2-3.02v-.219a5.191,5.191,0,0,1,.48-2.289,3.516,3.516,0,0,1,1.4-1.535,4.233,4.233,0,0,1,2.188-.543A3.659,3.659,0,0,1,121.711,7.5a4.344,4.344,0,0,1,1.031,3.082V11.6h-5.234a1.9,1.9,0,0,0,.617,1.117,1.836,1.836,0,0,0,1.234.406,2.366,2.366,0,0,0,1.953-.875l1.2,1.422a3.363,3.363,0,0,1-1.395,1.082A4.713,4.713,0,0,1,119.18,15.156Zm-.3-6.734q-1.156,0-1.375,1.531h2.656v-.2a1.3,1.3,0,0,0-.32-.98A1.275,1.275,0,0,0,118.883,8.422ZM16.789,33.125a1.171,1.171,0,0,0,.859-.3,1.1,1.1,0,0,0,.3-.84h2.469a2.923,2.923,0,0,1-1,2.281,3.705,3.705,0,0,1-2.566.891A3.751,3.751,0,0,1,13.945,34a4.556,4.556,0,0,1-1.062-3.2v-.109a5.149,5.149,0,0,1,.473-2.262,3.441,3.441,0,0,1,1.363-1.508,4.065,4.065,0,0,1,2.109-.527,3.658,3.658,0,0,1,2.617.914,3.242,3.242,0,0,1,.969,2.477H17.945a1.445,1.445,0,0,0-.32-1.008,1.106,1.106,0,0,0-.859-.352q-1.023,0-1.2,1.3a9.206,9.206,0,0,0-.055,1.141,3.616,3.616,0,0,0,.3,1.766A1.055,1.055,0,0,0,16.789,33.125ZM21.2,30.7a4.989,4.989,0,0,1,.492-2.254,3.52,3.52,0,0,1,1.414-1.52,4.259,4.259,0,0,1,2.164-.531,3.887,3.887,0,0,1,2.992,1.176,4.512,4.512,0,0,1,1.094,3.2v.094A4.378,4.378,0,0,1,28.254,34a3.9,3.9,0,0,1-2.973,1.16,3.942,3.942,0,0,1-2.9-1.082,4.232,4.232,0,0,1-1.18-2.934Zm2.633.164a3.145,3.145,0,0,0,.367,1.719,1.223,1.223,0,0,0,1.086.547q1.406,0,1.438-2.164V30.7q0-2.273-1.453-2.273-1.32,0-1.43,1.961ZM33,26.547l.086.992A2.906,2.906,0,0,1,35.5,26.391a2.14,2.14,0,0,1,2.164,1.273,2.813,2.813,0,0,1,2.484-1.273q2.57,0,2.641,3.109V35H40.148V29.664a1.611,1.611,0,0,0-.219-.945.931.931,0,0,0-.8-.3,1.247,1.247,0,0,0-1.164.7l.008.109V35H35.336V29.68a1.694,1.694,0,0,0-.211-.961.929.929,0,0,0-.8-.3,1.263,1.263,0,0,0-1.156.7V35H30.531V26.547Zm16.328,7.539a2.714,2.714,0,0,1-2.258,1.07,2.662,2.662,0,0,1-2.105-.809,3.4,3.4,0,0,1-.715-2.324V26.547h2.633v5.492a.946.946,0,0,0,1.055,1.086,1.376,1.376,0,0,0,1.289-.648v-5.93h2.648V35H49.406Zm6.406-7.539.086.992a2.867,2.867,0,0,1,2.414-1.148,2.412,2.412,0,0,1,1.973.789,3.757,3.757,0,0,1,.676,2.375V35H58.242V29.664a1.426,1.426,0,0,0-.258-.941,1.193,1.193,0,0,0-.937-.3,1.256,1.256,0,0,0-1.148.609V35H53.266V26.547ZM65.117,35H62.477V26.547h2.641Zm-2.8-10.633a1.175,1.175,0,0,1,.406-.922,1.727,1.727,0,0,1,2.109,0,1.249,1.249,0,0,1,0,1.844,1.727,1.727,0,0,1-2.109,0A1.175,1.175,0,0,1,62.32,24.367Zm7.992,8.758a1.171,1.171,0,0,0,.859-.3,1.1,1.1,0,0,0,.3-.84h2.469a2.923,2.923,0,0,1-1,2.281,3.705,3.705,0,0,1-2.566.891A3.751,3.751,0,0,1,67.469,34a4.556,4.556,0,0,1-1.062-3.2v-.109a5.149,5.149,0,0,1,.473-2.262,3.441,3.441,0,0,1,1.363-1.508,4.065,4.065,0,0,1,2.109-.527,3.658,3.658,0,0,1,2.617.914,3.242,3.242,0,0,1,.969,2.477H71.469a1.445,1.445,0,0,0-.32-1.008,1.106,1.106,0,0,0-.859-.352q-1.023,0-1.2,1.3a9.206,9.206,0,0,0-.055,1.141,3.616,3.616,0,0,0,.3,1.766A1.055,1.055,0,0,0,70.313,33.125ZM79.813,35a2.973,2.973,0,0,1-.25-.758,2.448,2.448,0,0,1-2.031.914,3,3,0,0,1-2.031-.723,2.3,2.3,0,0,1-.836-1.816,2.364,2.364,0,0,1,1.016-2.078,5.174,5.174,0,0,1,2.953-.7h.813v-.448q0-1.17-1.008-1.17a.824.824,0,0,0-.937.926H74.867a2.36,2.36,0,0,1,1.043-1.99,4.383,4.383,0,0,1,2.66-.765,3.843,3.843,0,0,1,2.555.789,2.743,2.743,0,0,1,.961,2.164v3.742a3.832,3.832,0,0,0,.359,1.781V35Zm-1.648-1.719a1.469,1.469,0,0,0,.816-.211,1.322,1.322,0,0,0,.465-.477V31.242H78.68q-1.375,0-1.375,1.234a.754.754,0,0,0,.242.582A.876.876,0,0,0,78.164,33.281Zm8.953-.156a1.171,1.171,0,0,0,.859-.3,1.1,1.1,0,0,0,.3-.84h2.469a2.923,2.923,0,0,1-1,2.281,3.705,3.705,0,0,1-2.566.891A3.751,3.751,0,0,1,84.273,34a4.556,4.556,0,0,1-1.062-3.2v-.109a5.149,5.149,0,0,1,.473-2.262,3.441,3.441,0,0,1,1.363-1.508,4.065,4.065,0,0,1,2.109-.527,3.658,3.658,0,0,1,2.617.914,3.242,3.242,0,0,1,.969,2.477H88.273a1.445,1.445,0,0,0-.32-1.008,1.106,1.106,0,0,0-.859-.352q-1.023,0-1.2,1.3a9.206,9.206,0,0,0-.055,1.141,3.616,3.616,0,0,0,.3,1.766A1.055,1.055,0,0,0,87.117,33.125ZM94.633,35H91.992V26.547h2.641Zm-2.8-10.633a1.175,1.175,0,0,1,.406-.922,1.727,1.727,0,0,1,2.109,0,1.249,1.249,0,0,1,0,1.844,1.727,1.727,0,0,1-2.109,0A1.175,1.175,0,0,1,91.836,24.367ZM95.922,30.7a4.989,4.989,0,0,1,.492-2.254,3.52,3.52,0,0,1,1.414-1.52,4.259,4.259,0,0,1,2.164-.531,3.887,3.887,0,0,1,2.992,1.176,4.512,4.512,0,0,1,1.094,3.2v.094A4.378,4.378,0,0,1,102.98,34a3.9,3.9,0,0,1-2.973,1.16,3.942,3.942,0,0,1-2.9-1.082,4.232,4.232,0,0,1-1.18-2.934Zm2.633.164a3.145,3.145,0,0,0,.367,1.719,1.223,1.223,0,0,0,1.086.547q1.406,0,1.438-2.164V30.7q0-2.273-1.453-2.273-1.32,0-1.43,1.961Zm1.8-7.859h2.781l-2.172,2.453-2.148,0Zm7.3,3.547.086.992a2.867,2.867,0,0,1,2.414-1.148,2.412,2.412,0,0,1,1.973.789,3.757,3.757,0,0,1,.676,2.375V35h-2.641V29.664a1.426,1.426,0,0,0-.258-.941,1.193,1.193,0,0,0-.937-.3,1.256,1.256,0,0,0-1.148.609V35h-2.633V26.547ZM20.121,52.625a.608.608,0,0,0-.352-.539,5.347,5.347,0,0,0-1.336-.422,6.092,6.092,0,0,1-1.625-.574,2.722,2.722,0,0,1-.977-.863,2.061,2.061,0,0,1-.336-1.164,2.336,2.336,0,0,1,.961-1.918,3.958,3.958,0,0,1,2.516-.754,4.386,4.386,0,0,1,2.688.758,2.37,2.37,0,0,1,1.016,1.992H20.035q0-1.016-1.07-1.016a1.061,1.061,0,0,0-.7.23.714.714,0,0,0-.281.574.655.655,0,0,0,.344.57,3.248,3.248,0,0,0,1.1.359,9.486,9.486,0,0,1,1.324.336,2.406,2.406,0,0,1,1.906,2.352,2.214,2.214,0,0,1-1.027,1.883,4.505,4.505,0,0,1-2.66.727,4.6,4.6,0,0,1-1.937-.391A3.24,3.24,0,0,1,15.707,53.7a2.406,2.406,0,0,1-.477-1.414h2.461a1.017,1.017,0,0,0,.391.855,1.607,1.607,0,0,0,.961.27,1.264,1.264,0,0,0,.809-.219A.7.7,0,0,0,20.121,52.625ZM26.668,55H24.027V46.547h2.641Zm-2.8-10.633a1.175,1.175,0,0,1,.406-.922,1.727,1.727,0,0,1,2.109,0,1.249,1.249,0,0,1,0,1.844,1.727,1.727,0,0,1-2.109,0A1.175,1.175,0,0,1,23.871,44.367Zm6.836,2.18.086.992a2.867,2.867,0,0,1,2.414-1.148,2.412,2.412,0,0,1,1.973.789,3.757,3.757,0,0,1,.676,2.375V55H33.215V49.664a1.426,1.426,0,0,0-.258-.941,1.193,1.193,0,0,0-.937-.3,1.256,1.256,0,0,0-1.148.609V55H28.238V46.547Zm10.18,6.578a1.171,1.171,0,0,0,.859-.3,1.1,1.1,0,0,0,.3-.84h2.469a2.923,2.923,0,0,1-1,2.281,3.705,3.705,0,0,1-2.566.891A3.751,3.751,0,0,1,38.043,54a4.556,4.556,0,0,1-1.062-3.2v-.109a5.149,5.149,0,0,1,.473-2.262,3.441,3.441,0,0,1,1.363-1.508,4.065,4.065,0,0,1,2.109-.527,3.658,3.658,0,0,1,2.617.914,3.242,3.242,0,0,1,.969,2.477H42.043a1.445,1.445,0,0,0-.32-1.008,1.106,1.106,0,0,0-.859-.352q-1.023,0-1.2,1.3a9.206,9.206,0,0,0-.055,1.141,3.616,3.616,0,0,0,.3,1.766A1.055,1.055,0,0,0,40.887,53.125Zm9.852-4.2-.867-.062a1.558,1.558,0,0,0-1.594.781V55H45.645V46.547h2.469l.086,1.086a2.039,2.039,0,0,1,1.852-1.242,2.567,2.567,0,0,1,.734.094Zm.336,1.766a4.989,4.989,0,0,1,.492-2.254,3.52,3.52,0,0,1,1.414-1.52,4.259,4.259,0,0,1,2.164-.531,3.887,3.887,0,0,1,2.992,1.176,4.512,4.512,0,0,1,1.094,3.2v.094A4.378,4.378,0,0,1,58.133,54a3.9,3.9,0,0,1-2.973,1.16,3.942,3.942,0,0,1-2.9-1.082,4.232,4.232,0,0,1-1.18-2.934Zm2.633.164a3.145,3.145,0,0,0,.367,1.719,1.223,1.223,0,0,0,1.086.547q1.406,0,1.438-2.164V50.7q0-2.273-1.453-2.273-1.32,0-1.43,1.961ZM55.5,43h2.781l-2.172,2.453-2.148,0Zm7.3,3.547.086.992a2.867,2.867,0,0,1,2.414-1.148,2.412,2.412,0,0,1,1.973.789,3.757,3.757,0,0,1,.676,2.375V55H65.316V49.664a1.426,1.426,0,0,0-.258-.941,1.193,1.193,0,0,0-.937-.3,1.256,1.256,0,0,0-1.148.609V55H60.34V46.547ZM72.191,55H69.551V46.547h2.641Zm-2.8-10.633a1.175,1.175,0,0,1,.406-.922,1.727,1.727,0,0,1,2.109,0,1.249,1.249,0,0,1,0,1.844,1.727,1.727,0,0,1-2.109,0A1.175,1.175,0,0,1,69.395,44.367Zm7.992,8.758a1.171,1.171,0,0,0,.859-.3,1.1,1.1,0,0,0,.3-.84h2.469a2.923,2.923,0,0,1-1,2.281,3.705,3.705,0,0,1-2.566.891A3.751,3.751,0,0,1,74.543,54a4.556,4.556,0,0,1-1.062-3.2v-.109a5.149,5.149,0,0,1,.473-2.262,3.441,3.441,0,0,1,1.363-1.508,4.065,4.065,0,0,1,2.109-.527,3.658,3.658,0,0,1,2.617.914,3.242,3.242,0,0,1,.969,2.477H78.543a1.445,1.445,0,0,0-.32-1.008,1.106,1.106,0,0,0-.859-.352q-1.023,0-1.2,1.3a9.206,9.206,0,0,0-.055,1.141,3.616,3.616,0,0,0,.3,1.766A1.055,1.055,0,0,0,77.387,53.125ZM86.887,55a2.973,2.973,0,0,1-.25-.758,2.448,2.448,0,0,1-2.031.914,3,3,0,0,1-2.031-.723,2.3,2.3,0,0,1-.836-1.816,2.364,2.364,0,0,1,1.016-2.078,5.174,5.174,0,0,1,2.953-.7h.813v-.448q0-1.17-1.008-1.17a.824.824,0,0,0-.937.926H81.941a2.36,2.36,0,0,1,1.043-1.99,4.383,4.383,0,0,1,2.66-.765,3.843,3.843,0,0,1,2.555.789,2.743,2.743,0,0,1,.961,2.164v3.742a3.832,3.832,0,0,0,.359,1.781V55Zm-1.648-1.719a1.469,1.469,0,0,0,.816-.211,1.322,1.322,0,0,0,.465-.477V51.242h-.766q-1.375,0-1.375,1.234a.754.754,0,0,0,.242.582A.876.876,0,0,0,85.238,53.281Zm9.8-.656a.608.608,0,0,0-.352-.539,5.347,5.347,0,0,0-1.336-.422,6.092,6.092,0,0,1-1.625-.574,2.722,2.722,0,0,1-.977-.863,2.061,2.061,0,0,1-.336-1.164,2.336,2.336,0,0,1,.961-1.918,3.958,3.958,0,0,1,2.516-.754,4.386,4.386,0,0,1,2.688.758A2.37,2.37,0,0,1,97.6,49.141H94.957q0-1.016-1.07-1.016a1.061,1.061,0,0,0-.7.23.714.714,0,0,0-.281.574.655.655,0,0,0,.344.57,3.248,3.248,0,0,0,1.1.359,9.486,9.486,0,0,1,1.324.336,2.406,2.406,0,0,1,1.906,2.352,2.214,2.214,0,0,1-1.027,1.883,4.505,4.505,0,0,1-2.66.727,4.6,4.6,0,0,1-1.937-.391A3.24,3.24,0,0,1,90.629,53.7a2.406,2.406,0,0,1-.477-1.414h2.461a1.017,1.017,0,0,0,.391.855,1.607,1.607,0,0,0,.961.27,1.264,1.264,0,0,0,.809-.219A.7.7,0,0,0,95.043,52.625Zm7.422-1.93a4.989,4.989,0,0,1,.492-2.254,3.52,3.52,0,0,1,1.414-1.52,4.259,4.259,0,0,1,2.164-.531,3.887,3.887,0,0,1,2.992,1.176,4.512,4.512,0,0,1,1.094,3.2v.094a4.378,4.378,0,0,1-1.1,3.137,3.9,3.9,0,0,1-2.973,1.16,3.942,3.942,0,0,1-2.9-1.082,4.232,4.232,0,0,1-1.18-2.934Zm2.633.164a3.145,3.145,0,0,0,.367,1.719,1.223,1.223,0,0,0,1.086.547q1.406,0,1.438-2.164V50.7q0-2.273-1.453-2.273-1.32,0-1.43,1.961ZM22.7,75a2.973,2.973,0,0,1-.25-.758,2.448,2.448,0,0,1-2.031.914,3,3,0,0,1-2.031-.723,2.3,2.3,0,0,1-.836-1.816,2.364,2.364,0,0,1,1.016-2.078,5.174,5.174,0,0,1,2.953-.7h.813v-.448q0-1.17-1.008-1.17a.824.824,0,0,0-.937.926H17.75a2.36,2.36,0,0,1,1.043-1.99,4.383,4.383,0,0,1,2.66-.765,3.843,3.843,0,0,1,2.555.789,2.743,2.743,0,0,1,.961,2.164v3.742a3.832,3.832,0,0,0,.359,1.781V75Zm-1.648-1.719a1.469,1.469,0,0,0,.816-.211,1.322,1.322,0,0,0,.465-.477V71.242h-.766q-1.375,0-1.375,1.234a.754.754,0,0,0,.242.582A.876.876,0,0,0,21.047,73.281Zm9.8-.656a.608.608,0,0,0-.352-.539,5.348,5.348,0,0,0-1.336-.422,6.092,6.092,0,0,1-1.625-.574,2.722,2.722,0,0,1-.977-.863,2.061,2.061,0,0,1-.336-1.164,2.336,2.336,0,0,1,.961-1.918,3.958,3.958,0,0,1,2.516-.754,4.386,4.386,0,0,1,2.688.758,2.37,2.37,0,0,1,1.016,1.992H30.766q0-1.016-1.07-1.016a1.061,1.061,0,0,0-.7.23.714.714,0,0,0-.281.574.655.655,0,0,0,.344.57,3.248,3.248,0,0,0,1.1.359,9.485,9.485,0,0,1,1.324.336,2.406,2.406,0,0,1,1.906,2.352,2.214,2.214,0,0,1-1.027,1.883,4.505,4.505,0,0,1-2.66.727,4.6,4.6,0,0,1-1.937-.391A3.24,3.24,0,0,1,26.438,73.7a2.406,2.406,0,0,1-.477-1.414h2.461a1.017,1.017,0,0,0,.391.855,1.607,1.607,0,0,0,.961.27,1.264,1.264,0,0,0,.809-.219A.7.7,0,0,0,30.852,72.625ZM37.4,75H34.758V66.547H37.4ZM34.6,64.367a1.175,1.175,0,0,1,.406-.922,1.727,1.727,0,0,1,2.109,0,1.249,1.249,0,0,1,0,1.844,1.727,1.727,0,0,1-2.109,0A1.175,1.175,0,0,1,34.6,64.367Zm6.836,2.18.086.992a2.867,2.867,0,0,1,2.414-1.148,2.412,2.412,0,0,1,1.973.789,3.757,3.757,0,0,1,.676,2.375V75H43.945V69.664a1.426,1.426,0,0,0-.258-.941,1.193,1.193,0,0,0-.937-.3,1.256,1.256,0,0,0-1.148.609V75H38.969V66.547Zm10.18,6.578a1.171,1.171,0,0,0,.859-.3,1.1,1.1,0,0,0,.3-.84h2.469a2.922,2.922,0,0,1-1,2.281,3.705,3.705,0,0,1-2.566.891A3.751,3.751,0,0,1,48.773,74a4.556,4.556,0,0,1-1.062-3.2v-.109a5.149,5.149,0,0,1,.473-2.262,3.441,3.441,0,0,1,1.363-1.508,4.065,4.065,0,0,1,2.109-.527,3.658,3.658,0,0,1,2.617.914,3.242,3.242,0,0,1,.969,2.477H52.773a1.445,1.445,0,0,0-.32-1.008,1.106,1.106,0,0,0-.859-.352q-1.023,0-1.2,1.3a9.206,9.206,0,0,0-.055,1.141,3.616,3.616,0,0,0,.3,1.766A1.055,1.055,0,0,0,51.617,73.125Zm9.852-4.2-.867-.062a1.558,1.558,0,0,0-1.594.781V75H56.375V66.547h2.469l.086,1.086a2.039,2.039,0,0,1,1.852-1.242,2.567,2.567,0,0,1,.734.094ZM61.8,70.7a4.989,4.989,0,0,1,.492-2.254,3.52,3.52,0,0,1,1.414-1.52,4.259,4.259,0,0,1,2.164-.531,3.887,3.887,0,0,1,2.992,1.176,4.512,4.512,0,0,1,1.094,3.2v.094A4.378,4.378,0,0,1,68.863,74a3.9,3.9,0,0,1-2.973,1.16,3.942,3.942,0,0,1-2.9-1.082,4.232,4.232,0,0,1-1.18-2.934Zm2.633.164a3.145,3.145,0,0,0,.367,1.719,1.223,1.223,0,0,0,1.086.547q1.406,0,1.438-2.164V70.7q0-2.273-1.453-2.273-1.32,0-1.43,1.961ZM66.234,63h2.781l-2.172,2.453-2.148,0Zm7.3,3.547.086.992a2.867,2.867,0,0,1,2.414-1.148,2.412,2.412,0,0,1,1.973.789,3.757,3.757,0,0,1,.676,2.375V75H76.047V69.664a1.426,1.426,0,0,0-.258-.941,1.193,1.193,0,0,0-.937-.3,1.256,1.256,0,0,0-1.148.609V75H71.07V66.547ZM82.922,75H80.281V66.547h2.641Zm-2.8-10.633a1.175,1.175,0,0,1,.406-.922,1.727,1.727,0,0,1,2.109,0,1.249,1.249,0,0,1,0,1.844,1.727,1.727,0,0,1-2.109,0A1.175,1.175,0,0,1,80.125,64.367Zm7.992,8.758a1.171,1.171,0,0,0,.859-.3,1.1,1.1,0,0,0,.3-.84h2.469a2.922,2.922,0,0,1-1,2.281,3.705,3.705,0,0,1-2.566.891A3.751,3.751,0,0,1,85.273,74a4.556,4.556,0,0,1-1.062-3.2v-.109a5.149,5.149,0,0,1,.473-2.262,3.441,3.441,0,0,1,1.363-1.508,4.065,4.065,0,0,1,2.109-.527,3.658,3.658,0,0,1,2.617.914,3.242,3.242,0,0,1,.969,2.477H89.273a1.445,1.445,0,0,0-.32-1.008,1.106,1.106,0,0,0-.859-.352q-1.023,0-1.2,1.3a9.206,9.206,0,0,0-.055,1.141,3.616,3.616,0,0,0,.3,1.766A1.055,1.055,0,0,0,88.117,73.125ZM97.617,75a2.973,2.973,0,0,1-.25-.758,2.448,2.448,0,0,1-2.031.914,3,3,0,0,1-2.031-.723,2.3,2.3,0,0,1-.836-1.816,2.364,2.364,0,0,1,1.016-2.078,5.174,5.174,0,0,1,2.953-.7h.813v-.448q0-1.17-1.008-1.17a.824.824,0,0,0-.937.926H92.672a2.36,2.36,0,0,1,1.043-1.99,4.383,4.383,0,0,1,2.66-.765,3.843,3.843,0,0,1,2.555.789,2.743,2.743,0,0,1,.961,2.164v3.742a3.832,3.832,0,0,0,.359,1.781V75Zm-1.648-1.719a1.469,1.469,0,0,0,.816-.211,1.322,1.322,0,0,0,.465-.477V71.242h-.766q-1.375,0-1.375,1.234a.754.754,0,0,0,.242.582A.876.876,0,0,0,95.969,73.281Zm9.8-.656a.608.608,0,0,0-.352-.539,5.348,5.348,0,0,0-1.336-.422,6.092,6.092,0,0,1-1.625-.574,2.722,2.722,0,0,1-.977-.863,2.061,2.061,0,0,1-.336-1.164,2.336,2.336,0,0,1,.961-1.918,3.958,3.958,0,0,1,2.516-.754,4.386,4.386,0,0,1,2.688.758,2.37,2.37,0,0,1,1.016,1.992h-2.641q0-1.016-1.07-1.016a1.061,1.061,0,0,0-.7.23.714.714,0,0,0-.281.574.655.655,0,0,0,.344.57,3.248,3.248,0,0,0,1.1.359,9.485,9.485,0,0,1,1.324.336,2.406,2.406,0,0,1,1.906,2.352,2.214,2.214,0,0,1-1.027,1.883,4.505,4.505,0,0,1-2.66.727,4.6,4.6,0,0,1-1.937-.391,3.24,3.24,0,0,1-1.328-1.062,2.406,2.406,0,0,1-.477-1.414h2.461a1.017,1.017,0,0,0,.391.855,1.607,1.607,0,0,0,.961.27,1.264,1.264,0,0,0,.809-.219A.7.7,0,0,0,105.773,72.625Z" transform="translate(-3151.366 -4703.274)" fill="#12263f"/>
    <path id="Path_874058" data-name="Path 874058" d="M19.234,13.594a4.409,4.409,0,0,1-1.852,1.133,7.986,7.986,0,0,1-2.672.43,4.764,4.764,0,0,1-3.57-1.367,5.534,5.534,0,0,1-1.43-3.8L9.7,9A6.788,6.788,0,0,1,10.3,6.066,4.409,4.409,0,0,1,12,4.137a4.807,4.807,0,0,1,2.559-.676,5.039,5.039,0,0,1,3.3.973,4.121,4.121,0,0,1,1.371,2.9H16.586a2.157,2.157,0,0,0-.609-1.359,1.966,1.966,0,0,0-1.328-.406,1.789,1.789,0,0,0-1.594.875,4.672,4.672,0,0,0-.57,2.5v.688a4.574,4.574,0,0,0,.582,2.559,2.059,2.059,0,0,0,1.832.855,2.3,2.3,0,0,0,1.594-.477V10.8H14.586V8.922h4.648ZM25.82,8.93l-.867-.062a1.558,1.558,0,0,0-1.594.781V15H20.727V6.547H23.2l.086,1.086a2.039,2.039,0,0,1,1.852-1.242,2.567,2.567,0,0,1,.734.094ZM31.8,14.086a2.714,2.714,0,0,1-2.258,1.07,2.662,2.662,0,0,1-2.105-.809,3.4,3.4,0,0,1-.715-2.324V6.547h2.633v5.492a.946.946,0,0,0,1.055,1.086,1.376,1.376,0,0,0,1.289-.648V6.547h2.648V15H31.883Zm11.836-3.25a5.1,5.1,0,0,1-.887,3.145,2.843,2.843,0,0,1-2.395,1.176,2.437,2.437,0,0,1-1.914-.852V18.25H35.813V6.547h2.461l.078.781a2.437,2.437,0,0,1,1.992-.937,2.866,2.866,0,0,1,2.43,1.152,5.16,5.16,0,0,1,.867,3.168Zm-2.633-.164q0-2.25-1.312-2.25a1.239,1.239,0,0,0-1.25.672v3.328a1.279,1.279,0,0,0,1.266.7q1.258,0,1.3-2.172Zm3.461.023a4.989,4.989,0,0,1,.492-2.254,3.52,3.52,0,0,1,1.414-1.52,4.259,4.259,0,0,1,2.164-.531,3.887,3.887,0,0,1,2.992,1.176,4.512,4.512,0,0,1,1.094,3.2v.094A4.378,4.378,0,0,1,51.527,14a3.9,3.9,0,0,1-2.973,1.16,3.942,3.942,0,0,1-2.9-1.082,4.232,4.232,0,0,1-1.18-2.934Zm2.633.164a3.145,3.145,0,0,0,.367,1.719,1.223,1.223,0,0,0,1.086.547q1.406,0,1.438-2.164V10.7q0-2.273-1.453-2.273-1.32,0-1.43,1.961Zm11.109,1.766a.608.608,0,0,0-.352-.539,5.348,5.348,0,0,0-1.336-.422A6.092,6.092,0,0,1,54.9,11.09a2.722,2.722,0,0,1-.977-.863,2.061,2.061,0,0,1-.336-1.164,2.336,2.336,0,0,1,.961-1.918,3.958,3.958,0,0,1,2.516-.754,4.386,4.386,0,0,1,2.688.758,2.37,2.37,0,0,1,1.016,1.992H58.125q0-1.016-1.07-1.016a1.061,1.061,0,0,0-.7.23.714.714,0,0,0-.281.574.655.655,0,0,0,.344.57,3.248,3.248,0,0,0,1.1.359,9.485,9.485,0,0,1,1.324.336,2.406,2.406,0,0,1,1.906,2.352,2.214,2.214,0,0,1-1.027,1.883,4.505,4.505,0,0,1-2.66.727,4.6,4.6,0,0,1-1.937-.391A3.24,3.24,0,0,1,53.8,13.7a2.406,2.406,0,0,1-.477-1.414h2.461a1.017,1.017,0,0,0,.391.855,1.607,1.607,0,0,0,.961.27,1.264,1.264,0,0,0,.809-.219A.7.7,0,0,0,58.211,12.625Zm7.422-1.914A5.164,5.164,0,0,1,66.5,7.547a2.854,2.854,0,0,1,2.422-1.156,2.428,2.428,0,0,1,1.906.891V3h2.641V15H71.1l-.133-.906a2.493,2.493,0,0,1-2.062,1.063A2.849,2.849,0,0,1,66.516,14,5.327,5.327,0,0,1,65.633,10.711Zm2.633.164q0,2.25,1.313,2.25a1.3,1.3,0,0,0,1.25-.734V9.172a1.261,1.261,0,0,0-1.234-.75q-1.219,0-1.32,1.969Zm10.789,4.281A4.345,4.345,0,0,1,75.906,14a4.006,4.006,0,0,1-1.2-3.02v-.219a5.191,5.191,0,0,1,.48-2.289,3.516,3.516,0,0,1,1.4-1.535,4.233,4.233,0,0,1,2.188-.543A3.659,3.659,0,0,1,81.586,7.5a4.344,4.344,0,0,1,1.031,3.082V11.6H77.383A1.9,1.9,0,0,0,78,12.719a1.836,1.836,0,0,0,1.234.406,2.366,2.366,0,0,0,1.953-.875l1.2,1.422A3.363,3.363,0,0,1,81,14.754,4.713,4.713,0,0,1,79.055,15.156Zm-.3-6.734q-1.156,0-1.375,1.531h2.656v-.2a1.3,1.3,0,0,0-.32-.98A1.275,1.275,0,0,0,78.758,8.422ZM24.5,24.445v2.1h1.391v1.828H24.5v3.867a.987.987,0,0,0,.172.664.922.922,0,0,0,.68.188A3.862,3.862,0,0,0,26,33.047V34.93a4.859,4.859,0,0,1-1.484.227,2.758,2.758,0,0,1-2.008-.641,2.626,2.626,0,0,1-.648-1.945v-4.2H20.785V26.547h1.078v-2.1Zm7.539,4.484-.867-.062a1.558,1.558,0,0,0-1.594.781V35H26.941V26.547H29.41l.086,1.086a2.039,2.039,0,0,1,1.852-1.242,2.567,2.567,0,0,1,.734.094ZM37.512,35a2.973,2.973,0,0,1-.25-.758,2.448,2.448,0,0,1-2.031.914,3,3,0,0,1-2.031-.723,2.3,2.3,0,0,1-.836-1.816,2.364,2.364,0,0,1,1.016-2.078,5.174,5.174,0,0,1,2.953-.7h.813v-.448q0-1.17-1.008-1.17a.824.824,0,0,0-.937.926H32.566a2.36,2.36,0,0,1,1.043-1.99,4.383,4.383,0,0,1,2.66-.765,3.843,3.843,0,0,1,2.555.789,2.743,2.743,0,0,1,.961,2.164v3.742a3.832,3.832,0,0,0,.359,1.781V35Zm-1.648-1.719a1.469,1.469,0,0,0,.816-.211,1.322,1.322,0,0,0,.465-.477V31.242h-.766Q35,31.242,35,32.477a.754.754,0,0,0,.242.582A.876.876,0,0,0,35.863,33.281ZM49.09,30.844a5.152,5.152,0,0,1-.859,3.2,2.878,2.878,0,0,1-2.422,1.117,2.5,2.5,0,0,1-2.078-1.023L43.621,35H41.262V23h2.633v4.227a2.41,2.41,0,0,1,1.9-.836,2.879,2.879,0,0,1,2.438,1.133,5.179,5.179,0,0,1,.859,3.188Zm-2.641-.168a3.437,3.437,0,0,0-.324-1.735,1.093,1.093,0,0,0-1-.519,1.261,1.261,0,0,0-1.234.679v3.354a1.268,1.268,0,0,0,1.25.671,1.118,1.118,0,0,0,1.18-.9A6.5,6.5,0,0,0,46.449,30.676ZM55.012,35a2.973,2.973,0,0,1-.25-.758,2.448,2.448,0,0,1-2.031.914,3,3,0,0,1-2.031-.723,2.3,2.3,0,0,1-.836-1.816,2.364,2.364,0,0,1,1.016-2.078,5.174,5.174,0,0,1,2.953-.7h.813v-.448q0-1.17-1.008-1.17a.824.824,0,0,0-.937.926H50.066a2.36,2.36,0,0,1,1.043-1.99,4.383,4.383,0,0,1,2.66-.765,3.843,3.843,0,0,1,2.555.789,2.743,2.743,0,0,1,.961,2.164v3.742a3.832,3.832,0,0,0,.359,1.781V35Zm-1.648-1.719a1.469,1.469,0,0,0,.816-.211,1.322,1.322,0,0,0,.465-.477V31.242h-.766q-1.375,0-1.375,1.234a.754.754,0,0,0,.242.582A.876.876,0,0,0,53.363,33.281Zm8.211-6.734v8.742a3.068,3.068,0,0,1-.859,2.313,3.3,3.3,0,0,1-2.375.813,5.607,5.607,0,0,1-1.242-.133V36.289a5.037,5.037,0,0,0,.742.07.963.963,0,0,0,1.094-1.086V26.547Zm-2.836-2.18a1.175,1.175,0,0,1,.406-.922,1.727,1.727,0,0,1,2.109,0,1.249,1.249,0,0,1,0,1.844,1.727,1.727,0,0,1-2.109,0A1.175,1.175,0,0,1,58.738,24.367ZM62.73,30.7a4.989,4.989,0,0,1,.492-2.254,3.52,3.52,0,0,1,1.414-1.52,4.259,4.259,0,0,1,2.164-.531,3.887,3.887,0,0,1,2.992,1.176,4.512,4.512,0,0,1,1.094,3.2v.094A4.378,4.378,0,0,1,69.789,34a3.9,3.9,0,0,1-2.973,1.16,3.942,3.942,0,0,1-2.9-1.082,4.232,4.232,0,0,1-1.18-2.934Zm2.633.164a3.145,3.145,0,0,0,.367,1.719,1.223,1.223,0,0,0,1.086.547q1.406,0,1.438-2.164V30.7q0-2.273-1.453-2.273-1.32,0-1.43,1.961Z" transform="translate(-3139.482 -4542.045)" fill="#f3f9ff"/>
    <path id="Path_874059" data-name="Path 874059" d="M6,0H143a6,6,0,0,1,6,6V22a6,6,0,0,1-6,6H6a6,6,0,0,1-6-6V6A6,6,0,0,1,6,0Z" transform="translate(-3166.108 -4302.471)" fill="#216102"/>
    <path id="Path_874060" data-name="Path 874060" d="M27.414,12.875H23.656L23,15H20.07L24.242,3.625H26.82L31.023,15H28.078Zm-3.1-2.117h2.445L25.531,6.813Zm14.891.078a5.1,5.1,0,0,1-.887,3.145,2.843,2.843,0,0,1-2.395,1.176,2.437,2.437,0,0,1-1.914-.852V18.25H31.375V6.547h2.461l.078.781a2.437,2.437,0,0,1,1.992-.937,2.866,2.866,0,0,1,2.43,1.152,5.16,5.16,0,0,1,.867,3.168Zm-2.633-.164q0-2.25-1.312-2.25a1.239,1.239,0,0,0-1.25.672v3.328a1.279,1.279,0,0,0,1.266.7q1.258,0,1.3-2.172ZM45.477,8.93l-.867-.062a1.558,1.558,0,0,0-1.594.781V15H40.383V6.547h2.469l.086,1.086a2.039,2.039,0,0,1,1.852-1.242,2.567,2.567,0,0,1,.734.094Zm4.891,6.227A4.345,4.345,0,0,1,47.219,14a4.006,4.006,0,0,1-1.2-3.02v-.219a5.191,5.191,0,0,1,.48-2.289,3.516,3.516,0,0,1,1.4-1.535,4.233,4.233,0,0,1,2.188-.543A3.659,3.659,0,0,1,52.9,7.5a4.344,4.344,0,0,1,1.031,3.082V11.6H48.7a1.9,1.9,0,0,0,.617,1.117,1.836,1.836,0,0,0,1.234.406A2.366,2.366,0,0,0,52.5,12.25l1.2,1.422a3.363,3.363,0,0,1-1.395,1.082A4.713,4.713,0,0,1,50.367,15.156Zm-.3-6.734q-1.156,0-1.375,1.531h2.656v-.2a1.3,1.3,0,0,0-.32-.98A1.275,1.275,0,0,0,50.07,8.422Zm7.336-1.875.086.992a2.867,2.867,0,0,1,2.414-1.148,2.412,2.412,0,0,1,1.973.789,3.757,3.757,0,0,1,.676,2.375V15H59.914V9.664a1.426,1.426,0,0,0-.258-.941,1.193,1.193,0,0,0-.937-.3,1.256,1.256,0,0,0-1.148.609V15H54.938V6.547Zm6.273,4.164a5.164,5.164,0,0,1,.867-3.164,2.854,2.854,0,0,1,2.422-1.156,2.428,2.428,0,0,1,1.906.891V3h2.641V15H69.148l-.133-.906a2.493,2.493,0,0,1-2.062,1.063A2.849,2.849,0,0,1,64.563,14,5.327,5.327,0,0,1,63.68,10.711Zm2.633.164q0,2.25,1.313,2.25a1.3,1.3,0,0,0,1.25-.734V9.172a1.261,1.261,0,0,0-1.234-.75q-1.219,0-1.32,1.969ZM75.789,15H73.148V6.547h2.641Zm-2.8-10.633a1.175,1.175,0,0,1,.406-.922,1.727,1.727,0,0,1,2.109,0,1.175,1.175,0,0,1,.406.922,1.175,1.175,0,0,1-.406.922,1.727,1.727,0,0,1-2.109,0A1.175,1.175,0,0,1,72.992,4.367Zm7.523,8.6h3.852V15h-7.18V13.531l3.75-4.953H77.352V6.547h6.93V7.969Z" transform="translate(-3146.108 -4297.471)" fill="#fff"/>
    <g id="Group_1099462" data-name="Group 1099462" transform="translate(-3172.061 -5179.7)">
      <g id="Group_1099461" data-name="Group 1099461" clip-path="url(#clip-path)">
        <path id="Path_873846" data-name="Path 873846" d="M18.548,302.931,1.432,328.519c-5.985,9.368,8.324,19.021,14.8,10.042,0,0,29.143-38.9,29.143-38.9Z" transform="translate(0 -200.635)" fill="#dc7c59"/>
        <path id="Path_873847" data-name="Path 873847" d="M63.049,218.756c-10.807-3.555-27.273,24.323-33.778,34.384l26.09,17.173c4.837-7.946,37.066-40.024,7.689-51.557" transform="translate(-19.598 -146.256)" fill="#eb3737"/>
        <path id="Path_873848" data-name="Path 873848" d="M261.586,218.444s18.7,1.221,19.45,28.721L268.2,250.123Z" transform="translate(-175.14 -146.255)" fill="#eb3737"/>
        <path id="Path_873849" data-name="Path 873849" d="M105.23,212.407c20.9-3.842,32.461-3.841,48.15.61,17.76,5.037,2.722,52.991-1.447,71.18H110.324L96.319,230.105c1.916-4.328,2.373-17.3,8.911-17.7" transform="translate(-64.489 -140.333)" fill="#eb3737"/>
        <path id="Path_873850" data-name="Path 873850" d="M110.183,323.445a.285.285,0,0,1-.278-.221l-4.975-21.03a.285.285,0,0,1,.213-.343.277.277,0,0,1,.343.213l4.974,21.03a.284.284,0,0,1-.213.343.219.219,0,0,1-.065.009" transform="translate(-70.249 -202.091)"/>
        <path id="Path_873851" data-name="Path 873851" d="M282.556,301.681a.249.249,0,0,1-.04,0,.287.287,0,0,1-.243-.324l3-21.03a.272.272,0,0,1,.323-.243.285.285,0,0,1,.243.323l-3,21.031a.286.286,0,0,1-.284.246" transform="translate(-188.99 -187.52)"/>
        <path id="Path_873852" data-name="Path 873852" d="M174.4,210.887l-13-8.031.685-4.454H159.94a3.35,3.35,0,0,0-2.366.979l-3.9,3.89,8.955,13.422a2.832,2.832,0,0,0,4.179.593Z" transform="translate(-102.891 -132.837)" fill="#fff"/>
        <path id="Path_873853" data-name="Path 873853" d="M220.292,198.4h1.616a3.352,3.352,0,0,1,2.784,1.487l2.693,4.024-1.173,11.631a1.515,1.515,0,0,1-2.434,1.047l-7.386-5.7,4.16-6.958Z" transform="translate(-144.882 -132.836)" fill="#fff"/>
        <path id="Path_873854" data-name="Path 873854" d="M215.069,250.348a1.288,1.288,0,1,1-1.288-1.288,1.288,1.288,0,0,1,1.288,1.288" transform="translate(-142.272 -166.754)" fill="#fff"/>
        <path id="Path_873855" data-name="Path 873855" d="M215.937,265.871a1.288,1.288,0,1,1-1.288-1.286,1.288,1.288,0,0,1,1.288,1.286" transform="translate(-142.853 -177.148)" fill="#fff"/>
        <path id="Path_873856" data-name="Path 873856" d="M182.033,327.373s7.259-12.857,26.29-5.257l-7.378,15.691-16.641-.57Z" transform="translate(-121.877 -214.059)" fill="#dc7c59"/>
        <path id="Path_873857" data-name="Path 873857" d="M78.443,342.892l-51.13,8.769L30.3,370.728l50.411-17.972Z" transform="translate(-18.287 -229.577)" fill="#dc7c59"/>
        <path id="Path_873858" data-name="Path 873858" d="M44.652,361.717a.286.286,0,0,1-.048-.568l12.5-2.143a.279.279,0,0,1,.329.234.285.285,0,0,1-.234.329l-12.5,2.143a.362.362,0,0,1-.048,0" transform="translate(-29.705 -240.363)"/>
        <path id="Path_873859" data-name="Path 873859" d="M185.988,352.179l-3.466-3.851,21.054-49.439s37.781-6.36,53.234-1.121Z" transform="translate(-122.204 -197.98)" fill="#fff"/>
        <path id="Path_873860" data-name="Path 873860" d="M341.135,301.961l-8.214,1.121-24.453,47.973s7.094.186,10.267-5.973Z" transform="translate(-206.529 -202.173)"/>
        <path id="Path_873861" data-name="Path 873861" d="M255.619,305.353l-42.067,3.735-20.541,49.556,38.155-5.318Z" transform="translate(-129.227 -204.444)" fill="#132a35"/>
        <path id="Path_873862" data-name="Path 873862" d="M287.382,340.581l-23.489,2.086-2.307,5.629,22.877-2.166Z" transform="translate(-175.14 -228.03)" fill="#fff"/>
        <path id="Path_873863" data-name="Path 873863" d="M368.408,255.808l-4.951-22.78h-4.849l-9.406,21.6Z" transform="translate(-233.802 -156.019)" fill="#fff"/>
        <path id="Path_873864" data-name="Path 873864" d="M333.479,353.652s5.6,1.367,10.338-5.866.148-11.071.148-11.071l-11.874-8.355a1.263,1.263,0,0,0-1.6,1.944l7.047,6.77-10.65-7.01a1.708,1.708,0,0,0-1.991,2.772l9.87,7.728-8.869-4.6a1.424,1.424,0,0,0-1.494,2.416l9.031,6.575-7.7-3.676a1.526,1.526,0,0,0-1.558,2.608l10.389,7.594Z" transform="translate(-216.624 -219.694)" fill="#dc7c59"/>
        <path id="Path_873865" data-name="Path 873865" d="M243.822,100.419a16.354,16.354,0,0,1,1.669-5.977c1.31-2.6,3.335-5.094,6.438-3.674,5.285,2.42.2,11.041-5.174,11.8-1.582.224-3.046-.855-2.933-2.151" transform="translate(-163.243 -60.496)" fill="#b95536"/>
        <path id="Path_873866" data-name="Path 873866" d="M264.084,119.94a1.456,1.456,0,1,1-1.56-1.345,1.457,1.457,0,0,1,1.56,1.345" transform="translate(-174.866 -79.401)" fill="#fff"/>
        <path id="Path_873867" data-name="Path 873867" d="M132.466,106.38a13.34,13.34,0,1,1-13.34-13.341,13.34,13.34,0,0,1,13.34,13.341" transform="translate(-70.827 -62.293)"/>
        <path id="Path_873868" data-name="Path 873868" d="M134.69,28.058s-3.942-2.13-8.074,3.791-3.493,18.323,4.93,20.58Z" transform="translate(-83.114 -18.536)"/>
        <path id="Path_873869" data-name="Path 873869" d="M156.068,9.522s2.246-11.578,19.66-9.2,28.922,9.824,16.829,26.306Z" transform="translate(-104.493 0)"/>
        <path id="Path_873870" data-name="Path 873870" d="M179.5,30.427c.159,11.227-8.215,20.426-20.3,20.6s-22.019-8.791-22.179-20.018,9.512-20.467,21.6-20.639S179.339,19.2,179.5,30.427" transform="translate(-91.735 -6.94)"/>
        <path id="Path_873871" data-name="Path 873871" d="M181.663,121.195l-4.611,29.969,13,8.031,4.161-6.958-1.3-27.728Z" transform="translate(-118.543 -81.144)" fill="#dc7c59"/>
        <path id="Path_873872" data-name="Path 873872" d="M204.617,152.74l-11.289-10.7,10.542-4.476Z" transform="translate(-129.439 -92.101)" fill="#b95536"/>
        <path id="Path_873873" data-name="Path 873873" d="M169.115,22.335a24.38,24.38,0,0,1,11.4-.611c5.108,1,11.683,4.111,12.633,13.413,1.582,15.5-.131,27.145-7.745,30.767-5.847,2.78-10.147,1.8-16.976-2.051-2.542-1.433-5.039-6.734-5.764-9.7L159.634,45.9s-8.164-18.469,9.481-23.56" transform="translate(-105.617 -14.269)" fill="#dc7c59"/>
        <path id="Path_873874" data-name="Path 873874" d="M238.2,112.267a.285.285,0,0,1-.18-.508l1.648-1.336-2.008-3.71a.286.286,0,1,1,.5-.272l2.121,3.919a.285.285,0,0,1-.072.358l-1.832,1.486a.286.286,0,0,1-.181.062" transform="translate(-159.1 -71.165)"/>
        <path id="Path_873875" data-name="Path 873875" d="M244.49,64.158s-.616,1.533,1.778,1.811a21.32,21.32,0,0,1,3.992.657,1.49,1.49,0,0,0,1.586-.4.839.839,0,0,0-.007-1.106,6.079,6.079,0,0,0-4-1.995c-2.835-.36-3.354,1.034-3.354,1.034" transform="translate(-163.646 -42.223)"/>
        <path id="Path_873876" data-name="Path 873876" d="M198.541,64.116s.815,1.522-2.535,1.844A53.109,53.109,0,0,0,189,67.307a2.605,2.605,0,0,1-2.2-.372.674.674,0,0,1,.042-1.107,16.145,16.145,0,0,1,7.055-2.685c3.968-.412,4.651.974,4.651.974" transform="translate(-124.883 -42.225)"/>
        <path id="Path_873877" data-name="Path 873877" d="M205.776,94.009s-1.673-6.119-9.7-1.539c0,0,3.384,5.551,9.7,1.539" transform="translate(-131.279 -60.773)" fill="#fff"/>
      </g>
    </g>
    <g id="Group_1099464" data-name="Group 1099464" transform="translate(-3107.264 -5149.704)">
      <g id="Group_1099463" data-name="Group 1099463" clip-path="url(#clip-path-2)">
        <path id="Path_873878" data-name="Path 873878" d="M209.453,92.713a2.528,2.528,0,1,1-2.848-2.249,2.568,2.568,0,0,1,2.848,2.249" transform="translate(-201.662 -90.55)"/>
      </g>
    </g>
    <g id="Group_1099466" data-name="Group 1099466" transform="translate(-3172.061 -5179.7)">
      <g id="Group_1099465" data-name="Group 1099465" clip-path="url(#clip-path)">
        <path id="Path_873880" data-name="Path 873880" d="M195.447,91.572a8.543,8.543,0,0,1,2.548-1.35,9.27,9.27,0,0,1,2.86-.507,5.812,5.812,0,0,1,2.886.747,4.059,4.059,0,0,1,1.865,2.5.5.5,0,1,1-.972.239.182.182,0,0,1-.005-.025l-.011-.052a3.181,3.181,0,0,0-1.34-1.931,5.043,5.043,0,0,0-2.449-.753,8.621,8.621,0,0,0-2.652.362,8.01,8.01,0,0,0-2.434,1.161.243.243,0,0,1-.34-.05.247.247,0,0,1,.046-.336" transform="translate(-130.796 -60.067)"/>
        <path id="Path_873881" data-name="Path 873881" d="M243.845,93.247s2.322-6.122,6.815-1.976c0,0-2.506,5.808-6.815,1.976" transform="translate(-163.262 -60.144)" fill="#fff"/>
      </g>
    </g>
    <g id="Group_1099468" data-name="Group 1099468" transform="translate(-3091.478 -5150.014)">
      <g id="Group_1099467" data-name="Group 1099467" clip-path="url(#clip-path-4)">
        <path id="Path_873882" data-name="Path 873882" d="M248.811,91.893a1.934,1.934,0,1,0,2.217-2.067,2.174,2.174,0,0,0-2.217,2.067" transform="translate(-247.147 -89.816)"/>
      </g>
    </g>
    <g id="Group_1099470" data-name="Group 1099470" transform="translate(-3172.061 -5179.7)">
      <g id="Group_1099469" data-name="Group 1099469" clip-path="url(#clip-path)">
        <path id="Path_873884" data-name="Path 873884" d="M249.91,90.889a3.1,3.1,0,0,0-1.3-1.049,2.571,2.571,0,0,0-1.594-.107l-.029.008-.011,0a3.839,3.839,0,0,0-1.954,1.022,5.111,5.111,0,0,0-1.216,1.857l-.01.026a.423.423,0,0,1-.792-.3l.006-.016a5.847,5.847,0,0,1,.65-1.146,5.788,5.788,0,0,1,.875-.96,4.514,4.514,0,0,1,2.348-1.081l-.039.009a3.1,3.1,0,0,1,1.968.22,3.563,3.563,0,0,1,1.435,1.279.2.2,0,0,1-.058.284.207.207,0,0,1-.279-.05" transform="translate(-162.681 -59.645)"/>
        <path id="Path_873885" data-name="Path 873885" d="M226.906,131.9a3.179,3.179,0,0,1-3.329,2.231A6.2,6.2,0,0,1,218.443,131Z" transform="translate(-146.255 -87.709)" fill="#d8553d"/>
        <path id="Path_873886" data-name="Path 873886" d="M219.472,130.193s7.509-1.3,7.986.8c0,0-5.23.793-7.986-.8" transform="translate(-146.944 -86.901)" fill="#d8553d"/>
        <path id="Path_873887" data-name="Path 873887" d="M222.774,131.315a12.028,12.028,0,0,1-5.852-1.592.286.286,0,1,1,.276-.5c4.941,2.718,8.832.921,8.872.9a.288.288,0,0,1,.381.134.285.285,0,0,1-.133.381,8.73,8.73,0,0,1-3.544.672" transform="translate(-145.137 -86.495)"/>
        <path id="Path_873888" data-name="Path 873888" d="M153.6,60.04s8.317-17.953-3.1-23.7c0,0-3.66-3.622-5.514,6.1-2.976,15.593,8.617,17.6,8.617,17.6" transform="translate(-96.743 -23.89)"/>
        <path id="Path_873889" data-name="Path 873889" d="M155.261,102.163a17.212,17.212,0,0,0-2.6-5.987c-1.741-2.517-4.21-4.827-7.239-2.9-5.16,3.285,1.381,11.536,7.1,11.551,1.681,0,3.053-1.33,2.747-2.665" transform="translate(-96.108 -61.974)" fill="#dc7c59"/>
        <path id="Path_873890" data-name="Path 873890" d="M159.353,109.544a.285.285,0,0,1-.255-.158c-.086-.174-2.16-4.269-5.9-2.935a.286.286,0,0,1-.192-.539c4.224-1.508,6.585,3.172,6.609,3.221a.286.286,0,0,1-.129.382.291.291,0,0,1-.128.029" transform="translate(-102.312 -70.711)"/>
        <path id="Path_873891" data-name="Path 873891" d="M166.708,124.994a1.456,1.456,0,1,1-1.456-1.456,1.457,1.457,0,0,1,1.456,1.456" transform="translate(-109.667 -82.713)" fill="#fff"/>
        <path id="Path_873892" data-name="Path 873892" d="M166.651,24.046s10.081,4.165,18.673,0,13.652,3.729,13.652,3.729-3.065-12.549-17.3-11.568-15.024,7.838-15.024,7.838" transform="translate(-111.578 -10.815)"/>
      </g>
    </g>
    <g id="Group_1099473" data-name="Group 1099473" transform="translate(-3164.27 -4454.104)">
      <g id="Group_1099472" data-name="Group 1099472" clip-path="url(#clip-path-6)">
        <path id="Path_873893" data-name="Path 873893" d="M191.385,359.271s-4.889-.121-5.647,22.464c-.156,4.642-.364-3.116-.076,1.519l55.774,1.588-12.507-25.571-17.438-2.214Z" transform="translate(-120.069 -231.092)" fill="#0f4088"/>
        <path id="Path_873894" data-name="Path 873894" d="M177.3,163.543s-8.536,8.672-18.4,12.417-28.888,15.788-43.328,16.893l4.8-20.153L151.7,155.612Z" transform="translate(-74.8 -100.714)" fill="#132a35"/>
        <path id="Path_873895" data-name="Path 873895" d="M38.64,100.107l-.715-5.287a2.709,2.709,0,0,0-1.907-2.231l-6.265-1.875a2.037,2.037,0,0,0-1.56,3.74l3,1.636s-4.162,3.311-.146,7.753Z" transform="translate(-17.559 -58.656)" fill="#fbb087"/>
        <path id="Path_873896" data-name="Path 873896" d="M32.108,74.533l-8.18-11.16a1.571,1.571,0,0,0-2.664,1.646l5.145,10.015Z" transform="translate(-13.65 -40.599)" fill="#fbb087"/>
        <path id="Path_873897" data-name="Path 873897" d="M21.6,86.388l-3.14-1.068a2.174,2.174,0,0,0-1.9.41l-.725.579a2.177,2.177,0,0,0-.554,2.738l4.008,7.143,5.157-3.8Z" transform="translate(-9.723 -55.176)" fill="#fbb087"/>
        <path id="Path_873898" data-name="Path 873898" d="M9.6,91.4H8.429a2.142,2.142,0,0,0-1.5.611l-.967.948a2.14,2.14,0,0,0-.213,2.812l5.134,6.841L15.337,99.3Z" transform="translate(-3.445 -59.158)" fill="#fbb087"/>
        <path id="Path_873899" data-name="Path 873899" d="M4.276,99.08H3.106a2.139,2.139,0,0,0-1.5.611l-.967.948a2.138,2.138,0,0,0-.214,2.812l1.8,2.4a5.571,5.571,0,0,0,7.783,1.123Z" transform="translate(0 -64.126)" fill="#fbb087"/>
        <path id="Path_873900" data-name="Path 873900" d="M13.331,109.591l2.4,2.652a6.167,6.167,0,0,0,8.71.435l5.269-4.767-4.085-5.224h-5.1l-4.451,3.083Z" transform="translate(-8.628 -66.46)" fill="#fbb087"/>
        <path id="Path_873901" data-name="Path 873901" d="M41.451,117.5l8.77,12.035-9.781,7.3-8.965-14.851Z" transform="translate(-20.371 -76.044)" fill="#fbb087"/>
        <path id="Path_873902" data-name="Path 873902" d="M72.473,158,49.718,128.114l-14.216,11,19.663,31.171c3.989,5.082,9.774,6.327,14.362,2.635,4.113-3.309,8.179-10.9,2.947-14.919" transform="translate(-22.977 -82.917)" fill="#132a35"/>
        <path id="Path_873903" data-name="Path 873903" d="M231.631,156.94l-18.058-13.23-9.2.11s-9.167,1.494-15.879,11.075-5.352,86.645-5.352,86.645,6.956-.644,7.108-11.739c0,0,2.343,15.048,15.077,16.6s33.427-2.436,33.427-2.436l-14.168-37.072,11.388-32.079a17.634,17.634,0,0,0-4.345-17.875" transform="translate(-118.461 -93.011)" fill="#132a35"/>
        <path id="Path_873904" data-name="Path 873904" d="M206.888,148.111l-5.422,9.55,2.768-.034-3.028,3.9a62.519,62.519,0,0,0,2.78,26.24L216.9,146.322l-.995-2.3a21.546,21.546,0,0,0-6.263,2.387" transform="translate(-129.985 -93.214)" fill="#274f5e"/>
        <path id="Path_873905" data-name="Path 873905" d="M237.062,148.437S215.887,165.4,209.5,187.568c0,0-2.345-27.26,11.914-43.748l9.2-.111Z" transform="translate(-135.496 -93.01)" fill="#fff"/>
      </g>
    </g>
    <g id="Group_1099475" data-name="Group 1099475" transform="translate(-3090.412 -4403.405)">
      <g id="Group_1099474" data-name="Group 1099474" clip-path="url(#clip-path-7)">
        <path id="Path_873906" data-name="Path 873906" d="M247.978,135.423s-21.117,9.126-20.283-5.477l6.463-12.452s14.434,4.5,15.3,4.719l3.8,5.09,1.066,3.49Z" transform="translate(-221.209 -126.743)" fill="#fbb087"/>
      </g>
    </g>
    <g id="Group_1099477" data-name="Group 1099477" transform="translate(-3164.27 -4454.104)">
      <g id="Group_1099476" data-name="Group 1099476" clip-path="url(#clip-path-6)">
        <path id="Path_873908" data-name="Path 873908" d="M237.326,157.11l4.456,3.264-5.914,10.22-5.9.071,4.116,4.062s-15.609,12.26-24.318,21.514c0,0,5.781-22.455,27.565-39.131" transform="translate(-135.76 -101.684)" fill="#274f5e"/>
        <path id="Path_873909" data-name="Path 873909" d="M186.554,214.436a.283.283,0,0,0,.284-.27,66.745,66.745,0,0,1,1.813-12.421.284.284,0,1,0-.547-.152,67.192,67.192,0,0,0-1.832,12.548.282.282,0,0,0,.27.3Z" transform="translate(-120.557 -130.339)"/>
        <path id="Path_873910" data-name="Path 873910" d="M294.336,167.515A25.585,25.585,0,0,1,308.21,179.6c4.878,9.359,19.688,31.565,22.482,45.776l-20.578-2.4-19.944-29.1Z" transform="translate(-187.802 -108.418)" fill="#132a35"/>
        <path id="Path_873911" data-name="Path 873911" d="M298.777,255.3a.279.279,0,0,0,.16-.049.284.284,0,0,0,.074-.394l-9.126-13.317a.284.284,0,0,0-.469.32l9.126,13.317a.287.287,0,0,0,.234.123" transform="translate(-187.282 -156.248)"/>
        <path id="Path_873912" data-name="Path 873912" d="M164.572,278.489l33.459-13.44,3.375,8.014-32.682,12.756Z" transform="translate(-106.513 -171.543)" fill="#eb3737"/>
        <path id="Path_873913" data-name="Path 873913" d="M201.176,273.43l-1.736-3.808-31.377,12.887,1.883,3.813Z" transform="translate(-108.772 -174.502)" fill="#fff"/>
        <path id="Path_873914" data-name="Path 873914" d="M172.864,284.959,192.129,331.1l33.006-13.913-18.6-46.031Z" transform="translate(-111.88 -175.496)" fill="#f24949"/>
        <path id="Path_873915" data-name="Path 873915" d="M167.5,305.664l-2.925-2.517,19.073,46.028,3.118,2.63Z" transform="translate(-106.514 -196.2)" fill="#eb3737"/>
        <path id="Path_873916" data-name="Path 873916" d="M224.623,312.388l-21.092,8.653-2.342-5.523,21.092-8.653Z" transform="translate(-130.212 -198.607)" fill="#fff"/>
        <path id="Path_873917" data-name="Path 873917" d="M268.311,346.12l-23.318,12.607,2.6,9.049,24.5-8.447Z" transform="translate(-158.563 -224.013)" fill="#fbb087"/>
        <path id="Path_873918" data-name="Path 873918" d="M215.781,380.468s-16.527-3-15.906,2.947,3.586,19.977,18.5,6.1Z" transform="translate(-129.35 -245.755)" fill="#fbb087"/>
        <path id="Path_873919" data-name="Path 873919" d="M223.261,372.783l-2.237-2.4a9.442,9.442,0,0,0-4.81-2.766l-3.414-.778a1.816,1.816,0,0,0-1.4,3.287l4.915,3.244Z" transform="translate(-136.29 -237.395)" fill="#fbb087"/>
        <path id="Path_873920" data-name="Path 873920" d="M291.271,304.3l-37.127,19.791,7.229,17.38,38.964-16.4c6.016-2.354,8.875-7.536,6.663-12.992-1.984-4.892-10.371-11.634-15.729-7.783" transform="translate(-164.485 -196.208)" fill="#132a35"/>
        <path id="Path_873921" data-name="Path 873921" d="M340.469,309.614a.281.281,0,0,0,.133-.034l6.489-3.459a.284.284,0,1,0-.268-.5l-6.489,3.46a.283.283,0,0,0,.134.533" transform="translate(-220.172 -197.78)"/>
        <path id="Path_873922" data-name="Path 873922" d="M217.162,77.635a12.47,12.47,0,0,0-1.326-4.535c-1.022-1.964-2.585-3.848-4.935-2.738-4,1.89-.055,8.408,4.048,8.937,1.207.157,2.312-.678,2.214-1.664" transform="translate(-135.419 -45.325)" fill="#ee896c"/>
        <path id="Path_873923" data-name="Path 873923" d="M210.948,23.3c.808,8.511,8.108,18.165,17.314,18.185s15.2-7.188,17.386-15.452c2.458-9.276-8.114-15.619-17.32-15.508-5.8.069-18.259,3.52-17.38,12.775" transform="translate(-136.5 -6.811)" fill="#823e22"/>
        <path id="Path_873924" data-name="Path 873924" d="M253.631,89.421l2.347,25.223-13.038.024.788-22.6Z" transform="translate(-157.234 -57.874)" fill="#fbb087"/>
        <path id="Path_873925" data-name="Path 873925" d="M243.879,113l8.5-8.253-8.068-3.311Z" transform="translate(-157.841 -65.65)" fill="#ee896c"/>
        <path id="Path_873926" data-name="Path 873926" d="M233.778,19.137a18.553,18.553,0,0,0-8.681-.361c-3.88.808-8.858,3.237-9.5,10.328-1.063,11.818.356,21.351,6.187,24.038,4.478,2.063,7.742,1.277,12.907-1.717,1.921-1.114,3.766-5.856,4.29-8.118l2.228-6.317s6.046-14.138-7.436-17.852" transform="translate(-139.33 -11.923)" fill="#fbb087"/>
        <path id="Path_873927" data-name="Path 873927" d="M231.827,75.114a.218.218,0,0,0,.135-.389l-1.275-1.007,1.834-3.985a.218.218,0,0,0-.4-.182l-1.905,4.141a.218.218,0,0,0,.063.261l1.41,1.114a.218.218,0,0,0,.134.047" transform="translate(-148.988 -44.931)"/>
        <path id="Path_873928" data-name="Path 873928" d="M220.055,43.15a1.568,1.568,0,0,1-1.33,2.035,11.63,11.63,0,0,0-3.03.769.917.917,0,0,1-1.214-.433,1.283,1.283,0,0,1-.011-1.234,4.469,4.469,0,0,1,3.016-2.261c2.154-.428,2.568,1.123,2.568,1.123" transform="translate(-138.71 -27.153)" fill="#823e22"/>
        <path id="Path_873929" data-name="Path 873929" d="M245.973,42.82s-.6,1.705,1.955,2.033a29.336,29.336,0,0,1,5.356,1.439,1.5,1.5,0,0,0,1.672-.436.976.976,0,0,0-.047-1.235,10.513,10.513,0,0,0-5.409-2.929c-3.027-.424-3.528,1.128-3.528,1.128" transform="translate(-159.157 -26.936)" fill="#823e22"/>
        <path id="Path_873930" data-name="Path 873930" d="M244.559,63.854s1.217-4.674,7.37-1.261c0,0-2.49,4.858-7.37,1.261" transform="translate(-158.282 -39.704)" fill="#fff"/>
      </g>
    </g>
    <g id="Group_1099479" data-name="Group 1099479" transform="translate(-3077.992 -4432.462)">
      <g id="Group_1099478" data-name="Group 1099478" clip-path="url(#clip-path-9)">
        <path id="Path_873931" data-name="Path 873931" d="M247.955,63.055a2.135,2.135,0,1,0,2.383-1.929,2.168,2.168,0,0,0-2.383,1.929" transform="translate(-246.746 -61.194)"/>
      </g>
    </g>
    <g id="Group_1099481" data-name="Group 1099481" transform="translate(-3164.27 -4454.104)">
      <g id="Group_1099480" data-name="Group 1099480" clip-path="url(#clip-path-6)">
        <path id="Path_873933" data-name="Path 873933" d="M251.577,61.959a6.5,6.5,0,0,0-1.952-1,7.047,7.047,0,0,0-2.182-.36,4.421,4.421,0,0,0-2.19.6,3.093,3.093,0,0,0-1.4,1.916.381.381,0,0,0,.743.173c0-.006,0-.012,0-.019l.007-.039a2.424,2.424,0,0,1,1-1.483,3.845,3.845,0,0,1,1.857-.595,6.556,6.556,0,0,1,2.024.251,6.088,6.088,0,0,1,1.864.862.185.185,0,0,0,.258-.042.189.189,0,0,0-.038-.256" transform="translate(-157.82 -39.218)"/>
        <path id="Path_873934" data-name="Path 873934" d="M221.867,63.616s-1.824-4.639-5.206-1.441c0,0,1.313,4.557,5.206,1.441" transform="translate(-140.226 -39.513)" fill="#fff"/>
      </g>
    </g>
    <g id="Group_1099483" data-name="Group 1099483" transform="translate(-3087.834 -4432.566)">
      <g id="Group_1099482" data-name="Group 1099482" clip-path="url(#clip-path-11)">
        <path id="Path_873935" data-name="Path 873935" d="M222.152,62.505a1.653,1.653,0,1,1-1.916-1.745,1.857,1.857,0,0,1,1.916,1.745" transform="translate(-218.138 -60.852)"/>
      </g>
    </g>
    <g id="Group_1099485" data-name="Group 1099485" transform="translate(-3164.27 -4454.104)">
      <g id="Group_1099484" data-name="Group 1099484" clip-path="url(#clip-path-6)">
        <path id="Path_873937" data-name="Path 873937" d="M216.507,61.926a2.369,2.369,0,0,1,.981-.81,1.952,1.952,0,0,1,1.212-.1l.023,0,.008,0a2.926,2.926,0,0,1,1.5.76,3.915,3.915,0,0,1,.943,1.4l.009.023a.322.322,0,0,0,.6-.233l-.007-.016a4.463,4.463,0,0,0-1.181-1.589,3.425,3.425,0,0,0-1.8-.8l.03.006a2.36,2.36,0,0,0-1.5.186,2.71,2.71,0,0,0-1.081.987.156.156,0,0,0,.047.216.157.157,0,0,0,.211-.041" transform="translate(-139.943 -39.176)"/>
        <path id="Path_873938" data-name="Path 873938" d="M231.529,90.757a8.99,8.99,0,0,0,3.741-.894.218.218,0,0,0-.2-.385c-.043.022-4.14,2.142-6.985-.416a.219.219,0,0,0-.307.017.217.217,0,0,0,.016.307,5.44,5.44,0,0,0,3.739,1.37" transform="translate(-147.382 -57.607)"/>
        <path id="Path_873939" data-name="Path 873939" d="M278.668,46.944s-5.66-17.974,2.715-18.43l4.584,8.954-2.459,7.477Z" transform="translate(-179.147 -18.455)" fill="#823e22"/>
        <path id="Path_873940" data-name="Path 873940" d="M277.9,78.066a13.121,13.121,0,0,1,1.928-4.583c1.3-1.931,3.162-3.713,5.485-2.273,3.958,2.454-.945,8.8-5.3,8.86-1.28.019-2.336-.985-2.116-2" transform="translate(-179.842 -45.749)" fill="#fbb087"/>
        <path id="Path_873941" data-name="Path 873941" d="M282.072,83.051a.216.216,0,0,0,.2-.125c.065-.134,1.606-3.271,4.468-2.287a.218.218,0,1,0,.141-.412c-3.223-1.108-4.985,2.476-5,2.512a.217.217,0,0,0,.1.29.213.213,0,0,0,.094.022" transform="translate(-182.42 -51.786)"/>
        <path id="Path_873942" data-name="Path 873942" d="M234.819,14.5S213.937,19.9,206.737,10c0,0,13.233-7.384,24.5-1.3Z" transform="translate(-133.803 -4.072)" fill="#823e22"/>
        <path id="Path_873943" data-name="Path 873943" d="M262.629,7.263S258.081.093,249.766,0c0,0,2.276,5.741,7.215,7.318s5.648-.055,5.648-.055" transform="translate(-161.652)" fill="#823e22"/>
        <path id="Path_873944" data-name="Path 873944" d="M285.84,15.375s-.239-4.705-4.232-7.023c0,0-.468,3.4,1.488,5.507s2.744,1.516,2.744,1.516" transform="translate(-182.229 -5.406)" fill="#823e22"/>
      </g>
    </g>
  </g>
</svg>
