<svg xmlns="http://www.w3.org/2000/svg" xmlns:xlink="http://www.w3.org/1999/xlink" width="62.504" height="62.504" viewBox="0 0 62.504 62.504">
  <defs>
    <clipPath id="clip-path">
      <rect id="Rectangle_401085" data-name="Rectangle 401085" width="45.773" height="39.6" fill="#fff"/>
    </clipPath>
  </defs>
  <g id="Group_1099501" data-name="Group 1099501" transform="translate(-517 -1679)">
    <g id="Group_1099209" data-name="Group 1099209" transform="translate(237.678 480.283)">
      <g id="Group_1072053" data-name="Group 1072053" transform="translate(279.322 1198.717)">
        <circle id="Ellipse_4742" data-name="Ellipse 4742" cx="31.252" cy="31.252" r="31.252" transform="translate(0)" fill="#af2323"/>
      </g>
      <g id="Group_1099240" data-name="Group 1099240" transform="translate(288.322 1209.717)">
        <g id="Group_1099239" data-name="Group 1099239" clip-path="url(#clip-path)">
          <path id="Path_873403" data-name="Path 873403" d="M199.35,32.883c-1.064,0-2.037.008-3.009,0a2.169,2.169,0,0,1-2.446-2.417q0-3.194,0-6.388a2.168,2.168,0,0,1,2.422-2.376q6.581-.005,13.162,0a2.154,2.154,0,0,1,2.406,2.321q.027,3.263,0,6.527a2.132,2.132,0,0,1-2.387,2.33c-1.86.016-3.72-.016-5.579.023a1.64,1.64,0,0,0-.979.4c-.78.713-1.481,1.507-2.259,2.222a1.138,1.138,0,0,1-.9.313c-.221-.083-.387-.528-.414-.828-.061-.663-.019-1.335-.019-2.13m4.681-5.615a1.182,1.182,0,0,0-1.168-1.09,1.151,1.151,0,0,0-1.1,1.149,1.1,1.1,0,0,0,1.158,1.063,1.114,1.114,0,0,0,1.105-1.123m-3.806.007a1.124,1.124,0,0,0-2.247.043,1.106,1.106,0,0,0,1.147,1.074,1.092,1.092,0,0,0,1.1-1.117m7.562.048a1.106,1.106,0,0,0-1.079-1.147,1.127,1.127,0,0,0-1.142,1.094,1.082,1.082,0,0,0,1.088,1.122,1.062,1.062,0,0,0,1.133-1.069" transform="translate(-166.125 -18.682)" fill="#fff"/>
          <path id="Path_873404" data-name="Path 873404" d="M91.195,128.682v3.161c.95,0,1.871-.007,2.792,0a1.6,1.6,0,0,1,.759.112.776.776,0,0,1,.358.594c-.021.188-.283.383-.483.511a1.011,1.011,0,0,1-.491.043q-5.154,0-10.308,0c-.1,0-.218.034-.282-.01-.259-.182-.664-.356-.713-.591-.089-.431.293-.648.725-.657.811-.015,1.622-.007,2.434-.008h.7V128.72c-.23-.012-.481-.036-.732-.036-1.766,0-3.532.019-5.3-.021a1.551,1.551,0,0,1-.963-.409,5.087,5.087,0,0,0-3.007-1.578l1.83-3.2h25.809V111.66h1.282c.011.247.03.472.03.7q0,7.018,0,14.035c0,1.566-.733,2.283-2.363,2.286q-5.583.01-11.167,0h-.92" transform="translate(-65.71 -96.139)" fill="#fff"/>
          <path id="Path_873405" data-name="Path 873405" d="M.007,236.248c.067-1.787-.241-3.555.523-5.235A3.918,3.918,0,0,1,4.558,228.4c1.738.075,3.483.015,5.224.015a4.092,4.092,0,0,1,4.383,3.282,5.342,5.342,0,0,1,.239,1.224c.033,1.086.011,2.173.011,3.325Z" transform="translate(0 -196.648)" fill="#fff"/>
          <path id="Path_873406" data-name="Path 873406" d="M131.51,153.905H119.144a4.8,4.8,0,0,1,1.7-4.9,3.378,3.378,0,0,1,1.594-.488c1.644-.063,3.292-.023,4.939-.023a3.384,3.384,0,0,1,3.7,2.608,19.686,19.686,0,0,1,.433,2.807" transform="translate(-101.953 -127.838)" fill="#fff"/>
          <path id="Path_873407" data-name="Path 873407" d="M29.979,165.868a4.1,4.1,0,1,1-4.115-4.023,4.058,4.058,0,0,1,4.115,4.023" transform="translate(-18.658 -139.348)" fill="#fff"/>
          <path id="Path_873408" data-name="Path 873408" d="M58.317,40.057c.729.624.74.652,1.017,2.634h6.358v1.24H48.324c-1.027,0-1.215.18-1.216,1.165q0,4.9,0,9.791v.765h-1.3v-.739q0-4.86,0-9.721c0-1.807.666-2.466,2.52-2.5.14,0,.281-.014.468-.024a7.581,7.581,0,0,1,.187-1.428,7.82,7.82,0,0,1,.733-1.311,4.813,4.813,0,0,0,4.333,2.7,4.675,4.675,0,0,0,4.268-2.573" transform="translate(-39.247 -34.38)" fill="#fff"/>
          <path id="Path_873409" data-name="Path 873409" d="M80.768,7.358a3.735,3.735,0,0,1-3.8-3.7,3.79,3.79,0,0,1,7.577.047,3.721,3.721,0,0,1-3.773,3.65M82.1,3.665a1.352,1.352,0,0,0-1.363-1.317A1.393,1.393,0,0,0,79.392,3.7a1.34,1.34,0,0,0,1.379,1.3A1.3,1.3,0,0,0,82.1,3.665" transform="translate(-65.942 -0.001)" fill="#fff"/>
          <path id="Path_873410" data-name="Path 873410" d="M141.332,97.492a3.408,3.408,0,1,1,3.523-3.387,3.511,3.511,0,0,1-3.523,3.387" transform="translate(-118.097 -78.075)" fill="#fff"/>
        </g>
      </g>
    </g>
  </g>
</svg>
