<svg xmlns="http://www.w3.org/2000/svg" xmlns:xlink="http://www.w3.org/1999/xlink" width="62.504" height="62.504" viewBox="0 0 62.504 62.504">
  <defs>
    <clipPath id="clip-path">
      <rect id="Rectangle_378562" data-name="Rectangle 378562" width="41" height="41" transform="translate(19.893 27.212)" fill="none" stroke="#707070" stroke-width="1"/>
    </clipPath>
    <clipPath id="clip-path-2">
      <rect id="Rectangle_401082" data-name="Rectangle 401082" width="35.4" height="37.867" fill="#fff"/>
    </clipPath>
  </defs>
  <g id="Group_1099210" data-name="Group 1099210" transform="translate(-279.818 -1198.717)">
    <g id="Group_1072053" data-name="Group 1072053" transform="translate(279.818 1198.717)">
      <circle id="Ellipse_4742" data-name="Ellipse 4742" cx="31.252" cy="31.252" r="31.252" transform="translate(0)" fill="#af2323"/>
    </g>
    <g id="Group_1099208" data-name="Group 1099208" transform="translate(271.675 1181.505)">
      <g id="Mask_Group_1073351" data-name="Mask Group 1073351" clip-path="url(#clip-path)">
        <g id="Group_1099234" data-name="Group 1099234" transform="translate(22.893 29.212)">
          <g id="Group_1099233" data-name="Group 1099233" clip-path="url(#clip-path-2)">
            <path id="Path_873382" data-name="Path 873382" d="M55.681,59.418c-.094,1.3-.139,2.472-.271,3.638A28.89,28.89,0,0,0,56,71.774c.462,2.419.827,4.858,1.2,7.293a1.553,1.553,0,0,1-1.253,1.952,1.605,1.605,0,0,1-1.91-1.33Q52.472,74,50.917,68.313c-.041-.149-.106-.292-.208-.568-.652,2.389-1.268,4.646-1.885,6.9-.467,1.708-.925,3.418-1.406,5.122a1.583,1.583,0,0,1-1.5,1.288,1.434,1.434,0,0,1-1.519-.937,2.883,2.883,0,0,1-.094-1.351c.468-2.957,1-5.9,1.458-8.863.257-1.668.405-3.352.609-5.085,1.137-.231,1.387-.511,1.566-1.837a1.007,1.007,0,0,1,.257-.431.462.462,0,0,1,.243-.117c1.489-.368,1.921-1.3,1.81-2.848-.157-2.2-.04-4.424-.04-6.763L45.594,55a4.783,4.783,0,0,1,.2-.576,5.556,5.556,0,0,1,9.141-1.071c.906,1.029,1.736,2.128,2.655,3.262.2-.179.394-.353.588-.531q3.059-2.817,6.115-5.639c.3-.281.622-.447.949-.12a.594.594,0,0,1-.118.957c-1.9,1.462-2.892,3.649-4.268,5.528-.812,1.109-1.663,2.189-2.472,3.3a.588.588,0,0,1-.9.218c-.548-.312-1.125-.571-1.8-.908" transform="translate(-38.25 -43.193)" fill="#fff"/>
            <path id="Path_873383" data-name="Path 873383" d="M18.094,23.788l.147-1.238H34.163c.017-.293.044-.537.044-.78,0-6.583-.006-13.167.014-19.75,0-.623-.148-.814-.787-.813Q17.7,1.24,1.97,1.208c-.631,0-.794.177-.792.807.021,6.583.013,13.167.013,19.75v.771H6.767l.074,1.192a4.679,4.679,0,0,1-.5.057c-1.608,0-3.217.009-4.825,0C.476,23.779,0,23.313,0,22.271Q0,11.876,0,1.481A1.3,1.3,0,0,1,1.421,0C1.579,0,1.738,0,1.9,0H33.5c1.577,0,1.9.334,1.9,1.958q0,10.014,0,20.028c0,1.416-.381,1.8-1.782,1.8H18.094Z" transform="translate(0 0)" fill="#fff"/>
            <path id="Path_873384" data-name="Path 873384" d="M22.134,83.117c1.108.526,2.108.952,3.06,1.469a1.562,1.562,0,0,0,1.641-.007c.957-.508,1.95-.946,3.058-1.475v1.938c0,1.108-.036,2.219.014,3.325.029.642-.122,1.056-.775,1.214a4.066,4.066,0,0,0-.691.311,3.02,3.02,0,0,0-2.16-1.325,2.861,2.861,0,0,0-2.434.971c-.129.139-.461.265-.585.193-.4-.231-1.1-.168-1.114-.813-.043-1.89-.015-3.781-.015-5.8" transform="translate(-19.117 -71.585)" fill="#fff"/>
            <path id="Path_873385" data-name="Path 873385" d="M74.472,13.467a2.763,2.763,0,0,1,2.763,2.8,2.833,2.833,0,0,1-2.743,2.778,2.791,2.791,0,0,1-2.75-2.825,2.737,2.737,0,0,1,2.73-2.754" transform="translate(-61.99 -11.6)" fill="#fff"/>
            <path id="Path_873386" data-name="Path 873386" d="M180.534,139.192q-1.8,0-3.6,0c-.408,0-.814-.031-.834-.571-.021-.593.423-.636.846-.637q3.666-.009,7.333,0c.4,0,.826.051.839.581.014.572-.409.63-.852.628-1.245-.005-2.489,0-3.734,0" transform="translate(-152.163 -118.855)" fill="#fff"/>
            <path id="Path_873387" data-name="Path 873387" d="M180.572,110.554c1.266,0,2.532,0,3.8,0,.4,0,.75.084.742.581s-.353.583-.755.583q-3.764,0-7.529,0c-.4,0-.739-.1-.738-.6s.355-.569.751-.568c1.244,0,2.487,0,3.73,0" transform="translate(-152.154 -95.228)" fill="#fff"/>
            <path id="Path_873388" data-name="Path 873388" d="M199.657,82.577c.791,0,1.583,0,2.374,0,.423,0,.725.155.719.623-.005.449-.331.562-.705.563q-2.408,0-4.816,0c-.413,0-.755-.162-.728-.618.026-.437.362-.581.781-.572.791.017,1.583,0,2.374,0" transform="translate(-169.789 -71.126)" fill="#fff"/>
            <path id="Path_873389" data-name="Path 873389" d="M39.978,133.084c-.316,0-.633.01-.949,0-.619-.024-.791-.266-.651-.894a1.645,1.645,0,0,1,3.261.05c.1.646-.055.829-.713.846-.316.008-.632,0-.949,0" transform="translate(-33.121 -112.656)" fill="#fff"/>
            <path id="Path_873390" data-name="Path 873390" d="M211.629,55.946c-.5,0-.993,0-1.49,0-.4,0-.746-.133-.759-.6s.326-.624.727-.628q1.524-.014,3.048,0c.4,0,.736.156.723.63s-.363.592-.758.6c-.5.007-.993,0-1.49,0" transform="translate(-180.918 -47.127)" fill="#fff"/>
          </g>
        </g>
      </g>
    </g>
  </g>
</svg>
