<svg xmlns="http://www.w3.org/2000/svg" xmlns:xlink="http://www.w3.org/1999/xlink" width="138" height="138" viewBox="0 0 138 138">
  <defs>
    <clipPath id="clip-path">
      <rect id="Rectangle_400938" data-name="Rectangle 400938" width="138" height="138" transform="translate(0 0)" fill="none"/>
    </clipPath>
    <clipPath id="clip-path-2">
      <path id="Path_615713" data-name="Path 615713" d="M39.94,5.484C20.2,12.8,5.067,30.537,1.325,51.084A66.8,66.8,0,0,0,0,64.3a67.71,67.71,0,0,0,54.317,66.361,57.777,57.777,0,0,0,13.176,1.181c16.739-1.893,26.961-17.926,25.858-34.26-.9-16.334-1.5-35.574,13.6-45.424,3.849-3.363,7.321-6.1,10.234-8.493,8.331-5.308,11.638-17.433,4.423-24.648C108.6,5.871,89.862,0,71.084,0A90.94,90.94,0,0,0,39.94,5.484" fill="#12405a"/>
    </clipPath>
    <clipPath id="clip-path-3">
      <rect id="Rectangle_378821" data-name="Rectangle 378821" width="141.717" height="141.718" fill="#12405a"/>
    </clipPath>
    <clipPath id="clip-path-4">
      <path id="Path_615689" data-name="Path 615689" d="M78.28,77.975.307,0Q.1,1.934,0,3.876l74.407,74.4q1.937-.1,3.874-.3" transform="translate(0 0)" fill="#12405a"/>
    </clipPath>
    <clipPath id="clip-path-5">
      <path id="Path_615690" data-name="Path 615690" d="M10.05,12.622A70.855,70.855,0,0,0,22.672,22.671L0,0A71.032,71.032,0,0,0,10.05,12.622" fill="#12405a"/>
    </clipPath>
    <clipPath id="clip-path-6">
      <path id="Path_615691" data-name="Path 615691" d="M.931,5.11l53.94,53.942q2.535.554,5.1.926L0,0C.25,1.711.555,3.416.931,5.11" fill="#12405a"/>
    </clipPath>
    <clipPath id="clip-path-7">
      <path id="Path_615692" data-name="Path 615692" d="M2.473,6.657,39.508,43.691a70.145,70.145,0,0,0,6.655,2.473L0,0A69.881,69.881,0,0,0,2.473,6.657" fill="#12405a"/>
    </clipPath>
    <clipPath id="clip-path-8">
      <path id="Path_615693" data-name="Path 615693" d="M.175,4.355,65.732,69.91c1.451.106,2.9.161,4.352.177L0,0Q.021,2.178.175,4.355" fill="#12405a"/>
    </clipPath>
    <clipPath id="clip-path-9">
      <path id="Path_615694" data-name="Path 615694" d="M90.221,86.994,3.226,0C2.145.294,1.068.611,0,.957L89.266,90.222q.514-1.607.955-3.228" transform="translate(0 0)" fill="#12405a"/>
    </clipPath>
    <clipPath id="clip-path-10">
      <path id="Path_615695" data-name="Path 615695" d="M84.922,81.4,3.519,0C2.341.2,1.167.413,0,.665l84.257,84.26c.252-1.172.472-2.342.665-3.521" transform="translate(0)" fill="#12405a"/>
    </clipPath>
    <clipPath id="clip-path-11">
      <path id="Path_615696" data-name="Path 615696" d="M78.285,74.408,3.877,0C2.583.066,1.29.172,0,.308L77.978,78.283c.137-1.287.24-2.583.306-3.874" transform="translate(0)" fill="#12405a"/>
    </clipPath>
    <clipPath id="clip-path-12">
      <path id="Path_615697" data-name="Path 615697" d="M94.4,91.425,2.973,0Q1.475.571,0,1.2L93.193,94.4q.636-1.476,1.207-2.973" transform="translate(0 0)" fill="#12405a"/>
    </clipPath>
    <clipPath id="clip-path-13">
      <path id="Path_615698" data-name="Path 615698" d="M97.6,94.848,2.754,0Q1.362.681,0,1.431L96.173,97.6c.5-.913.974-1.828,1.43-2.757" transform="translate(0 0)" fill="#12405a"/>
    </clipPath>
    <clipPath id="clip-path-14">
      <path id="Path_615699" data-name="Path 615699" d="M69.914,65.734,4.359.177Q2.179.022,0,0L70.091,70.092c-.016-1.454-.073-2.909-.177-4.358" fill="#12405a"/>
    </clipPath>
    <clipPath id="clip-path-15">
      <path id="Path_615700" data-name="Path 615700" d="M43.689,39.5,6.661,2.475Q3.384,1.068,0,0L46.166,46.163A69.944,69.944,0,0,0,43.689,39.5" fill="#12405a"/>
    </clipPath>
    <clipPath id="clip-path-16">
      <path id="Path_615701" data-name="Path 615701" d="M84.918,84.256.661,0Q.285,1.748,0,3.517l81.4,81.4q1.765-.289,3.515-.663" transform="translate(0)" fill="#12405a"/>
    </clipPath>
    <clipPath id="clip-path-17">
      <path id="Path_615702" data-name="Path 615702" d="M12.622,10.051A71.214,71.214,0,0,0,0,0L22.673,22.676A71,71,0,0,0,12.622,10.051" fill="#12405a"/>
    </clipPath>
    <clipPath id="clip-path-18">
      <path id="Path_615703" data-name="Path 615703" d="M59.048,54.871,5.108.931C3.416.555,1.711.25,0,0L59.98,59.976c-.25-1.709-.558-3.415-.931-5.106" fill="#12405a"/>
    </clipPath>
    <clipPath id="clip-path-19">
      <path id="Path_615704" data-name="Path 615704" d="M99.931,97.376,2.555,0C1.693.523.839,1.064,0,1.626l98.3,98.3q.845-1.266,1.63-2.555" transform="translate(0)" fill="#12405a"/>
    </clipPath>
    <clipPath id="clip-path-20">
      <path id="Path_615705" data-name="Path 615705" d="M99.929,98.3,1.629,0Q.784,1.259,0,2.551L97.379,99.929c.856-.52,1.708-1.067,2.55-1.629" transform="translate(0 0)" fill="#12405a"/>
    </clipPath>
    <clipPath id="clip-path-21">
      <path id="Path_615706" data-name="Path 615706" d="M97.605,96.174,1.432,0Q.684,1.362,0,2.757L94.849,97.6c.927-.454,1.845-.934,2.756-1.431" transform="translate(0 0)" fill="#12405a"/>
    </clipPath>
    <clipPath id="clip-path-22">
      <path id="Path_615707" data-name="Path 615707" d="M94.4,93.192,1.207,0C.781.984.376,1.979,0,2.98L91.423,94.4q1.5-.57,2.979-1.211" fill="#12405a"/>
    </clipPath>
    <clipPath id="clip-path-23">
      <path id="Path_615708" data-name="Path 615708" d="M90.229,89.269.957,0Q.441,1.606,0,3.23L87,90.224c1.084-.294,2.158-.61,3.233-.955" transform="translate(0 0)" fill="#12405a"/>
    </clipPath>
    <clipPath id="clip-path-24">
      <path id="Path_615709" data-name="Path 615709" d="M101.447,99.63,1.82,0C1.2.78.585,1.564,0,2.363l99.091,99.089c.795-.587,1.578-1.2,2.356-1.821" fill="#12405a"/>
    </clipPath>
    <clipPath id="clip-path-25">
      <path id="Path_615710" data-name="Path 615710" d="M102.192,100.011,2.182,0Q1.073.975,0,2L100.193,102.193q1.027-1.077,2-2.182" transform="translate(0 0)" fill="#12405a"/>
    </clipPath>
    <clipPath id="clip-path-26">
      <path id="Path_615711" data-name="Path 615711" d="M102.195,100.19,2,0Q.974,1.074,0,2.179L100.012,102.193q1.106-.974,2.182-2" transform="translate(0 0)" fill="#12405a"/>
    </clipPath>
    <clipPath id="clip-path-27">
      <path id="Path_615712" data-name="Path 615712" d="M101.45,99.091,2.362,0C1.563.587.78,1.2,0,1.823l99.627,99.628c.626-.776,1.236-1.564,1.823-2.36" transform="translate(0)" fill="#12405a"/>
    </clipPath>
    <clipPath id="clip-path-28">
      <rect id="Rectangle_401134" data-name="Rectangle 401134" width="74.694" height="57.013" fill="#fff"/>
    </clipPath>
  </defs>
  <g id="Group_1099301" data-name="Group 1099301" transform="translate(-308 -9535)">
    <g id="Mask_Group_1098657" data-name="Mask Group 1098657" transform="translate(308 9535)" clip-path="url(#clip-path)">
      <g id="Group_1098881" data-name="Group 1098881" transform="translate(3.03 130.371) rotate(-90)">
        <g id="Group_1074821" data-name="Group 1074821" transform="translate(0 0)" clip-path="url(#clip-path-2)">
          <g id="Group_1074820" data-name="Group 1074820" transform="translate(-5.034 -9.854)" opacity="0.5">
            <g id="Group_1074819" data-name="Group 1074819" style="isolation: isolate">
              <g id="Group_1074818" data-name="Group 1074818" clip-path="url(#clip-path-3)">
                <g id="Group_1074771" data-name="Group 1074771" transform="translate(0.086 63.35)">
                  <g id="Group_1074770" data-name="Group 1074770" transform="translate(0 0)" clip-path="url(#clip-path-4)">
                    <rect id="Rectangle_378797" data-name="Rectangle 378797" width="110.705" height="110.705" transform="translate(-39.14 39.14) rotate(-45)" fill="#12405a"/>
                  </g>
                </g>
                <g id="Group_1074773" data-name="Group 1074773" transform="translate(10.699 108.346)">
                  <g id="Group_1074772" data-name="Group 1074772" clip-path="url(#clip-path-5)">
                    <rect id="Rectangle_378798" data-name="Rectangle 378798" width="32.062" height="32.062" transform="translate(-11.336 11.336) rotate(-45)" fill="#12405a"/>
                  </g>
                </g>
                <g id="Group_1074775" data-name="Group 1074775" transform="translate(0.718 81.021)">
                  <g id="Group_1074774" data-name="Group 1074774" clip-path="url(#clip-path-6)">
                    <rect id="Rectangle_378799" data-name="Rectangle 378799" width="84.821" height="84.821" transform="translate(-29.989 29.989) rotate(-45)" fill="#12405a"/>
                  </g>
                </g>
                <g id="Group_1074777" data-name="Group 1074777" transform="translate(3.291 92.262)">
                  <g id="Group_1074776" data-name="Group 1074776" clip-path="url(#clip-path-7)">
                    <rect id="Rectangle_378800" data-name="Rectangle 378800" width="65.285" height="65.285" transform="translate(-23.082 23.082) rotate(-45)" fill="#12405a"/>
                  </g>
                </g>
                <g id="Group_1074779" data-name="Group 1074779" transform="translate(0 71.63)">
                  <g id="Group_1074778" data-name="Group 1074778" clip-path="url(#clip-path-8)">
                    <rect id="Rectangle_378801" data-name="Rectangle 378801" width="99.116" height="99.116" transform="translate(-35.044 35.044) rotate(-45)" fill="#12405a"/>
                  </g>
                </g>
                <g id="Group_1074781" data-name="Group 1074781" transform="translate(49.031 2.465)">
                  <g id="Group_1074780" data-name="Group 1074780" transform="translate(0 0)" clip-path="url(#clip-path-9)">
                    <rect id="Rectangle_378802" data-name="Rectangle 378802" width="127.592" height="127.592" transform="translate(-45.111 45.111) rotate(-45)" fill="#12405a"/>
                  </g>
                </g>
                <g id="Group_1074783" data-name="Group 1074783" transform="translate(55.871 0.924)">
                  <g id="Group_1074782" data-name="Group 1074782" transform="translate(0 0)" clip-path="url(#clip-path-10)">
                    <rect id="Rectangle_378803" data-name="Rectangle 378803" width="120.1" height="120.1" transform="translate(-42.463 42.463) rotate(-45)" fill="#12405a"/>
                  </g>
                </g>
                <g id="Group_1074785" data-name="Group 1074785" transform="translate(63.346 0.087)">
                  <g id="Group_1074784" data-name="Group 1074784" transform="translate(0 0)" clip-path="url(#clip-path-11)">
                    <rect id="Rectangle_378804" data-name="Rectangle 378804" width="110.71" height="110.71" transform="translate(-39.141 39.141) rotate(-45)" fill="#12405a"/>
                  </g>
                </g>
                <g id="Group_1074787" data-name="Group 1074787" transform="translate(42.731 4.587)">
                  <g id="Group_1074786" data-name="Group 1074786" transform="translate(0 0)" clip-path="url(#clip-path-12)">
                    <rect id="Rectangle_378805" data-name="Rectangle 378805" width="133.5" height="133.5" transform="translate(-47.199 47.199) rotate(-45)" fill="#12405a"/>
                  </g>
                </g>
                <g id="Group_1074789" data-name="Group 1074789" transform="translate(36.903 7.211)">
                  <g id="Group_1074788" data-name="Group 1074788" transform="translate(0 0)" clip-path="url(#clip-path-13)">
                    <rect id="Rectangle_378806" data-name="Rectangle 378806" width="138.033" height="138.033" transform="translate(-48.802 48.802) rotate(-45)" fill="#12405a"/>
                  </g>
                </g>
                <g id="Group_1074791" data-name="Group 1074791" transform="translate(71.626 0)">
                  <g id="Group_1074790" data-name="Group 1074790" clip-path="url(#clip-path-14)">
                    <rect id="Rectangle_378807" data-name="Rectangle 378807" width="99.124" height="99.124" transform="translate(-35.046 35.046) rotate(-45)" fill="#12405a"/>
                  </g>
                </g>
                <g id="Group_1074793" data-name="Group 1074793" transform="translate(92.262 3.291)">
                  <g id="Group_1074792" data-name="Group 1074792" clip-path="url(#clip-path-15)">
                    <rect id="Rectangle_378808" data-name="Rectangle 378808" width="65.286" height="65.286" transform="translate(-23.082 23.082) rotate(-45)" fill="#12405a"/>
                  </g>
                </g>
                <g id="Group_1074795" data-name="Group 1074795" transform="translate(0.924 55.875)">
                  <g id="Group_1074794" data-name="Group 1074794" transform="translate(0 0)" clip-path="url(#clip-path-16)">
                    <rect id="Rectangle_378809" data-name="Rectangle 378809" width="120.093" height="120.093" transform="translate(-42.459 42.459) rotate(-45)" fill="#12405a"/>
                  </g>
                </g>
                <g id="Group_1074797" data-name="Group 1074797" transform="translate(108.346 10.698)">
                  <g id="Group_1074796" data-name="Group 1074796" clip-path="url(#clip-path-17)">
                    <rect id="Rectangle_378810" data-name="Rectangle 378810" width="32.067" height="32.067" transform="translate(-11.338 11.338) rotate(-45)" fill="#12405a"/>
                  </g>
                </g>
                <g id="Group_1074799" data-name="Group 1074799" transform="translate(81.02 0.72)">
                  <g id="Group_1074798" data-name="Group 1074798" clip-path="url(#clip-path-18)">
                    <rect id="Rectangle_378811" data-name="Rectangle 378811" width="84.822" height="84.822" transform="translate(-29.988 29.988) rotate(-45)" fill="#12405a"/>
                  </g>
                </g>
                <g id="Group_1074801" data-name="Group 1074801" transform="translate(31.502 10.285)">
                  <g id="Group_1074800" data-name="Group 1074800" transform="translate(0 0)" clip-path="url(#clip-path-19)">
                    <rect id="Rectangle_378812" data-name="Rectangle 378812" width="141.324" height="141.324" transform="translate(-49.965 49.965) rotate(-45)" fill="#12405a"/>
                  </g>
                </g>
                <g id="Group_1074803" data-name="Group 1074803" transform="translate(10.283 31.504)">
                  <g id="Group_1074802" data-name="Group 1074802" transform="translate(0 0)" clip-path="url(#clip-path-20)">
                    <rect id="Rectangle_378813" data-name="Rectangle 378813" width="141.321" height="141.321" transform="translate(-49.964 49.964) rotate(-45)" fill="#12405a"/>
                  </g>
                </g>
                <g id="Group_1074805" data-name="Group 1074805" transform="translate(7.209 36.903)" style="isolation: isolate">
                  <g id="Group_1074804" data-name="Group 1074804" transform="translate(0 0)" clip-path="url(#clip-path-21)">
                    <rect id="Rectangle_378814" data-name="Rectangle 378814" width="138.034" height="138.034" transform="translate(-48.802 48.802) rotate(-45)" fill="#12405a"/>
                  </g>
                </g>
                <g id="Group_1074807" data-name="Group 1074807" transform="translate(4.587 42.73)">
                  <g id="Group_1074806" data-name="Group 1074806" transform="translate(0 0)" clip-path="url(#clip-path-22)">
                    <rect id="Rectangle_378815" data-name="Rectangle 378815" width="133.505" height="133.505" transform="translate(-47.201 47.201) rotate(-45)" fill="#12405a"/>
                  </g>
                </g>
                <g id="Group_1074809" data-name="Group 1074809" transform="translate(2.463 49.028)">
                  <g id="Group_1074808" data-name="Group 1074808" transform="translate(0 0)" clip-path="url(#clip-path-23)">
                    <rect id="Rectangle_378816" data-name="Rectangle 378816" width="127.599" height="127.599" transform="translate(-45.112 45.112) rotate(-45)" fill="#12405a"/>
                  </g>
                </g>
                <g id="Group_1074811" data-name="Group 1074811" transform="translate(13.765 26.502)">
                  <g id="Group_1074810" data-name="Group 1074810" transform="translate(0 0)" clip-path="url(#clip-path-24)">
                    <rect id="Rectangle_378817" data-name="Rectangle 378817" width="143.471" height="143.471" transform="translate(-50.726 50.726) rotate(-45)" fill="#12405a"/>
                  </g>
                </g>
                <g id="Group_1074813" data-name="Group 1074813" transform="translate(21.885 17.64)">
                  <g id="Group_1074812" data-name="Group 1074812" transform="translate(0 0)" clip-path="url(#clip-path-25)">
                    <rect id="Rectangle_378818" data-name="Rectangle 378818" width="144.522" height="144.522" transform="translate(-51.097 51.097) rotate(-45)" fill="#12405a"/>
                  </g>
                </g>
                <g id="Group_1074815" data-name="Group 1074815" transform="translate(17.639 21.886)">
                  <g id="Group_1074814" data-name="Group 1074814" transform="translate(0 0)" clip-path="url(#clip-path-26)">
                    <rect id="Rectangle_378819" data-name="Rectangle 378819" width="144.524" height="144.524" transform="translate(-51.096 51.096) rotate(-45)" fill="#12405a"/>
                  </g>
                </g>
                <g id="Group_1074817" data-name="Group 1074817" transform="translate(26.503 13.762)">
                  <g id="Group_1074816" data-name="Group 1074816" transform="translate(0 0)" clip-path="url(#clip-path-27)">
                    <rect id="Rectangle_378820" data-name="Rectangle 378820" width="143.473" height="143.473" transform="translate(-50.726 50.726) rotate(-45)" fill="#12405a"/>
                  </g>
                </g>
              </g>
            </g>
          </g>
        </g>
      </g>
    </g>
    <ellipse id="Ellipse_11492" data-name="Ellipse 11492" cx="42.5" cy="45" rx="42.5" ry="45" transform="translate(351 9539)" fill="#b1ec93" opacity="0.6"/>
    <path id="Union_5" data-name="Union 5" d="M0,54a54,54,0,1,1,54,54A54,54,0,0,1,0,54Z" transform="translate(322 9549)" fill="#af2323" stroke="rgba(0,0,0,0)" stroke-miterlimit="10" stroke-width="1"/>
    <g id="Group_1098912" data-name="Group 1098912" transform="translate(339.667 9565.986)">
      <path id="Path_873216" data-name="Path 873216" d="M0,0H71.808V71.81H0Z" transform="translate(0 0)" fill="none"/>
      <g id="Group_1099309" data-name="Group 1099309" transform="translate(0.839 7.398)">
        <g id="Group_1099308" data-name="Group 1099308" clip-path="url(#clip-path-28)">
          <path id="Path_873635" data-name="Path 873635" d="M38.288,26.156A15.233,15.233,0,0,1,48.342,15.747c-4.328-4.226-4.9-8.989-1.65-12.794A8.516,8.516,0,0,1,58.135,1.644c4.109,2.948,4.51,7.567,1.119,13,1.187.391,2.411.689,3.546,1.187,4.271,1.875,6.7,5.384,8.328,9.579a50.063,50.063,0,0,1,2.825,12.952c.347,3.289.543,6.6.717,9.9.288,5.476-2.024,8.141-7.522,8.459-3.382.2-6.783.08-10.175.109-1.916.016-3.839.141-5.746.025a22.806,22.806,0,0,1-3.631-.766,7.411,7.411,0,0,0-1.339-.357c-1.524-.045-3.051-.043-4.576-.012-2.317.047-4.635-.267-6.885.859A8.243,8.243,0,0,1,31.2,57c-7.93-.05-15.859-.169-23.789-.233C2.707,56.732-.172,53.823.008,49.124c.268-7.006.687-14,2.606-20.8,1.251-4.428,3.074-8.59,7.093-11.222a43.136,43.136,0,0,1,5.663-2.662,8.575,8.575,0,0,1-1.988-8.21,8.276,8.276,0,0,1,3.78-4.974A8.472,8.472,0,0,1,28.456,3.5c2.278,3.035,2.659,8.4-2.142,12.224A15.192,15.192,0,0,1,36.392,26.1c.339.021.639.046.94.055s.6,0,.956,0m-4.47-.164a12.32,12.32,0,0,0-6.339-7.229,20.33,20.33,0,0,0-10.293-1.786,11.593,11.593,0,0,0-7.439,3.069c-2.577,2.4-3.885,5.521-4.821,8.814C2.98,35.7,2.636,42.748,2.339,49.79a4.456,4.456,0,0,0,4.619,4.62q9.021.023,18.042,0a9.029,9.029,0,0,0,.989-.106V49.751c-3.752-.318-7.435-.593-11.11-.954-2.964-.292-4.234-2.039-3.882-5,.457-3.844.851-7.7,1.244-11.547.088-.866.328-1.645,1.314-1.606,1.055.042,1.129.89,1.044,1.739-.378,3.766-.7,7.539-1.146,11.3-.264,2.225.04,2.7,2.288,2.867,1.78.131,3.569.2,5.333.451.948.132,1.307-.213,1.623-1.014,2.2-5.576,4.522-11.1,6.608-16.721.8-2.157,1.736-3.631,4.3-3.151.031.006.07-.036.214-.116M71.55,38.1a46.155,46.155,0,0,0-3.074-12.9c-1.664-3.794-4.155-6.806-8.368-7.8A19.1,19.1,0,0,0,46.9,18.936a11.836,11.836,0,0,0-5.982,7.069c.165.073.24.134.314.134q3.989.014,7.979.017c2.213,0,2.6.541,1.793,2.549q-4.65,11.617-9.306,23.232c-.166.414-.293.842-.452,1.306h4.13c0-.547-.018-1.016,0-1.484a5.538,5.538,0,0,1,6.849-5.151,16.329,16.329,0,0,0,3.832.343c1.52-.022,3.035-.267,4.555-.381,1.41-.106,1.862-.685,1.707-2.131-.427-3.981-.821-7.966-1.239-11.948-.083-.8-.088-1.537.945-1.658.993-.117,1.279.521,1.352,1.356.038.434.1.865.15,1.3q.265,2.306.528,4.62ZM38.511,53.049l.154.065,9.843-24.57c-5.392,0-10.53-.015-15.667.036-.322,0-.794.457-.936.807-2.325,5.71-4.61,11.436-6.9,17.163a3.856,3.856,0,0,0-.135.732,13.316,13.316,0,0,1,2.291.2,2.331,2.331,0,0,0,2.439-.819,5.276,5.276,0,0,1,9.1,3.674c0,.9-.123,1.808-.191,2.712M64.3,40.6c.139,1.414.269,2.747.4,4.08a3.714,3.714,0,0,1-3.355,4.2c-2.165.218-4.334.445-6.507.527a13.017,13.017,0,0,1-3.016-.418,3.2,3.2,0,0,0-3.326.951,2.765,2.765,0,0,0-.58,3.034c.534,1.266,1.624,1.549,2.9,1.522,2.222-.047,4.446-.022,6.668-.032,3.22-.015,6.444.055,9.661-.074,3.831-.154,5.418-2,5.206-5.785-.086-1.523-.161-3.046-.265-4.568-.079-1.156-.195-2.31-.292-3.44ZM47.028,8.53A6.056,6.056,0,0,0,53,14.659a6.209,6.209,0,0,0,6.313-6.126,6.293,6.293,0,0,0-6.183-6.16,6.094,6.094,0,0,0-6.1,6.157m-19.345.019A6.1,6.1,0,0,0,21.6,2.373a6.29,6.29,0,0,0-6.2,6.142,6.2,6.2,0,0,0,6.294,6.144,6.053,6.053,0,0,0,5.994-6.11M28.438,54.6c1.478,0,2.823.107,4.144-.022,2.779-.271,3.853-1.624,3.733-4.428a2.725,2.725,0,0,0-1.754-2.515,2.806,2.806,0,0,0-3.046.448c-.81.628-1.695,1.158-2.518,1.77a1.237,1.237,0,0,0-.534.733c-.055,1.245-.025,2.495-.025,4.014" transform="translate(0 0)" fill="#fff"/>
        </g>
      </g>
    </g>
  </g>
</svg>
