<svg xmlns="http://www.w3.org/2000/svg" xmlns:xlink="http://www.w3.org/1999/xlink" width="62.504" height="62.504" viewBox="0 0 62.504 62.504">
  <defs>
    <clipPath id="clip-path">
      <rect id="Rectangle_378562" data-name="Rectangle 378562" width="41" height="41" transform="translate(20.143 27.212)" fill="none" stroke="#707070" stroke-width="1"/>
    </clipPath>
    <clipPath id="clip-path-2">
      <rect id="Rectangle_401084" data-name="Rectangle 401084" width="38.521" height="36.08" fill="#fff"/>
    </clipPath>
  </defs>
  <g id="Group_1099211" data-name="Group 1099211" transform="translate(-279.818 -1198.717)">
    <g id="Group_1072053" data-name="Group 1072053" transform="translate(279.818 1198.717)">
      <circle id="Ellipse_4742" data-name="Ellipse 4742" cx="31.252" cy="31.252" r="31.252" transform="translate(0)" fill="#af2323"/>
    </g>
    <g id="Group_1099208" data-name="Group 1099208" transform="translate(270.675 1182.505)">
      <g id="Mask_Group_1073351" data-name="Mask Group 1073351" clip-path="url(#clip-path)">
        <g id="Group_1099238" data-name="Group 1099238" transform="translate(21.143 29.212)">
          <g id="Group_1099237" data-name="Group 1099237" clip-path="url(#clip-path-2)">
            <path id="Path_873396" data-name="Path 873396" d="M23.243,23.172H56.175V43.927H23.243ZM51.394,38.283c.311.459.546.836.812,1.189a.621.621,0,0,0,.942.186.655.655,0,0,0,.166-.961c-.266-.429-.531-.86-.832-1.263a2.066,2.066,0,0,1-.411-1.347c.026-1.681,0-3.363.014-5.044a.973.973,0,0,0-.6-1.007c-3.77-1.783-7.529-3.589-11.3-5.358a1.27,1.27,0,0,0-.958,0q-5.664,2.654-11.3,5.377c-.248.12-.565.459-.55.675a1.135,1.135,0,0,0,.564.733c.771.427,1.575.8,2.383,1.149a.664.664,0,0,1,.465.724c-.023,1.357.008,2.715-.018,4.071a1,1,0,0,0,.62,1.05q3.879,1.93,7.736,3.907a1.146,1.146,0,0,0,1.137.012q3.887-1.982,7.788-3.938a.93.93,0,0,0,.584-.949c-.021-1.4-.013-2.8,0-4.193,0-.179.054-.454.172-.519.586-.32,1.2-.585,1.884-.906,0,1-.062,1.9.014,2.782a4.755,4.755,0,0,1-1.126,3.866.63.63,0,0,0-.072.1.687.687,0,0,0,.16,1.055c.4.266.725.078.973-.277s.468-.693.753-1.117" transform="translate(-20.446 -20.355)" fill="#fff"/>
            <path id="Path_873397" data-name="Path 873397" d="M38.511,205.792c0,.977.025,1.908-.008,2.837a1.369,1.369,0,0,1-1.267,1.317,5.235,5.235,0,0,1-.6.01H1.875C.454,209.956,0,209.5,0,208.078c0-.747,0-1.495,0-2.286ZM19.27,207.166c-.642,0-1.283.006-1.925,0-.47-.006-.809.183-.818.678s.313.7.793.694q1.925-.012,3.849,0c.471,0,.815-.17.818-.67,0-.533-.36-.713-.853-.7-.621.011-1.243,0-1.864,0" transform="translate(0 -180.775)" fill="#fff"/>
            <path id="Path_873398" data-name="Path 873398" d="M1.362,23.575H0v-.66Q0,12.341,0,1.767C0,.462.449,0,1.718,0H36.792c1.252,0,1.722.464,1.722,1.7q0,10.635,0,21.27v.589H37.153v-.791q0-10.057,0-20.115c0-1.124-.149-1.278-1.229-1.279H2.594c-1.083,0-1.232.155-1.233,1.275q0,10.057,0,20.115Z" transform="translate(0 0.001)" fill="#fff"/>
            <path id="Path_873399" data-name="Path 873399" d="M132.458,251.686a19.234,19.234,0,0,0,.441,2.122,18.376,18.376,0,0,0,.87,1.939h-8.16A7.467,7.467,0,0,0,127,251.686Z" transform="translate(-110.492 -221.09)" fill="#fff"/>
            <path id="Path_873400" data-name="Path 873400" d="M90.031,285.115h8.538c.18,0,.418-.061.528.03.223.184.525.458.518.687s-.337.464-.567.639c-.1.079-.311.021-.471.021H81.5c-.16,0-.367.058-.472-.02-.233-.173-.59-.432-.573-.627.022-.255.329-.517.568-.708.112-.09.349-.023.529-.023h8.478" transform="translate(-70.773 -250.434)" fill="#fff"/>
            <path id="Path_873401" data-name="Path 873401" d="M94.921,51.075H87.153c-.015-.263.048-.549-.061-.725-.161-.259-.448-.609-.678-.606a.907.907,0,0,0-.65.614,17.958,17.958,0,0,0,0,2.849.9.9,0,0,0,.655.6c.23,0,.508-.35.674-.607.1-.16.039-.43.052-.691h7.666a3.667,3.667,0,0,1-.37.244c-2.513,1.2-5.026,2.4-7.547,3.587a.982.982,0,0,1-.712.1c-3.248-1.518-6.483-3.063-9.83-4.654l2.441-1.163c2.407-1.145,4.811-2.295,7.225-3.423a.959.959,0,0,1,.713-.053c2.614,1.222,5.214,2.471,7.818,3.715.084.04.162.092.369.213" transform="translate(-67.165 -41.374)" fill="#fff"/>
            <path id="Path_873402" data-name="Path 873402" d="M97.12,108.046c2.272,1.079,4.427,2.095,6.569,3.136a.724.724,0,0,1,.286.513c.044.4,0,.809.02,1.213.023.443.254.74.713.731.427-.009.632-.3.674-.713a.8.8,0,0,0,0-.242c-.235-1.086.279-1.593,1.252-1.993,1.684-.691,3.3-1.543,4.95-2.326.193-.092.394-.168.668-.284,0,1.222.01,2.369-.013,3.515a.573.573,0,0,1-.293.385q-3.479,1.781-6.977,3.524a.781.781,0,0,1-.608-.023q-3.472-1.728-6.922-3.5a.625.625,0,0,1-.305-.436c-.026-1.129-.014-2.258-.014-3.5" transform="translate(-85.429 -94.911)" fill="#fff"/>
          </g>
        </g>
      </g>
    </g>
  </g>
</svg>
