<svg xmlns="http://www.w3.org/2000/svg" xmlns:xlink="http://www.w3.org/1999/xlink" width="70" height="70" viewBox="0 0 70 70">
  <defs>
    <clipPath id="clip-path">
      <rect id="Rectangle_401147" data-name="Rectangle 401147" width="37.3" height="44.436" fill="#12405a"/>
    </clipPath>
  </defs>
  <g id="Group_1099504" data-name="Group 1099504" transform="translate(-300 -2964)">
    <g id="Group_1071455" data-name="Group 1071455" transform="translate(31 2006)">
      <circle id="Ellipse_5614" data-name="Ellipse 5614" cx="35" cy="35" r="35" transform="translate(269 958)" fill="#fff"/>
      <g id="Group_1099318" data-name="Group 1099318" transform="translate(285.35 970.782)">
        <g id="Group_1099317" data-name="Group 1099317" clip-path="url(#clip-path)">
          <path id="Path_873637" data-name="Path 873637" d="M157.45,160.388c0,1.036.04,2.027-.014,3.012-.035.643-.58.9-1.116,1.095q-4.729,1.763-9.458,3.525c-1.072.4-2.142.808-3.267,1.233v-19.7l6.983-2.632c1.6-.6,3.2-1.173,4.785-1.809,1.245-.5,2.245.151,2.119,1.48-.076.8-.014,1.614-.014,2.476-.322.03-.614.041-.9.086a3.664,3.664,0,0,0-3.322,3.3,18.836,18.836,0,0,0,.024,4.69,3.639,3.639,0,0,0,3.8,3.224c.092,0,.183.012.379.025" transform="translate(-123.659 -124.818)" fill="#12405a"/>
          <path id="Path_873638" data-name="Path 873638" d="M25.036,160.393a3.891,3.891,0,0,0,4-2.37,2.516,2.516,0,0,0,.269-.994,32.422,32.422,0,0,0-.066-4.628,3.685,3.685,0,0,0-3.787-3.262c-.111-.006-.222-.016-.4-.029,0-1.061-.052-2.1.016-3.127.057-.858.956-1.244,1.938-.88,2.55.946,5.094,1.907,7.641,2.862l4.258,1.6v19.7c-1.191-.439-2.332-.855-3.469-1.28q-4.63-1.731-9.258-3.469c-.925-.347-1.139-.653-1.143-1.648,0-.8,0-1.606,0-2.47" transform="translate(-21.558 -124.839)" fill="#12405a"/>
          <path id="Path_873639" data-name="Path 873639" d="M88.649,14.725a7.279,7.279,0,0,1-7.372-7.371A7.359,7.359,0,1,1,96,7.4a7.279,7.279,0,0,1-7.347,7.326" transform="translate(-69.993 0)" fill="#12405a"/>
          <path id="Path_873640" data-name="Path 873640" d="M81.285,117.06c-2.126.8-4.125,1.556-6.126,2.307-1.165.438-2.328.884-3.5,1.294a1.393,1.393,0,0,1-.863.055c-3.179-1.172-6.348-2.373-9.519-3.569a2.451,2.451,0,0,1-.3-.264,5.616,5.616,0,0,0,.559-.291c.729-.487,1.446-.993,2.176-1.478a3.088,3.088,0,0,1,3.469-.244,9.189,9.189,0,0,0,8.832-.388,1.207,1.207,0,0,1,1.224-.056,15.422,15.422,0,0,1,4.048,2.633" transform="translate(-52.511 -98.42)" fill="#12405a"/>
          <path id="Path_873641" data-name="Path 873641" d="M5.177,196.871c0,.6.006,1.2,0,1.8a1.127,1.127,0,0,1-.89,1.178c-2.6.55-4.558-1.047-4.252-3.492a3.071,3.071,0,0,1,2.488-2.465.68.68,0,0,1,.069,0c1.889-.035,2.745-.259,2.591,2.358-.012.207,0,.416,0,.624" transform="translate(0 -166.954)" fill="#12405a"/>
          <path id="Path_873642" data-name="Path 873642" d="M231.244,196.859c0-.6-.017-1.2.005-1.8a1.2,1.2,0,0,1,1.235-1.22,3.535,3.535,0,0,1,3.171.982,2.931,2.931,0,0,1,.593,3.03,2.861,2.861,0,0,1-2.428,2,5.557,5.557,0,0,1-.829.05c-1.343.005-1.746-.394-1.748-1.719q0-.658,0-1.317" transform="translate(-199.134 -166.91)" fill="#12405a"/>
        </g>
      </g>
    </g>
  </g>
</svg>
