<svg xmlns="http://www.w3.org/2000/svg" xmlns:xlink="http://www.w3.org/1999/xlink" width="70" height="70" viewBox="0 0 70 70">
  <defs>
    <clipPath id="clip-path">
      <rect id="Rectangle_401149" data-name="Rectangle 401149" width="47" height="47" transform="translate(281 970)" fill="none" stroke="#707070" stroke-width="1"/>
    </clipPath>
    <clipPath id="clip-path-2">
      <rect id="Rectangle_401148" data-name="Rectangle 401148" width="35.043" height="44.6" fill="#12405a"/>
    </clipPath>
  </defs>
  <g id="Group_1099505" data-name="Group 1099505" transform="translate(-610 -2964)">
    <g id="Group_1072265" data-name="Group 1072265" transform="translate(341 2006)">
      <circle id="Ellipse_5614" data-name="Ellipse 5614" cx="35" cy="35" r="35" transform="translate(269 958)" fill="#fff"/>
      <g id="Mask_Group_1098671" data-name="Mask Group 1098671" clip-path="url(#clip-path)">
        <g id="Group_1099320" data-name="Group 1099320" transform="translate(286.478 971.4)">
          <g id="Group_1099319" data-name="Group 1099319" clip-path="url(#clip-path-2)">
            <path id="Path_873643" data-name="Path 873643" d="M22.3,0c0,2.626-.048,5.168.027,7.706a6.223,6.223,0,0,0,.589,2.507,4.442,4.442,0,0,0,4.2,2.518c2.6.034,5.2.009,7.93.009V13.6q0,12.975,0,25.949A4.765,4.765,0,0,1,30.022,44.6q-12.5.005-24.994,0A4.768,4.768,0,0,1,0,39.555Q0,22.282,0,5.009A4.761,4.761,0,0,1,4.983,0C10.713,0,16.444,0,22.3,0M12.759,28.669c1.513,0,3.026.009,4.539,0a1.633,1.633,0,0,0,1.812-1.826c.01-1.009.021-2.018-.005-3.026a4.526,4.526,0,0,0-3.885-4.544,20.388,20.388,0,0,0-4.984.005,4.524,4.524,0,0,0-3.852,4.491c-.031.981-.012,1.964-.008,2.946,0,1.362.582,1.951,1.924,1.956,1.486.006,2.973,0,4.459,0m4.758-15.924A4.774,4.774,0,1,0,12.7,17.518a4.792,4.792,0,0,0,4.815-4.773m-.005,23.887c3.1,0,6.21,0,9.315,0a1.647,1.647,0,0,0,1.838-1.559c.02-.948-.734-1.607-1.859-1.619-.478-.005-.955,0-1.433,0q-8.519,0-17.037,0c-.672,0-1.356.08-1.639.726a2.413,2.413,0,0,0-.111,1.557,1.447,1.447,0,0,0,1.533.905q4.7-.005,9.394,0M25.474,20.7v0c.557,0,1.116.03,1.671-.007a1.579,1.579,0,0,0-.02-3.156c-1.086-.04-2.176-.038-3.262,0a1.577,1.577,0,0,0-1.558,1.587A1.608,1.608,0,0,0,23.883,20.7c.529.029,1.061.005,1.591.005m-.039,7.962c.557,0,1.115.026,1.671-.006a1.6,1.6,0,0,0,1.558-1.593,1.576,1.576,0,0,0-1.5-1.563c-1.112-.045-2.229-.044-3.341,0a1.57,1.57,0,0,0-1.517,1.545,1.6,1.6,0,0,0,1.539,1.61c.528.034,1.061.006,1.591.007" transform="translate(0 0)" fill="#12405a"/>
            <path id="Path_873644" data-name="Path 873644" d="M168.249,16.285c-2.125,0-4.406.016-6.686-.008a1.528,1.528,0,0,1-1.568-1.565c-.024-2.28-.008-4.561-.008-6.712l8.262,8.285" transform="translate(-134.502 -6.726)" fill="#12405a"/>
          </g>
        </g>
      </g>
    </g>
  </g>
</svg>
